<svg id="svg" version="1.1" xmlns="http://www.w3.org/2000/svg" xmlns:xlink="http://www.w3.org/1999/xlink" width="400" height="400" viewBox="0, 0, 400,400"><g id="svgg"><path id="path0" d="M190.400 51.600 C 190.400 51.842,188.667 52.000,186.000 52.000 C 183.333 52.000,181.600 52.158,181.600 52.400 C 181.600 52.628,180.408 52.800,178.824 52.800 C 177.297 52.800,175.936 52.980,175.800 53.200 C 175.664 53.420,174.663 53.600,173.576 53.600 C 172.489 53.600,171.600 53.780,171.600 54.000 C 171.600 54.220,170.700 54.400,169.600 54.400 C 168.500 54.400,167.600 54.580,167.600 54.800 C 167.600 55.020,166.880 55.200,166.000 55.200 C 165.120 55.200,164.400 55.380,164.400 55.600 C 164.400 55.820,163.781 56.000,163.024 56.000 C 162.267 56.000,161.536 56.180,161.400 56.400 C 161.264 56.620,160.533 56.800,159.776 56.800 C 159.019 56.800,158.400 56.980,158.400 57.200 C 158.400 57.420,157.860 57.600,157.200 57.600 C 156.540 57.600,156.000 57.780,156.000 58.000 C 156.000 58.220,155.571 58.400,155.046 58.400 C 154.022 58.400,150.247 59.440,149.105 60.037 C 148.723 60.237,148.220 60.400,147.986 60.400 C 147.752 60.400,146.816 60.760,145.906 61.200 C 144.995 61.640,143.924 62.000,143.525 62.000 C 143.126 62.000,142.800 62.180,142.800 62.400 C 142.800 62.620,142.440 62.800,142.000 62.800 C 141.560 62.800,141.200 62.980,141.200 63.200 C 141.200 63.420,140.928 63.600,140.595 63.600 C 140.262 63.600,139.632 63.780,139.195 64.000 C 138.758 64.220,138.042 64.580,137.605 64.800 C 137.168 65.020,136.538 65.200,136.205 65.200 C 135.872 65.200,135.599 65.335,135.597 65.500 C 135.593 65.859,133.656 66.800,132.920 66.800 C 132.634 66.800,132.400 66.980,132.400 67.200 C 132.400 67.420,132.040 67.600,131.600 67.600 C 131.160 67.600,130.800 67.736,130.800 67.902 C 130.800 68.069,130.215 68.464,129.500 68.780 C 128.785 69.097,127.851 69.680,127.425 70.078 C 126.998 70.475,126.413 70.800,126.125 70.800 C 125.836 70.800,125.600 70.980,125.600 71.200 C 125.600 71.420,125.240 71.600,124.800 71.600 C 124.360 71.600,124.000 71.780,124.000 72.000 C 124.000 72.220,123.680 72.400,123.288 72.400 C 122.897 72.400,122.317 72.760,122.000 73.200 C 121.683 73.640,121.143 74.000,120.800 74.000 C 120.457 74.000,119.917 74.360,119.600 74.800 C 119.283 75.240,118.731 75.600,118.373 75.600 C 118.015 75.600,117.313 75.955,116.814 76.388 C 116.314 76.822,115.566 77.284,115.152 77.415 C 114.739 77.546,114.400 77.779,114.400 77.933 C 114.400 78.086,113.680 78.656,112.800 79.200 C 111.920 79.744,111.200 80.326,111.200 80.494 C 111.200 80.662,111.002 80.800,110.760 80.800 C 110.519 80.800,109.817 81.340,109.200 82.000 C 108.583 82.660,107.899 83.200,107.680 83.200 C 107.461 83.200,106.362 84.100,105.239 85.200 C 104.115 86.300,103.002 87.200,102.764 87.200 C 102.217 87.200,87.200 102.243,87.200 102.790 C 87.200 103.013,86.300 104.115,85.200 105.239 C 84.100 106.362,83.200 107.461,83.200 107.680 C 83.200 107.899,82.660 108.583,82.000 109.200 C 81.340 109.817,80.800 110.519,80.800 110.760 C 80.800 111.002,80.662 111.200,80.494 111.200 C 80.326 111.200,79.744 111.920,79.200 112.800 C 78.656 113.680,78.086 114.400,77.933 114.400 C 77.779 114.400,77.546 114.739,77.415 115.152 C 77.284 115.566,76.822 116.314,76.388 116.814 C 75.955 117.313,75.600 118.015,75.600 118.373 C 75.600 118.731,75.240 119.283,74.800 119.600 C 74.360 119.917,74.000 120.457,74.000 120.800 C 74.000 121.143,73.640 121.683,73.200 122.000 C 72.760 122.317,72.400 122.897,72.400 123.288 C 72.400 123.680,72.220 124.000,72.000 124.000 C 71.780 124.000,71.600 124.360,71.600 124.800 C 71.600 125.240,71.420 125.600,71.200 125.600 C 70.980 125.600,70.800 125.870,70.800 126.200 C 70.800 126.530,70.620 126.800,70.400 126.800 C 70.180 126.800,70.000 127.070,70.000 127.400 C 70.000 127.730,69.820 128.000,69.600 128.000 C 69.380 128.000,69.200 128.360,69.200 128.800 C 69.200 129.240,69.020 129.600,68.800 129.600 C 68.580 129.600,68.400 129.870,68.400 130.200 C 68.400 130.530,68.220 130.800,68.000 130.800 C 67.780 130.800,67.600 131.160,67.600 131.600 C 67.600 132.040,67.420 132.400,67.200 132.400 C 66.980 132.400,66.800 132.653,66.800 132.962 C 66.800 133.271,66.449 134.216,66.019 135.062 C 64.530 137.996,63.600 140.153,63.600 140.675 C 63.600 140.964,63.420 141.200,63.200 141.200 C 62.980 141.200,62.800 141.560,62.800 142.000 C 62.800 142.440,62.620 142.800,62.400 142.800 C 62.180 142.800,62.000 143.126,62.000 143.525 C 62.000 143.924,61.640 144.995,61.200 145.906 C 60.760 146.816,60.400 147.752,60.400 147.986 C 60.400 148.220,60.237 148.723,60.037 149.105 C 59.440 150.247,58.400 154.022,58.400 155.046 C 58.400 155.571,58.220 156.000,58.000 156.000 C 57.780 156.000,57.600 156.540,57.600 157.200 C 57.600 157.860,57.420 158.400,57.200 158.400 C 56.980 158.400,56.800 159.019,56.800 159.776 C 56.800 160.533,56.620 161.264,56.400 161.400 C 56.180 161.536,56.000 162.267,56.000 163.024 C 56.000 163.781,55.820 164.400,55.600 164.400 C 55.380 164.400,55.200 165.120,55.200 166.000 C 55.200 166.880,55.020 167.600,54.800 167.600 C 54.580 167.600,54.400 168.500,54.400 169.600 C 54.400 170.700,54.220 171.600,54.000 171.600 C 53.780 171.600,53.600 172.489,53.600 173.576 C 53.600 174.663,53.420 175.664,53.200 175.800 C 52.980 175.936,52.800 177.297,52.800 178.824 C 52.800 180.408,52.628 181.600,52.400 181.600 C 52.159 181.600,52.000 183.259,52.000 185.776 C 52.000 188.129,51.825 190.061,51.600 190.200 C 51.057 190.535,51.057 209.465,51.600 209.800 C 51.825 209.939,52.000 211.871,52.000 214.224 C 52.000 216.741,52.159 218.400,52.400 218.400 C 52.629 218.400,52.800 219.600,52.800 221.200 C 52.800 222.800,52.971 224.000,53.200 224.000 C 53.420 224.000,53.600 224.990,53.600 226.200 C 53.600 227.410,53.780 228.400,54.000 228.400 C 54.220 228.400,54.400 229.300,54.400 230.400 C 54.400 231.500,54.580 232.400,54.800 232.400 C 55.020 232.400,55.200 233.098,55.200 233.951 C 55.200 236.212,55.873 236.576,60.160 236.628 C 66.848 236.709,74.800 242.677,74.800 247.614 C 74.800 248.020,74.980 248.464,75.200 248.600 C 75.420 248.736,75.600 250.266,75.600 252.000 C 75.600 253.734,75.420 255.264,75.200 255.400 C 74.980 255.536,74.800 255.980,74.800 256.386 C 74.800 258.310,70.622 263.904,68.227 265.185 C 67.211 265.729,66.629 267.047,67.238 267.423 C 67.437 267.546,67.600 267.997,67.600 268.424 C 67.600 268.851,67.780 269.200,68.000 269.200 C 68.220 269.200,68.400 269.470,68.400 269.800 C 68.400 270.130,68.580 270.400,68.800 270.400 C 69.020 270.400,69.200 270.678,69.200 271.017 C 69.200 271.356,69.560 272.020,70.000 272.492 C 70.440 272.964,70.800 273.587,70.800 273.875 C 70.800 274.164,70.980 274.400,71.200 274.400 C 71.420 274.400,71.600 274.760,71.600 275.200 C 71.600 275.640,71.780 276.000,72.000 276.000 C 72.220 276.000,72.400 276.320,72.400 276.712 C 72.400 277.103,72.760 277.683,73.200 278.000 C 73.640 278.317,74.000 278.857,74.000 279.200 C 74.000 279.543,74.360 280.083,74.800 280.400 C 75.240 280.717,75.600 281.269,75.600 281.627 C 75.600 281.985,75.960 282.693,76.400 283.200 C 76.840 283.707,77.200 284.262,77.200 284.433 C 77.200 284.603,77.425 284.985,77.700 285.281 C 78.650 286.304,80.800 289.154,80.800 289.390 C 80.800 289.520,81.430 290.257,82.200 291.027 C 82.970 291.797,83.600 292.596,83.600 292.803 C 83.600 293.010,84.410 293.989,85.400 294.979 C 86.390 295.969,87.200 296.975,87.200 297.215 C 87.200 297.786,102.214 312.800,102.785 312.800 C 103.025 312.800,104.031 313.610,105.021 314.600 C 106.011 315.590,106.990 316.400,107.197 316.400 C 107.404 316.400,108.203 317.030,108.973 317.800 C 109.743 318.570,110.559 319.200,110.787 319.200 C 111.014 319.200,111.200 319.338,111.200 319.506 C 111.200 319.674,111.920 320.256,112.800 320.800 C 113.680 321.344,114.400 321.914,114.400 322.067 C 114.400 322.221,114.739 322.454,115.152 322.585 C 115.566 322.716,116.314 323.178,116.814 323.612 C 117.313 324.045,118.055 324.400,118.461 324.400 C 118.868 324.400,119.200 324.550,119.200 324.732 C 119.200 324.915,119.695 325.319,120.300 325.630 C 120.905 325.940,121.691 326.511,122.047 326.897 C 122.403 327.284,122.988 327.600,123.347 327.600 C 123.706 327.600,124.000 327.780,124.000 328.000 C 124.000 328.220,124.360 328.400,124.800 328.400 C 125.240 328.400,125.600 328.580,125.600 328.800 C 125.600 329.020,125.870 329.200,126.200 329.200 C 126.530 329.200,126.800 329.380,126.800 329.600 C 126.800 329.820,127.070 330.000,127.400 330.000 C 127.730 330.000,128.001 330.135,128.001 330.300 C 128.002 330.465,128.992 331.050,130.200 331.600 C 131.408 332.150,132.398 332.735,132.399 332.900 C 132.399 333.065,132.634 333.200,132.920 333.200 C 133.656 333.200,135.593 334.141,135.597 334.500 C 135.599 334.665,135.872 334.800,136.205 334.800 C 136.538 334.800,137.168 334.980,137.605 335.200 C 138.042 335.420,138.758 335.780,139.195 336.000 C 139.632 336.220,140.262 336.400,140.595 336.400 C 140.928 336.400,141.200 336.580,141.200 336.800 C 141.200 337.020,141.560 337.200,142.000 337.200 C 142.440 337.200,142.800 337.380,142.800 337.600 C 142.800 337.820,143.126 338.000,143.525 338.000 C 143.924 338.000,144.995 338.360,145.906 338.800 C 146.816 339.240,147.752 339.600,147.986 339.600 C 148.220 339.600,148.723 339.763,149.105 339.963 C 150.247 340.560,154.022 341.600,155.046 341.600 C 155.571 341.600,156.000 341.780,156.000 342.000 C 156.000 342.220,156.540 342.400,157.200 342.400 C 157.860 342.400,158.400 342.580,158.400 342.800 C 158.400 343.020,159.019 343.200,159.776 343.200 C 160.533 343.200,161.264 343.380,161.400 343.600 C 161.536 343.820,162.267 344.000,163.024 344.000 C 163.781 344.000,164.400 344.180,164.400 344.400 C 164.400 344.620,165.109 344.800,165.976 344.800 C 166.843 344.800,167.664 344.980,167.800 345.200 C 167.936 345.420,168.847 345.600,169.824 345.600 C 170.801 345.600,171.600 345.780,171.600 346.000 C 171.600 346.223,172.675 346.400,174.024 346.400 C 175.537 346.400,176.354 346.550,176.200 346.800 C 176.044 347.052,176.996 347.200,178.776 347.200 C 180.392 347.200,181.600 347.371,181.600 347.600 C 181.600 347.842,183.333 348.000,186.000 348.000 C 188.667 348.000,190.400 348.158,190.400 348.400 C 190.400 348.656,193.867 348.800,200.000 348.800 C 206.133 348.800,209.600 348.656,209.600 348.400 C 209.600 348.158,211.333 348.000,214.000 348.000 C 216.667 348.000,218.400 347.842,218.400 347.600 C 218.400 347.371,219.600 347.200,221.200 347.200 C 222.800 347.200,224.000 347.029,224.000 346.800 C 224.000 346.580,224.990 346.400,226.200 346.400 C 227.410 346.400,228.400 346.220,228.400 346.000 C 228.400 345.780,229.199 345.600,230.176 345.600 C 231.153 345.600,232.064 345.420,232.200 345.200 C 232.336 344.980,233.157 344.800,234.024 344.800 C 234.891 344.800,235.600 344.620,235.600 344.400 C 235.600 344.180,236.320 344.000,237.200 344.000 C 238.080 344.000,238.800 343.820,238.800 343.600 C 238.800 343.380,239.430 343.200,240.200 343.200 C 240.970 343.200,241.600 343.020,241.600 342.800 C 241.600 342.580,242.140 342.400,242.800 342.400 C 243.460 342.400,244.000 342.240,244.000 342.044 C 244.000 341.848,244.675 341.576,245.500 341.441 C 248.200 340.996,248.381 340.953,248.659 340.675 C 248.810 340.524,249.343 340.400,249.843 340.400 C 250.343 340.400,250.864 340.220,251.000 340.000 C 251.136 339.780,251.515 339.600,251.843 339.600 C 252.171 339.600,253.184 339.240,254.094 338.800 C 255.005 338.360,256.076 338.000,256.475 338.000 C 256.874 338.000,257.200 337.820,257.200 337.600 C 257.200 337.380,257.560 337.200,258.000 337.200 C 258.440 337.200,258.800 337.020,258.800 336.800 C 258.800 336.580,259.079 336.400,259.419 336.400 C 259.760 336.400,260.784 336.040,261.694 335.600 C 262.605 335.160,263.586 334.800,263.875 334.800 C 264.164 334.800,264.400 334.620,264.400 334.400 C 264.400 334.180,264.760 334.000,265.200 334.000 C 265.640 334.000,266.000 333.820,266.000 333.600 C 266.000 333.380,266.360 333.200,266.800 333.200 C 267.240 333.200,267.600 333.020,267.600 332.800 C 267.600 332.580,267.960 332.400,268.400 332.400 C 268.840 332.400,269.200 332.220,269.200 332.000 C 269.200 331.780,269.470 331.600,269.800 331.600 C 270.130 331.600,270.400 331.420,270.400 331.200 C 270.400 330.980,270.760 330.800,271.200 330.800 C 271.640 330.800,272.000 330.620,272.000 330.400 C 272.000 330.180,272.270 330.000,272.600 330.000 C 272.930 330.000,273.200 329.820,273.200 329.600 C 273.200 329.380,273.470 329.200,273.800 329.200 C 274.130 329.200,274.400 329.020,274.400 328.800 C 274.400 328.580,274.760 328.400,275.200 328.400 C 275.640 328.400,276.000 328.220,276.000 328.000 C 276.000 327.780,276.320 327.600,276.712 327.600 C 277.103 327.600,277.683 327.240,278.000 326.800 C 278.317 326.360,278.857 326.000,279.200 326.000 C 279.543 326.000,280.083 325.640,280.400 325.200 C 280.717 324.760,281.269 324.400,281.627 324.400 C 281.985 324.400,282.693 324.040,283.200 323.600 C 283.707 323.160,284.262 322.800,284.433 322.800 C 284.603 322.800,284.985 322.575,285.281 322.300 C 286.356 321.302,289.160 319.200,289.416 319.200 C 289.561 319.200,290.183 318.660,290.800 318.000 C 291.417 317.340,292.101 316.800,292.320 316.800 C 292.539 316.800,293.638 315.900,294.761 314.800 C 295.885 313.700,296.986 312.800,297.209 312.800 C 297.757 312.800,312.800 297.762,312.800 297.214 C 312.800 296.975,313.610 295.969,314.600 294.979 C 315.590 293.989,316.400 293.010,316.400 292.803 C 316.400 292.596,317.030 291.797,317.800 291.027 C 318.570 290.257,319.200 289.441,319.200 289.213 C 319.200 288.986,319.338 288.800,319.506 288.800 C 319.674 288.800,320.256 288.080,320.800 287.200 C 321.344 286.320,321.914 285.600,322.067 285.600 C 322.221 285.600,322.454 285.261,322.585 284.848 C 322.716 284.434,323.178 283.686,323.612 283.186 C 324.045 282.687,324.400 281.985,324.400 281.627 C 324.400 281.269,324.760 280.717,325.200 280.400 C 325.640 280.083,326.000 279.543,326.000 279.200 C 326.000 278.857,326.360 278.317,326.800 278.000 C 327.240 277.683,327.600 277.103,327.600 276.712 C 327.600 276.320,327.780 276.000,328.000 276.000 C 328.220 276.000,328.400 275.640,328.400 275.200 C 328.400 274.760,328.580 274.400,328.800 274.400 C 329.020 274.400,329.200 274.164,329.200 273.875 C 329.200 273.587,329.560 272.964,330.000 272.492 C 330.440 272.020,330.800 271.356,330.800 271.017 C 330.800 270.678,330.980 270.400,331.200 270.400 C 331.420 270.400,331.600 270.130,331.600 269.800 C 331.600 269.470,331.780 269.200,332.000 269.200 C 332.220 269.200,332.400 268.840,332.400 268.400 C 332.400 267.960,332.580 267.600,332.800 267.600 C 333.020 267.600,333.200 267.240,333.200 266.800 C 333.200 266.360,333.380 266.000,333.600 266.000 C 333.820 266.000,334.000 265.640,334.000 265.200 C 334.000 264.760,334.180 264.400,334.400 264.400 C 334.620 264.400,334.800 264.128,334.800 263.795 C 334.800 263.462,334.980 262.832,335.200 262.395 C 335.420 261.958,335.780 261.242,336.000 260.805 C 336.220 260.368,336.400 259.738,336.400 259.405 C 336.400 259.072,336.580 258.800,336.800 258.800 C 337.020 258.800,337.200 258.440,337.200 258.000 C 337.200 257.560,337.380 257.200,337.600 257.200 C 337.820 257.200,338.000 256.874,338.000 256.475 C 338.000 256.076,338.360 255.005,338.800 254.094 C 339.240 253.184,339.600 252.248,339.600 252.014 C 339.600 251.780,339.763 251.277,339.963 250.895 C 340.560 249.753,341.600 245.978,341.600 244.954 C 341.600 244.429,341.780 244.000,342.000 244.000 C 342.220 244.000,342.400 243.460,342.400 242.800 C 342.400 242.140,342.580 241.600,342.800 241.600 C 343.020 241.600,343.200 240.970,343.200 240.200 C 343.200 239.430,343.380 238.800,343.600 238.800 C 343.820 238.800,344.000 238.080,344.000 237.200 C 344.000 236.320,344.180 235.600,344.400 235.600 C 344.620 235.600,344.800 234.891,344.800 234.024 C 344.800 233.157,344.980 232.336,345.200 232.200 C 345.420 232.064,345.600 231.153,345.600 230.176 C 345.600 229.199,345.780 228.400,346.000 228.400 C 346.220 228.400,346.400 227.410,346.400 226.200 C 346.400 224.990,346.580 224.000,346.800 224.000 C 347.029 224.000,347.200 222.800,347.200 221.200 C 347.200 219.600,347.371 218.400,347.600 218.400 C 347.841 218.400,348.000 216.741,348.000 214.224 C 348.000 211.871,348.175 209.939,348.400 209.800 C 348.649 209.646,348.800 205.937,348.800 200.000 C 348.800 194.063,348.649 190.354,348.400 190.200 C 348.175 190.061,348.000 188.129,348.000 185.776 C 348.000 183.259,347.841 181.600,347.600 181.600 C 347.371 181.600,347.200 180.392,347.200 178.776 C 347.200 176.996,347.052 176.044,346.800 176.200 C 346.550 176.354,346.400 175.537,346.400 174.024 C 346.400 172.675,346.223 171.600,346.000 171.600 C 345.780 171.600,345.600 170.700,345.600 169.600 C 345.600 168.500,345.420 167.600,345.200 167.600 C 344.980 167.600,344.800 166.880,344.800 166.000 C 344.800 165.120,344.620 164.400,344.400 164.400 C 344.180 164.400,344.000 163.680,344.000 162.800 C 344.000 161.920,343.820 161.200,343.600 161.200 C 343.380 161.200,343.200 160.570,343.200 159.800 C 343.200 159.030,343.020 158.400,342.800 158.400 C 342.580 158.400,342.400 157.860,342.400 157.200 C 342.400 156.540,342.220 156.000,342.000 156.000 C 341.780 156.000,341.600 155.571,341.600 155.046 C 341.600 154.022,340.560 150.247,339.963 149.105 C 339.763 148.723,339.600 148.220,339.600 147.986 C 339.600 147.752,339.240 146.816,338.800 145.906 C 338.360 144.995,338.000 143.924,338.000 143.525 C 338.000 143.126,337.820 142.800,337.600 142.800 C 337.380 142.800,337.200 142.440,337.200 142.000 C 337.200 141.560,337.020 141.200,336.800 141.200 C 336.580 141.200,336.400 140.928,336.400 140.595 C 336.400 140.262,336.243 139.677,336.050 139.295 C 334.552 136.320,334.000 135.047,334.000 134.562 C 334.000 134.253,333.820 134.000,333.600 134.000 C 333.380 134.000,333.200 133.640,333.200 133.200 C 333.200 132.760,333.020 132.400,332.800 132.400 C 332.580 132.400,332.400 132.040,332.400 131.600 C 332.400 131.160,332.220 130.800,332.000 130.800 C 331.780 130.800,331.600 130.530,331.600 130.200 C 331.600 129.870,331.420 129.600,331.200 129.600 C 330.980 129.600,330.800 129.322,330.800 128.983 C 330.800 128.644,330.440 127.980,330.000 127.508 C 329.560 127.036,329.200 126.413,329.200 126.125 C 329.200 125.836,329.020 125.600,328.800 125.600 C 328.580 125.600,328.400 125.240,328.400 124.800 C 328.400 124.360,328.220 124.000,328.000 124.000 C 327.780 124.000,327.600 123.680,327.600 123.288 C 327.600 122.897,327.240 122.317,326.800 122.000 C 326.360 121.683,326.000 121.169,326.000 120.859 C 326.000 120.548,325.669 120.003,325.264 119.647 C 324.859 119.291,324.406 118.505,324.256 117.900 C 324.107 117.295,323.808 116.800,323.592 116.800 C 323.377 116.800,323.200 116.564,323.200 116.275 C 323.200 115.987,322.885 115.396,322.500 114.962 C 321.179 113.472,319.200 110.847,319.200 110.584 C 319.200 110.439,318.660 109.817,318.000 109.200 C 317.340 108.583,316.800 107.899,316.800 107.680 C 316.800 107.461,315.900 106.362,314.800 105.239 C 313.700 104.115,312.800 103.035,312.800 102.839 C 312.800 102.643,311.495 101.139,309.900 99.498 C 308.305 97.858,306.439 95.904,305.754 95.157 C 303.903 93.141,297.658 87.425,297.099 87.236 C 296.832 87.145,295.950 86.380,295.138 85.536 C 294.327 84.691,293.469 84.000,293.231 84.000 C 292.994 84.000,292.800 83.820,292.800 83.600 C 292.800 83.380,292.602 83.200,292.360 83.200 C 292.119 83.200,291.417 82.660,290.800 82.000 C 290.183 81.340,289.481 80.800,289.240 80.800 C 288.998 80.800,288.800 80.659,288.800 80.486 C 288.800 80.314,288.305 79.879,287.700 79.521 C 287.095 79.163,286.060 78.404,285.400 77.835 C 284.740 77.266,283.975 76.801,283.700 76.800 C 283.425 76.800,283.200 76.623,283.200 76.408 C 283.200 76.192,282.705 75.893,282.100 75.744 C 281.495 75.594,280.709 75.141,280.353 74.736 C 279.997 74.331,279.452 74.000,279.141 74.000 C 278.831 74.000,278.317 73.640,278.000 73.200 C 277.683 72.760,277.103 72.400,276.712 72.400 C 276.320 72.400,276.000 72.220,276.000 72.000 C 276.000 71.780,275.640 71.600,275.200 71.600 C 274.760 71.600,274.400 71.420,274.400 71.200 C 274.400 70.980,274.130 70.800,273.800 70.800 C 273.470 70.800,273.200 70.620,273.200 70.400 C 273.200 70.180,272.930 70.000,272.600 70.000 C 272.270 70.000,272.000 69.854,272.000 69.675 C 272.000 69.496,271.370 69.102,270.600 68.800 C 269.830 68.498,269.200 68.104,269.200 67.925 C 269.200 67.746,268.840 67.600,268.400 67.600 C 267.960 67.600,267.600 67.420,267.600 67.200 C 267.600 66.980,267.328 66.800,266.995 66.800 C 266.439 66.800,264.878 66.078,264.400 65.600 C 264.186 65.386,262.224 64.589,260.100 63.854 C 259.385 63.607,258.800 63.268,258.800 63.102 C 258.800 62.936,258.440 62.800,258.000 62.800 C 257.560 62.800,257.200 62.620,257.200 62.400 C 257.200 62.180,256.786 62.000,256.280 62.000 C 255.774 62.000,255.189 61.841,254.980 61.647 C 254.771 61.452,253.430 60.899,252.000 60.418 C 250.570 59.936,249.130 59.436,248.800 59.306 C 248.470 59.176,248.110 59.036,248.000 58.995 C 247.890 58.955,247.031 58.781,246.091 58.608 C 245.151 58.436,244.286 58.139,244.168 57.947 C 244.049 57.756,243.423 57.600,242.776 57.600 C 242.129 57.600,241.600 57.420,241.600 57.200 C 241.600 56.980,240.981 56.800,240.224 56.800 C 239.467 56.800,238.736 56.620,238.600 56.400 C 238.464 56.180,237.834 56.000,237.200 56.000 C 236.566 56.000,235.936 55.820,235.800 55.600 C 235.664 55.380,234.843 55.200,233.976 55.200 C 233.109 55.200,232.400 55.020,232.400 54.800 C 232.400 54.580,231.500 54.400,230.400 54.400 C 229.300 54.400,228.400 54.220,228.400 54.000 C 228.400 53.780,227.410 53.600,226.200 53.600 C 224.990 53.600,224.000 53.420,224.000 53.200 C 224.000 52.971,222.800 52.800,221.200 52.800 C 219.600 52.800,218.400 52.629,218.400 52.400 C 218.400 52.158,216.667 52.000,214.000 52.000 C 211.333 52.000,209.600 51.842,209.600 51.600 C 209.600 51.344,206.133 51.200,200.000 51.200 C 193.867 51.200,190.400 51.344,190.400 51.600 M228.543 103.842 C 234.824 105.983,237.632 112.070,236.341 120.747 C 236.200 121.695,237.406 122.619,242.798 125.698 C 243.567 126.137,244.949 127.015,245.870 127.648 C 246.791 128.282,247.659 128.800,247.800 128.800 C 247.941 128.800,248.808 129.314,249.728 129.943 C 250.648 130.571,254.010 132.663,257.200 134.590 C 260.390 136.518,263.478 138.433,264.062 138.847 C 265.526 139.885,265.827 139.820,267.861 138.030 C 272.827 133.658,280.254 134.152,285.225 139.184 L 287.849 141.841 289.025 141.177 C 289.671 140.812,290.830 140.152,291.600 139.710 C 306.195 131.330,305.057 131.775,306.255 133.982 C 307.229 135.777,307.119 135.980,304.300 137.559 C 303.475 138.022,302.170 138.760,301.400 139.200 C 300.630 139.640,299.370 140.360,298.600 140.800 C 297.830 141.240,296.525 141.976,295.700 142.435 C 289.625 145.818,289.200 146.136,289.200 147.306 C 289.200 155.598,281.419 162.382,273.737 160.787 C 267.034 159.395,263.101 154.371,263.232 147.367 C 263.308 143.272,263.274 143.197,260.800 141.935 C 260.250 141.654,259.079 140.946,258.198 140.360 C 257.317 139.775,255.967 138.939,255.198 138.502 C 254.429 138.064,252.270 136.758,250.400 135.599 C 241.104 129.837,233.494 125.200,233.333 125.200 C 233.234 125.200,232.489 125.715,231.677 126.346 C 228.423 128.870,223.293 129.668,219.707 128.208 L 218.014 127.519 214.707 130.252 C 212.888 131.755,211.310 133.081,211.200 133.198 C 211.090 133.315,210.010 134.216,208.800 135.200 C 207.590 136.184,206.510 137.084,206.400 137.200 C 206.290 137.316,205.210 138.216,204.000 139.200 C 202.790 140.184,201.710 141.083,201.600 141.199 C 201.490 141.314,198.700 143.638,195.400 146.363 C 192.100 149.087,189.167 151.529,188.883 151.789 C 188.465 152.172,188.461 152.617,188.862 154.117 C 189.259 155.601,189.257 156.394,188.850 158.086 C 185.045 173.926,163.245 171.765,163.186 155.542 L 163.173 151.800 160.286 150.144 C 158.699 149.233,154.700 146.911,151.400 144.985 C 145.630 141.617,144.455 140.937,141.418 139.217 L 140.035 138.434 138.382 139.815 C 133.478 143.913,125.397 143.974,121.748 139.942 C 120.916 139.024,120.085 138.999,119.129 139.864 C 118.725 140.230,118.049 140.725,117.628 140.964 C 117.206 141.204,114.771 142.795,112.217 144.500 C 106.906 148.045,107.123 147.977,106.027 146.438 C 104.551 144.365,104.777 144.089,111.613 139.600 C 117.633 135.647,117.992 135.341,117.705 134.400 C 113.138 119.415,133.823 110.243,141.417 123.886 C 142.705 126.198,143.371 129.917,142.841 131.827 C 142.601 132.692,142.403 133.691,142.402 134.048 C 142.400 134.660,144.419 135.936,154.900 141.945 C 155.615 142.355,157.370 143.386,158.800 144.237 C 166.171 148.619,165.323 148.357,166.936 146.744 C 171.911 141.769,179.743 141.750,184.882 146.699 L 186.363 148.126 188.282 146.565 C 189.337 145.707,190.650 144.619,191.200 144.148 C 191.750 143.677,195.620 140.459,199.800 136.997 C 203.980 133.536,207.852 130.320,208.404 129.852 C 208.956 129.383,210.396 128.192,211.604 127.205 C 214.341 124.969,214.485 124.760,213.820 124.009 C 205.447 114.549,216.307 99.673,228.543 103.842 M244.004 226.600 C 244.116 256.740,244.251 281.445,244.304 281.500 C 244.357 281.555,246.920 281.600,250.000 281.600 C 253.080 281.600,255.642 281.555,255.694 281.500 C 255.746 281.445,255.881 266.640,255.994 248.600 L 256.200 215.800 273.754 215.696 C 286.381 215.621,291.461 215.719,291.854 216.045 C 292.307 216.421,292.400 222.021,292.400 248.990 L 292.400 281.481 295.851 281.725 C 299.835 282.006,300.800 282.579,300.800 284.662 C 300.800 286.967,299.740 287.600,295.880 287.600 C 294.054 287.600,292.376 287.784,292.152 288.008 C 291.880 288.280,285.731 288.348,273.772 288.212 C 251.497 287.959,248.503 287.959,226.228 288.212 C 214.269 288.348,208.120 288.280,207.848 288.008 C 207.310 287.470,196.532 287.463,196.200 288.000 C 195.850 288.567,160.706 288.546,160.139 287.979 C 159.859 287.699,157.710 287.638,153.759 287.797 C 132.606 288.648,104.768 287.994,103.767 286.624 C 101.847 283.993,103.572 282.043,108.098 281.726 L 111.597 281.481 111.698 236.841 L 111.800 192.200 130.000 192.200 L 148.200 192.200 148.302 236.900 L 148.403 281.600 154.202 281.600 L 160.000 281.600 160.000 256.796 L 160.000 231.992 178.100 232.096 L 196.200 232.200 196.303 256.900 L 196.406 281.600 202.003 281.600 L 207.600 281.600 207.600 227.020 C 207.600 175.462,207.639 172.417,208.300 172.030 C 208.756 171.763,215.074 171.651,226.400 171.710 L 243.800 171.800 244.004 226.600 M86.473 264.924 C 88.421 266.599,88.454 269.037,86.554 270.937 C 83.825 273.666,79.433 270.947,80.176 266.989 C 80.689 264.254,84.313 263.066,86.473 264.924 " stroke="none" fill="#fbe3a3" fill-rule="evenodd"></path><path id="path1" d="M221.200 103.651 C 212.513 106.003,208.607 115.933,213.569 123.057 L 214.722 124.713 213.261 126.102 C 212.458 126.865,206.400 131.952,199.800 137.406 C 193.200 142.860,187.491 147.587,187.114 147.911 C 186.495 148.442,186.230 148.321,184.402 146.678 C 179.605 142.365,172.419 142.344,167.653 146.628 C 166.569 147.603,165.602 148.400,165.504 148.400 C 165.335 148.400,158.253 144.327,150.200 139.600 C 148.220 138.437,145.970 137.142,145.200 136.721 C 141.948 134.945,141.854 134.795,142.420 132.266 C 143.900 125.653,139.227 119.028,132.034 117.543 C 123.956 115.874,115.863 123.900,117.522 131.934 C 118.311 135.753,118.549 135.423,111.790 139.901 C 105.441 144.108,105.112 144.483,106.246 146.214 C 107.149 147.593,106.974 147.667,114.064 142.920 C 118.564 139.908,120.605 138.753,120.958 139.020 C 127.327 143.853,133.307 143.892,138.730 139.138 L 140.060 137.972 141.330 138.751 C 142.408 139.413,145.869 141.433,151.000 144.395 C 151.660 144.776,153.190 145.679,154.400 146.400 C 156.547 147.680,157.803 148.408,160.545 149.962 C 163.876 151.850,163.683 151.563,163.405 154.227 C 162.095 166.784,177.035 173.611,185.423 164.288 C 187.709 161.747,188.576 159.113,188.503 154.930 C 188.446 151.663,188.448 151.659,189.788 150.636 C 190.527 150.073,191.371 149.384,191.665 149.104 C 191.959 148.825,193.190 147.790,194.400 146.804 C 195.610 145.818,196.690 144.916,196.800 144.800 C 196.910 144.684,197.990 143.784,199.200 142.800 C 200.410 141.816,201.490 140.915,201.600 140.797 C 204.230 137.984,218.211 127.139,218.763 127.484 C 222.186 129.622,228.853 128.669,232.226 125.561 C 233.294 124.576,233.255 124.570,235.706 126.150 C 238.471 127.932,247.261 133.345,247.803 133.600 C 248.229 133.800,259.629 140.826,262.539 142.681 C 263.767 143.465,264.029 143.837,263.838 144.531 C 260.865 155.351,272.159 164.350,282.079 159.065 C 285.746 157.112,288.061 153.322,288.704 148.220 C 288.962 146.167,289.152 145.782,290.200 145.191 C 290.860 144.818,292.120 144.102,293.000 143.600 C 293.880 143.098,295.410 142.237,296.400 141.686 C 299.587 139.914,305.786 136.290,306.272 135.914 C 306.623 135.642,306.537 135.200,305.932 134.175 C 304.983 132.566,304.671 132.515,302.800 133.661 C 302.030 134.132,300.815 134.852,300.100 135.259 C 297.345 136.829,296.138 137.523,294.400 138.535 C 293.410 139.111,291.478 140.166,290.107 140.879 L 287.613 142.174 285.661 139.987 C 280.517 134.223,272.730 133.733,267.381 138.837 C 265.869 140.280,265.552 140.281,263.470 138.848 C 262.549 138.215,261.167 137.339,260.398 136.902 C 259.629 136.464,257.470 135.160,255.600 134.003 C 253.730 132.847,250.850 131.079,249.200 130.076 C 247.550 129.073,244.247 127.025,241.860 125.526 C 239.473 124.027,237.386 122.800,237.222 122.800 C 235.982 122.800,235.646 121.371,236.288 118.825 C 238.507 110.013,229.853 101.309,221.200 103.651 M227.095 109.587 C 228.257 110.115,229.169 110.953,229.995 112.257 C 233.884 118.389,227.289 125.584,220.788 122.300 C 212.513 118.120,218.648 105.753,227.095 109.587 M133.031 123.559 C 136.975 125.350,138.343 130.391,135.879 134.049 C 133.183 138.049,126.769 138.053,124.113 134.055 C 120.089 127.999,126.415 120.553,133.031 123.559 M279.212 141.700 C 285.989 145.124,283.280 155.239,275.600 155.189 C 273.616 155.176,271.263 153.727,270.005 151.743 C 266.089 145.568,272.666 138.393,279.212 141.700 M178.181 149.243 C 183.889 150.828,184.832 158.768,179.700 162.023 C 173.361 166.042,165.979 158.605,170.005 152.257 C 171.872 149.312,174.690 148.274,178.181 149.243 M208.267 172.267 C 208.120 172.413,208.000 197.163,208.000 227.267 L 208.000 282.000 202.003 282.000 L 196.006 282.000 195.903 257.100 L 195.800 232.200 178.000 232.200 L 160.200 232.200 160.097 257.100 L 159.994 282.000 153.997 282.000 L 148.000 282.000 148.000 237.243 C 148.000 196.799,147.939 192.462,147.367 192.243 C 146.541 191.926,113.459 191.926,112.633 192.243 C 112.061 192.462,112.000 196.799,112.000 237.243 L 112.000 282.000 108.655 282.000 C 104.266 282.000,102.534 283.300,103.652 285.754 C 104.635 287.912,99.278 287.800,201.800 287.800 C 304.134 287.800,299.371 287.898,300.341 285.770 C 301.486 283.257,299.844 282.000,295.419 282.000 L 292.000 282.000 292.000 249.208 L 292.000 216.415 291.100 216.196 C 290.605 216.076,282.640 216.028,273.400 216.089 L 256.600 216.200 256.392 249.000 C 256.277 267.040,256.142 281.845,256.092 281.900 C 255.422 282.630,244.063 281.887,243.852 281.100 C 243.719 280.605,243.608 255.855,243.605 226.100 L 243.600 172.000 226.067 172.000 C 216.423 172.000,208.413 172.120,208.267 172.267 M238.200 229.800 L 238.200 281.800 226.000 281.800 L 213.800 281.800 213.697 230.200 C 213.641 201.820,213.681 178.372,213.787 178.094 C 213.937 177.698,216.617 177.611,226.090 177.694 L 238.200 177.800 238.200 229.800 M142.200 239.800 L 142.200 281.800 130.000 281.800 L 117.800 281.800 117.697 240.200 C 117.640 217.320,117.681 198.372,117.787 198.094 C 117.937 197.698,120.617 197.611,130.090 197.694 L 142.200 197.800 142.200 239.800 M285.903 221.931 C 286.300 222.184,286.384 228.470,286.303 252.025 L 286.200 281.800 274.000 281.800 L 261.800 281.800 261.697 252.200 C 261.640 235.920,261.679 222.375,261.784 222.100 C 262.003 221.525,285.010 221.364,285.903 221.931 M190.400 259.800 L 190.400 282.000 178.000 282.000 L 165.600 282.000 165.600 259.800 L 165.600 237.600 178.000 237.600 L 190.400 237.600 190.400 259.800 " stroke="none" fill="#563131" fill-rule="evenodd"></path><path id="path2" d="M345.600 87.600 C 345.600 87.820,345.195 88.000,344.700 88.001 C 343.705 88.002,341.200 89.943,341.200 90.712 C 341.200 90.980,341.020 91.200,340.800 91.200 C 340.580 91.200,340.400 91.470,340.400 91.800 C 340.400 92.130,340.220 92.400,340.000 92.400 C 339.763 92.400,339.600 93.867,339.600 96.000 C 339.600 98.133,339.763 99.600,340.000 99.600 C 340.220 99.600,340.400 99.864,340.400 100.187 C 340.400 100.927,342.825 103.600,343.497 103.600 C 343.774 103.600,344.000 103.780,344.000 104.000 C 344.000 104.220,344.462 104.400,345.026 104.400 C 345.591 104.400,346.427 104.600,346.884 104.845 C 347.710 105.287,349.927 104.880,351.695 103.961 C 352.077 103.762,352.589 103.600,352.834 103.600 C 353.523 103.600,355.579 101.224,356.222 99.685 C 356.878 98.116,357.015 92.800,356.400 92.800 C 356.180 92.800,356.000 92.525,356.000 92.189 C 356.000 91.158,352.540 88.000,351.411 88.000 C 350.855 88.000,350.400 87.820,350.400 87.600 C 350.400 87.378,349.333 87.200,348.000 87.200 C 346.667 87.200,345.600 87.378,345.600 87.600 M220.200 103.600 C 219.181 104.038,220.232 104.038,221.600 103.600 C 222.404 103.343,222.443 103.277,221.800 103.268 C 221.360 103.262,220.640 103.411,220.200 103.600 M226.400 103.600 C 227.768 104.038,228.819 104.038,227.800 103.600 C 227.360 103.411,226.640 103.262,226.200 103.268 C 225.557 103.277,225.596 103.343,226.400 103.600 M217.690 104.664 C 216.314 105.342,212.400 109.358,212.400 110.092 C 212.400 110.328,212.919 109.803,213.554 108.927 C 214.844 107.147,217.524 104.800,218.268 104.800 C 218.534 104.800,218.864 104.620,219.000 104.400 C 219.320 103.882,219.247 103.897,217.690 104.664 M228.800 104.181 C 228.800 104.281,229.433 104.663,230.207 105.030 C 230.981 105.397,232.448 106.621,233.468 107.749 C 234.487 108.877,235.128 109.440,234.892 109.000 C 233.889 107.130,228.800 103.104,228.800 104.181 M47.728 108.162 C 46.096 109.067,44.800 110.189,44.800 110.695 C 44.800 110.973,44.620 111.200,44.400 111.200 C 44.180 111.200,44.000 111.549,44.000 111.976 C 44.000 112.403,43.820 112.864,43.600 113.000 C 42.741 113.531,43.381 119.794,44.398 120.800 C 44.509 120.910,44.790 121.345,45.023 121.767 C 46.820 125.028,55.252 125.605,58.190 122.667 C 60.670 120.187,61.388 110.827,59.100 110.803 C 58.935 110.801,58.800 110.573,58.800 110.296 C 58.800 109.805,57.979 109.152,56.054 108.111 C 54.859 107.465,48.920 107.501,47.728 108.162 M211.867 111.067 C 211.720 111.213,211.611 111.708,211.625 112.167 C 211.649 112.933,211.682 112.923,212.034 112.042 C 212.426 111.063,212.344 110.589,211.867 111.067 M236.046 112.000 C 236.065 112.330,236.224 113.050,236.400 113.600 L 236.720 114.600 236.754 113.600 C 236.773 113.050,236.613 112.330,236.400 112.000 C 236.055 111.467,236.016 111.467,236.046 112.000 M211.052 114.100 C 210.737 115.277,210.782 117.211,211.146 118.135 C 211.307 118.545,211.435 117.615,211.435 116.035 C 211.435 112.924,211.406 112.778,211.052 114.100 M216.893 116.000 C 216.893 116.770,216.975 117.085,217.076 116.700 C 217.176 116.315,217.176 115.685,217.076 115.300 C 216.975 114.915,216.893 115.230,216.893 116.000 M126.200 117.600 C 125.696 117.817,125.622 117.944,126.000 117.944 C 126.330 117.944,126.960 117.789,127.400 117.600 C 127.904 117.383,127.978 117.256,127.600 117.256 C 127.270 117.256,126.640 117.411,126.200 117.600 M132.400 117.600 C 133.768 118.038,134.819 118.038,133.800 117.600 C 133.360 117.411,132.640 117.262,132.200 117.268 C 131.557 117.277,131.596 117.343,132.400 117.600 M236.449 118.000 C 236.416 118.330,236.289 119.050,236.167 119.600 C 235.975 120.464,236.007 120.503,236.399 119.888 C 236.648 119.497,236.775 118.777,236.681 118.288 C 236.586 117.800,236.482 117.670,236.449 118.000 M121.365 120.475 C 120.366 121.396,119.361 122.521,119.133 122.975 C 118.904 123.429,119.282 123.133,119.973 122.317 C 120.664 121.502,121.808 120.379,122.515 119.822 C 123.222 119.265,123.661 118.807,123.491 118.804 C 123.321 118.802,122.364 119.554,121.365 120.475 M137.746 120.026 C 138.597 120.745,139.812 122.051,140.446 122.927 C 141.081 123.803,141.600 124.375,141.600 124.198 C 141.600 123.352,138.430 119.856,137.000 119.126 C 136.560 118.901,136.896 119.306,137.746 120.026 M211.628 119.876 C 211.613 120.358,211.780 120.864,212.000 121.000 C 212.473 121.292,212.473 120.901,212.000 119.800 C 211.669 119.029,211.655 119.031,211.628 119.876 M218.598 120.737 C 219.034 121.252,219.753 121.859,220.196 122.086 C 221.045 122.521,220.921 122.387,219.003 120.794 C 217.848 119.835,217.834 119.833,218.598 120.737 M235.600 121.152 C 235.600 121.542,237.155 122.998,237.323 122.764 C 237.387 122.674,237.026 122.201,236.520 121.714 C 236.014 121.227,235.600 120.974,235.600 121.152 M212.400 121.796 C 212.400 121.976,212.842 122.704,213.383 123.413 C 213.923 124.121,214.238 124.842,214.083 125.015 C 213.927 125.187,214.026 125.198,214.302 125.040 C 214.672 124.826,214.520 124.366,213.718 123.275 C 213.121 122.464,212.580 121.725,212.516 121.633 C 212.452 121.542,212.400 121.615,212.400 121.796 M223.100 123.082 C 223.595 123.178,224.405 123.178,224.900 123.082 C 225.395 122.987,224.990 122.909,224.000 122.909 C 223.010 122.909,222.605 122.987,223.100 123.082 M238.774 123.524 C 239.309 123.959,240.299 124.619,240.974 124.991 L 242.200 125.667 241.226 124.876 C 240.691 124.441,239.701 123.781,239.026 123.409 L 237.800 122.733 238.774 123.524 M133.400 123.857 C 135.437 125.664,136.187 126.191,135.402 125.263 C 134.966 124.748,134.247 124.141,133.804 123.914 C 133.362 123.687,133.180 123.662,133.400 123.857 M231.615 126.016 C 230.853 126.667,230.009 127.200,229.739 127.200 C 229.468 127.200,229.137 127.378,229.003 127.595 C 228.574 128.289,230.131 127.547,231.754 126.284 C 233.423 124.986,233.220 124.965,235.900 126.707 C 236.395 127.029,236.800 127.205,236.800 127.099 C 236.800 126.831,233.688 124.796,233.309 124.816 C 233.139 124.825,232.377 125.365,231.615 126.016 M117.429 126.629 C 117.281 127.215,117.238 127.772,117.332 127.866 C 117.427 127.960,117.624 127.558,117.771 126.971 C 117.919 126.385,117.962 125.828,117.868 125.734 C 117.773 125.640,117.576 126.042,117.429 126.629 M212.392 126.513 C 211.838 127.001,210.865 127.808,210.231 128.306 C 209.597 128.804,209.150 129.283,209.239 129.371 C 209.328 129.459,210.390 128.652,211.600 127.578 C 212.810 126.504,213.710 125.625,213.600 125.625 C 213.490 125.625,212.946 126.025,212.392 126.513 M242.400 125.760 C 242.400 125.849,243.001 126.275,243.735 126.708 C 244.469 127.141,245.549 127.810,246.135 128.194 C 246.721 128.578,247.200 128.807,247.200 128.703 C 247.200 128.488,242.924 125.600,242.606 125.600 C 242.493 125.600,242.400 125.672,242.400 125.760 M215.204 129.428 C 213.777 130.633,212.337 131.917,212.004 132.280 C 211.672 132.644,212.888 131.721,214.707 130.230 C 216.808 128.508,218.238 127.606,218.628 127.755 C 218.978 127.890,219.137 127.821,218.997 127.595 C 218.548 126.868,217.817 127.221,215.204 129.428 M237.400 127.490 C 237.620 127.700,238.520 128.276,239.400 128.770 C 240.280 129.265,240.640 129.370,240.200 129.004 C 239.306 128.261,236.772 126.891,237.400 127.490 M220.200 128.400 C 220.640 128.589,221.360 128.738,221.800 128.732 C 222.443 128.723,222.404 128.657,221.600 128.400 C 220.232 127.962,219.181 127.962,220.200 128.400 M226.400 128.400 C 225.596 128.657,225.557 128.723,226.200 128.732 C 226.640 128.738,227.360 128.589,227.800 128.400 C 228.819 127.962,227.768 127.962,226.400 128.400 M136.901 129.800 C 136.905 130.680,136.987 130.993,137.083 130.495 C 137.179 129.998,137.175 129.278,137.075 128.895 C 136.975 128.513,136.896 128.920,136.901 129.800 M142.893 130.000 C 142.893 130.770,142.975 131.085,143.076 130.700 C 143.176 130.315,143.176 129.685,143.076 129.300 C 142.975 128.915,142.893 129.230,142.893 130.000 M248.200 129.443 C 249.156 130.182,251.200 131.285,251.200 131.063 C 251.200 130.823,248.059 128.798,247.709 128.813 C 247.539 128.820,247.760 129.103,248.200 129.443 M200.200 136.651 C 195.580 140.514,191.451 143.924,191.024 144.228 C 190.597 144.533,190.327 144.851,190.424 144.937 C 190.579 145.073,206.861 131.698,208.386 130.182 C 210.093 128.485,207.764 130.326,200.200 136.651 M241.966 130.282 C 242.497 130.677,243.667 131.413,244.566 131.918 C 245.465 132.422,245.765 132.512,245.234 132.118 C 244.703 131.723,243.533 130.987,242.634 130.482 C 241.735 129.978,241.435 129.888,241.966 130.282 M117.268 132.200 C 117.262 132.640,117.411 133.360,117.600 133.800 C 118.038 134.819,118.038 133.768,117.600 132.400 C 117.343 131.596,117.277 131.557,117.268 132.200 M253.400 132.611 C 253.840 132.969,254.740 133.526,255.400 133.850 C 256.522 134.401,256.548 134.397,255.800 133.789 C 255.360 133.431,254.460 132.874,253.800 132.550 C 252.678 131.999,252.652 132.003,253.400 132.611 M303.376 133.022 C 302.626 133.623,302.630 133.630,303.474 133.222 C 304.799 132.582,305.052 132.683,305.956 134.216 L 306.792 135.632 305.379 136.465 C 304.602 136.924,304.059 137.392,304.172 137.505 C 304.285 137.619,304.999 137.238,305.758 136.659 L 307.137 135.607 306.269 134.007 C 305.335 132.287,304.605 132.038,303.376 133.022 M208.800 134.879 L 206.600 136.889 208.800 135.164 C 210.010 134.215,211.075 133.385,211.167 133.319 C 211.258 133.254,211.258 133.125,211.167 133.034 C 211.075 132.943,210.010 133.773,208.800 134.879 M123.914 133.804 C 124.141 134.247,124.748 134.966,125.263 135.402 C 126.167 136.166,126.165 136.152,125.206 134.997 C 123.613 133.079,123.479 132.955,123.914 133.804 M248.200 134.243 C 249.156 134.982,251.200 136.085,251.200 135.863 C 251.200 135.623,248.059 133.598,247.709 133.613 C 247.539 133.620,247.760 133.903,248.200 134.243 M301.100 134.229 C 300.495 134.557,300.000 134.910,300.000 135.013 C 300.000 135.399,300.632 135.157,301.600 134.400 C 302.789 133.470,302.611 133.409,301.100 134.229 M256.800 134.514 C 256.800 134.755,259.906 136.800,260.271 136.800 C 260.430 136.800,260.389 136.649,260.180 136.464 C 259.552 135.908,256.800 134.321,256.800 134.514 M144.000 135.967 C 144.963 136.752,145.600 137.008,145.600 136.610 C 145.600 136.506,145.015 136.135,144.300 135.786 L 143.000 135.152 144.000 135.967 M272.200 135.600 C 271.181 136.038,272.232 136.038,273.600 135.600 C 274.404 135.343,274.443 135.277,273.800 135.268 C 273.360 135.262,272.640 135.411,272.200 135.600 M278.600 135.600 C 279.040 135.789,279.670 135.944,280.000 135.944 C 280.378 135.944,280.304 135.817,279.800 135.600 C 279.360 135.411,278.730 135.256,278.400 135.256 C 278.022 135.256,278.096 135.383,278.600 135.600 M298.300 135.829 C 297.695 136.157,297.200 136.510,297.200 136.613 C 297.200 136.999,297.832 136.757,298.800 136.000 C 299.989 135.070,299.811 135.009,298.300 135.829 M111.310 139.727 C 104.803 144.079,104.564 144.383,106.027 146.438 C 107.004 147.810,107.460 147.863,108.800 146.758 L 109.800 145.933 108.477 146.666 C 107.154 147.400,107.154 147.400,106.386 146.400 C 104.983 144.574,105.275 144.224,111.898 139.804 C 115.362 137.492,118.017 135.612,117.798 135.627 C 117.579 135.641,114.660 137.486,111.310 139.727 M251.600 136.114 C 251.600 136.355,254.706 138.400,255.071 138.400 C 255.230 138.400,255.189 138.249,254.980 138.064 C 254.352 137.508,251.600 135.921,251.600 136.114 M268.960 137.133 C 268.102 137.757,267.153 138.567,266.851 138.933 C 266.083 139.866,265.397 139.771,263.472 138.468 C 261.344 137.027,260.800 136.712,260.800 136.920 C 260.800 137.214,265.171 140.000,265.632 140.000 C 265.877 140.000,266.895 139.280,267.895 138.400 C 268.895 137.520,269.947 136.800,270.233 136.800 C 270.519 136.800,270.864 136.620,271.000 136.400 C 271.458 135.659,270.531 135.992,268.960 137.133 M280.800 136.181 C 280.800 136.281,281.437 136.665,282.215 137.034 C 282.993 137.403,284.551 138.717,285.677 139.953 C 286.802 141.189,287.351 141.660,286.896 141.000 C 285.227 138.577,280.800 135.078,280.800 136.181 M129.105 137.083 C 129.602 137.179,130.322 137.175,130.705 137.075 C 131.087 136.975,130.680 136.896,129.800 136.901 C 128.920 136.905,128.607 136.987,129.105 137.083 M146.769 137.491 C 147.303 137.881,148.653 138.699,149.769 139.309 C 150.886 139.920,151.364 140.100,150.831 139.709 C 150.297 139.319,148.947 138.501,147.831 137.891 C 146.714 137.280,146.236 137.100,146.769 137.491 M203.881 138.851 C 202.605 139.923,201.680 140.800,201.825 140.800 C 201.970 140.800,203.014 140.044,204.144 139.119 C 205.275 138.195,206.275 137.385,206.367 137.319 C 206.458 137.254,206.458 137.133,206.367 137.051 C 206.275 136.969,205.156 137.779,203.881 138.851 M294.228 138.200 C 292.949 138.970,291.790 139.604,291.652 139.609 C 291.513 139.614,290.950 139.986,290.400 140.436 C 289.572 141.113,289.710 141.087,291.200 140.284 C 294.639 138.430,296.202 137.523,296.580 137.162 C 297.306 136.470,296.539 136.808,294.228 138.200 M302.300 138.229 C 301.695 138.557,301.200 138.910,301.200 139.013 C 301.200 139.399,301.832 139.157,302.800 138.400 C 303.989 137.470,303.811 137.409,302.300 138.229 M138.719 139.148 C 137.105 140.562,134.616 141.989,133.688 142.032 C 133.246 142.052,133.185 142.137,133.515 142.270 C 134.236 142.559,136.423 141.452,138.413 139.789 C 139.749 138.673,140.213 138.479,140.658 138.848 C 140.967 139.104,141.320 139.213,141.444 139.089 C 142.457 138.077,139.877 138.132,138.719 139.148 M120.416 139.128 C 120.755 139.278,121.672 139.895,122.454 140.500 C 123.236 141.105,124.007 141.600,124.168 141.600 C 124.329 141.600,123.636 140.970,122.627 140.200 C 121.618 139.430,120.570 138.813,120.297 138.828 C 119.999 138.845,120.047 138.965,120.416 139.128 M118.400 140.000 C 117.850 140.430,117.597 140.786,117.838 140.791 C 118.079 140.796,118.602 140.440,119.000 140.000 C 119.912 138.992,119.688 138.992,118.400 140.000 M142.800 139.964 C 143.350 140.414,143.980 140.783,144.200 140.785 C 144.628 140.788,143.905 140.234,142.600 139.560 C 142.069 139.285,142.136 139.421,142.800 139.964 M256.800 139.301 C 256.800 139.555,259.896 141.600,260.280 141.600 C 260.444 141.600,260.223 141.358,259.789 141.061 C 257.881 139.759,256.800 139.122,256.800 139.301 M299.400 140.000 C 298.740 140.437,298.380 140.792,298.600 140.788 C 299.001 140.782,301.176 139.223,300.800 139.212 C 300.690 139.208,300.060 139.563,299.400 140.000 M152.400 140.820 C 152.730 141.044,154.260 141.965,155.800 142.866 C 157.340 143.768,159.185 144.857,159.900 145.286 C 160.615 145.714,161.200 145.976,161.200 145.866 C 161.200 145.643,155.238 142.005,154.849 141.991 C 154.712 141.986,154.150 141.630,153.600 141.200 C 153.050 140.770,152.420 140.417,152.200 140.415 C 151.980 140.413,152.070 140.596,152.400 140.820 M115.800 141.823 C 115.054 142.456,114.915 142.691,115.433 142.443 C 116.176 142.087,117.525 140.797,117.149 140.802 C 117.067 140.803,116.460 141.263,115.800 141.823 M145.569 141.491 C 146.103 141.881,147.453 142.699,148.569 143.309 C 149.686 143.920,150.164 144.100,149.631 143.709 C 149.097 143.319,147.747 142.501,146.631 141.891 C 145.514 141.280,145.036 141.100,145.569 141.491 M296.000 141.855 C 293.480 143.285,292.965 143.935,295.400 142.613 C 297.215 141.627,298.441 140.774,297.980 140.817 C 297.881 140.826,296.990 141.293,296.000 141.855 M199.992 142.113 C 199.438 142.601,198.465 143.408,197.831 143.906 C 197.197 144.404,196.750 144.876,196.839 144.955 C 196.928 145.034,198.044 144.221,199.319 143.149 C 200.595 142.077,201.495 141.206,201.319 141.213 C 201.144 141.220,200.546 141.625,199.992 142.113 M261.400 142.199 C 261.840 142.560,262.463 143.006,262.784 143.190 C 263.156 143.404,263.347 144.085,263.310 145.063 L 263.252 146.600 263.647 145.266 C 264.100 143.729,263.875 143.336,261.931 142.272 C 260.895 141.705,260.777 141.689,261.400 142.199 M279.400 141.857 C 281.437 143.664,282.187 144.191,281.402 143.263 C 280.966 142.748,280.247 142.141,279.804 141.914 C 279.362 141.687,279.180 141.662,279.400 141.857 M112.095 144.211 C 110.943 144.986,110.000 145.708,110.000 145.815 C 110.000 145.921,110.990 145.351,112.200 144.547 C 114.122 143.271,114.687 142.800,114.295 142.800 C 114.237 142.800,113.247 143.435,112.095 144.211 M129.300 143.076 C 129.685 143.176,130.315 143.176,130.700 143.076 C 131.085 142.975,130.770 142.893,130.000 142.893 C 129.230 142.893,128.915 142.975,129.300 143.076 M173.865 143.146 C 173.456 143.307,174.406 143.435,176.000 143.435 C 177.594 143.435,178.544 143.307,178.135 143.146 C 177.731 142.987,176.770 142.856,176.000 142.856 C 175.230 142.856,174.269 142.987,173.865 143.146 M171.000 144.000 C 170.708 144.473,171.099 144.473,172.200 144.000 C 172.971 143.669,172.969 143.655,172.124 143.628 C 171.642 143.613,171.136 143.780,171.000 144.000 M179.800 144.000 C 180.901 144.473,181.292 144.473,181.000 144.000 C 180.864 143.780,180.358 143.613,179.876 143.628 C 179.031 143.655,179.029 143.669,179.800 144.000 M291.600 144.436 C 290.936 144.979,290.869 145.115,291.400 144.840 C 292.705 144.166,293.428 143.612,293.000 143.615 C 292.780 143.617,292.150 143.986,291.600 144.436 M151.200 144.820 C 152.587 145.761,153.378 146.035,152.400 145.236 C 151.850 144.786,151.220 144.417,151.000 144.415 C 150.780 144.413,150.870 144.596,151.200 144.820 M168.600 145.298 C 167.940 145.779,167.012 146.609,166.538 147.143 C 165.989 147.762,165.437 148.023,165.017 147.862 C 164.631 147.714,164.460 147.773,164.603 148.005 C 165.000 148.647,165.823 148.460,166.638 147.541 C 167.057 147.069,168.102 146.169,168.960 145.541 C 169.818 144.914,170.358 144.406,170.160 144.413 C 169.962 144.420,169.260 144.818,168.600 145.298 M182.411 145.060 C 182.955 145.423,184.067 146.351,184.882 147.123 L 186.363 148.526 188.182 147.036 C 189.182 146.217,190.000 145.456,190.000 145.346 C 190.000 145.236,189.193 145.808,188.206 146.616 L 186.413 148.086 184.363 146.243 C 183.236 145.229,182.113 144.400,181.868 144.400 C 181.623 144.400,181.867 144.697,182.411 145.060 M195.192 146.113 C 194.638 146.601,193.665 147.408,193.031 147.906 C 192.397 148.404,191.950 148.883,192.039 148.971 C 192.128 149.059,193.190 148.252,194.400 147.178 C 195.610 146.104,196.510 145.225,196.400 145.225 C 196.290 145.225,195.746 145.625,195.192 146.113 M289.303 145.700 C 289.087 145.975,288.809 147.280,288.687 148.600 C 288.549 150.093,288.589 150.622,288.793 150.000 C 288.973 149.450,289.138 148.390,289.160 147.644 C 289.183 146.860,289.495 146.064,289.900 145.757 C 290.285 145.465,290.397 145.220,290.149 145.213 C 289.901 145.206,289.520 145.425,289.303 145.700 M153.800 146.290 C 154.020 146.500,154.920 147.076,155.800 147.570 C 156.680 148.065,157.040 148.170,156.600 147.804 C 155.706 147.061,153.172 145.691,153.800 146.290 M162.000 146.420 C 163.387 147.361,164.178 147.635,163.200 146.836 C 162.650 146.386,162.020 146.017,161.800 146.015 C 161.580 146.013,161.670 146.196,162.000 146.420 M282.893 148.000 C 282.893 148.770,282.975 149.085,283.076 148.700 C 283.176 148.315,283.176 147.685,283.076 147.300 C 282.975 146.915,282.893 147.230,282.893 148.000 M175.105 149.083 C 175.602 149.179,176.322 149.175,176.705 149.075 C 177.087 148.975,176.680 148.896,175.800 148.901 C 174.920 148.905,174.607 148.987,175.105 149.083 M189.800 150.660 C 188.595 151.736,188.505 151.885,189.436 151.263 C 190.541 150.524,191.932 149.176,191.549 149.215 C 191.467 149.223,190.680 149.873,189.800 150.660 M263.246 150.400 C 263.227 150.950,263.387 151.670,263.600 152.000 C 264.094 152.764,264.094 151.942,263.600 150.400 L 263.280 149.400 263.246 150.400 M160.400 150.190 C 160.400 150.294,160.985 150.665,161.700 151.014 L 163.000 151.648 162.000 150.833 C 161.037 150.048,160.400 149.792,160.400 150.190 M288.046 151.467 C 288.021 151.724,287.884 152.264,287.741 152.667 C 287.540 153.236,287.594 153.297,287.979 152.942 C 288.252 152.691,288.389 152.151,288.284 151.742 C 288.179 151.334,288.072 151.210,288.046 151.467 M163.301 153.000 C 163.305 153.880,163.387 154.193,163.483 153.695 C 163.579 153.198,163.575 152.478,163.475 152.095 C 163.375 151.713,163.296 152.120,163.301 153.000 M188.542 156.068 C 188.526 157.874,188.637 158.693,188.830 158.200 C 189.223 157.198,189.237 154.836,188.855 153.868 C 188.695 153.460,188.556 154.434,188.542 156.068 M287.200 153.890 C 287.200 155.520,282.199 159.384,278.800 160.380 L 277.400 160.791 278.930 160.572 C 282.031 160.127,288.581 154.848,287.444 153.710 C 287.310 153.576,287.200 153.657,287.200 153.890 M265.133 155.061 C 266.337 157.345,270.440 160.195,273.068 160.571 L 274.600 160.791 273.200 160.380 C 270.522 159.595,268.316 158.225,266.503 156.218 C 265.500 155.108,264.883 154.588,265.133 155.061 M182.893 156.000 C 182.893 156.770,182.975 157.085,183.076 156.700 C 183.176 156.315,183.176 155.685,183.076 155.300 C 182.975 154.915,182.893 155.230,182.893 156.000 M275.105 155.083 C 275.602 155.179,276.322 155.175,276.705 155.075 C 277.087 154.975,276.680 154.896,275.800 154.901 C 274.920 154.905,274.607 154.987,275.105 155.083 M163.246 158.400 C 163.227 158.950,163.387 159.670,163.600 160.000 C 164.094 160.764,164.094 159.942,163.600 158.400 L 163.280 157.400 163.246 158.400 M188.046 159.467 C 188.021 159.724,187.884 160.264,187.741 160.667 C 187.540 161.236,187.594 161.297,187.979 160.942 C 188.252 160.691,188.389 160.151,188.284 159.742 C 188.179 159.334,188.072 159.210,188.046 159.467 M275.300 161.076 C 275.685 161.176,276.315 161.176,276.700 161.076 C 277.085 160.975,276.770 160.893,276.000 160.893 C 275.230 160.893,274.915 160.975,275.300 161.076 M186.775 162.646 C 186.468 163.221,185.312 164.508,184.208 165.506 C 183.104 166.505,182.560 167.129,183.000 166.893 C 184.537 166.071,187.951 162.218,187.523 161.790 C 187.419 161.686,187.083 162.071,186.775 162.646 M164.804 162.509 C 164.797 162.997,168.061 166.407,168.975 166.867 C 169.429 167.096,169.133 166.718,168.317 166.027 C 167.502 165.336,166.379 164.192,165.822 163.485 C 165.265 162.778,164.807 162.339,164.804 162.509 M172.000 168.400 C 172.330 168.613,173.050 168.773,173.600 168.754 L 174.600 168.720 173.600 168.400 C 172.058 167.906,171.236 167.906,172.000 168.400 M178.400 168.400 C 177.596 168.657,177.557 168.723,178.200 168.732 C 178.640 168.738,179.360 168.589,179.800 168.400 C 180.819 167.962,179.768 167.962,178.400 168.400 M226.100 171.898 L 243.600 172.008 243.605 226.104 C 243.608 255.857,243.719 280.605,243.852 281.100 C 244.063 281.887,255.422 282.630,256.092 281.900 C 256.142 281.845,256.277 267.040,256.392 249.000 L 256.600 216.200 273.400 216.089 C 282.640 216.028,290.605 216.076,291.100 216.196 L 292.000 216.415 292.000 249.208 L 292.000 282.000 294.700 281.923 L 297.400 281.846 294.900 281.704 L 292.400 281.562 292.400 249.030 C 292.400 222.028,292.307 216.421,291.854 216.045 C 291.461 215.719,286.381 215.621,273.754 215.696 L 256.200 215.800 255.994 248.600 C 255.881 266.640,255.746 281.445,255.694 281.500 C 255.642 281.555,253.080 281.600,250.000 281.600 C 246.920 281.600,244.357 281.555,244.304 281.500 C 244.251 281.445,244.116 256.740,244.004 226.600 L 243.800 171.800 226.200 171.794 L 208.600 171.787 226.100 171.898 M207.867 172.267 C 207.720 172.413,207.600 197.073,207.600 227.067 L 207.600 281.600 202.000 281.600 L 196.400 281.600 196.400 257.024 C 196.400 243.507,196.265 232.364,196.100 232.262 C 195.935 232.160,195.848 243.309,195.906 257.038 L 196.012 282.000 202.003 282.000 L 207.994 282.000 208.097 227.000 C 208.154 196.750,208.185 172.000,208.167 172.000 C 208.148 172.000,208.013 172.120,207.867 172.267 M213.787 178.094 C 213.681 178.372,213.641 201.820,213.697 230.200 L 213.800 281.800 226.000 281.800 L 238.200 281.800 238.200 229.800 L 238.200 177.800 226.090 177.694 C 216.617 177.611,213.937 177.698,213.787 178.094 M111.867 192.267 C 111.720 192.413,111.600 212.565,111.600 237.048 L 111.600 281.562 109.100 281.704 L 106.600 281.846 109.300 281.923 L 112.000 282.000 112.000 237.233 C 112.000 201.794,112.104 192.425,112.500 192.265 C 112.779 192.152,112.809 192.049,112.567 192.032 C 112.328 192.014,112.013 192.120,111.867 192.267 M147.590 192.263 C 147.866 192.400,148.000 207.060,148.000 237.233 L 148.000 282.000 154.100 281.912 L 160.200 281.823 154.302 281.701 L 148.403 281.579 148.302 236.923 C 148.220 201.116,148.099 192.246,147.690 192.163 C 147.410 192.106,147.364 192.151,147.590 192.263 M104.111 282.500 C 103.380 283.445,103.054 284.295,103.689 283.600 C 103.990 283.270,104.489 282.775,104.798 282.500 C 105.109 282.224,105.167 282.000,104.929 282.000 C 104.692 282.000,104.324 282.225,104.111 282.500 M299.726 282.971 C 300.201 283.505,300.667 283.867,300.760 283.774 C 300.975 283.558,299.577 282.000,299.168 282.000 C 298.999 282.000,299.250 282.437,299.726 282.971 M103.227 285.500 C 103.212 285.775,103.560 286.360,104.000 286.800 C 104.440 287.240,105.025 287.588,105.300 287.573 C 105.575 287.558,105.414 287.359,104.942 287.131 C 104.471 286.902,103.898 286.329,103.669 285.858 C 103.441 285.386,103.242 285.225,103.227 285.500 M300.209 285.973 C 300.074 286.398,299.477 286.924,298.882 287.141 C 298.189 287.394,298.052 287.548,298.500 287.568 C 299.244 287.602,300.800 286.270,300.800 285.600 C 300.800 284.940,300.471 285.148,300.209 285.973 M112.138 288.094 C 112.392 288.256,120.430 288.388,130.000 288.388 C 139.570 288.388,147.608 288.256,147.862 288.094 C 148.116 287.932,140.078 287.800,130.000 287.800 C 119.922 287.800,111.884 287.932,112.138 288.094 M160.262 288.100 C 160.364 288.265,168.436 288.400,178.200 288.400 C 187.964 288.400,196.036 288.265,196.138 288.100 C 196.240 287.935,188.168 287.800,178.200 287.800 C 168.232 287.800,160.160 287.935,160.262 288.100 M207.862 288.100 C 208.102 288.488,243.252 288.482,243.862 288.094 C 244.116 287.932,236.078 287.800,226.000 287.800 C 215.922 287.800,207.760 287.935,207.862 288.100 M256.138 288.094 C 256.748 288.482,291.898 288.488,292.138 288.100 C 292.240 287.935,284.078 287.800,274.000 287.800 C 263.922 287.800,255.884 287.932,256.138 288.094 M96.400 340.000 C 96.400 340.220,96.116 340.400,95.769 340.400 C 94.869 340.400,92.000 343.416,92.000 344.361 C 92.000 344.796,91.820 345.264,91.600 345.400 C 91.109 345.703,91.064 350.269,91.548 350.568 C 91.740 350.686,91.997 351.287,92.121 351.903 C 93.398 358.288,106.602 358.288,107.879 351.903 C 108.003 351.287,108.260 350.686,108.452 350.568 C 108.936 350.269,108.891 345.703,108.400 345.400 C 108.180 345.264,108.000 344.796,108.000 344.361 C 108.000 343.416,105.131 340.400,104.231 340.400 C 103.884 340.400,103.600 340.220,103.600 340.000 C 103.600 339.763,102.133 339.600,100.000 339.600 C 97.867 339.600,96.400 339.763,96.400 340.000 " stroke="none" fill="#dd5564" fill-rule="evenodd"></path><path id="path3" d="M117.787 198.094 C 117.681 198.372,117.640 217.320,117.697 240.200 L 117.800 281.800 130.000 281.800 L 142.200 281.800 142.200 239.800 L 142.200 197.800 130.090 197.694 C 120.617 197.611,117.937 197.698,117.787 198.094 M261.784 222.100 C 261.679 222.375,261.640 235.920,261.697 252.200 L 261.800 281.800 274.000 281.800 L 286.200 281.800 286.303 252.025 C 286.384 228.470,286.300 222.184,285.903 221.931 C 285.010 221.364,262.003 221.525,261.784 222.100 " stroke="none" fill="#69b5c3" fill-rule="evenodd"></path><path id="path4" d="M327.800 43.600 C 327.664 43.820,327.220 44.000,326.814 44.000 C 324.745 44.000,317.600 49.712,317.600 51.367 C 317.600 51.715,317.420 52.000,317.200 52.000 C 316.980 52.000,316.800 52.360,316.800 52.800 C 316.800 53.240,316.620 53.600,316.400 53.600 C 316.180 53.600,316.000 54.129,316.000 54.776 C 316.000 55.423,315.820 56.064,315.600 56.200 C 315.379 56.336,315.200 58.130,315.200 60.200 C 315.200 62.270,315.379 64.064,315.600 64.200 C 315.820 64.336,316.000 64.977,316.000 65.624 C 316.000 66.271,316.180 66.800,316.400 66.800 C 316.620 66.800,316.800 67.160,316.800 67.600 C 316.800 68.040,316.980 68.400,317.200 68.400 C 317.420 68.400,317.600 68.638,317.600 68.929 C 317.600 69.629,321.882 74.000,322.568 74.000 C 322.862 74.000,323.326 74.270,323.600 74.600 C 323.874 74.930,324.526 75.200,325.049 75.200 C 325.572 75.200,326.000 75.380,326.000 75.600 C 326.000 75.820,326.619 76.000,327.376 76.000 C 328.133 76.000,328.864 76.180,329.000 76.400 C 329.136 76.620,330.497 76.800,332.024 76.800 C 333.608 76.800,334.800 76.628,334.800 76.400 C 334.800 76.180,335.520 76.000,336.400 76.000 C 337.280 76.000,338.000 75.820,338.000 75.600 C 338.000 75.380,338.364 75.200,338.809 75.200 C 340.463 75.200,344.807 71.740,345.968 69.497 C 346.280 68.894,346.685 68.400,346.868 68.400 C 347.050 68.400,347.200 68.051,347.200 67.624 C 347.200 67.197,347.380 66.736,347.600 66.600 C 347.820 66.464,348.000 65.733,348.000 64.976 C 348.000 64.219,348.180 63.600,348.400 63.600 C 348.637 63.600,348.800 62.141,348.800 60.024 C 348.800 58.057,348.620 56.336,348.400 56.200 C 348.180 56.064,348.000 55.423,348.000 54.776 C 348.000 54.129,347.820 53.600,347.600 53.600 C 347.380 53.600,347.200 53.240,347.200 52.800 C 347.200 52.360,347.020 52.000,346.800 52.000 C 346.580 52.000,346.400 51.713,346.400 51.363 C 346.400 49.724,339.237 44.000,337.186 44.000 C 336.780 44.000,336.336 43.820,336.200 43.600 C 336.062 43.377,334.204 43.200,332.000 43.200 C 329.796 43.200,327.938 43.377,327.800 43.600 M306.000 47.600 C 306.000 47.820,305.705 48.000,305.344 48.000 C 302.815 48.000,302.924 54.977,305.474 56.335 C 307.726 57.534,312.000 56.279,312.000 54.418 C 312.000 54.188,312.180 54.000,312.400 54.000 C 312.620 54.000,312.800 53.100,312.800 52.000 C 312.800 50.900,312.620 50.000,312.400 50.000 C 312.180 50.000,312.000 49.812,312.000 49.582 C 312.000 48.388,310.013 47.200,308.018 47.200 C 306.908 47.200,306.000 47.380,306.000 47.600 M222.057 109.407 C 214.795 111.632,215.803 122.087,223.341 122.712 C 226.995 123.015,229.599 121.191,230.782 117.500 C 232.280 112.822,226.974 107.900,222.057 109.407 M127.812 123.438 C 120.332 126.176,122.168 136.800,130.121 136.800 C 136.533 136.800,139.406 128.466,134.300 124.676 C 131.847 122.854,130.242 122.548,127.812 123.438 M273.812 141.438 C 266.018 144.291,268.439 155.393,276.705 154.708 C 284.406 154.069,285.123 143.761,277.640 141.255 C 275.982 140.700,275.804 140.708,273.812 141.438 M172.555 149.962 C 169.713 151.695,168.409 155.015,169.399 157.998 C 171.939 165.643,182.800 163.926,182.800 155.879 C 182.800 150.717,176.903 147.311,172.555 149.962 M53.400 236.535 C 52.520 237.011,51.710 237.511,51.600 237.646 C 51.490 237.781,51.004 238.016,50.520 238.167 C 49.551 238.469,47.200 240.521,47.200 241.064 C 47.200 241.253,46.825 241.642,46.367 241.928 C 45.876 242.234,45.627 242.694,45.762 243.045 C 45.888 243.373,45.839 243.548,45.654 243.433 C 45.076 243.076,44.008 245.784,43.967 247.709 C 43.958 248.098,43.810 248.330,43.637 248.223 C 43.464 248.116,43.323 249.814,43.324 251.996 C 43.325 254.688,43.478 256.021,43.801 256.145 C 44.062 256.245,44.243 256.884,44.202 257.564 C 44.162 258.244,44.280 258.800,44.464 258.800 C 44.649 258.800,44.803 259.025,44.806 259.300 C 44.810 259.575,45.350 260.409,46.006 261.154 C 46.663 261.899,47.200 262.672,47.200 262.872 C 47.200 263.387,49.074 265.200,49.605 265.200 C 49.848 265.200,49.936 265.380,49.800 265.600 C 49.664 265.820,49.800 266.000,50.101 266.000 C 50.403 266.000,51.395 266.360,52.306 266.800 C 53.216 267.240,54.285 267.603,54.681 267.606 C 55.291 267.611,55.309 267.671,54.800 268.000 C 54.377 268.273,54.930 268.390,56.676 268.394 C 58.038 268.397,59.274 268.596,59.422 268.835 C 59.615 269.148,59.812 269.148,60.125 268.835 C 60.364 268.596,61.604 268.400,62.880 268.400 C 64.160 268.400,65.200 268.221,65.200 268.000 C 65.200 267.780,65.612 267.600,66.115 267.600 C 66.769 267.600,67.049 267.351,67.096 266.727 C 67.132 266.246,67.485 265.678,67.881 265.464 C 70.356 264.123,74.800 258.293,74.800 256.386 C 74.800 255.980,74.980 255.536,75.200 255.400 C 75.420 255.264,75.600 253.734,75.600 252.000 C 75.600 250.266,75.420 248.736,75.200 248.600 C 74.980 248.464,74.800 248.020,74.800 247.614 C 74.800 242.660,66.848 236.709,60.120 236.627 C 57.786 236.599,56.241 236.401,55.931 236.091 C 55.325 235.485,55.352 235.480,53.400 236.535 M165.697 259.700 L 165.800 281.800 178.000 281.800 L 190.200 281.800 190.303 259.700 L 190.407 237.600 178.000 237.600 L 165.593 237.600 165.697 259.700 M81.514 264.836 C 78.628 266.990,80.367 272.000,84.000 272.000 C 85.660 272.000,87.437 270.587,87.851 268.937 C 88.749 265.362,84.496 262.610,81.514 264.836 M323.200 295.290 C 323.200 295.487,323.065 295.568,322.900 295.471 C 322.735 295.375,321.610 295.622,320.400 296.021 C 319.190 296.421,318.344 296.759,318.521 296.774 C 318.697 296.788,318.382 297.226,317.821 297.746 C 317.259 298.266,316.800 298.896,316.800 299.146 C 316.800 299.396,316.620 299.600,316.400 299.600 C 316.180 299.600,316.000 299.949,316.000 300.376 C 316.000 300.803,315.820 301.264,315.600 301.400 C 315.380 301.536,315.200 302.807,315.200 304.224 C 315.200 305.675,315.375 306.800,315.600 306.800 C 315.820 306.800,316.000 307.171,316.000 307.624 C 316.000 308.077,316.180 308.336,316.400 308.200 C 316.620 308.064,316.800 308.188,316.800 308.476 C 316.801 309.108,318.541 311.200,319.067 311.200 C 319.709 311.200,321.594 312.184,321.597 312.521 C 321.601 312.943,326.374 312.766,326.641 312.334 C 326.754 312.150,327.197 312.000,327.624 312.000 C 328.051 312.000,328.400 311.864,328.400 311.698 C 328.400 311.531,328.940 311.156,329.600 310.864 C 330.260 310.572,330.800 310.112,330.800 309.842 C 330.800 309.572,331.160 308.964,331.600 308.492 C 332.483 307.545,332.836 300.400,332.000 300.400 C 331.780 300.400,331.597 300.085,331.593 299.700 C 331.589 299.315,331.047 298.550,330.388 298.000 C 329.729 297.450,328.832 296.685,328.395 296.300 C 327.958 295.915,327.090 295.600,326.467 295.600 C 325.843 295.600,325.210 295.476,325.059 295.325 C 324.643 294.910,323.200 294.883,323.200 295.290 " stroke="none" fill="#f6cf1f" fill-rule="evenodd"></path></g></svg>