<svg id="svg" version="1.1" xmlns="http://www.w3.org/2000/svg" xmlns:xlink="http://www.w3.org/1999/xlink" width="400" height="400" viewBox="0, 0, 400,400"><g id="svgg"><path id="path0" d="M190.400 51.600 C 190.400 51.842,188.667 52.000,186.000 52.000 C 183.333 52.000,181.600 52.158,181.600 52.400 C 181.600 52.628,180.408 52.800,178.824 52.800 C 177.297 52.800,175.936 52.980,175.800 53.200 C 175.664 53.420,174.663 53.600,173.576 53.600 C 172.489 53.600,171.600 53.780,171.600 54.000 C 171.600 54.220,170.700 54.400,169.600 54.400 C 168.500 54.400,167.600 54.580,167.600 54.800 C 167.600 55.020,166.880 55.200,166.000 55.200 C 165.120 55.200,164.400 55.380,164.400 55.600 C 164.400 55.820,163.680 56.000,162.800 56.000 C 161.920 56.000,161.200 56.180,161.200 56.400 C 161.200 56.620,160.570 56.800,159.800 56.800 C 159.030 56.800,158.400 56.980,158.400 57.200 C 158.400 57.420,157.860 57.600,157.200 57.600 C 156.540 57.600,156.000 57.780,156.000 58.000 C 156.000 58.220,155.571 58.400,155.046 58.400 C 154.022 58.400,150.247 59.440,149.105 60.037 C 148.723 60.237,148.220 60.400,147.986 60.400 C 147.752 60.400,146.816 60.760,145.906 61.200 C 144.995 61.640,143.924 62.000,143.525 62.000 C 143.126 62.000,142.800 62.180,142.800 62.400 C 142.800 62.620,142.440 62.800,142.000 62.800 C 141.560 62.800,141.200 62.980,141.200 63.200 C 141.200 63.420,140.928 63.600,140.595 63.600 C 140.262 63.600,139.632 63.780,139.195 64.000 C 138.758 64.220,138.042 64.580,137.605 64.800 C 137.168 65.020,136.538 65.200,136.205 65.200 C 135.872 65.200,135.600 65.380,135.600 65.600 C 135.600 65.820,135.240 66.000,134.800 66.000 C 134.360 66.000,134.000 66.180,134.000 66.400 C 134.000 66.620,133.640 66.800,133.200 66.800 C 132.760 66.800,132.400 66.980,132.400 67.200 C 132.400 67.420,132.029 67.600,131.576 67.600 C 131.123 67.600,130.844 67.747,130.955 67.927 C 131.066 68.107,130.504 68.491,129.706 68.780 C 128.908 69.068,127.893 69.641,127.452 70.052 C 127.010 70.463,126.413 70.800,126.125 70.800 C 125.836 70.800,125.600 70.980,125.600 71.200 C 125.600 71.420,125.240 71.600,124.800 71.600 C 124.360 71.600,124.000 71.780,124.000 72.000 C 124.000 72.220,123.680 72.400,123.288 72.400 C 122.897 72.400,122.317 72.760,122.000 73.200 C 121.683 73.640,121.143 74.000,120.800 74.000 C 120.457 74.000,119.922 74.353,119.611 74.785 C 119.299 75.217,118.540 75.681,117.922 75.817 C 117.305 75.953,116.800 76.207,116.800 76.383 C 116.800 76.559,116.260 76.927,115.600 77.200 C 114.940 77.473,114.400 77.813,114.400 77.954 C 114.400 78.095,113.680 78.656,112.800 79.200 C 111.920 79.744,111.200 80.326,111.200 80.494 C 111.200 80.662,111.002 80.800,110.760 80.800 C 110.519 80.800,109.817 81.340,109.200 82.000 C 108.583 82.660,107.899 83.200,107.680 83.200 C 107.461 83.200,106.362 84.100,105.239 85.200 C 104.115 86.300,103.038 87.200,102.844 87.200 C 102.651 87.200,101.324 88.325,99.896 89.700 C 98.468 91.075,96.512 92.936,95.549 93.835 C 93.256 95.978,87.441 102.295,87.254 102.847 C 87.173 103.084,86.228 104.200,85.154 105.327 C 84.079 106.453,83.200 107.533,83.200 107.727 C 83.200 107.921,82.660 108.583,82.000 109.200 C 81.340 109.817,80.800 110.519,80.800 110.760 C 80.800 111.002,80.659 111.200,80.486 111.200 C 80.314 111.200,79.879 111.695,79.521 112.300 C 79.163 112.905,78.404 113.940,77.835 114.600 C 77.266 115.260,76.801 116.025,76.800 116.300 C 76.800 116.575,76.647 116.800,76.461 116.800 C 76.274 116.800,75.797 117.520,75.400 118.400 C 75.003 119.280,74.526 120.000,74.339 120.000 C 74.153 120.000,74.000 120.320,74.000 120.712 C 74.000 121.103,73.640 121.683,73.200 122.000 C 72.760 122.317,72.400 122.897,72.400 123.288 C 72.400 123.680,72.220 124.000,72.000 124.000 C 71.780 124.000,71.600 124.360,71.600 124.800 C 71.600 125.240,71.420 125.600,71.200 125.600 C 70.980 125.600,70.800 125.870,70.800 126.200 C 70.800 126.530,70.620 126.800,70.400 126.800 C 70.180 126.800,70.000 127.070,70.000 127.400 C 70.000 127.730,69.854 128.000,69.675 128.000 C 69.496 128.000,69.102 128.630,68.800 129.400 C 68.498 130.170,68.104 130.800,67.925 130.800 C 67.746 130.800,67.600 131.160,67.600 131.600 C 67.600 132.040,67.420 132.400,67.200 132.400 C 66.980 132.400,66.800 132.653,66.800 132.962 C 66.800 133.271,66.440 134.261,66.000 135.162 C 65.560 136.063,64.840 137.537,64.400 138.438 C 63.960 139.339,63.600 140.329,63.600 140.638 C 63.600 140.947,63.420 141.200,63.200 141.200 C 62.980 141.200,62.800 141.560,62.800 142.000 C 62.800 142.440,62.620 142.800,62.400 142.800 C 62.180 142.800,62.000 143.126,62.000 143.525 C 62.000 143.924,61.640 144.995,61.200 145.906 C 60.760 146.816,60.400 147.829,60.400 148.157 C 60.400 148.485,60.220 148.864,60.000 149.000 C 59.780 149.136,59.600 149.676,59.600 150.200 C 59.600 150.724,59.433 151.256,59.228 151.383 C 59.023 151.509,58.733 152.600,58.582 153.806 C 58.431 155.013,58.149 156.000,57.954 156.000 C 57.759 156.000,57.600 156.529,57.600 157.176 C 57.600 157.823,57.420 158.464,57.200 158.600 C 56.980 158.736,56.800 159.377,56.800 160.024 C 56.800 160.671,56.620 161.200,56.400 161.200 C 56.180 161.200,56.000 161.920,56.000 162.800 C 56.000 163.680,55.820 164.400,55.600 164.400 C 55.380 164.400,55.200 165.120,55.200 166.000 C 55.200 166.880,55.020 167.600,54.800 167.600 C 54.580 167.600,54.400 168.500,54.400 169.600 C 54.400 170.700,54.220 171.600,54.000 171.600 C 53.780 171.600,53.600 172.489,53.600 173.576 C 53.600 174.663,53.420 175.664,53.200 175.800 C 52.980 175.936,52.800 177.297,52.800 178.824 C 52.800 180.408,52.628 181.600,52.400 181.600 C 52.159 181.600,52.000 183.259,52.000 185.776 C 52.000 188.129,51.825 190.061,51.600 190.200 C 51.057 190.535,51.057 209.465,51.600 209.800 C 51.825 209.939,52.000 211.871,52.000 214.224 C 52.000 216.741,52.159 218.400,52.400 218.400 C 52.629 218.400,52.800 219.600,52.800 221.200 C 52.800 222.800,52.971 224.000,53.200 224.000 C 53.420 224.000,53.600 224.889,53.600 225.976 C 53.600 227.063,53.780 228.064,54.000 228.200 C 54.220 228.336,54.400 229.337,54.400 230.424 C 54.400 231.511,54.580 232.400,54.800 232.400 C 55.020 232.400,55.200 233.120,55.200 234.000 C 55.200 234.880,55.380 235.600,55.600 235.600 C 55.820 235.600,56.000 236.104,56.000 236.720 C 56.000 239.076,57.803 241.063,59.173 240.217 C 60.566 239.356,67.649 241.814,70.180 244.037 C 74.603 247.919,76.988 255.716,75.149 260.281 C 73.909 263.361,72.820 265.159,70.969 267.181 C 68.922 269.418,68.098 270.800,68.813 270.800 C 69.026 270.800,69.200 271.070,69.200 271.400 C 69.200 271.730,69.380 272.000,69.600 272.000 C 69.820 272.000,70.000 272.270,70.000 272.600 C 70.000 272.930,70.180 273.200,70.400 273.200 C 70.620 273.200,70.800 273.470,70.800 273.800 C 70.800 274.130,70.980 274.400,71.200 274.400 C 71.420 274.400,71.600 274.760,71.600 275.200 C 71.600 275.640,71.780 276.000,72.000 276.000 C 72.220 276.000,72.400 276.320,72.400 276.712 C 72.400 277.103,72.760 277.683,73.200 278.000 C 73.640 278.317,74.000 278.831,74.000 279.141 C 74.000 279.452,74.372 280.029,74.826 280.423 C 75.281 280.817,75.614 281.198,75.568 281.270 C 75.382 281.554,76.074 283.200,76.378 283.200 C 76.557 283.200,76.927 283.740,77.200 284.400 C 77.473 285.060,77.813 285.600,77.954 285.600 C 78.095 285.600,78.656 286.320,79.200 287.200 C 79.744 288.080,80.326 288.800,80.494 288.800 C 80.662 288.800,80.800 288.986,80.800 289.213 C 80.800 289.441,81.430 290.257,82.200 291.027 C 82.970 291.797,83.600 292.596,83.600 292.803 C 83.600 293.010,84.365 293.951,85.300 294.894 C 86.235 295.838,87.252 297.096,87.560 297.691 C 87.868 298.286,88.273 298.678,88.460 298.563 C 88.647 298.447,88.800 298.534,88.800 298.755 C 88.800 299.182,92.627 303.365,95.555 306.138 C 96.520 307.052,98.476 308.925,99.901 310.300 C 101.327 311.675,102.657 312.800,102.857 312.800 C 103.057 312.800,104.031 313.610,105.021 314.600 C 106.011 315.590,106.990 316.400,107.197 316.400 C 107.404 316.400,108.203 317.030,108.973 317.800 C 109.743 318.570,110.559 319.200,110.787 319.200 C 111.014 319.200,111.200 319.347,111.200 319.526 C 111.200 319.706,111.920 320.257,112.800 320.752 C 113.680 321.247,114.400 321.798,114.400 321.977 C 114.400 322.156,114.940 322.527,115.600 322.800 C 116.260 323.073,116.800 323.436,116.800 323.605 C 116.800 323.775,117.265 324.030,117.834 324.173 C 118.403 324.316,119.247 324.785,119.710 325.216 C 120.172 325.647,120.747 326.000,120.987 326.000 C 121.227 326.000,121.683 326.360,122.000 326.800 C 122.317 327.240,122.897 327.600,123.288 327.600 C 123.680 327.600,124.000 327.780,124.000 328.000 C 124.000 328.220,124.360 328.400,124.800 328.400 C 125.240 328.400,125.600 328.580,125.600 328.800 C 125.600 329.020,125.870 329.200,126.200 329.200 C 126.530 329.200,126.800 329.380,126.800 329.600 C 126.800 329.820,127.070 330.000,127.400 330.000 C 127.730 330.000,128.000 330.138,128.000 330.307 C 128.000 330.476,128.990 331.042,130.200 331.564 C 131.410 332.087,132.400 332.668,132.400 332.857 C 132.400 333.046,132.634 333.200,132.920 333.200 C 133.656 333.200,135.593 334.141,135.597 334.500 C 135.599 334.665,135.872 334.800,136.205 334.800 C 136.538 334.800,137.168 334.980,137.605 335.200 C 138.042 335.420,138.758 335.780,139.195 336.000 C 139.632 336.220,140.262 336.400,140.595 336.400 C 140.928 336.400,141.200 336.580,141.200 336.800 C 141.200 337.020,141.560 337.200,142.000 337.200 C 142.440 337.200,142.800 337.380,142.800 337.600 C 142.800 337.820,143.126 338.000,143.525 338.000 C 143.924 338.000,144.995 338.360,145.906 338.800 C 146.816 339.240,147.752 339.600,147.986 339.600 C 148.220 339.600,148.723 339.763,149.105 339.963 C 150.247 340.560,154.022 341.600,155.046 341.600 C 155.571 341.600,156.000 341.780,156.000 342.000 C 156.000 342.220,156.540 342.400,157.200 342.400 C 157.860 342.400,158.400 342.580,158.400 342.800 C 158.400 343.020,159.019 343.200,159.776 343.200 C 160.533 343.200,161.264 343.380,161.400 343.600 C 161.536 343.820,162.267 344.000,163.024 344.000 C 163.781 344.000,164.400 344.180,164.400 344.400 C 164.400 344.620,165.120 344.800,166.000 344.800 C 166.880 344.800,167.600 344.980,167.600 345.200 C 167.600 345.420,168.500 345.600,169.600 345.600 C 170.700 345.600,171.600 345.780,171.600 346.000 C 171.600 346.220,172.590 346.400,173.800 346.400 C 175.010 346.400,176.000 346.580,176.000 346.800 C 176.000 347.029,177.200 347.200,178.800 347.200 C 180.400 347.200,181.600 347.371,181.600 347.600 C 181.600 347.842,183.333 348.000,186.000 348.000 C 188.667 348.000,190.400 348.158,190.400 348.400 C 190.400 348.656,193.867 348.800,200.000 348.800 C 206.133 348.800,209.600 348.656,209.600 348.400 C 209.600 348.158,211.333 348.000,214.000 348.000 C 216.667 348.000,218.400 347.842,218.400 347.600 C 218.400 347.371,219.600 347.200,221.200 347.200 C 222.800 347.200,224.000 347.029,224.000 346.800 C 224.000 346.580,224.990 346.400,226.200 346.400 C 227.410 346.400,228.400 346.220,228.400 346.000 C 228.400 345.780,229.300 345.600,230.400 345.600 C 231.500 345.600,232.400 345.420,232.400 345.200 C 232.400 344.980,233.120 344.800,234.000 344.800 C 234.880 344.800,235.600 344.620,235.600 344.400 C 235.600 344.180,236.320 344.000,237.200 344.000 C 238.080 344.000,238.800 343.820,238.800 343.600 C 238.800 343.380,239.430 343.200,240.200 343.200 C 240.970 343.200,241.600 343.020,241.600 342.800 C 241.600 342.580,242.140 342.400,242.800 342.400 C 243.460 342.400,244.000 342.240,244.000 342.044 C 244.000 341.848,244.675 341.576,245.500 341.441 C 247.447 341.120,248.056 340.973,248.869 340.625 C 249.237 340.467,249.816 340.297,250.157 340.247 C 250.498 340.197,250.902 340.031,251.055 339.878 C 251.208 339.725,251.582 339.600,251.886 339.600 C 252.190 339.600,253.184 339.240,254.094 338.800 C 255.005 338.360,256.076 338.000,256.475 338.000 C 256.874 338.000,257.200 337.820,257.200 337.600 C 257.200 337.380,257.560 337.200,258.000 337.200 C 258.440 337.200,258.800 337.020,258.800 336.800 C 258.800 336.580,259.079 336.400,259.419 336.400 C 259.760 336.400,260.784 336.040,261.694 335.600 C 262.605 335.160,263.586 334.800,263.875 334.800 C 264.164 334.800,264.400 334.620,264.400 334.400 C 264.400 334.180,264.760 334.000,265.200 334.000 C 265.640 334.000,266.000 333.820,266.000 333.600 C 266.000 333.380,266.360 333.200,266.800 333.200 C 267.240 333.200,267.600 333.020,267.600 332.800 C 267.600 332.580,267.960 332.400,268.400 332.400 C 268.840 332.400,269.200 332.254,269.200 332.075 C 269.200 331.896,269.830 331.502,270.600 331.200 C 271.370 330.898,272.000 330.504,272.000 330.325 C 272.000 330.146,272.270 330.000,272.600 330.000 C 272.930 330.000,273.200 329.820,273.200 329.600 C 273.200 329.380,273.470 329.200,273.800 329.200 C 274.130 329.200,274.400 329.020,274.400 328.800 C 274.400 328.580,274.760 328.400,275.200 328.400 C 275.640 328.400,276.000 328.220,276.000 328.000 C 276.000 327.780,276.320 327.600,276.712 327.600 C 277.103 327.600,277.683 327.240,278.000 326.800 C 278.317 326.360,278.897 326.000,279.288 326.000 C 279.680 326.000,280.000 325.847,280.000 325.661 C 280.000 325.474,280.720 324.997,281.600 324.600 C 282.480 324.203,283.200 323.726,283.200 323.539 C 283.200 323.353,283.425 323.200,283.700 323.200 C 283.975 323.199,284.740 322.734,285.400 322.165 C 286.060 321.596,287.095 320.837,287.700 320.479 C 288.305 320.121,288.800 319.686,288.800 319.514 C 288.800 319.341,288.998 319.200,289.240 319.200 C 289.481 319.200,290.183 318.660,290.800 318.000 C 291.417 317.340,292.101 316.800,292.320 316.800 C 292.539 316.800,293.615 315.922,294.711 314.850 C 295.807 313.777,296.901 312.832,297.144 312.750 C 297.667 312.572,304.003 306.775,305.766 304.860 C 306.445 304.123,308.305 302.170,309.900 300.519 C 311.495 298.869,312.800 297.360,312.800 297.166 C 312.800 296.972,313.610 295.969,314.600 294.935 C 315.590 293.902,316.400 292.915,316.400 292.742 C 316.400 292.568,317.030 291.797,317.800 291.027 C 318.570 290.257,319.200 289.441,319.200 289.213 C 319.200 288.986,319.341 288.800,319.514 288.800 C 319.686 288.800,320.121 288.305,320.479 287.700 C 320.837 287.095,321.596 286.060,322.165 285.400 C 322.734 284.740,323.199 283.975,323.200 283.700 C 323.200 283.425,323.368 283.200,323.573 283.200 C 323.932 283.200,324.413 282.153,324.369 281.470 C 324.357 281.288,324.719 280.817,325.174 280.423 C 325.628 280.029,326.000 279.452,326.000 279.141 C 326.000 278.831,326.360 278.317,326.800 278.000 C 327.240 277.683,327.600 277.103,327.600 276.712 C 327.600 276.320,327.780 276.000,328.000 276.000 C 328.220 276.000,328.400 275.640,328.400 275.200 C 328.400 274.760,328.580 274.400,328.800 274.400 C 329.020 274.400,329.200 274.164,329.200 273.875 C 329.200 273.587,329.560 272.964,330.000 272.492 C 330.440 272.020,330.800 271.356,330.800 271.017 C 330.800 270.678,330.980 270.400,331.200 270.400 C 331.420 270.400,331.600 270.130,331.600 269.800 C 331.600 269.470,331.780 269.200,332.000 269.200 C 332.220 269.200,332.400 268.840,332.400 268.400 C 332.400 267.960,332.580 267.600,332.800 267.600 C 333.020 267.600,333.200 267.240,333.200 266.800 C 333.200 266.360,333.380 266.000,333.600 266.000 C 333.820 266.000,334.000 265.640,334.000 265.200 C 334.000 264.760,334.180 264.400,334.400 264.400 C 334.620 264.400,334.800 264.128,334.800 263.795 C 334.800 263.462,334.980 262.832,335.200 262.395 C 335.420 261.958,335.780 261.242,336.000 260.805 C 336.220 260.368,336.400 259.738,336.400 259.405 C 336.400 259.072,336.580 258.800,336.800 258.800 C 337.020 258.800,337.200 258.440,337.200 258.000 C 337.200 257.560,337.391 257.200,337.624 257.200 C 337.857 257.200,337.962 257.062,337.858 256.894 C 337.754 256.725,338.093 255.690,338.611 254.594 C 339.130 253.497,339.564 252.315,339.577 251.967 C 339.590 251.618,339.725 251.208,339.878 251.055 C 340.031 250.902,340.189 250.557,340.228 250.288 C 340.268 250.020,340.593 248.939,340.950 247.886 C 341.308 246.833,341.600 245.528,341.600 244.986 C 341.600 244.444,341.780 244.000,342.000 244.000 C 342.220 244.000,342.400 243.460,342.400 242.800 C 342.400 242.140,342.580 241.600,342.800 241.600 C 343.020 241.600,343.200 240.970,343.200 240.200 C 343.200 239.430,343.380 238.800,343.600 238.800 C 343.820 238.800,344.000 238.080,344.000 237.200 C 344.000 236.320,344.180 235.600,344.400 235.600 C 344.620 235.600,344.800 234.880,344.800 234.000 C 344.800 233.120,344.980 232.400,345.200 232.400 C 345.420 232.400,345.600 231.500,345.600 230.400 C 345.600 229.300,345.780 228.400,346.000 228.400 C 346.220 228.400,346.400 227.410,346.400 226.200 C 346.400 224.990,346.580 224.000,346.800 224.000 C 347.029 224.000,347.200 222.800,347.200 221.200 C 347.200 219.600,347.371 218.400,347.600 218.400 C 347.841 218.400,348.000 216.741,348.000 214.224 C 348.000 211.871,348.175 209.939,348.400 209.800 C 348.649 209.646,348.800 205.937,348.800 200.000 C 348.800 194.063,348.649 190.354,348.400 190.200 C 348.175 190.061,348.000 188.129,348.000 185.776 C 348.000 183.259,347.841 181.600,347.600 181.600 C 347.371 181.600,347.200 180.400,347.200 178.800 C 347.200 177.200,347.029 176.000,346.800 176.000 C 346.580 176.000,346.400 175.010,346.400 173.800 C 346.400 172.590,346.220 171.600,346.000 171.600 C 345.780 171.600,345.600 170.700,345.600 169.600 C 345.600 168.500,345.420 167.600,345.200 167.600 C 344.980 167.600,344.800 166.981,344.800 166.224 C 344.800 165.467,344.620 164.736,344.400 164.600 C 344.180 164.464,344.000 163.643,344.000 162.776 C 344.000 161.909,343.820 161.200,343.600 161.200 C 343.380 161.200,343.200 160.570,343.200 159.800 C 343.200 159.030,343.020 158.400,342.800 158.400 C 342.580 158.400,342.400 157.860,342.400 157.200 C 342.400 156.540,342.243 156.000,342.052 156.000 C 341.860 156.000,341.578 155.059,341.426 153.910 C 341.273 152.760,340.984 151.621,340.782 151.379 C 340.581 151.136,340.357 150.551,340.285 150.079 C 340.213 149.607,340.029 149.096,339.877 148.944 C 339.725 148.791,339.600 148.418,339.600 148.114 C 339.600 147.810,339.240 146.816,338.800 145.906 C 338.360 144.995,338.000 143.924,338.000 143.525 C 338.000 143.126,337.820 142.800,337.600 142.800 C 337.380 142.800,337.200 142.440,337.200 142.000 C 337.200 141.560,337.020 141.200,336.800 141.200 C 336.580 141.200,336.400 140.928,336.400 140.595 C 336.400 140.262,336.243 139.677,336.050 139.295 C 334.552 136.320,334.000 135.047,334.000 134.562 C 334.000 134.253,333.820 134.000,333.600 134.000 C 333.380 134.000,333.200 133.640,333.200 133.200 C 333.200 132.760,333.020 132.400,332.800 132.400 C 332.580 132.400,332.400 132.029,332.400 131.576 C 332.400 131.123,332.220 130.864,332.000 131.000 C 331.780 131.136,331.600 130.877,331.600 130.424 C 331.600 129.971,331.420 129.600,331.200 129.600 C 330.980 129.600,330.800 129.322,330.800 128.983 C 330.800 128.644,330.440 127.980,330.000 127.508 C 329.560 127.036,329.200 126.413,329.200 126.125 C 329.200 125.836,329.020 125.600,328.800 125.600 C 328.580 125.600,328.400 125.240,328.400 124.800 C 328.400 124.360,328.220 124.000,328.000 124.000 C 327.780 124.000,327.600 123.680,327.600 123.288 C 327.600 122.897,327.240 122.317,326.800 122.000 C 326.360 121.683,326.000 121.169,326.000 120.859 C 326.000 120.548,325.628 119.971,325.174 119.577 C 324.719 119.183,324.386 118.802,324.432 118.730 C 324.634 118.421,323.912 116.800,323.573 116.800 C 323.368 116.800,323.200 116.564,323.200 116.275 C 323.200 115.987,322.885 115.396,322.500 114.962 C 321.179 113.472,319.200 110.847,319.200 110.584 C 319.200 110.439,318.660 109.817,318.000 109.200 C 317.340 108.583,316.800 107.921,316.800 107.727 C 316.800 107.533,315.900 106.431,314.800 105.278 C 313.700 104.125,312.800 103.024,312.800 102.832 C 312.800 102.639,311.495 101.131,309.900 99.481 C 308.305 97.830,306.441 95.877,305.757 95.140 C 303.681 92.903,297.489 87.200,297.135 87.200 C 296.953 87.200,295.885 86.300,294.761 85.200 C 293.638 84.100,292.539 83.200,292.320 83.200 C 292.101 83.200,291.417 82.660,290.800 82.000 C 290.183 81.340,289.481 80.800,289.240 80.800 C 288.998 80.800,288.800 80.659,288.800 80.486 C 288.800 80.314,288.305 79.879,287.700 79.521 C 287.095 79.163,286.060 78.404,285.400 77.835 C 284.740 77.266,283.975 76.801,283.700 76.800 C 283.425 76.800,283.200 76.647,283.200 76.461 C 283.200 76.274,282.480 75.797,281.600 75.400 C 280.720 75.003,280.000 74.526,280.000 74.339 C 280.000 74.153,279.680 74.000,279.288 74.000 C 278.897 74.000,278.317 73.640,278.000 73.200 C 277.683 72.760,277.103 72.400,276.712 72.400 C 276.320 72.400,276.000 72.220,276.000 72.000 C 276.000 71.780,275.640 71.600,275.200 71.600 C 274.760 71.600,274.400 71.420,274.400 71.200 C 274.400 70.980,274.130 70.800,273.800 70.800 C 273.470 70.800,273.200 70.620,273.200 70.400 C 273.200 70.180,272.930 70.000,272.600 70.000 C 272.270 70.000,272.000 69.854,272.000 69.675 C 272.000 69.496,271.370 69.102,270.600 68.800 C 269.830 68.498,269.200 68.104,269.200 67.925 C 269.200 67.746,268.840 67.600,268.400 67.600 C 267.960 67.600,267.600 67.420,267.600 67.200 C 267.600 66.980,267.366 66.800,267.080 66.800 C 266.344 66.800,264.407 65.859,264.403 65.500 C 264.401 65.335,264.044 65.200,263.610 65.200 C 263.175 65.200,262.230 64.841,261.510 64.401 C 260.789 63.962,259.885 63.602,259.500 63.601 C 259.115 63.601,258.800 63.420,258.800 63.200 C 258.800 62.980,258.440 62.800,258.000 62.800 C 257.560 62.800,257.200 62.620,257.200 62.400 C 257.200 62.180,256.750 62.000,256.200 62.000 C 255.650 62.000,255.199 61.865,255.198 61.700 C 255.197 61.535,253.802 60.965,252.098 60.434 C 250.394 59.903,248.794 59.311,248.542 59.120 C 248.290 58.929,247.930 58.808,247.742 58.852 C 247.258 58.964,245.131 58.422,244.305 57.976 C 243.923 57.769,243.158 57.600,242.605 57.600 C 242.052 57.600,241.600 57.420,241.600 57.200 C 241.600 56.980,240.981 56.800,240.224 56.800 C 239.467 56.800,238.736 56.620,238.600 56.400 C 238.464 56.180,237.834 56.000,237.200 56.000 C 236.566 56.000,235.936 55.820,235.800 55.600 C 235.664 55.380,234.843 55.200,233.976 55.200 C 233.109 55.200,232.400 55.020,232.400 54.800 C 232.400 54.580,231.500 54.400,230.400 54.400 C 229.300 54.400,228.400 54.220,228.400 54.000 C 228.400 53.780,227.410 53.600,226.200 53.600 C 224.990 53.600,224.000 53.420,224.000 53.200 C 224.000 52.971,222.800 52.800,221.200 52.800 C 219.600 52.800,218.400 52.629,218.400 52.400 C 218.400 52.158,216.667 52.000,214.000 52.000 C 211.333 52.000,209.600 51.842,209.600 51.600 C 209.600 51.344,206.133 51.200,200.000 51.200 C 193.867 51.200,190.400 51.344,190.400 51.600 M199.000 88.000 C 199.000 88.774,198.774 89.022,198.000 89.096 C 187.157 90.139,180.481 91.852,172.543 95.631 C 169.764 96.953,168.987 97.065,168.652 96.191 C 168.224 95.075,169.635 94.099,175.000 91.802 C 177.226 90.848,179.793 89.899,181.000 89.583 C 181.660 89.411,183.190 89.007,184.400 88.687 C 185.610 88.367,187.950 87.902,189.600 87.654 C 191.250 87.405,193.050 87.132,193.600 87.047 C 196.709 86.565,199.000 86.969,199.000 88.000 M211.600 87.797 C 213.250 88.125,215.230 88.565,216.000 88.774 C 216.770 88.984,218.030 89.324,218.800 89.531 C 220.385 89.958,221.356 90.287,222.800 90.890 C 223.350 91.119,224.160 91.441,224.600 91.605 C 228.641 93.107,235.980 97.510,240.200 100.963 C 246.562 106.169,253.818 114.930,252.932 116.336 C 252.011 117.795,251.818 117.657,248.523 113.200 C 242.461 104.998,232.897 97.628,223.400 93.840 C 218.443 91.863,211.659 90.000,209.414 90.000 C 206.004 90.000,203.480 88.653,204.667 87.467 C 205.120 87.013,208.457 87.172,211.600 87.797 M164.183 99.499 C 164.375 100.001,164.022 100.568,162.925 101.514 C 156.614 106.958,151.805 112.098,149.717 115.632 C 148.467 117.748,146.006 117.231,147.151 115.092 C 150.898 108.089,163.168 96.856,164.183 99.499 M202.457 99.664 C 213.095 102.851,208.822 118.684,197.953 116.353 C 188.838 114.398,189.087 103.507,198.327 99.989 C 200.665 99.099,200.590 99.105,202.457 99.664 M175.875 112.244 C 177.556 112.995,179.756 115.609,180.336 117.543 C 182.984 126.384,171.508 132.628,165.504 125.614 C 159.341 118.413,167.149 108.347,175.875 112.244 M231.875 112.242 C 233.557 112.996,235.756 115.610,236.336 117.543 C 238.989 126.398,227.507 132.626,221.490 125.596 C 215.355 118.429,223.193 108.349,231.875 112.242 M139.123 128.411 C 140.155 128.638,141.900 129.014,143.000 129.248 C 155.827 131.976,168.427 140.785,176.396 152.594 C 183.137 162.583,185.935 175.951,182.625 182.353 C 182.281 183.017,182.000 183.872,182.000 184.252 C 182.000 184.843,185.663 190.615,186.409 191.200 C 186.550 191.310,187.591 192.750,188.724 194.400 C 189.857 196.050,191.880 198.930,193.220 200.800 C 200.247 210.609,199.203 213.104,186.800 216.150 L 184.600 216.690 184.342 226.245 C 183.980 239.629,182.960 243.641,178.757 248.201 C 175.675 251.544,174.877 251.733,162.800 251.982 L 152.200 252.200 152.094 264.154 L 151.988 276.108 148.294 275.850 C 146.262 275.709,142.710 275.422,140.400 275.215 C 138.090 275.007,134.040 274.645,131.400 274.410 C 128.760 274.176,124.665 273.807,122.300 273.592 C 119.935 273.376,116.065 273.024,113.700 272.808 C 111.335 272.593,107.240 272.215,104.600 271.970 C 101.960 271.725,98.090 271.406,96.000 271.262 L 92.200 271.000 91.964 255.000 C 91.834 246.200,91.593 238.460,91.428 237.800 C 90.005 232.094,86.760 224.771,83.275 219.400 C 78.790 212.487,77.897 210.942,76.800 208.200 C 76.580 207.650,76.238 206.795,76.040 206.300 C 74.787 203.162,73.844 199.388,72.787 193.279 C 72.127 189.458,72.238 177.626,72.972 173.600 C 73.923 168.391,74.887 164.890,76.277 161.600 C 80.315 152.046,86.155 144.899,94.553 139.232 C 97.804 137.038,105.928 132.800,106.882 132.800 C 107.189 132.800,107.611 132.649,107.820 132.465 C 108.531 131.838,114.427 129.997,118.200 129.224 C 119.300 128.998,120.920 128.649,121.800 128.448 C 124.028 127.939,136.843 127.912,139.123 128.411 M282.094 128.377 C 283.032 128.585,284.790 128.962,286.000 129.214 C 289.476 129.941,292.971 131.039,297.400 132.794 C 313.262 139.080,324.050 149.933,329.004 164.585 C 334.414 180.588,332.236 202.239,323.970 214.616 C 313.090 230.906,312.003 234.642,311.994 255.773 C 311.987 272.310,312.285 271.019,308.400 271.334 C 306.750 271.468,303.240 271.769,300.600 272.005 C 297.960 272.240,293.820 272.609,291.400 272.825 C 288.980 273.041,285.020 273.391,282.600 273.602 C 275.917 274.187,270.360 274.689,264.400 275.249 C 261.430 275.528,257.470 275.766,255.600 275.778 L 252.200 275.800 252.094 263.900 L 251.988 252.000 242.894 251.971 C 229.419 251.928,227.197 251.261,223.919 246.282 C 220.787 241.525,220.329 239.247,220.043 227.000 L 219.800 216.600 218.800 216.470 C 217.072 216.247,209.438 213.961,208.578 213.410 C 206.093 211.819,206.727 205.226,209.598 202.800 C 209.728 202.690,210.650 201.430,211.647 200.000 C 212.644 198.570,215.352 194.700,217.665 191.400 C 222.569 184.403,222.597 184.342,221.735 182.675 C 218.408 176.244,220.757 163.189,226.872 154.128 C 227.492 153.208,228.000 152.263,228.000 152.028 C 228.000 151.793,228.141 151.600,228.314 151.600 C 228.486 151.600,228.954 151.048,229.352 150.373 C 230.135 149.048,233.506 145.317,236.400 142.572 C 243.893 135.465,253.063 130.848,264.400 128.473 C 266.796 127.971,279.937 127.900,282.094 128.377 M125.200 134.236 C 120.747 134.760,113.794 136.490,110.200 137.969 C 99.535 142.358,92.413 147.487,87.283 154.473 C 75.330 170.753,75.315 196.411,87.247 214.246 C 89.704 217.918,90.829 219.872,92.748 223.800 C 97.678 233.891,98.000 235.646,98.000 252.428 L 98.000 265.185 98.900 265.367 C 99.395 265.468,101.420 265.651,103.400 265.775 C 105.380 265.899,108.890 266.168,111.200 266.373 C 113.510 266.578,118.730 267.039,122.800 267.397 C 126.870 267.755,132.000 268.217,134.200 268.422 C 136.400 268.628,139.955 268.914,142.100 269.058 L 146.000 269.321 146.000 257.660 L 146.000 246.000 158.351 246.000 C 177.561 246.000,178.000 245.496,178.000 223.444 L 178.000 211.728 180.100 211.277 C 181.255 211.030,182.740 210.723,183.400 210.596 C 184.060 210.468,185.320 210.179,186.200 209.953 C 187.080 209.727,188.373 209.447,189.073 209.331 C 191.214 208.974,190.939 208.316,185.306 200.327 C 177.267 188.927,176.612 187.935,176.083 186.372 C 175.289 184.024,175.351 183.650,177.257 179.304 C 178.099 177.382,178.242 173.614,177.568 171.046 C 177.331 170.141,176.950 168.680,176.723 167.800 C 176.495 166.920,176.149 165.795,175.954 165.300 C 175.095 163.118,174.844 162.519,174.237 161.200 C 171.601 155.475,166.023 148.695,160.400 144.381 C 159.410 143.621,158.540 142.865,158.467 142.700 C 158.393 142.535,158.156 142.400,157.939 142.400 C 157.722 142.400,156.792 141.888,155.872 141.263 C 152.324 138.849,146.143 136.315,140.200 134.838 C 138.200 134.341,127.842 133.925,125.200 134.236 M267.000 134.382 C 262.751 135.078,261.723 135.306,259.400 136.067 C 254.307 137.734,246.439 141.784,244.800 143.581 C 244.690 143.701,243.711 144.515,242.626 145.388 C 236.497 150.316,228.400 161.573,228.400 165.164 C 228.400 165.410,228.238 165.923,228.039 166.305 C 225.827 170.562,225.659 176.389,227.626 180.696 C 228.988 183.679,228.310 187.824,226.062 190.243 C 225.676 190.659,225.228 191.270,225.068 191.600 C 224.908 191.930,223.791 193.550,222.587 195.200 C 213.663 207.429,212.889 208.885,215.068 209.332 C 215.691 209.460,217.100 209.761,218.200 210.000 C 219.300 210.240,221.010 210.597,222.000 210.794 C 222.990 210.990,224.295 211.273,224.900 211.422 L 226.000 211.693 226.000 222.547 C 226.000 236.299,226.825 240.786,229.941 243.978 C 231.660 245.739,232.039 245.789,245.400 245.999 L 258.200 246.200 258.306 257.700 L 258.412 269.200 260.706 269.199 C 261.968 269.198,264.530 269.025,266.400 268.814 C 268.270 268.604,275.380 267.971,282.200 267.409 C 289.020 266.847,296.142 266.210,298.027 265.993 C 299.912 265.777,302.252 265.597,303.227 265.594 C 306.115 265.584,305.952 266.389,306.140 251.186 C 306.306 237.670,306.525 234.217,307.242 233.774 C 307.439 233.652,307.600 233.124,307.600 232.600 C 307.600 232.076,307.780 231.536,308.000 231.400 C 308.220 231.264,308.400 230.820,308.400 230.414 C 308.400 230.008,308.786 228.894,309.257 227.938 C 309.728 226.982,310.313 225.750,310.556 225.200 C 310.800 224.650,311.089 224.110,311.199 224.000 C 311.310 223.890,312.014 222.630,312.763 221.200 C 313.513 219.770,315.604 216.314,317.408 213.521 C 319.213 210.728,321.092 207.398,321.584 206.121 C 322.076 204.844,322.620 203.440,322.793 203.000 C 323.098 202.227,323.595 200.435,324.372 197.300 C 325.412 193.109,325.660 189.809,325.481 182.600 C 325.302 175.444,325.028 172.934,324.060 169.600 C 323.837 168.830,323.537 167.750,323.394 167.200 C 322.253 162.821,317.971 155.365,314.179 151.155 C 312.137 148.888,307.818 145.155,306.334 144.372 C 305.820 144.102,305.310 143.772,305.200 143.640 C 304.749 143.098,299.763 140.523,295.514 138.635 C 292.750 137.408,288.351 136.054,283.600 134.969 C 280.582 134.280,269.924 133.903,267.000 134.382 M119.251 155.795 C 122.774 157.348,124.523 159.974,124.551 163.753 C 124.583 167.980,123.519 169.686,119.413 171.992 C 117.872 172.858,113.851 173.131,113.400 172.400 C 113.264 172.180,112.803 172.000,112.376 172.000 C 111.949 172.000,111.600 171.850,111.600 171.668 C 111.600 171.485,111.156 171.097,110.613 170.807 C 108.217 169.525,106.479 164.565,107.776 162.713 C 108.119 162.223,108.400 161.576,108.400 161.276 C 108.400 160.777,110.454 157.574,111.400 156.598 C 112.767 155.189,116.914 154.764,119.251 155.795 M146.600 155.600 C 146.736 155.820,147.157 156.000,147.535 156.000 C 150.921 156.000,153.898 164.034,151.911 167.808 C 149.687 172.031,144.239 174.044,140.587 171.992 C 137.751 170.400,137.224 169.904,136.219 167.888 C 133.858 163.150,136.096 158.182,141.404 156.379 C 142.282 156.081,143.171 155.693,143.380 155.518 C 143.923 155.064,146.306 155.124,146.600 155.600 M275.354 155.807 C 279.704 157.624,281.978 163.263,280.029 167.400 C 276.642 174.589,267.075 174.573,263.989 167.374 C 260.943 160.268,268.244 152.836,275.354 155.807 M119.930 184.240 C 123.527 186.032,125.836 190.960,124.229 193.413 C 123.883 193.940,123.600 194.563,123.600 194.796 C 123.600 195.840,120.655 199.445,119.276 200.090 C 116.355 201.454,112.288 200.651,109.870 198.234 C 104.414 192.778,108.320 183.200,116.000 183.200 C 117.183 183.200,118.590 183.572,119.930 184.240 M148.048 184.318 C 153.547 187.190,154.300 195.752,149.340 199.003 C 147.521 200.195,140.260 199.987,138.275 198.686 C 131.991 194.569,136.194 183.200,144.000 183.200 C 145.312 183.200,146.577 183.549,148.048 184.318 M275.400 183.952 C 284.402 188.081,281.008 201.652,271.209 200.711 C 260.370 199.669,261.114 183.218,272.000 183.218 C 272.990 183.218,274.520 183.548,275.400 183.952 " stroke="none" fill="#e9e1ae" fill-rule="evenodd"></path><path id="path1" d="M190.600 88.000 C 190.160 88.189,189.183 88.356,188.428 88.372 C 187.674 88.387,186.504 88.568,185.828 88.773 C 185.153 88.978,183.790 89.359,182.800 89.618 C 181.810 89.878,180.640 90.233,180.200 90.405 C 179.760 90.578,178.770 90.939,178.000 91.207 C 172.721 93.044,168.716 95.276,169.426 95.986 C 169.790 96.350,171.123 95.838,175.738 93.559 C 176.584 93.142,177.583 92.800,177.958 92.800 C 178.333 92.800,178.811 92.651,179.020 92.470 C 179.229 92.288,180.210 91.907,181.200 91.623 C 182.190 91.339,183.450 90.970,184.000 90.803 C 186.610 90.010,193.542 88.879,196.969 88.688 C 197.832 88.639,198.612 88.375,198.702 88.100 C 198.896 87.510,191.939 87.425,190.600 88.000 M204.800 88.083 C 204.800 88.647,208.582 89.600,210.818 89.600 C 211.327 89.600,212.296 89.768,212.972 89.973 C 213.647 90.178,215.010 90.562,216.000 90.826 C 223.176 92.743,227.893 94.882,234.394 99.168 C 239.698 102.665,246.244 108.935,249.371 113.514 C 251.204 116.200,252.400 117.128,252.400 115.866 C 252.400 115.107,249.516 111.077,246.647 107.830 C 241.046 101.488,232.739 95.600,224.600 92.201 C 223.720 91.833,222.687 91.368,222.305 91.166 C 221.923 90.965,221.259 90.800,220.829 90.800 C 220.399 90.800,219.949 90.641,219.829 90.446 C 219.708 90.251,219.113 89.993,218.505 89.871 C 217.897 89.749,216.590 89.446,215.600 89.197 C 210.341 87.875,204.800 87.303,204.800 88.083 M159.853 101.609 C 154.985 105.525,147.600 114.116,147.600 115.863 C 147.600 117.120,148.789 116.210,150.591 113.571 C 152.652 110.556,157.919 104.987,161.696 101.829 C 163.736 100.124,164.264 99.200,163.200 99.200 C 163.006 99.200,161.500 100.284,159.853 101.609 M200.200 100.400 C 200.336 100.620,200.859 100.800,201.362 100.800 C 206.334 100.800,209.173 108.214,205.863 112.553 C 200.539 119.533,189.296 112.300,193.346 104.500 C 193.717 103.785,193.866 103.200,193.678 103.200 C 192.519 103.200,191.367 107.674,192.010 109.676 C 194.804 118.379,205.186 118.415,207.972 109.732 C 209.256 105.731,205.218 100.000,201.115 100.000 C 200.442 100.000,200.057 100.168,200.200 100.400 M168.546 112.615 C 166.853 113.357,164.470 116.220,164.157 117.888 C 162.148 128.598,176.864 132.286,179.944 121.845 C 181.742 115.749,174.596 109.962,168.546 112.615 M224.546 112.615 C 221.303 114.037,219.093 118.580,220.056 121.845 C 223.085 132.111,237.421 128.870,235.833 118.278 C 235.127 113.572,229.175 110.586,224.546 112.615 M174.144 112.890 C 177.779 113.980,180.248 118.260,179.220 121.691 C 176.680 130.170,164.789 128.771,164.747 119.987 C 164.722 114.854,169.260 111.427,174.144 112.890 M230.082 112.872 C 238.162 115.293,236.424 127.213,227.984 127.253 C 221.278 127.285,218.050 119.550,222.791 114.809 C 224.945 112.655,227.283 112.033,230.082 112.872 M121.921 129.017 C 113.539 130.430,102.831 134.374,97.328 138.075 C 96.408 138.694,95.478 139.200,95.261 139.200 C 95.044 139.200,94.807 139.345,94.733 139.523 C 94.660 139.701,93.705 140.458,92.610 141.204 C 86.642 145.277,79.679 154.370,76.839 161.800 C 76.335 163.120,75.780 164.560,75.607 165.000 C 75.299 165.780,74.688 167.970,73.988 170.800 C 73.209 173.948,73.012 176.552,73.022 183.600 C 73.031 190.527,73.326 193.732,74.402 198.600 C 74.645 199.700,74.944 201.187,75.066 201.904 C 75.188 202.621,75.449 203.306,75.644 203.427 C 75.840 203.548,76.000 203.999,76.000 204.429 C 76.000 204.859,76.164 205.523,76.364 205.905 C 76.564 206.287,77.294 207.844,77.986 209.364 C 78.678 210.884,80.069 213.403,81.078 214.963 C 87.598 225.041,90.189 230.467,91.939 237.706 C 92.246 238.974,92.400 244.758,92.400 255.006 C 92.400 263.473,92.445 270.404,92.500 270.409 C 92.555 270.415,94.715 270.595,97.300 270.809 C 102.062 271.205,107.970 271.724,115.600 272.418 C 117.910 272.628,121.870 272.984,124.400 273.208 C 126.930 273.433,130.935 273.793,133.300 274.008 C 135.665 274.224,139.535 274.575,141.900 274.789 C 144.265 275.003,147.415 275.298,148.900 275.444 L 151.600 275.710 151.600 263.694 L 151.600 251.678 162.100 251.495 C 174.498 251.280,174.971 251.178,178.000 248.063 C 182.665 243.265,183.600 239.588,183.600 226.044 L 183.600 216.528 185.100 216.089 C 185.925 215.848,187.500 215.437,188.600 215.176 C 195.343 213.575,196.800 212.568,196.800 209.510 C 196.800 207.436,194.662 202.743,193.196 201.600 C 193.055 201.490,192.191 200.320,191.277 199.000 C 190.362 197.680,188.517 195.070,187.178 193.200 C 180.949 184.506,181.078 184.879,182.752 180.400 C 184.052 176.919,183.858 172.824,182.070 166.000 C 181.221 162.762,178.595 156.937,176.717 154.128 C 176.103 153.208,175.600 152.278,175.600 152.061 C 175.600 151.844,175.465 151.607,175.300 151.533 C 175.135 151.460,174.247 150.410,173.328 149.200 C 166.901 140.745,155.924 133.353,145.417 130.405 C 138.376 128.429,128.772 127.862,121.921 129.017 M266.400 128.780 C 265.630 128.945,263.740 129.312,262.200 129.595 C 256.762 130.596,246.016 135.185,243.374 137.634 C 242.920 138.055,242.350 138.400,242.108 138.400 C 241.865 138.400,241.607 138.542,241.533 138.715 C 241.460 138.888,240.593 139.653,239.607 140.415 C 233.306 145.283,223.624 158.354,223.603 162.020 C 223.602 162.361,223.451 162.811,223.270 163.020 C 222.791 163.570,221.562 167.850,220.826 171.531 C 220.063 175.347,220.484 178.778,222.106 181.961 C 223.059 183.830,222.863 185.630,221.581 186.800 C 221.460 186.910,220.934 187.630,220.411 188.400 C 219.888 189.170,216.918 193.400,213.809 197.800 C 205.404 209.699,205.240 212.395,212.800 214.425 C 215.823 215.236,216.930 215.530,218.700 215.990 L 220.400 216.432 220.400 225.610 C 220.400 230.872,220.588 235.602,220.841 236.694 C 222.670 244.609,224.860 248.188,229.168 250.304 L 231.400 251.400 241.900 251.539 L 252.400 251.678 252.400 263.691 L 252.400 275.705 255.300 275.463 C 256.895 275.329,260.270 275.032,262.800 274.801 C 265.330 274.571,269.380 274.210,271.800 274.000 C 274.220 273.790,278.180 273.437,280.600 273.217 C 283.020 272.996,287.070 272.643,289.600 272.432 C 292.130 272.220,295.010 271.953,296.000 271.839 C 296.990 271.724,300.320 271.433,303.400 271.192 C 306.480 270.951,309.585 270.666,310.300 270.559 L 311.600 270.364 311.600 254.988 C 311.600 239.241,311.666 238.403,313.310 233.400 C 314.787 228.904,318.799 221.412,323.590 214.200 C 325.705 211.017,326.720 208.924,327.955 205.200 C 329.437 200.733,329.588 200.135,330.836 193.800 C 331.457 190.645,331.450 176.903,330.825 173.800 C 327.994 159.739,321.685 148.839,312.162 141.555 C 300.024 132.271,278.355 126.222,266.400 128.780 M141.200 134.565 C 146.765 135.834,151.682 137.786,155.072 140.072 C 155.992 140.693,156.852 141.200,156.984 141.200 C 160.550 141.200,176.000 159.801,176.000 164.095 C 176.000 164.395,176.149 164.811,176.330 165.020 C 176.512 165.229,176.893 166.210,177.177 167.200 C 177.461 168.190,177.852 169.522,178.047 170.160 C 178.735 172.417,178.474 178.474,177.629 179.859 C 175.037 184.110,176.798 188.322,186.382 200.800 C 191.459 207.409,192.146 209.262,189.687 209.712 C 189.089 209.821,187.610 210.179,186.400 210.508 C 185.190 210.836,183.004 211.336,181.542 211.618 L 178.883 212.130 178.692 224.365 C 178.486 237.486,178.366 238.349,176.189 242.350 C 175.576 243.475,174.478 244.689,173.497 245.326 L 171.840 246.400 159.120 246.400 L 146.400 246.400 146.400 257.976 C 146.400 264.343,146.245 269.648,146.056 269.765 C 145.667 270.006,141.451 269.688,123.000 268.029 C 113.331 267.160,109.687 266.844,104.400 266.418 C 101.430 266.178,98.685 265.884,98.300 265.764 C 97.653 265.563,97.600 264.613,97.600 253.297 C 97.600 239.940,97.364 237.662,95.313 231.200 C 94.319 228.066,92.438 224.025,90.314 220.459 C 89.481 219.062,88.800 217.857,88.800 217.782 C 88.800 217.707,87.546 215.718,86.012 213.363 C 83.361 209.289,81.116 204.655,80.314 201.600 C 78.408 194.334,78.207 192.626,78.222 183.800 C 78.242 172.255,79.112 168.154,83.341 159.676 C 92.412 141.490,119.676 129.657,141.200 134.565 M282.562 134.205 C 287.413 135.133,290.207 135.926,294.170 137.498 C 298.239 139.113,305.329 142.698,305.533 143.244 C 305.607 143.440,305.888 143.600,306.158 143.600 C 306.428 143.600,306.998 143.915,307.425 144.300 C 307.852 144.685,308.852 145.486,309.647 146.080 C 317.533 151.967,322.900 161.251,325.670 173.800 C 326.389 177.055,326.387 190.958,325.668 194.200 C 324.309 200.324,323.831 202.141,323.091 204.000 C 322.872 204.550,322.561 205.360,322.400 205.800 C 321.710 207.685,320.906 209.172,319.115 211.873 C 314.251 219.214,310.005 227.174,308.487 231.800 C 306.646 237.406,306.400 239.909,306.400 253.007 C 306.400 260.373,306.245 265.648,306.025 265.784 C 305.819 265.912,303.434 266.196,300.725 266.416 C 298.016 266.636,293.730 267.001,291.200 267.228 C 266.079 269.480,258.430 270.066,257.957 269.773 C 257.760 269.652,257.600 264.343,257.600 257.976 L 257.600 246.400 245.187 246.400 C 231.449 246.400,230.860 246.310,229.118 243.942 C 226.037 239.756,225.600 237.233,225.600 223.654 L 225.600 212.147 222.900 211.634 C 213.590 209.867,211.823 209.000,213.417 206.981 C 213.757 206.552,216.198 203.140,218.842 199.400 C 221.486 195.660,224.383 191.587,225.279 190.349 C 226.953 188.037,227.983 185.673,227.994 184.119 C 228.000 183.241,227.753 182.519,226.343 179.304 C 224.692 175.538,225.921 168.550,229.632 160.600 C 231.947 155.640,238.368 147.750,242.734 144.496 C 243.540 143.896,244.290 143.300,244.400 143.172 C 250.128 136.519,270.114 131.823,282.562 134.205 M114.200 156.000 C 114.064 156.220,113.591 156.400,113.148 156.400 C 112.442 156.400,111.200 157.237,111.200 157.712 C 111.200 157.806,112.246 157.516,113.524 157.068 C 121.734 154.192,127.283 165.127,120.116 170.058 C 115.562 173.191,110.221 170.838,108.618 164.993 L 108.072 163.000 108.036 164.662 C 107.936 169.291,113.360 173.213,117.977 171.850 C 123.695 170.162,125.882 163.791,122.400 158.967 C 120.775 156.716,115.040 154.640,114.200 156.000 M144.000 155.948 C 144.000 156.139,144.842 156.532,145.872 156.820 C 149.792 157.918,152.247 162.061,151.197 165.809 C 149.439 172.089,140.925 173.346,137.658 167.809 C 136.736 166.245,136.415 161.485,137.200 161.000 C 137.664 160.713,137.744 159.599,137.300 159.603 C 136.663 159.610,136.000 161.860,136.000 164.018 C 136.000 172.007,146.381 175.133,150.783 168.469 C 153.252 164.730,151.783 158.650,148.000 156.949 C 144.930 155.569,144.000 155.336,144.000 155.948 M269.800 156.149 C 261.749 159.194,262.060 169.862,270.258 171.913 C 279.065 174.116,284.230 160.655,276.000 156.950 C 272.674 155.452,271.905 155.353,269.800 156.149 M274.144 156.890 C 277.790 157.983,280.243 162.251,279.218 165.720 C 276.735 174.126,264.933 172.848,264.829 164.161 C 264.764 158.758,269.095 155.378,274.144 156.890 M113.655 184.148 C 104.855 187.332,106.664 199.993,115.920 199.999 C 118.340 200.000,120.800 199.208,120.800 198.427 C 120.800 198.002,119.277 198.352,118.970 198.848 C 118.639 199.384,113.710 199.268,112.695 198.700 C 108.218 196.198,107.266 190.334,110.768 186.832 C 115.427 182.173,122.206 184.753,123.578 191.707 L 123.912 193.400 123.956 191.561 C 124.076 186.537,118.380 182.438,113.655 184.148 M141.755 184.110 C 135.618 186.525,133.865 194.067,138.506 198.092 C 139.789 199.205,140.258 198.919,139.148 197.700 C 135.899 194.134,135.889 188.919,139.124 186.374 C 146.704 180.411,155.806 190.304,149.164 197.287 C 148.362 198.129,147.843 198.903,148.009 199.006 C 148.450 199.278,150.660 196.903,151.381 195.383 C 154.243 189.353,147.751 181.751,141.755 184.110 M269.796 184.110 C 260.736 187.795,262.568 200.000,272.181 200.000 C 280.783 200.000,283.262 188.332,275.443 184.643 C 273.433 183.695,271.310 183.494,269.796 184.110 M274.144 184.890 C 277.790 185.983,280.243 190.251,279.218 193.720 C 276.742 202.103,264.772 200.714,264.753 192.041 C 264.741 186.741,269.140 183.391,274.144 184.890 " stroke="none" fill="#45302f" fill-rule="evenodd"></path><path id="path2" d="M327.800 43.600 C 327.664 43.820,327.220 44.000,326.814 44.000 C 324.745 44.000,317.600 49.712,317.600 51.367 C 317.600 51.715,317.420 52.000,317.200 52.000 C 316.980 52.000,316.800 52.360,316.800 52.800 C 316.800 53.240,316.620 53.600,316.400 53.600 C 316.180 53.600,316.000 54.129,316.000 54.776 C 316.000 55.423,315.820 56.064,315.600 56.200 C 315.379 56.336,315.200 58.130,315.200 60.200 C 315.200 62.270,315.379 64.064,315.600 64.200 C 315.820 64.336,316.000 64.977,316.000 65.624 C 316.000 66.271,316.180 66.800,316.400 66.800 C 316.620 66.800,316.800 67.160,316.800 67.600 C 316.800 68.040,316.980 68.400,317.200 68.400 C 317.420 68.400,317.600 68.638,317.600 68.929 C 317.600 69.629,321.882 74.000,322.568 74.000 C 322.862 74.000,323.326 74.270,323.600 74.600 C 323.874 74.930,324.526 75.200,325.049 75.200 C 325.572 75.200,326.000 75.380,326.000 75.600 C 326.000 75.820,326.619 76.000,327.376 76.000 C 328.133 76.000,328.864 76.180,329.000 76.400 C 329.136 76.620,330.497 76.800,332.024 76.800 C 333.608 76.800,334.800 76.628,334.800 76.400 C 334.800 76.180,335.520 76.000,336.400 76.000 C 337.280 76.000,338.000 75.820,338.000 75.600 C 338.000 75.380,338.364 75.200,338.809 75.200 C 340.463 75.200,344.807 71.740,345.968 69.497 C 346.280 68.894,346.685 68.400,346.868 68.400 C 347.050 68.400,347.200 68.051,347.200 67.624 C 347.200 67.197,347.380 66.736,347.600 66.600 C 347.820 66.464,348.000 65.733,348.000 64.976 C 348.000 64.219,348.180 63.600,348.400 63.600 C 348.637 63.600,348.800 62.141,348.800 60.024 C 348.800 58.057,348.620 56.336,348.400 56.200 C 348.180 56.064,348.000 55.423,348.000 54.776 C 348.000 54.129,347.820 53.600,347.600 53.600 C 347.380 53.600,347.200 53.240,347.200 52.800 C 347.200 52.360,347.020 52.000,346.800 52.000 C 346.580 52.000,346.400 51.713,346.400 51.363 C 346.400 49.724,339.237 44.000,337.186 44.000 C 336.780 44.000,336.336 43.820,336.200 43.600 C 336.062 43.377,334.204 43.200,332.000 43.200 C 329.796 43.200,327.938 43.377,327.800 43.600 M306.000 47.600 C 306.000 47.820,305.705 48.000,305.344 48.000 C 302.815 48.000,302.924 54.977,305.474 56.335 C 307.726 57.534,312.000 56.279,312.000 54.418 C 312.000 54.188,312.180 54.000,312.400 54.000 C 312.620 54.000,312.800 53.100,312.800 52.000 C 312.800 50.900,312.620 50.000,312.400 50.000 C 312.180 50.000,312.000 49.812,312.000 49.582 C 312.000 48.388,310.013 47.200,308.018 47.200 C 306.908 47.200,306.000 47.380,306.000 47.600 M55.200 239.953 C 55.200 240.199,54.660 240.400,54.000 240.400 C 53.340 240.400,52.800 240.580,52.800 240.800 C 52.800 241.020,52.440 241.200,52.000 241.200 C 51.560 241.200,51.200 241.368,51.200 241.573 C 51.200 241.778,50.820 242.067,50.356 242.214 C 49.394 242.519,46.400 245.114,46.400 245.642 C 46.400 245.834,46.108 246.332,45.750 246.750 C 43.847 248.973,42.323 258.662,43.630 260.236 C 43.833 260.481,44.039 261.158,44.087 261.740 C 44.135 262.323,44.282 262.800,44.413 262.800 C 44.544 262.800,44.898 263.430,45.200 264.200 C 45.502 264.970,45.896 265.600,46.075 265.600 C 46.254 265.600,46.400 265.785,46.400 266.011 C 46.400 267.237,52.140 271.600,53.754 271.600 C 54.110 271.600,54.400 271.780,54.400 272.000 C 54.400 272.220,55.199 272.400,56.176 272.400 C 57.153 272.400,58.053 272.563,58.177 272.762 C 58.431 273.174,61.426 273.107,61.853 272.681 C 62.007 272.526,62.913 272.400,63.867 272.400 C 64.820 272.400,65.600 272.220,65.600 272.000 C 65.600 271.780,65.958 271.600,66.395 271.600 C 67.235 271.600,68.800 270.471,68.800 269.865 C 68.800 269.668,69.745 268.484,70.900 267.235 C 72.812 265.166,73.898 263.389,75.149 260.281 C 75.872 258.488,75.705 253.277,74.852 250.942 C 72.393 244.214,67.084 240.558,59.200 240.163 C 58.210 240.113,56.905 239.945,56.300 239.790 C 55.588 239.607,55.200 239.664,55.200 239.953 M258.177 257.800 C 258.177 264.180,258.232 266.734,258.299 263.476 C 258.367 260.217,258.366 254.997,258.299 251.876 C 258.231 248.754,258.176 251.420,258.177 257.800 M322.200 295.331 C 321.540 295.531,320.687 295.853,320.305 296.047 C 319.923 296.241,319.437 296.400,319.224 296.400 C 318.631 296.400,317.065 298.110,316.453 299.425 C 316.153 300.071,315.748 300.913,315.553 301.295 C 315.067 302.251,315.105 306.800,315.600 306.800 C 315.820 306.800,316.000 307.125,316.000 307.522 C 316.000 308.345,318.467 311.200,319.178 311.200 C 319.436 311.200,319.560 311.342,319.452 311.515 C 319.345 311.688,319.740 311.870,320.329 311.919 C 320.918 311.967,321.460 312.185,321.533 312.403 C 321.708 312.923,326.279 312.920,326.600 312.400 C 326.736 312.180,327.197 312.000,327.624 312.000 C 328.051 312.000,328.400 311.864,328.400 311.698 C 328.400 311.531,328.940 311.156,329.600 310.864 C 330.260 310.572,330.800 310.112,330.800 309.842 C 330.800 309.572,331.160 308.964,331.600 308.492 C 332.483 307.545,332.836 300.400,332.000 300.400 C 331.780 300.400,331.600 300.096,331.600 299.725 C 331.600 298.548,327.975 295.604,326.524 295.602 C 325.822 295.601,325.143 295.431,325.016 295.225 C 324.746 294.789,323.881 294.822,322.200 295.331 " stroke="none" fill="#e7b742" fill-rule="evenodd"></path><path id="path3" d="M197.212 100.633 C 194.250 101.918,192.675 104.511,192.670 108.113 C 192.658 116.779,205.344 118.057,207.249 109.582 C 208.144 105.597,204.928 100.800,201.362 100.800 C 200.859 100.800,200.336 100.620,200.200 100.400 C 199.857 99.845,198.847 99.924,197.212 100.633 M169.681 112.904 C 163.906 114.754,162.920 122.993,168.084 126.253 C 171.204 128.223,176.157 127.262,178.090 124.312 C 182.020 118.314,176.437 110.740,169.681 112.904 M225.619 112.922 C 223.601 113.565,221.439 115.916,220.815 118.147 C 218.588 126.100,229.593 130.890,234.177 123.964 C 237.972 118.228,232.227 110.815,225.619 112.922 M113.045 157.201 C 108.597 158.938,107.243 162.799,109.451 167.451 C 111.828 172.460,120.158 172.503,122.515 167.518 C 125.626 160.940,119.780 154.571,113.045 157.201 M140.600 156.866 C 139.185 157.647,137.600 159.329,137.600 160.051 C 137.600 160.437,137.420 160.864,137.200 161.000 C 136.415 161.485,136.736 166.245,137.658 167.809 C 141.896 174.992,153.425 170.148,151.180 162.128 C 150.005 157.933,144.042 154.967,140.600 156.866 M269.800 156.883 C 261.973 159.618,263.579 171.212,271.795 171.285 C 275.584 171.319,278.127 169.412,279.218 165.720 C 280.772 160.461,275.016 155.060,269.800 156.883 M112.879 185.274 C 105.766 188.723,108.053 199.200,115.919 199.200 C 120.080 199.200,123.033 197.009,123.493 193.583 C 124.314 187.461,118.215 182.687,112.879 185.274 M141.035 185.213 C 135.818 187.816,135.146 194.164,139.652 198.262 C 143.278 201.560,149.450 199.301,151.186 194.041 C 153.088 188.278,146.454 182.509,141.035 185.213 M269.035 185.213 C 265.899 186.778,264.745 188.618,264.753 192.041 C 264.772 200.714,276.742 202.103,279.218 193.720 C 280.890 188.062,274.321 182.575,269.035 185.213 " stroke="none" fill="#04a4a3" fill-rule="evenodd"></path><path id="path4" d="M193.600 87.047 C 193.050 87.132,191.250 87.405,189.600 87.654 C 187.950 87.902,185.610 88.367,184.400 88.687 C 183.190 89.007,181.660 89.411,181.000 89.583 C 179.793 89.899,177.226 90.848,175.000 91.802 C 169.635 94.099,168.224 95.075,168.652 96.191 C 168.987 97.065,169.764 96.953,172.543 95.631 C 180.481 91.852,187.157 90.139,198.000 89.096 C 198.774 89.022,199.000 88.774,199.000 88.000 C 199.000 86.969,196.709 86.565,193.600 87.047 M204.667 87.467 C 203.480 88.653,206.004 90.000,209.414 90.000 C 211.659 90.000,218.443 91.863,223.400 93.840 C 232.897 97.628,242.461 104.998,248.523 113.200 C 251.818 117.657,252.011 117.795,252.932 116.336 C 253.818 114.930,246.562 106.169,240.200 100.963 C 235.980 97.510,228.641 93.107,224.600 91.605 C 224.160 91.441,223.350 91.119,222.800 90.890 C 221.356 90.287,220.385 89.958,218.800 89.531 C 218.030 89.324,216.770 88.984,216.000 88.774 C 211.229 87.477,205.337 86.797,204.667 87.467 M345.600 87.600 C 345.600 87.820,345.216 88.000,344.747 88.000 C 343.747 88.000,340.400 91.193,340.400 92.147 C 340.400 92.506,340.220 92.800,340.000 92.800 C 339.765 92.800,339.600 94.200,339.600 96.200 C 339.600 98.200,339.765 99.600,340.000 99.600 C 340.220 99.600,340.400 99.864,340.400 100.187 C 340.400 100.927,342.825 103.600,343.497 103.600 C 343.774 103.600,344.000 103.761,344.000 103.958 C 344.000 104.280,346.480 104.807,348.000 104.807 C 349.520 104.807,352.000 104.280,352.000 103.958 C 352.000 103.761,352.279 103.600,352.619 103.600 C 354.294 103.600,356.800 99.054,356.800 96.016 C 356.800 92.532,353.765 88.000,351.431 88.000 C 350.864 88.000,350.400 87.820,350.400 87.600 C 350.400 87.378,349.333 87.200,348.000 87.200 C 346.667 87.200,345.600 87.378,345.600 87.600 M198.702 88.100 C 198.612 88.375,197.832 88.639,196.969 88.688 C 193.542 88.879,186.610 90.010,184.000 90.803 C 183.450 90.970,182.190 91.339,181.200 91.623 C 180.210 91.907,179.229 92.288,179.020 92.470 C 178.811 92.651,178.333 92.800,177.958 92.800 C 177.583 92.800,176.584 93.142,175.738 93.559 C 171.123 95.838,169.790 96.350,169.426 95.986 C 168.716 95.276,172.721 93.044,178.000 91.207 C 178.770 90.939,179.760 90.578,180.200 90.405 C 180.640 90.233,181.810 89.878,182.800 89.618 C 183.790 89.359,185.153 88.978,185.828 88.773 C 186.504 88.568,187.674 88.387,188.428 88.372 C 189.183 88.356,190.160 88.189,190.600 88.000 C 191.939 87.425,198.896 87.510,198.702 88.100 M211.600 88.365 C 212.810 88.574,214.610 88.948,215.600 89.197 C 216.590 89.446,217.897 89.749,218.505 89.871 C 219.113 89.993,219.708 90.251,219.829 90.446 C 219.949 90.641,220.399 90.800,220.829 90.800 C 221.259 90.800,221.923 90.965,222.305 91.166 C 222.687 91.368,223.720 91.833,224.600 92.201 C 232.739 95.600,241.046 101.488,246.647 107.830 C 249.516 111.077,252.400 115.107,252.400 115.866 C 252.400 117.128,251.204 116.200,249.371 113.514 C 242.325 103.197,229.389 94.402,216.000 90.826 C 215.010 90.562,213.647 90.178,212.972 89.973 C 212.296 89.768,211.327 89.600,210.818 89.600 C 208.582 89.600,204.800 88.647,204.800 88.083 C 204.800 87.464,206.875 87.550,211.600 88.365 M160.116 100.644 C 155.782 104.095,148.979 111.676,147.151 115.092 C 146.006 117.231,148.467 117.748,149.717 115.632 C 151.805 112.098,156.614 106.958,162.925 101.514 C 166.230 98.663,163.618 97.855,160.116 100.644 M163.772 99.555 C 163.893 99.750,162.958 100.774,161.696 101.829 C 157.919 104.987,152.652 110.556,150.591 113.571 C 148.789 116.210,147.600 117.120,147.600 115.863 C 147.600 112.876,162.635 97.715,163.772 99.555 M199.600 99.600 C 199.159 99.885,199.433 99.989,200.639 99.994 C 208.026 100.021,210.858 110.587,204.581 114.702 C 196.487 120.008,187.359 109.473,194.200 102.721 L 195.800 101.142 194.318 102.071 C 188.857 105.493,191.256 114.916,197.953 116.353 C 205.053 117.875,210.940 110.945,207.951 104.585 C 206.328 101.133,201.597 98.309,199.600 99.600 M170.400 111.484 C 166.741 112.078,163.200 116.120,163.200 119.702 C 163.200 127.862,173.257 131.733,178.510 125.596 C 183.832 119.379,178.535 110.163,170.400 111.484 M226.600 111.482 C 223.601 111.880,220.566 114.532,219.664 117.543 C 217.016 126.384,228.492 132.628,234.496 125.614 C 239.798 119.418,234.759 110.398,226.600 111.482 M175.310 112.588 C 178.671 113.993,180.930 118.503,179.944 121.845 C 177.945 128.622,169.431 130.311,165.436 124.723 C 160.730 118.139,167.800 109.450,175.310 112.588 M231.310 112.588 C 235.760 114.448,237.426 120.719,234.541 124.755 C 230.568 130.312,222.049 128.600,220.056 121.845 C 218.265 115.775,225.229 110.047,231.310 112.588 M121.800 128.448 C 120.920 128.649,119.300 128.998,118.200 129.224 C 114.427 129.997,108.531 131.838,107.820 132.465 C 107.611 132.649,107.189 132.800,106.882 132.800 C 105.928 132.800,97.804 137.038,94.553 139.232 C 87.333 144.104,81.955 150.111,78.271 157.419 C 75.841 162.240,75.415 163.359,74.019 168.600 C 72.372 174.781,71.749 187.272,72.787 193.279 C 73.844 199.388,74.787 203.162,76.040 206.300 C 76.238 206.795,76.580 207.650,76.800 208.200 C 77.897 210.942,78.790 212.487,83.275 219.400 C 86.760 224.771,90.005 232.094,91.428 237.800 C 91.593 238.460,91.834 246.200,91.964 255.000 L 92.200 271.000 96.000 271.262 C 98.090 271.406,101.960 271.725,104.600 271.970 C 107.240 272.215,111.335 272.593,113.700 272.808 C 116.065 273.024,119.935 273.376,122.300 273.592 C 124.665 273.807,128.760 274.176,131.400 274.410 C 134.040 274.645,138.090 275.007,140.400 275.215 C 142.710 275.422,146.262 275.709,148.294 275.850 L 151.988 276.108 152.094 264.154 L 152.200 252.200 162.800 251.982 C 174.877 251.733,175.675 251.544,178.757 248.201 C 182.960 243.641,183.980 239.629,184.342 226.245 L 184.600 216.690 186.800 216.150 C 199.203 213.104,200.247 210.609,193.220 200.800 C 191.880 198.930,189.857 196.050,188.724 194.400 C 187.591 192.750,186.550 191.310,186.409 191.200 C 185.663 190.615,182.000 184.843,182.000 184.252 C 182.000 183.872,182.281 183.017,182.625 182.353 C 185.935 175.951,183.137 162.583,176.396 152.594 C 168.427 140.785,155.827 131.976,143.000 129.248 C 141.900 129.014,140.155 128.638,139.123 128.411 C 136.843 127.912,124.028 127.939,121.800 128.448 M264.400 128.473 C 253.063 130.848,243.893 135.465,236.400 142.572 C 233.506 145.317,230.135 149.048,229.352 150.373 C 228.954 151.048,228.486 151.600,228.314 151.600 C 228.141 151.600,228.000 151.793,228.000 152.028 C 228.000 152.263,227.492 153.208,226.872 154.128 C 220.757 163.189,218.408 176.244,221.735 182.675 C 222.597 184.342,222.569 184.403,217.665 191.400 C 215.352 194.700,212.644 198.570,211.647 200.000 C 210.650 201.430,209.728 202.690,209.598 202.800 C 206.727 205.226,206.093 211.819,208.578 213.410 C 209.438 213.961,217.072 216.247,218.800 216.470 L 219.800 216.600 220.043 227.000 C 220.329 239.247,220.787 241.525,223.919 246.282 C 227.197 251.261,229.419 251.928,242.894 251.971 L 251.988 252.000 252.094 263.900 L 252.200 275.800 255.600 275.778 C 257.470 275.766,261.430 275.528,264.400 275.249 C 270.360 274.689,275.917 274.187,282.600 273.602 C 285.020 273.391,288.980 273.041,291.400 272.825 C 293.820 272.609,297.960 272.240,300.600 272.005 C 303.240 271.769,306.750 271.468,308.400 271.334 C 312.285 271.019,311.987 272.310,311.994 255.773 C 312.003 234.642,313.090 230.906,323.970 214.616 C 335.467 197.401,334.500 167.784,321.886 150.800 C 316.290 143.265,307.487 136.791,297.400 132.794 C 292.971 131.039,289.476 129.941,286.000 129.214 C 284.790 128.962,283.032 128.585,282.094 128.377 C 279.937 127.900,266.796 127.971,264.400 128.473 M138.914 128.990 C 152.521 131.220,165.418 138.795,173.328 149.200 C 174.247 150.410,175.135 151.460,175.300 151.533 C 175.465 151.607,175.600 151.844,175.600 152.061 C 175.600 152.278,176.103 153.208,176.717 154.128 C 178.595 156.937,181.221 162.762,182.070 166.000 C 183.858 172.824,184.052 176.919,182.752 180.400 C 181.078 184.879,180.949 184.506,187.178 193.200 C 188.517 195.070,190.362 197.680,191.277 199.000 C 192.191 200.320,193.055 201.490,193.196 201.600 C 194.662 202.743,196.800 207.436,196.800 209.510 C 196.800 212.568,195.343 213.575,188.600 215.176 C 187.500 215.437,185.925 215.848,185.100 216.089 L 183.600 216.528 183.600 226.044 C 183.600 239.588,182.665 243.265,178.000 248.063 C 174.971 251.178,174.498 251.280,162.100 251.495 L 151.600 251.678 151.600 263.694 L 151.600 275.710 148.900 275.444 C 147.415 275.298,144.265 275.003,141.900 274.789 C 139.535 274.575,135.665 274.224,133.300 274.008 C 130.935 273.793,126.930 273.433,124.400 273.208 C 121.870 272.984,117.910 272.628,115.600 272.418 C 107.970 271.724,102.062 271.205,97.300 270.809 C 94.715 270.595,92.555 270.415,92.500 270.409 C 92.445 270.404,92.400 263.473,92.400 255.006 C 92.400 244.758,92.246 238.974,91.939 237.706 C 90.189 230.467,87.598 225.041,81.078 214.963 C 80.069 213.403,78.678 210.884,77.986 209.364 C 77.294 207.844,76.564 206.287,76.364 205.905 C 76.164 205.523,76.000 204.859,76.000 204.429 C 76.000 203.999,75.840 203.548,75.644 203.427 C 75.449 203.306,75.188 202.621,75.066 201.904 C 74.944 201.187,74.645 199.700,74.402 198.600 C 72.636 190.608,72.434 177.079,73.988 170.800 C 74.688 167.970,75.299 165.780,75.607 165.000 C 75.780 164.560,76.335 163.120,76.839 161.800 C 79.679 154.370,86.642 145.277,92.610 141.204 C 93.705 140.458,94.660 139.701,94.733 139.523 C 94.807 139.345,95.044 139.200,95.261 139.200 C 95.478 139.200,96.408 138.694,97.328 138.075 C 108.022 130.882,126.213 126.908,138.914 128.990 M282.000 129.015 C 304.418 132.972,320.337 144.550,327.628 162.200 C 328.520 164.359,330.019 169.799,330.825 173.800 C 331.450 176.903,331.457 190.645,330.836 193.800 C 329.588 200.135,329.437 200.733,327.955 205.200 C 326.720 208.924,325.705 211.017,323.590 214.200 C 318.799 221.412,314.787 228.904,313.310 233.400 C 311.666 238.403,311.600 239.241,311.600 254.988 L 311.600 270.364 310.300 270.559 C 309.585 270.666,306.480 270.951,303.400 271.192 C 300.320 271.433,296.990 271.724,296.000 271.839 C 295.010 271.953,292.130 272.220,289.600 272.432 C 287.070 272.643,283.020 272.996,280.600 273.217 C 278.180 273.437,274.220 273.790,271.800 274.000 C 269.380 274.210,265.330 274.571,262.800 274.801 C 260.270 275.032,256.895 275.329,255.300 275.463 L 252.400 275.705 252.400 263.691 L 252.400 251.678 241.900 251.539 L 231.400 251.400 229.168 250.304 C 225.688 248.595,222.939 244.874,221.704 240.200 C 220.542 235.802,220.400 234.217,220.400 225.610 L 220.400 216.432 218.700 215.990 C 216.930 215.530,215.823 215.236,212.800 214.425 C 205.240 212.395,205.404 209.699,213.809 197.800 C 216.918 193.400,219.888 189.170,220.411 188.400 C 220.934 187.630,221.460 186.910,221.581 186.800 C 222.863 185.630,223.059 183.830,222.106 181.961 C 220.484 178.778,220.063 175.347,220.826 171.531 C 221.562 167.850,222.791 163.570,223.270 163.020 C 223.451 162.811,223.602 162.361,223.603 162.020 C 223.624 158.354,233.306 145.283,239.607 140.415 C 240.593 139.653,241.460 138.888,241.533 138.715 C 241.607 138.542,241.865 138.400,242.108 138.400 C 242.350 138.400,242.920 138.055,243.374 137.634 C 246.016 135.185,256.762 130.596,262.200 129.595 C 263.740 129.312,265.630 128.945,266.400 128.780 C 268.904 128.244,278.447 128.388,282.000 129.015 M120.400 134.387 C 99.662 138.720,84.559 151.325,79.886 168.200 C 78.448 173.394,78.237 175.374,78.222 183.800 C 78.207 192.626,78.408 194.334,80.314 201.600 C 81.116 204.655,83.361 209.289,86.012 213.363 C 87.546 215.718,88.800 217.707,88.800 217.782 C 88.800 217.857,89.481 219.062,90.314 220.459 C 92.438 224.025,94.319 228.066,95.313 231.200 C 97.364 237.662,97.600 239.940,97.600 253.297 C 97.600 264.613,97.653 265.563,98.300 265.764 C 98.685 265.884,101.430 266.178,104.400 266.418 C 109.687 266.844,113.331 267.160,123.000 268.029 C 141.451 269.688,145.667 270.006,146.056 269.765 C 146.245 269.648,146.400 264.343,146.400 257.976 L 146.400 246.400 159.120 246.400 L 171.840 246.400 173.497 245.326 C 174.478 244.689,175.576 243.475,176.189 242.350 C 178.366 238.349,178.486 237.486,178.692 224.365 L 178.883 212.130 181.542 211.618 C 183.004 211.336,185.190 210.836,186.400 210.508 C 187.610 210.179,189.089 209.821,189.687 209.712 C 192.146 209.262,191.459 207.409,186.382 200.800 C 176.798 188.322,175.037 184.110,177.629 179.859 C 178.474 178.474,178.735 172.417,178.047 170.160 C 177.852 169.522,177.461 168.190,177.177 167.200 C 176.893 166.210,176.512 165.229,176.330 165.020 C 176.149 164.811,176.000 164.395,176.000 164.095 C 176.000 159.801,160.550 141.200,156.984 141.200 C 156.852 141.200,155.992 140.693,155.072 140.072 C 149.878 136.569,139.990 133.559,134.000 133.656 L 131.000 133.705 135.400 134.215 C 142.439 135.031,148.128 136.705,152.800 139.335 C 153.570 139.768,154.879 140.491,155.710 140.941 C 156.540 141.391,157.530 142.043,157.910 142.390 C 158.289 142.738,159.230 143.456,160.000 143.987 C 164.422 147.034,170.922 154.648,173.501 159.800 C 175.263 163.323,176.106 165.430,176.782 168.000 C 177.041 168.990,177.422 170.353,177.627 171.028 C 178.275 173.164,178.072 177.448,177.235 179.304 C 174.976 184.310,175.442 187.132,179.297 191.800 C 180.020 192.676,187.434 203.164,189.103 205.673 C 191.006 208.533,191.030 208.980,189.305 209.336 C 188.697 209.461,187.300 209.761,186.200 210.000 C 185.100 210.240,183.390 210.591,182.400 210.779 C 181.410 210.967,180.060 211.286,179.400 211.489 L 178.200 211.857 177.970 224.228 C 177.719 237.713,177.703 237.846,175.930 241.508 C 174.993 243.443,174.329 244.242,173.023 245.008 L 171.330 246.000 158.665 246.000 L 146.000 246.000 146.000 257.576 C 146.000 263.943,145.865 269.228,145.700 269.320 C 145.437 269.467,141.368 269.132,119.800 267.188 C 111.372 266.428,106.286 266.000,103.000 265.773 C 101.240 265.651,99.395 265.469,98.900 265.368 L 98.000 265.185 98.000 252.628 C 98.000 235.472,96.835 230.233,90.787 220.200 C 90.124 219.100,89.461 217.930,89.314 217.600 C 89.166 217.270,87.846 215.178,86.381 212.950 C 75.292 196.096,75.719 169.839,87.336 154.200 C 91.643 148.401,101.040 141.467,108.200 138.805 C 108.640 138.641,109.450 138.315,110.000 138.080 C 111.897 137.269,117.146 135.666,120.200 134.964 C 120.860 134.812,123.470 134.466,126.000 134.194 L 130.600 133.700 127.200 133.688 C 125.330 133.682,122.270 133.997,120.400 134.387 M263.600 134.387 C 256.975 135.810,246.685 140.519,244.400 143.172 C 244.290 143.300,243.540 143.896,242.734 144.496 C 238.368 147.750,231.947 155.640,229.632 160.600 C 225.921 168.550,224.692 175.538,226.343 179.304 C 227.753 182.519,228.000 183.241,227.994 184.119 C 227.983 185.673,226.953 188.037,225.279 190.349 C 224.383 191.587,221.486 195.660,218.842 199.400 C 216.198 203.140,213.757 206.552,213.417 206.981 C 211.823 209.000,213.590 209.867,222.900 211.634 L 225.600 212.147 225.600 223.654 C 225.600 237.233,226.037 239.756,229.118 243.942 C 230.860 246.310,231.449 246.400,245.187 246.400 L 257.600 246.400 257.600 257.976 C 257.600 264.343,257.760 269.652,257.957 269.773 C 258.430 270.066,266.079 269.480,291.200 267.228 C 293.730 267.001,298.016 266.636,300.725 266.416 C 303.434 266.196,305.819 265.912,306.025 265.784 C 306.245 265.648,306.400 260.373,306.400 253.007 C 306.400 239.909,306.646 237.406,308.487 231.800 C 310.005 227.174,314.251 219.214,319.115 211.873 C 320.906 209.172,321.710 207.685,322.400 205.800 C 322.561 205.360,322.872 204.550,323.091 204.000 C 323.831 202.141,324.309 200.324,325.668 194.200 C 326.387 190.958,326.389 177.055,325.670 173.800 C 322.900 161.251,317.533 151.967,309.647 146.080 C 308.852 145.486,307.852 144.685,307.425 144.300 C 306.998 143.915,306.428 143.600,306.158 143.600 C 305.888 143.600,305.607 143.440,305.533 143.244 C 305.329 142.698,298.239 139.113,294.170 137.498 C 288.103 135.091,281.153 133.569,276.600 133.650 C 273.923 133.698,274.002 133.722,278.400 134.215 C 280.930 134.499,283.450 134.847,284.000 134.990 C 284.550 135.133,285.810 135.440,286.800 135.674 C 302.153 139.298,315.110 148.944,320.822 161.000 C 323.321 166.276,323.415 166.560,325.159 174.106 C 325.716 176.512,325.737 191.019,325.189 193.523 C 324.962 194.555,324.586 196.300,324.351 197.400 C 323.215 202.740,321.178 207.658,318.103 212.491 C 316.665 214.751,314.834 217.680,314.033 219.000 C 312.076 222.228,308.400 229.750,308.400 230.528 C 308.400 230.871,308.241 231.251,308.046 231.371 C 307.851 231.492,307.593 232.087,307.471 232.695 C 307.349 233.303,307.030 234.610,306.763 235.600 C 306.451 236.756,306.192 242.408,306.038 251.400 L 305.800 265.400 302.600 265.689 C 298.244 266.081,290.967 266.717,285.300 267.201 C 282.715 267.422,275.740 268.025,269.800 268.541 C 263.860 269.058,258.775 269.398,258.500 269.298 C 258.116 269.157,258.000 266.439,258.000 257.557 L 258.000 246.000 245.649 246.000 C 231.947 246.000,231.277 245.896,229.436 243.483 C 226.573 239.729,226.000 236.276,226.000 222.764 L 226.000 211.728 223.900 211.277 C 222.745 211.030,221.260 210.723,220.600 210.596 C 219.940 210.468,218.680 210.181,217.800 209.957 C 216.920 209.734,215.711 209.452,215.113 209.332 C 213.418 208.991,213.063 208.282,213.994 207.098 C 214.952 205.880,220.416 198.185,223.294 194.000 C 224.429 192.350,225.673 190.661,226.059 190.246 C 228.220 187.922,228.960 183.653,227.699 180.786 C 225.706 176.257,225.648 175.775,226.582 171.600 C 227.520 167.407,227.833 166.355,229.025 163.400 C 233.982 151.112,245.407 140.733,259.000 136.169 C 262.108 135.125,263.828 134.790,269.000 134.224 L 273.800 133.697 270.400 133.677 C 268.530 133.666,265.470 133.985,263.600 134.387 M112.600 156.038 C 111.712 156.481,110.594 157.495,110.087 158.318 L 109.173 159.800 110.756 158.100 C 111.626 157.165,112.701 156.400,113.145 156.400 C 113.589 156.400,114.064 156.220,114.200 156.000 C 115.040 154.640,120.775 156.716,122.400 158.967 C 125.882 163.791,123.695 170.162,117.977 171.850 C 112.971 173.328,107.538 168.960,108.133 163.937 C 108.366 161.966,108.346 161.900,107.757 162.740 C 105.998 165.252,108.925 170.472,113.064 172.201 C 121.533 175.740,128.742 163.749,121.806 157.659 C 118.934 155.137,115.587 154.548,112.600 156.038 M143.380 155.561 C 143.171 155.760,142.640 156.009,142.200 156.115 C 141.669 156.242,141.826 156.323,142.667 156.354 C 143.363 156.379,144.005 156.184,144.093 155.921 C 144.254 155.438,145.352 155.724,148.000 156.940 C 152.988 159.229,153.366 167.785,148.606 170.669 C 139.965 175.905,131.075 164.807,138.698 158.300 C 139.664 157.475,140.341 156.800,140.202 156.800 C 137.963 156.800,134.927 161.999,135.352 165.103 C 136.820 175.813,152.518 174.805,152.518 164.000 C 152.518 158.921,146.090 152.985,143.380 155.561 M268.600 155.974 C 261.513 159.154,261.522 168.631,268.615 171.965 C 275.530 175.216,283.238 167.553,280.048 160.600 C 278.020 156.178,272.825 154.079,268.600 155.974 M273.881 156.050 C 276.258 157.006,277.028 157.428,277.800 158.200 C 285.200 165.600,274.447 176.824,266.586 169.904 C 260.515 164.560,266.548 153.102,273.881 156.050 M113.710 183.588 C 112.508 183.874,111.555 184.408,109.942 185.700 C 104.223 190.280,108.599 200.906,116.149 200.770 C 119.233 200.715,123.609 197.154,123.598 194.710 C 123.596 194.429,123.328 194.712,123.002 195.337 C 118.042 204.847,103.838 198.066,108.624 188.472 C 112.477 180.749,124.713 183.641,123.902 192.083 C 123.724 193.936,123.761 194.068,124.270 193.373 C 125.430 191.788,123.849 187.091,121.532 185.241 C 119.287 183.448,116.647 182.891,113.710 183.588 M141.000 183.779 C 137.918 184.913,135.204 188.763,135.204 192.000 C 135.204 194.976,137.898 199.230,139.747 199.175 C 140.571 199.150,140.569 199.137,139.675 198.778 C 137.469 197.893,136.000 195.194,136.000 192.026 C 136.000 183.861,146.199 180.767,150.830 187.526 C 153.310 191.146,151.337 198.503,147.739 199.052 C 145.843 199.341,144.973 199.974,146.800 199.735 C 152.750 198.957,154.706 190.226,149.934 185.748 C 147.460 183.426,144.019 182.668,141.000 183.779 M270.600 183.377 C 270.380 183.461,269.700 183.640,269.090 183.775 C 263.387 185.035,261.484 193.752,265.935 198.233 C 273.834 206.186,285.974 194.206,278.264 186.066 C 276.345 184.040,272.444 182.671,270.600 183.377 M275.443 184.643 C 283.262 188.332,280.783 200.000,272.181 200.000 C 266.813 200.000,263.562 196.299,264.091 190.790 C 264.606 185.435,270.433 182.279,275.443 184.643 M96.400 340.000 C 96.400 340.220,96.109 340.400,95.754 340.400 C 94.835 340.400,92.000 343.629,92.000 344.676 C 92.000 345.158,91.820 345.664,91.600 345.800 C 91.109 346.103,91.062 350.400,91.550 350.400 C 91.743 350.400,92.003 350.915,92.129 351.544 C 93.190 356.851,102.279 358.586,106.346 354.258 C 108.104 352.387,109.533 346.500,108.400 345.800 C 108.180 345.664,108.000 345.158,108.000 344.676 C 108.000 343.629,105.165 340.400,104.246 340.400 C 103.891 340.400,103.600 340.220,103.600 340.000 C 103.600 339.763,102.133 339.600,100.000 339.600 C 97.867 339.600,96.400 339.763,96.400 340.000 " stroke="none" fill="#9a8265" fill-rule="evenodd"></path></g></svg>