<svg id="svg" version="1.1" xmlns="http://www.w3.org/2000/svg" xmlns:xlink="http://www.w3.org/1999/xlink" width="400" height="400" viewBox="0, 0, 400,400"><g id="svgg"><path id="path0" d="M235.000 103.068 C 218.586 108.961,215.759 129.656,230.109 138.870 C 231.377 139.683,231.902 140.247,231.671 140.548 C 231.479 140.796,230.309 143.970,229.070 147.600 C 227.831 151.230,226.390 155.370,225.868 156.800 L 224.918 159.400 223.159 159.286 C 217.973 158.949,209.553 159.054,207.600 159.479 C 206.390 159.743,204.680 160.120,203.800 160.316 C 200.035 161.157,191.304 165.581,188.794 167.920 C 187.355 169.261,187.921 169.736,172.069 153.864 L 157.153 138.928 158.525 136.164 C 163.989 125.150,160.287 113.192,149.598 107.330 C 147.434 106.143,142.421 104.800,140.153 104.800 C 136.549 104.800,131.078 106.462,128.200 108.432 C 118.188 115.285,115.704 128.402,122.526 138.398 C 128.918 147.763,141.951 150.246,151.472 143.912 C 152.392 143.301,153.339 142.800,153.576 142.800 C 154.282 142.800,183.200 171.836,183.200 172.545 C 183.200 172.903,182.291 174.322,181.179 175.698 C 177.785 179.901,174.583 187.037,173.159 193.574 C 172.545 196.390,172.563 207.262,173.184 209.600 C 173.448 210.590,173.847 212.120,174.071 213.000 C 174.295 213.880,174.640 214.913,174.839 215.295 C 175.038 215.677,175.200 216.171,175.200 216.393 C 175.200 216.615,175.843 218.188,176.628 219.888 L 178.056 222.980 176.687 224.190 C 175.934 224.855,172.473 227.740,168.994 230.600 C 165.516 233.460,162.474 235.981,162.235 236.202 C 161.996 236.423,160.810 237.410,159.600 238.396 C 158.390 239.382,157.310 240.281,157.200 240.395 C 155.950 241.679,155.736 241.628,153.008 239.392 C 137.975 227.069,116.358 237.193,116.264 256.600 C 116.139 282.249,151.362 287.930,159.982 263.652 C 161.590 259.122,161.215 252.218,159.086 247.139 L 158.473 245.677 162.737 242.156 C 172.264 234.286,176.210 231.007,176.400 230.804 C 176.510 230.686,177.561 229.796,178.735 228.828 L 180.871 227.066 182.535 229.030 C 194.165 242.748,212.988 247.808,229.600 241.681 C 231.030 241.153,232.460 240.694,232.777 240.661 C 233.151 240.621,234.964 243.800,237.934 249.700 C 240.980 255.752,242.725 258.800,243.142 258.800 C 243.508 258.800,242.776 259.758,241.385 261.100 C 235.497 266.779,232.780 275.462,234.855 281.972 C 238.169 292.363,245.247 297.760,255.600 297.788 C 260.433 297.801,261.072 297.654,265.447 295.525 C 276.257 290.264,280.057 275.337,273.175 265.170 C 267.513 256.805,256.945 253.373,247.963 256.981 C 247.467 257.181,246.836 256.279,245.118 252.919 C 243.905 250.543,241.806 246.463,240.456 243.850 C 237.453 238.044,237.454 238.099,240.306 236.098 C 247.044 231.372,253.203 222.825,255.770 214.638 C 256.917 210.981,256.331 211.081,266.383 212.827 C 269.068 213.294,269.139 213.364,269.417 215.816 C 270.825 228.266,283.506 236.483,295.200 232.524 C 309.276 227.758,313.707 210.319,303.493 199.883 C 293.447 189.618,275.884 193.002,270.712 206.200 L 270.085 207.800 267.543 207.750 C 263.720 207.675,258.310 206.902,257.991 206.385 C 257.836 206.134,257.697 203.589,257.682 200.729 C 257.598 184.073,247.356 168.646,232.217 162.372 C 229.894 161.409,229.379 160.785,229.997 159.684 C 230.209 159.308,230.823 157.650,231.362 156.000 C 231.902 154.350,233.170 150.665,234.180 147.812 C 235.191 144.958,235.945 142.433,235.855 142.199 C 235.745 141.912,236.951 141.826,239.594 141.932 C 256.811 142.624,266.878 123.694,256.515 110.116 C 255.711 109.062,254.635 107.871,254.124 107.469 C 253.614 107.067,252.940 106.482,252.626 106.169 C 252.313 105.856,251.937 105.600,251.790 105.600 C 251.644 105.600,251.044 105.258,250.458 104.841 C 247.304 102.596,238.976 101.640,235.000 103.068 M245.081 108.051 C 252.868 111.186,257.045 118.360,255.155 125.354 C 252.921 133.623,243.521 139.169,236.519 136.349 C 232.371 134.679,229.030 131.921,227.700 129.072 C 227.425 128.482,226.975 127.523,226.700 126.939 C 225.802 125.033,226.099 118.524,227.187 116.267 C 230.377 109.652,239.105 105.644,245.081 108.051 M143.600 110.524 C 155.833 113.847,160.056 128.807,151.217 137.507 C 143.132 145.466,130.491 143.276,125.433 133.040 C 119.571 121.176,130.940 107.085,143.600 110.524 M136.200 115.291 C 132.942 116.452,129.002 120.617,129.286 122.600 C 129.463 123.843,130.454 123.545,131.282 122.000 C 136.322 112.596,149.349 116.269,149.259 127.069 C 149.224 131.319,150.383 132.006,151.227 128.234 C 153.041 120.132,144.136 112.462,136.200 115.291 M45.200 122.200 C 45.474 122.530,45.878 122.800,46.098 122.800 C 46.321 122.800,46.278 122.535,46.000 122.200 C 45.726 121.870,45.322 121.600,45.102 121.600 C 44.879 121.600,44.922 121.865,45.200 122.200 M145.372 133.988 C 145.142 134.218,143.897 134.816,142.606 135.316 C 140.086 136.292,139.473 136.979,140.758 137.387 C 142.488 137.936,147.400 135.715,147.400 134.384 C 147.400 133.681,145.960 133.400,145.372 133.988 M222.000 164.556 C 237.350 167.840,247.616 177.680,251.882 193.200 C 252.665 196.046,252.780 206.192,252.061 209.000 C 251.028 213.036,250.627 214.253,249.494 216.778 C 246.946 222.459,242.147 228.429,237.419 231.800 C 234.715 233.728,228.934 236.787,227.980 236.795 C 227.639 236.798,227.189 236.951,226.980 237.136 C 226.771 237.320,225.520 237.695,224.200 237.969 C 222.880 238.242,221.045 238.631,220.123 238.833 C 216.066 239.721,206.597 238.768,203.505 237.161 C 203.123 236.962,202.583 236.798,202.305 236.795 C 202.027 236.792,200.360 236.055,198.600 235.157 C 188.119 229.810,181.658 221.588,178.358 209.400 C 177.530 206.345,177.653 196.514,178.561 193.000 C 183.044 175.667,197.338 164.250,214.800 164.052 C 217.425 164.022,220.516 164.239,222.000 164.556 M210.800 172.464 C 201.706 174.413,195.354 178.463,190.826 185.200 C 189.324 187.435,187.600 190.856,187.600 191.601 C 187.600 191.826,187.441 192.323,187.247 192.705 C 185.909 195.341,185.444 205.441,186.617 206.414 C 187.757 207.360,188.121 206.240,188.209 201.517 C 188.376 192.603,191.651 185.824,198.449 180.327 C 202.595 176.975,207.649 175.009,213.260 174.568 C 217.270 174.253,218.006 173.956,217.359 172.911 C 216.837 172.070,213.653 171.853,210.800 172.464 M241.249 191.311 C 240.277 192.283,241.505 196.154,242.712 195.922 C 243.620 195.747,243.792 194.594,243.185 192.754 C 242.644 191.115,241.957 190.603,241.249 191.311 M295.424 200.420 C 303.877 204.425,306.588 215.091,300.994 222.329 C 292.154 233.765,274.659 227.966,274.659 213.600 C 274.659 202.588,285.490 195.713,295.424 200.420 M242.296 202.500 C 242.068 206.150,242.554 207.434,243.780 206.417 C 244.941 205.453,244.656 199.200,243.451 199.200 C 242.547 199.200,242.493 199.352,242.296 202.500 M240.814 210.780 C 240.366 211.409,240.000 212.111,240.000 212.340 C 240.000 212.570,239.384 213.802,238.630 215.079 C 229.589 230.402,209.283 233.065,196.123 220.655 C 193.290 217.983,192.000 217.469,192.000 219.011 C 192.000 219.931,195.831 223.853,198.400 225.564 C 204.214 229.434,208.103 230.600,215.200 230.600 C 221.242 230.600,222.914 230.250,227.800 227.966 C 233.650 225.231,238.500 220.459,241.522 214.466 C 243.401 210.739,242.858 207.910,240.814 210.780 M142.009 239.602 C 148.036 240.745,152.710 244.978,155.256 251.600 C 159.928 263.753,145.039 278.225,133.000 273.233 C 112.824 264.867,120.676 235.556,142.009 239.602 M259.640 261.234 C 271.719 265.088,275.588 279.463,266.888 288.165 C 256.729 298.327,239.600 291.165,239.600 276.755 C 239.600 269.361,243.201 264.552,251.200 261.265 C 252.542 260.714,257.947 260.694,259.640 261.234 M254.800 266.400 C 254.800 266.975,255.067 267.200,255.750 267.200 C 257.061 267.200,259.817 268.216,261.224 269.217 C 262.473 270.106,263.200 269.980,263.200 268.873 C 263.200 267.602,259.174 265.600,256.619 265.600 C 255.067 265.600,254.800 265.717,254.800 266.400 M264.956 272.970 C 264.797 273.386,264.970 277.991,265.172 278.700 C 265.312 279.192,266.803 278.619,267.001 277.997 C 267.644 275.971,265.668 271.114,264.956 272.970 M244.158 276.566 C 243.776 277.559,244.766 280.990,245.992 282.923 C 249.375 288.258,256.685 289.799,261.897 286.277 C 264.499 284.518,263.041 283.543,260.143 285.103 C 254.230 288.283,246.962 284.527,246.023 277.805 C 245.788 276.127,244.623 275.353,244.158 276.566 " stroke="none" fill="#6a412f" fill-rule="evenodd"></path><path id="path1" d="M327.780 43.632 C 327.655 43.834,327.216 44.000,326.805 44.000 C 324.765 44.000,317.600 49.765,317.600 51.407 C 317.600 51.733,317.420 52.000,317.200 52.000 C 316.980 52.000,316.800 52.360,316.800 52.800 C 316.800 53.240,316.620 53.600,316.400 53.600 C 316.180 53.600,316.000 54.129,316.000 54.776 C 316.000 55.423,315.820 56.064,315.600 56.200 C 315.379 56.336,315.200 58.130,315.200 60.200 C 315.200 62.270,315.379 64.064,315.600 64.200 C 315.820 64.336,316.000 64.977,316.000 65.624 C 316.000 66.271,316.180 66.800,316.400 66.800 C 316.620 66.800,316.800 67.160,316.800 67.600 C 316.800 68.040,316.980 68.400,317.200 68.400 C 317.420 68.400,317.600 68.638,317.600 68.929 C 317.600 69.611,321.874 74.000,322.537 74.000 C 322.814 74.000,323.254 74.214,323.515 74.475 C 323.776 74.736,324.397 75.011,324.895 75.086 C 325.393 75.161,325.860 75.398,325.933 75.612 C 326.007 75.825,326.671 76.000,327.410 76.000 C 328.148 76.000,328.864 76.180,329.000 76.400 C 329.136 76.620,330.396 76.800,331.800 76.800 C 333.204 76.800,334.464 76.620,334.600 76.400 C 334.736 76.180,335.456 76.000,336.200 76.000 C 336.944 76.000,337.664 75.820,337.800 75.600 C 337.936 75.380,338.400 75.200,338.832 75.200 C 340.466 75.200,344.816 71.723,345.968 69.497 C 346.280 68.894,346.685 68.400,346.868 68.400 C 347.050 68.400,347.200 68.051,347.200 67.624 C 347.200 67.197,347.380 66.736,347.600 66.600 C 347.820 66.464,348.000 65.733,348.000 64.976 C 348.000 64.219,348.164 63.600,348.365 63.600 C 348.566 63.600,348.730 61.981,348.730 60.002 C 348.730 58.023,348.566 56.303,348.365 56.179 C 348.164 56.054,348.000 55.423,348.000 54.776 C 348.000 54.129,347.820 53.600,347.600 53.600 C 347.380 53.600,347.200 53.240,347.200 52.800 C 347.200 52.360,347.020 52.000,346.800 52.000 C 346.580 52.000,346.400 51.629,346.400 51.176 C 346.400 50.723,346.220 50.464,346.000 50.600 C 345.780 50.736,345.600 50.629,345.600 50.363 C 345.600 48.946,339.007 43.996,337.124 43.999 C 336.752 44.000,336.345 43.834,336.220 43.632 C 336.095 43.430,334.196 43.264,332.000 43.264 C 329.804 43.264,327.905 43.430,327.780 43.632 M306.200 47.600 C 306.064 47.820,305.668 48.000,305.320 48.000 C 302.812 48.000,302.940 54.985,305.474 56.335 C 307.726 57.534,312.000 56.279,312.000 54.418 C 312.000 54.188,312.180 54.000,312.400 54.000 C 312.620 54.000,312.800 53.100,312.800 52.000 C 312.800 50.900,312.620 50.000,312.400 50.000 C 312.180 50.000,312.000 49.812,312.000 49.582 C 312.000 47.905,307.056 46.216,306.200 47.600 M190.400 51.600 C 190.400 51.842,188.667 52.000,186.000 52.000 C 183.333 52.000,181.600 52.158,181.600 52.400 C 181.600 52.631,180.333 52.800,178.600 52.800 C 176.867 52.800,175.600 52.969,175.600 53.200 C 175.600 53.420,174.700 53.600,173.600 53.600 C 172.500 53.600,171.600 53.780,171.600 54.000 C 171.600 54.220,170.700 54.400,169.600 54.400 C 168.500 54.400,167.600 54.580,167.600 54.800 C 167.600 55.020,166.880 55.200,166.000 55.200 C 165.120 55.200,164.400 55.380,164.400 55.600 C 164.400 55.820,163.680 56.000,162.800 56.000 C 161.920 56.000,161.200 56.180,161.200 56.400 C 161.200 56.620,160.570 56.800,159.800 56.800 C 159.030 56.800,158.400 56.980,158.400 57.200 C 158.400 57.420,157.860 57.600,157.200 57.600 C 156.540 57.600,156.000 57.759,156.000 57.954 C 156.000 58.149,155.013 58.431,153.806 58.582 C 152.600 58.733,151.509 59.023,151.383 59.228 C 151.256 59.433,150.724 59.600,150.200 59.600 C 149.676 59.600,149.136 59.780,149.000 60.000 C 148.864 60.220,148.409 60.400,147.989 60.400 C 147.568 60.400,146.583 60.760,145.800 61.200 C 145.017 61.640,144.021 62.000,143.588 62.000 C 143.155 62.000,142.800 62.180,142.800 62.400 C 142.800 62.620,142.440 62.800,142.000 62.800 C 141.560 62.800,141.200 62.980,141.200 63.200 C 141.200 63.420,140.921 63.600,140.581 63.600 C 140.240 63.600,139.216 63.960,138.306 64.400 C 137.395 64.840,136.414 65.200,136.125 65.200 C 135.836 65.200,135.600 65.380,135.600 65.600 C 135.600 65.820,135.240 66.000,134.800 66.000 C 134.360 66.000,134.000 66.180,134.000 66.400 C 134.000 66.620,133.640 66.800,133.200 66.800 C 132.760 66.800,132.400 66.980,132.400 67.200 C 132.400 67.420,132.040 67.600,131.600 67.600 C 131.160 67.600,130.800 67.746,130.800 67.925 C 130.800 68.104,130.170 68.498,129.400 68.800 C 128.630 69.102,128.000 69.496,128.000 69.675 C 128.000 69.854,127.730 70.000,127.400 70.000 C 127.070 70.000,126.800 70.180,126.800 70.400 C 126.800 70.620,126.530 70.800,126.200 70.800 C 125.870 70.800,125.600 70.980,125.600 71.200 C 125.600 71.420,125.240 71.600,124.800 71.600 C 124.360 71.600,124.000 71.780,124.000 72.000 C 124.000 72.220,123.680 72.400,123.288 72.400 C 122.897 72.400,122.317 72.760,122.000 73.200 C 121.683 73.640,121.169 74.000,120.859 74.000 C 120.548 74.000,119.971 74.372,119.577 74.826 C 119.183 75.281,118.802 75.614,118.730 75.568 C 118.421 75.366,116.800 76.088,116.800 76.427 C 116.800 76.632,116.575 76.800,116.300 76.801 C 116.025 76.801,115.170 77.341,114.400 78.000 C 113.630 78.659,112.815 79.199,112.588 79.199 C 112.362 79.200,111.917 79.560,111.600 80.000 C 111.283 80.440,110.865 80.800,110.672 80.800 C 110.479 80.800,109.817 81.340,109.200 82.000 C 108.583 82.660,107.899 83.200,107.680 83.200 C 107.461 83.200,106.362 84.100,105.239 85.200 C 104.115 86.300,103.038 87.200,102.844 87.200 C 102.651 87.200,101.324 88.325,99.896 89.700 C 98.468 91.075,96.512 92.940,95.549 93.844 C 92.885 96.348,87.200 102.490,87.200 102.865 C 87.200 103.047,86.300 104.115,85.200 105.239 C 84.100 106.362,83.200 107.461,83.200 107.680 C 83.200 107.899,82.660 108.583,82.000 109.200 C 81.340 109.817,80.800 110.437,80.800 110.579 C 80.800 110.720,80.350 111.286,79.800 111.836 C 79.250 112.386,78.800 112.980,78.800 113.156 C 78.800 113.332,78.350 113.999,77.800 114.638 C 77.251 115.277,76.801 116.025,76.800 116.300 C 76.800 116.575,76.647 116.800,76.461 116.800 C 76.274 116.800,75.797 117.520,75.400 118.400 C 75.003 119.280,74.526 120.000,74.339 120.000 C 74.153 120.000,74.000 120.320,74.000 120.712 C 74.000 121.103,73.640 121.683,73.200 122.000 C 72.760 122.317,72.400 122.897,72.400 123.288 C 72.400 123.680,72.220 124.000,72.000 124.000 C 71.780 124.000,71.600 124.360,71.600 124.800 C 71.600 125.240,71.420 125.600,71.200 125.600 C 70.980 125.600,70.800 125.870,70.800 126.200 C 70.800 126.530,70.620 126.800,70.400 126.800 C 70.180 126.800,70.000 127.070,70.000 127.400 C 70.000 127.730,69.820 128.000,69.600 128.000 C 69.380 128.000,69.200 128.270,69.200 128.600 C 69.200 128.930,69.020 129.200,68.800 129.200 C 68.580 129.200,68.400 129.560,68.400 130.000 C 68.400 130.440,68.220 130.800,68.000 130.800 C 67.780 130.800,67.600 131.160,67.600 131.600 C 67.600 132.040,67.420 132.400,67.200 132.400 C 66.980 132.400,66.800 132.760,66.800 133.200 C 66.800 133.640,66.620 134.000,66.400 134.000 C 66.180 134.000,66.000 134.360,66.000 134.800 C 66.000 135.240,65.820 135.600,65.600 135.600 C 65.380 135.600,65.200 135.960,65.200 136.400 C 65.200 136.840,65.053 137.200,64.872 137.200 C 64.692 137.200,64.300 138.100,64.000 139.200 C 63.700 140.300,63.308 141.200,63.128 141.200 C 62.947 141.200,62.800 141.560,62.800 142.000 C 62.800 142.440,62.620 142.800,62.400 142.800 C 62.180 142.800,62.000 143.155,62.000 143.588 C 62.000 144.021,61.640 145.017,61.200 145.800 C 60.760 146.583,60.400 147.568,60.400 147.989 C 60.400 148.409,60.220 148.864,60.000 149.000 C 59.780 149.136,59.600 149.676,59.600 150.200 C 59.600 150.724,59.433 151.256,59.228 151.383 C 59.023 151.509,58.733 152.600,58.582 153.806 C 58.431 155.013,58.149 156.000,57.954 156.000 C 57.759 156.000,57.600 156.540,57.600 157.200 C 57.600 157.860,57.420 158.400,57.200 158.400 C 56.980 158.400,56.800 159.030,56.800 159.800 C 56.800 160.570,56.620 161.200,56.400 161.200 C 56.180 161.200,56.000 161.920,56.000 162.800 C 56.000 163.680,55.820 164.400,55.600 164.400 C 55.380 164.400,55.200 165.120,55.200 166.000 C 55.200 166.880,55.020 167.600,54.800 167.600 C 54.580 167.600,54.400 168.500,54.400 169.600 C 54.400 170.700,54.220 171.600,54.000 171.600 C 53.780 171.600,53.600 172.500,53.600 173.600 C 53.600 174.700,53.420 175.600,53.200 175.600 C 52.969 175.600,52.800 176.867,52.800 178.600 C 52.800 180.333,52.631 181.600,52.400 181.600 C 52.160 181.600,52.000 183.192,52.000 185.576 C 52.000 187.796,51.823 189.662,51.600 189.800 C 51.057 190.136,51.057 209.464,51.600 209.800 C 51.825 209.939,52.000 211.871,52.000 214.224 C 52.000 216.741,52.159 218.400,52.400 218.400 C 52.628 218.400,52.800 219.592,52.800 221.176 C 52.800 222.703,52.980 224.064,53.200 224.200 C 53.420 224.336,53.600 225.337,53.600 226.424 C 53.600 227.511,53.780 228.400,54.000 228.400 C 54.220 228.400,54.400 229.300,54.400 230.400 C 54.400 231.500,54.580 232.400,54.800 232.400 C 55.366 232.400,55.299 235.341,54.720 235.920 C 54.456 236.184,53.916 236.400,53.520 236.400 C 53.124 236.400,52.800 236.580,52.800 236.800 C 52.800 237.020,52.440 237.200,52.000 237.200 C 51.560 237.200,51.200 237.380,51.200 237.600 C 51.200 237.820,50.954 238.000,50.652 238.000 C 48.989 238.000,44.867 243.437,43.656 247.228 C 43.094 248.988,43.051 255.861,43.600 256.200 C 43.820 256.336,44.000 256.977,44.000 257.624 C 44.000 258.271,44.180 258.800,44.400 258.800 C 44.620 258.800,44.800 259.160,44.800 259.600 C 44.800 260.040,44.968 260.400,45.173 260.400 C 45.378 260.400,45.661 260.761,45.800 261.202 C 46.156 262.322,49.815 266.000,50.574 266.000 C 50.918 266.000,51.200 266.180,51.200 266.400 C 51.200 266.620,51.560 266.800,52.000 266.800 C 52.440 266.800,52.800 266.980,52.800 267.200 C 52.800 267.420,53.160 267.600,53.600 267.600 C 54.040 267.600,54.400 267.780,54.400 268.000 C 54.400 268.221,55.440 268.400,56.720 268.400 C 57.996 268.400,59.236 268.596,59.475 268.835 C 59.788 269.148,59.985 269.148,60.178 268.835 C 60.326 268.596,61.506 268.400,62.800 268.400 C 64.094 268.400,65.264 268.220,65.400 268.000 C 65.878 267.226,67.600 267.539,67.600 268.400 C 67.600 268.840,67.780 269.200,68.000 269.200 C 68.220 269.200,68.400 269.560,68.400 270.000 C 68.400 270.440,68.580 270.800,68.800 270.800 C 69.020 270.800,69.200 271.070,69.200 271.400 C 69.200 271.730,69.380 272.000,69.600 272.000 C 69.820 272.000,70.000 272.270,70.000 272.600 C 70.000 272.930,70.180 273.200,70.400 273.200 C 70.620 273.200,70.800 273.470,70.800 273.800 C 70.800 274.130,70.980 274.400,71.200 274.400 C 71.420 274.400,71.600 274.760,71.600 275.200 C 71.600 275.640,71.780 276.000,72.000 276.000 C 72.220 276.000,72.400 276.320,72.400 276.712 C 72.400 277.103,72.760 277.683,73.200 278.000 C 73.640 278.317,74.000 278.897,74.000 279.288 C 74.000 279.680,74.153 280.000,74.339 280.000 C 74.526 280.000,75.003 280.720,75.400 281.600 C 75.797 282.480,76.274 283.200,76.461 283.200 C 76.647 283.200,76.800 283.425,76.801 283.700 C 76.801 283.975,77.341 284.830,78.000 285.600 C 78.659 286.370,79.199 287.185,79.199 287.412 C 79.200 287.638,79.560 288.083,80.000 288.400 C 80.440 288.717,80.800 289.135,80.800 289.328 C 80.800 289.521,81.340 290.183,82.000 290.800 C 82.660 291.417,83.200 292.101,83.200 292.320 C 83.200 292.539,84.100 293.638,85.200 294.761 C 86.300 295.885,87.200 296.954,87.200 297.138 C 87.200 297.321,88.730 299.064,90.600 301.012 C 92.470 302.959,94.000 304.698,94.000 304.876 C 94.000 305.054,94.281 305.200,94.624 305.200 C 94.967 305.200,95.136 305.380,95.000 305.600 C 94.864 305.820,94.900 306.000,95.081 306.000 C 95.261 306.000,97.009 307.530,98.965 309.400 C 100.921 311.270,102.673 312.800,102.859 312.800 C 103.044 312.800,104.115 313.700,105.239 314.800 C 106.362 315.900,107.461 316.800,107.680 316.800 C 107.899 316.800,108.583 317.340,109.200 318.000 C 109.817 318.660,110.479 319.200,110.672 319.200 C 110.865 319.200,111.283 319.560,111.600 320.000 C 111.917 320.440,112.362 320.800,112.588 320.801 C 112.815 320.801,113.630 321.341,114.400 322.000 C 115.170 322.659,116.025 323.199,116.300 323.199 C 116.575 323.200,116.800 323.368,116.800 323.573 C 116.800 323.912,118.421 324.634,118.730 324.432 C 118.802 324.386,119.183 324.719,119.577 325.174 C 119.971 325.628,120.548 326.000,120.859 326.000 C 121.169 326.000,121.683 326.360,122.000 326.800 C 122.317 327.240,122.897 327.600,123.288 327.600 C 123.680 327.600,124.000 327.780,124.000 328.000 C 124.000 328.220,124.360 328.400,124.800 328.400 C 125.240 328.400,125.600 328.580,125.600 328.800 C 125.600 329.020,125.870 329.200,126.200 329.200 C 126.530 329.200,126.800 329.380,126.800 329.600 C 126.800 329.820,127.070 330.000,127.400 330.000 C 127.730 330.000,128.000 330.146,128.000 330.325 C 128.000 330.504,128.630 330.898,129.400 331.200 C 130.170 331.502,130.800 331.896,130.800 332.075 C 130.800 332.254,131.160 332.400,131.600 332.400 C 132.040 332.400,132.400 332.580,132.400 332.800 C 132.400 333.020,132.760 333.200,133.200 333.200 C 133.640 333.200,134.000 333.380,134.000 333.600 C 134.000 333.820,134.360 334.000,134.800 334.000 C 135.240 334.000,135.600 334.180,135.600 334.400 C 135.600 334.620,135.872 334.800,136.205 334.800 C 136.538 334.800,137.168 334.980,137.605 335.200 C 138.042 335.420,138.758 335.780,139.195 336.000 C 139.632 336.220,140.262 336.400,140.595 336.400 C 140.928 336.400,141.200 336.580,141.200 336.800 C 141.200 337.020,141.560 337.200,142.000 337.200 C 142.440 337.200,142.800 337.380,142.800 337.600 C 142.800 337.820,143.155 338.000,143.588 338.000 C 144.021 338.000,145.017 338.360,145.800 338.800 C 146.583 339.240,147.568 339.600,147.989 339.600 C 148.409 339.600,148.864 339.780,149.000 340.000 C 149.136 340.220,149.676 340.400,150.200 340.400 C 150.724 340.400,151.256 340.567,151.383 340.772 C 151.509 340.977,152.600 341.267,153.806 341.418 C 155.013 341.569,156.000 341.851,156.000 342.046 C 156.000 342.241,156.540 342.400,157.200 342.400 C 157.860 342.400,158.400 342.580,158.400 342.800 C 158.400 343.020,159.030 343.200,159.800 343.200 C 160.570 343.200,161.200 343.380,161.200 343.600 C 161.200 343.820,161.920 344.000,162.800 344.000 C 163.680 344.000,164.400 344.180,164.400 344.400 C 164.400 344.620,165.120 344.800,166.000 344.800 C 166.880 344.800,167.600 344.980,167.600 345.200 C 167.600 345.420,168.500 345.600,169.600 345.600 C 170.700 345.600,171.600 345.780,171.600 346.000 C 171.600 346.220,172.489 346.400,173.576 346.400 C 174.663 346.400,175.664 346.580,175.800 346.800 C 175.936 347.020,177.297 347.200,178.824 347.200 C 180.408 347.200,181.600 347.372,181.600 347.600 C 181.600 347.842,183.333 348.000,186.000 348.000 C 188.667 348.000,190.400 348.158,190.400 348.400 C 190.400 348.656,193.867 348.800,200.000 348.800 C 206.133 348.800,209.600 348.656,209.600 348.400 C 209.600 348.158,211.333 348.000,214.000 348.000 C 216.667 348.000,218.400 347.842,218.400 347.600 C 218.400 347.371,219.600 347.200,221.200 347.200 C 222.800 347.200,224.000 347.029,224.000 346.800 C 224.000 346.580,224.990 346.400,226.200 346.400 C 227.410 346.400,228.400 346.220,228.400 346.000 C 228.400 345.780,229.300 345.600,230.400 345.600 C 231.500 345.600,232.400 345.420,232.400 345.200 C 232.400 344.980,233.120 344.800,234.000 344.800 C 234.880 344.800,235.600 344.620,235.600 344.400 C 235.600 344.180,236.320 344.000,237.200 344.000 C 238.080 344.000,238.800 343.820,238.800 343.600 C 238.800 343.380,239.430 343.200,240.200 343.200 C 240.970 343.200,241.600 343.020,241.600 342.800 C 241.600 342.580,242.140 342.400,242.800 342.400 C 243.460 342.400,244.000 342.240,244.000 342.044 C 244.000 341.713,246.093 341.218,247.692 341.170 C 248.073 341.158,248.488 340.981,248.616 340.775 C 248.743 340.569,249.276 340.400,249.800 340.400 C 250.324 340.400,250.842 340.256,250.951 340.079 C 251.060 339.903,252.061 339.510,253.175 339.207 C 254.289 338.904,255.200 338.508,255.200 338.328 C 255.200 338.147,255.650 338.000,256.200 338.000 C 256.750 338.000,257.200 337.820,257.200 337.600 C 257.200 337.380,257.560 337.200,258.000 337.200 C 258.440 337.200,258.800 337.053,258.800 336.872 C 258.800 336.692,259.700 336.300,260.800 336.000 C 261.900 335.700,262.800 335.308,262.800 335.128 C 262.800 334.947,263.160 334.800,263.600 334.800 C 264.040 334.800,264.400 334.620,264.400 334.400 C 264.400 334.180,264.760 334.000,265.200 334.000 C 265.640 334.000,266.000 333.820,266.000 333.600 C 266.000 333.380,266.360 333.200,266.800 333.200 C 267.240 333.200,267.600 333.020,267.600 332.800 C 267.600 332.580,267.960 332.400,268.400 332.400 C 268.840 332.400,269.200 332.220,269.200 332.000 C 269.200 331.780,269.560 331.600,270.000 331.600 C 270.440 331.600,270.800 331.420,270.800 331.200 C 270.800 330.980,271.070 330.800,271.400 330.800 C 271.730 330.800,272.000 330.620,272.000 330.400 C 272.000 330.180,272.270 330.000,272.600 330.000 C 272.930 330.000,273.200 329.820,273.200 329.600 C 273.200 329.380,273.470 329.200,273.800 329.200 C 274.130 329.200,274.400 329.020,274.400 328.800 C 274.400 328.580,274.760 328.400,275.200 328.400 C 275.640 328.400,276.000 328.220,276.000 328.000 C 276.000 327.780,276.320 327.600,276.712 327.600 C 277.103 327.600,277.683 327.240,278.000 326.800 C 278.317 326.360,278.897 326.000,279.288 326.000 C 279.680 326.000,280.000 325.847,280.000 325.661 C 280.000 325.474,280.720 324.997,281.600 324.600 C 282.480 324.203,283.200 323.726,283.200 323.539 C 283.200 323.353,283.425 323.200,283.700 323.199 C 283.975 323.199,284.830 322.659,285.600 322.000 C 286.370 321.341,287.185 320.801,287.412 320.801 C 287.638 320.800,288.083 320.440,288.400 320.000 C 288.717 319.560,289.142 319.200,289.345 319.200 C 289.548 319.200,290.229 318.660,290.860 318.000 C 291.491 317.340,292.167 316.800,292.363 316.800 C 292.559 316.800,293.638 315.900,294.761 314.800 C 295.885 313.700,296.957 312.800,297.144 312.800 C 297.331 312.800,298.892 311.450,300.613 309.800 C 302.334 308.150,303.890 306.800,304.071 306.800 C 304.252 306.800,304.400 306.519,304.400 306.176 C 304.400 305.833,304.535 305.635,304.700 305.734 C 304.865 305.834,305.232 305.665,305.516 305.358 C 305.799 305.051,305.962 304.800,305.877 304.800 C 305.792 304.800,307.315 303.161,309.261 301.159 C 311.208 299.156,312.800 297.357,312.800 297.161 C 312.800 296.965,313.700 295.885,314.800 294.761 C 315.900 293.638,316.800 292.559,316.800 292.363 C 316.800 292.167,317.340 291.491,318.000 290.860 C 318.660 290.229,319.200 289.548,319.200 289.345 C 319.200 289.142,319.560 288.717,320.000 288.400 C 320.440 288.083,320.800 287.638,320.801 287.412 C 320.801 287.185,321.341 286.370,322.000 285.600 C 322.659 284.830,323.199 283.975,323.199 283.700 C 323.200 283.425,323.353 283.200,323.539 283.200 C 323.726 283.200,324.203 282.480,324.600 281.600 C 324.997 280.720,325.474 280.000,325.661 280.000 C 325.847 280.000,326.000 279.680,326.000 279.288 C 326.000 278.897,326.360 278.317,326.800 278.000 C 327.240 277.683,327.600 277.103,327.600 276.712 C 327.600 276.320,327.780 276.000,328.000 276.000 C 328.220 276.000,328.400 275.640,328.400 275.200 C 328.400 274.760,328.580 274.400,328.800 274.400 C 329.020 274.400,329.200 274.130,329.200 273.800 C 329.200 273.470,329.380 273.200,329.600 273.200 C 329.820 273.200,330.000 272.930,330.000 272.600 C 330.000 272.270,330.146 272.000,330.325 272.000 C 330.504 272.000,330.898 271.370,331.200 270.600 C 331.502 269.830,331.896 269.200,332.075 269.200 C 332.254 269.200,332.400 268.840,332.400 268.400 C 332.400 267.960,332.580 267.600,332.800 267.600 C 333.020 267.600,333.200 267.240,333.200 266.800 C 333.200 266.360,333.380 266.000,333.600 266.000 C 333.820 266.000,334.000 265.640,334.000 265.200 C 334.000 264.760,334.180 264.400,334.400 264.400 C 334.620 264.400,334.800 264.164,334.800 263.875 C 334.800 263.586,335.160 262.605,335.600 261.694 C 336.040 260.784,336.400 259.760,336.400 259.419 C 336.400 259.079,336.580 258.800,336.800 258.800 C 337.020 258.800,337.200 258.440,337.200 258.000 C 337.200 257.560,337.380 257.200,337.600 257.200 C 337.820 257.200,338.000 256.845,338.000 256.412 C 338.000 255.979,338.360 254.983,338.800 254.200 C 339.240 253.417,339.600 252.432,339.600 252.011 C 339.600 251.591,339.780 251.136,340.000 251.000 C 340.220 250.864,340.400 250.324,340.400 249.800 C 340.400 249.276,340.567 248.744,340.772 248.617 C 340.977 248.491,341.267 247.400,341.418 246.194 C 341.569 244.987,341.851 244.000,342.046 244.000 C 342.241 244.000,342.400 243.460,342.400 242.800 C 342.400 242.140,342.580 241.600,342.800 241.600 C 343.020 241.600,343.200 240.970,343.200 240.200 C 343.200 239.430,343.380 238.800,343.600 238.800 C 343.820 238.800,344.000 238.080,344.000 237.200 C 344.000 236.320,344.180 235.600,344.400 235.600 C 344.620 235.600,344.800 234.880,344.800 234.000 C 344.800 233.120,344.980 232.400,345.200 232.400 C 345.420 232.400,345.600 231.500,345.600 230.400 C 345.600 229.300,345.780 228.400,346.000 228.400 C 346.220 228.400,346.400 227.410,346.400 226.200 C 346.400 224.990,346.580 224.000,346.800 224.000 C 347.029 224.000,347.200 222.800,347.200 221.200 C 347.200 219.600,347.371 218.400,347.600 218.400 C 347.841 218.400,348.000 216.741,348.000 214.224 C 348.000 211.871,348.175 209.939,348.400 209.800 C 348.649 209.646,348.800 205.937,348.800 200.000 C 348.800 194.063,348.649 190.354,348.400 190.200 C 348.175 190.061,348.000 188.129,348.000 185.776 C 348.000 183.259,347.841 181.600,347.600 181.600 C 347.372 181.600,347.200 180.408,347.200 178.824 C 347.200 177.297,347.020 175.936,346.800 175.800 C 346.580 175.664,346.400 174.663,346.400 173.576 C 346.400 172.489,346.220 171.600,346.000 171.600 C 345.780 171.600,345.600 170.700,345.600 169.600 C 345.600 168.500,345.420 167.600,345.200 167.600 C 344.980 167.600,344.800 166.880,344.800 166.000 C 344.800 165.120,344.620 164.400,344.400 164.400 C 344.180 164.400,344.000 163.680,344.000 162.800 C 344.000 161.920,343.820 161.200,343.600 161.200 C 343.380 161.200,343.200 160.570,343.200 159.800 C 343.200 159.030,343.020 158.400,342.800 158.400 C 342.580 158.400,342.400 157.860,342.400 157.200 C 342.400 156.540,342.243 156.000,342.052 156.000 C 341.860 156.000,341.580 155.071,341.429 153.936 C 341.279 152.800,340.909 151.520,340.608 151.090 C 340.307 150.660,340.149 150.077,340.257 149.795 C 340.366 149.512,340.262 149.162,340.027 149.017 C 339.792 148.872,339.600 148.409,339.600 147.989 C 339.600 147.568,339.240 146.583,338.800 145.800 C 338.360 145.017,338.000 144.021,338.000 143.588 C 338.000 143.155,337.820 142.800,337.600 142.800 C 337.380 142.800,337.200 142.440,337.200 142.000 C 337.200 141.560,337.053 141.200,336.872 141.200 C 336.692 141.200,336.300 140.300,336.000 139.200 C 335.700 138.100,335.308 137.200,335.128 137.200 C 334.947 137.200,334.800 136.840,334.800 136.400 C 334.800 135.960,334.620 135.600,334.400 135.600 C 334.180 135.600,334.000 135.240,334.000 134.800 C 334.000 134.360,333.820 134.000,333.600 134.000 C 333.380 134.000,333.200 133.640,333.200 133.200 C 333.200 132.760,333.020 132.400,332.800 132.400 C 332.580 132.400,332.400 132.040,332.400 131.600 C 332.400 131.160,332.254 130.800,332.075 130.800 C 331.896 130.800,331.502 130.170,331.200 129.400 C 330.898 128.630,330.504 128.000,330.325 128.000 C 330.146 128.000,330.000 127.730,330.000 127.400 C 330.000 127.070,329.820 126.800,329.600 126.800 C 329.380 126.800,329.200 126.530,329.200 126.200 C 329.200 125.870,329.020 125.600,328.800 125.600 C 328.580 125.600,328.400 125.240,328.400 124.800 C 328.400 124.360,328.220 124.000,328.000 124.000 C 327.780 124.000,327.600 123.680,327.600 123.288 C 327.600 122.897,327.240 122.317,326.800 122.000 C 326.360 121.683,326.000 121.103,326.000 120.712 C 326.000 120.320,325.847 120.000,325.661 120.000 C 325.474 120.000,324.997 119.280,324.600 118.400 C 324.203 117.520,323.726 116.800,323.539 116.800 C 323.353 116.800,323.200 116.575,323.199 116.300 C 323.199 116.025,322.659 115.170,322.000 114.400 C 321.341 113.630,320.801 112.818,320.801 112.596 C 320.800 112.374,320.440 111.968,320.000 111.693 C 319.560 111.418,319.200 110.989,319.200 110.740 C 319.200 110.491,318.660 109.771,318.000 109.140 C 317.340 108.509,316.800 107.833,316.800 107.637 C 316.800 107.441,315.900 106.362,314.800 105.239 C 313.700 104.115,312.800 103.039,312.800 102.846 C 312.800 102.654,311.675 101.330,310.300 99.905 C 308.925 98.479,306.876 96.342,305.748 95.156 C 302.841 92.103,297.537 87.200,297.139 87.200 C 296.955 87.200,295.885 86.300,294.761 85.200 C 293.638 84.100,292.559 83.200,292.363 83.200 C 292.167 83.200,291.491 82.660,290.860 82.000 C 290.229 81.340,289.590 80.800,289.439 80.800 C 289.287 80.800,288.714 80.350,288.164 79.800 C 287.614 79.250,287.020 78.800,286.844 78.800 C 286.668 78.800,286.001 78.350,285.362 77.800 C 284.723 77.251,283.975 76.801,283.700 76.800 C 283.425 76.800,283.200 76.647,283.200 76.461 C 283.200 76.274,282.480 75.797,281.600 75.400 C 280.720 75.003,280.000 74.526,280.000 74.339 C 280.000 74.153,279.680 74.000,279.288 74.000 C 278.897 74.000,278.317 73.640,278.000 73.200 C 277.683 72.760,277.103 72.400,276.712 72.400 C 276.320 72.400,276.000 72.220,276.000 72.000 C 276.000 71.780,275.640 71.600,275.200 71.600 C 274.760 71.600,274.400 71.420,274.400 71.200 C 274.400 70.980,274.130 70.800,273.800 70.800 C 273.470 70.800,273.200 70.620,273.200 70.400 C 273.200 70.180,272.930 70.000,272.600 70.000 C 272.270 70.000,272.000 69.820,272.000 69.600 C 272.000 69.380,271.730 69.200,271.400 69.200 C 271.070 69.200,270.800 69.020,270.800 68.800 C 270.800 68.580,270.440 68.400,270.000 68.400 C 269.560 68.400,269.200 68.220,269.200 68.000 C 269.200 67.780,268.840 67.600,268.400 67.600 C 267.960 67.600,267.600 67.420,267.600 67.200 C 267.600 66.980,267.240 66.800,266.800 66.800 C 266.360 66.800,266.000 66.620,266.000 66.400 C 266.000 66.180,265.640 66.000,265.200 66.000 C 264.760 66.000,264.400 65.820,264.400 65.600 C 264.400 65.380,264.040 65.200,263.600 65.200 C 263.160 65.200,262.800 65.053,262.800 64.872 C 262.800 64.692,261.900 64.300,260.800 64.000 C 259.700 63.700,258.800 63.308,258.800 63.128 C 258.800 62.947,258.440 62.800,258.000 62.800 C 257.560 62.800,257.200 62.620,257.200 62.400 C 257.200 62.180,256.750 62.000,256.200 62.000 C 255.650 62.000,255.200 61.820,255.200 61.600 C 255.200 61.380,254.851 61.200,254.424 61.200 C 253.997 61.200,253.536 61.020,253.400 60.800 C 253.264 60.580,252.724 60.400,252.200 60.400 C 251.676 60.400,251.136 60.220,251.000 60.000 C 250.864 59.780,250.324 59.600,249.800 59.600 C 249.276 59.600,248.746 59.437,248.623 59.237 C 248.500 59.038,247.500 58.751,246.400 58.600 C 245.300 58.449,244.300 58.162,244.177 57.963 C 244.054 57.763,243.423 57.600,242.776 57.600 C 242.129 57.600,241.600 57.420,241.600 57.200 C 241.600 56.980,240.970 56.800,240.200 56.800 C 239.430 56.800,238.800 56.620,238.800 56.400 C 238.800 56.180,238.181 56.000,237.424 56.000 C 236.667 56.000,235.936 55.820,235.800 55.600 C 235.664 55.380,234.843 55.200,233.976 55.200 C 233.109 55.200,232.400 55.020,232.400 54.800 C 232.400 54.580,231.500 54.400,230.400 54.400 C 229.300 54.400,228.400 54.220,228.400 54.000 C 228.400 53.780,227.511 53.600,226.424 53.600 C 225.337 53.600,224.336 53.420,224.200 53.200 C 224.064 52.980,222.703 52.800,221.176 52.800 C 219.592 52.800,218.400 52.628,218.400 52.400 C 218.400 52.158,216.667 52.000,214.000 52.000 C 211.333 52.000,209.600 51.842,209.600 51.600 C 209.600 51.344,206.133 51.200,200.000 51.200 C 193.867 51.200,190.400 51.344,190.400 51.600 M246.400 102.414 C 263.272 107.903,266.511 129.346,251.961 139.226 C 250.687 140.092,249.375 140.800,249.046 140.800 C 248.716 140.800,248.349 140.959,248.230 141.152 C 247.848 141.770,245.921 142.099,241.200 142.353 L 236.601 142.600 236.134 144.000 C 235.877 144.770,234.484 148.804,233.038 152.965 C 230.404 160.544,230.254 161.600,231.808 161.600 C 232.309 161.600,235.035 162.969,238.200 164.811 C 245.170 168.866,255.561 181.569,255.595 186.076 C 255.598 186.448,255.780 186.864,256.000 187.000 C 256.220 187.136,256.400 187.676,256.400 188.200 C 256.400 188.724,256.580 189.264,256.800 189.400 C 257.020 189.536,257.200 190.256,257.200 191.000 C 257.200 191.744,257.353 192.447,257.540 192.563 C 258.014 192.856,258.592 199.182,258.481 202.852 C 258.374 206.365,257.993 206.068,263.600 206.842 C 265.250 207.069,267.230 207.346,268.000 207.455 C 269.382 207.653,269.415 207.624,270.563 205.128 C 278.182 188.566,301.888 189.489,308.385 206.600 C 309.345 209.128,309.600 210.595,309.600 213.600 C 309.600 217.208,309.227 218.812,307.462 222.800 C 299.806 240.092,271.371 235.949,269.018 217.200 C 268.567 213.606,268.745 213.776,264.893 213.245 C 262.972 212.981,260.518 212.589,259.440 212.375 C 258.362 212.161,257.440 212.034,257.392 212.093 C 257.343 212.152,256.905 213.370,256.419 214.800 C 254.660 219.975,252.669 223.688,249.338 228.000 C 246.243 232.008,244.144 233.990,239.063 237.705 C 238.369 238.212,238.592 238.766,242.849 247.155 L 247.373 256.068 248.986 255.800 C 262.457 253.566,271.722 258.430,276.417 270.200 C 277.650 273.290,277.651 280.296,276.419 283.400 C 275.673 285.280,274.177 288.210,273.900 288.333 C 273.735 288.407,273.600 288.698,273.600 288.981 C 273.600 290.226,268.234 294.857,265.022 296.385 C 243.280 306.725,223.041 279.252,239.679 261.984 C 242.523 259.031,242.732 260.371,237.954 250.964 C 232.430 240.089,233.149 240.966,230.600 241.996 C 228.583 242.811,225.227 243.763,222.600 244.264 C 220.527 244.660,209.873 244.660,207.800 244.264 C 198.610 242.510,190.745 238.305,184.127 231.607 C 182.200 229.656,180.637 228.385,180.327 228.515 C 180.037 228.636,176.740 231.284,173.000 234.400 C 169.260 237.515,165.589 240.545,164.841 241.132 C 160.178 244.797,158.861 246.591,159.930 247.820 C 161.175 249.251,162.142 255.971,161.588 259.343 C 158.895 275.753,143.005 284.427,128.400 277.459 C 127.410 276.986,126.540 276.465,126.467 276.300 C 126.393 276.135,126.102 276.000,125.819 276.000 C 123.819 276.000,117.936 268.236,116.423 263.600 C 109.363 241.964,136.205 224.153,153.533 238.976 C 155.952 241.046,155.770 240.964,156.471 240.298 C 156.762 240.022,157.990 238.990,159.200 238.004 C 160.410 237.018,161.490 236.112,161.600 235.991 C 161.804 235.766,169.233 229.612,173.194 226.386 C 176.731 223.506,177.200 223.075,177.200 222.703 C 177.200 222.379,175.237 217.945,174.368 216.305 C 174.166 215.923,174.000 215.259,174.000 214.829 C 174.000 214.399,173.820 213.936,173.600 213.800 C 173.380 213.664,173.200 213.122,173.200 212.595 C 173.200 212.069,173.038 211.224,172.839 210.719 C 171.519 207.357,171.526 197.329,172.852 192.200 C 173.818 188.467,174.157 187.379,174.470 187.020 C 174.651 186.811,174.802 186.361,174.805 186.020 C 174.818 184.495,180.048 175.609,182.199 173.458 C 182.530 173.127,182.800 172.757,182.800 172.634 C 182.800 172.511,176.213 165.847,168.163 157.826 L 153.526 143.241 151.447 144.621 C 144.183 149.444,133.950 149.075,126.938 143.736 C 111.885 132.275,116.721 109.552,135.223 104.807 C 149.063 101.257,163.894 114.854,161.584 128.973 C 161.044 132.276,160.948 132.567,159.272 136.016 C 158.572 137.455,158.000 138.735,158.000 138.860 C 158.000 139.175,186.715 167.768,187.193 167.929 C 187.404 168.001,188.208 167.577,188.979 166.989 C 191.503 165.063,196.148 162.486,199.600 161.096 C 201.908 160.166,202.255 160.049,203.400 159.813 C 204.060 159.677,205.410 159.351,206.400 159.088 C 208.404 158.557,221.372 158.476,223.500 158.982 C 224.708 159.269,224.800 159.219,224.800 158.269 C 224.800 157.707,224.980 157.136,225.200 157.000 C 225.420 156.864,225.600 156.324,225.600 155.800 C 225.600 155.276,225.744 154.758,225.921 154.649 C 226.097 154.540,226.493 153.528,226.800 152.400 C 227.107 151.272,227.503 150.260,227.679 150.151 C 227.856 150.042,228.000 149.524,228.000 149.000 C 228.000 148.476,228.180 147.936,228.400 147.800 C 228.620 147.664,228.800 147.143,228.800 146.643 C 228.800 146.143,228.922 145.611,229.071 145.462 C 230.015 144.519,231.064 140.011,230.389 139.797 C 230.007 139.675,229.269 139.203,228.748 138.747 C 228.226 138.291,227.326 137.516,226.748 137.025 C 210.894 123.574,226.572 95.964,246.400 102.414 M322.800 295.200 C 322.470 295.413,321.705 295.591,321.100 295.594 C 320.495 295.597,320.000 295.780,320.000 296.000 C 320.000 296.220,319.722 296.400,319.382 296.400 C 318.305 296.400,316.000 299.258,316.000 300.595 C 316.000 300.928,315.820 301.200,315.600 301.200 C 315.371 301.200,315.200 302.400,315.200 304.000 C 315.200 305.600,315.371 306.800,315.600 306.800 C 315.820 306.800,316.000 307.165,316.000 307.611 C 316.000 308.797,319.349 312.000,320.589 312.000 C 321.145 312.000,321.600 312.180,321.600 312.400 C 321.600 312.620,322.565 312.800,323.744 312.800 C 326.004 312.800,330.800 310.767,330.800 309.809 C 330.800 309.557,331.160 308.964,331.600 308.492 C 334.554 305.322,331.024 296.001,326.746 295.675 C 326.013 295.619,325.239 295.399,325.027 295.187 C 324.535 294.695,323.572 294.701,322.800 295.200 " stroke="none" fill="#fbe3a3" fill-rule="evenodd"></path><path id="path2" d="M210.200 164.686 C 185.444 168.107,171.029 194.770,181.727 217.352 C 194.856 245.067,233.904 245.754,248.119 218.520 C 261.888 192.141,239.680 160.612,210.200 164.686 M217.226 172.014 C 219.649 173.311,217.960 174.732,213.641 175.031 C 208.398 175.393,203.992 176.970,199.597 180.057 C 196.873 181.969,192.400 186.831,192.400 187.878 C 192.400 188.165,192.264 188.400,192.098 188.400 C 191.931 188.400,191.556 188.985,191.264 189.700 C 190.972 190.415,190.586 191.360,190.407 191.800 C 188.998 195.256,188.210 200.068,188.538 203.207 C 189.063 208.236,186.054 208.897,185.429 203.890 C 184.693 198.004,187.367 188.648,191.149 183.873 C 197.712 175.587,211.871 169.148,217.226 172.014 M243.204 191.700 C 244.488 193.806,244.107 196.400,242.514 196.400 C 241.738 196.400,240.403 193.986,240.401 192.580 C 240.399 190.196,241.984 189.698,243.204 191.700 M244.848 200.114 C 245.088 204.566,244.383 207.200,242.952 207.200 C 241.515 207.200,241.300 200.035,242.703 198.915 C 243.530 198.256,244.785 198.958,244.848 200.114 M242.720 209.680 C 244.544 211.504,239.585 220.116,234.285 224.331 C 227.992 229.336,223.229 231.000,215.200 231.000 C 208.372 231.000,205.774 230.344,199.989 227.157 C 195.825 224.862,190.909 219.691,191.624 218.355 C 192.345 217.007,193.699 217.470,196.013 219.853 C 199.511 223.458,202.836 225.587,206.800 226.760 C 207.790 227.053,209.122 227.452,209.760 227.647 C 211.294 228.114,219.013 228.100,220.572 227.627 C 221.247 227.422,222.610 227.021,223.600 226.736 C 230.008 224.890,236.481 218.994,239.558 212.200 C 240.776 209.512,241.764 208.724,242.720 209.680 " stroke="none" fill="#84a3d0" fill-rule="evenodd"></path><path id="path3" d="M239.500 101.889 C 240.215 101.978,241.385 101.978,242.100 101.889 C 242.815 101.801,242.230 101.728,240.800 101.728 C 239.370 101.728,238.785 101.801,239.500 101.889 M232.400 103.400 C 231.094 104.147,231.551 104.155,233.254 103.416 C 233.994 103.094,234.330 102.831,234.000 102.830 C 233.670 102.829,232.950 103.086,232.400 103.400 M136.800 104.646 C 139.079 104.933,144.690 104.978,144.262 104.706 C 144.008 104.544,142.000 104.436,139.800 104.466 C 137.600 104.496,136.250 104.576,136.800 104.646 M252.573 105.800 C 254.957 107.620,255.445 107.623,253.156 105.804 C 252.190 105.036,251.251 104.406,251.069 104.404 C 250.888 104.402,251.564 105.030,252.573 105.800 M225.800 108.000 C 225.168 108.660,224.819 109.190,225.025 109.178 C 225.378 109.157,227.439 106.800,227.105 106.800 C 227.020 106.800,226.432 107.340,225.800 108.000 M236.138 108.556 C 220.997 114.077,224.728 136.200,240.800 136.200 C 256.178 136.200,260.502 115.851,246.543 109.175 C 243.841 107.883,238.805 107.583,236.138 108.556 M136.600 110.955 C 130.922 112.338,127.287 115.668,124.851 121.719 C 124.603 122.334,124.400 124.351,124.400 126.200 C 124.400 128.049,124.603 130.066,124.851 130.681 C 130.545 144.823,147.932 145.844,154.110 132.400 C 159.318 121.066,148.663 108.018,136.600 110.955 M122.796 112.497 C 121.626 114.256,121.536 114.582,122.546 113.400 C 123.437 112.357,123.837 111.600,123.496 111.600 C 123.439 111.600,123.124 112.004,122.796 112.497 M142.154 114.445 C 148.359 116.121,151.644 120.206,151.644 126.244 C 151.644 130.312,150.291 132.397,148.809 130.611 C 148.424 130.146,148.429 129.598,148.835 128.016 C 151.416 117.942,135.571 112.813,131.587 122.432 C 130.794 124.346,128.800 124.481,128.800 122.622 C 128.800 119.647,133.079 115.600,137.309 114.575 C 140.006 113.921,140.197 113.916,142.154 114.445 M260.914 120.200 C 260.917 121.300,260.995 121.703,261.087 121.095 C 261.179 120.486,261.177 119.586,261.082 119.095 C 260.987 118.603,260.911 119.100,260.914 120.200 M220.114 122.200 C 220.117 123.300,220.195 123.703,220.287 123.095 C 220.379 122.486,220.377 121.586,220.282 121.095 C 220.187 120.603,220.111 121.100,220.114 122.200 M260.914 124.200 C 260.917 125.300,260.995 125.703,261.087 125.095 C 261.179 124.486,261.177 123.586,261.082 123.095 C 260.987 122.603,260.911 123.100,260.914 124.200 M118.134 126.000 C 118.134 127.650,118.205 128.325,118.291 127.500 C 118.378 126.675,118.378 125.325,118.291 124.500 C 118.205 123.675,118.134 124.350,118.134 126.000 M161.701 126.200 C 161.705 127.080,161.787 127.393,161.883 126.895 C 161.979 126.398,161.975 125.678,161.875 125.295 C 161.775 124.913,161.696 125.320,161.701 126.200 M147.756 133.829 C 148.574 135.962,141.536 139.251,140.032 137.439 C 139.194 136.429,139.799 135.717,142.074 135.033 C 143.243 134.682,144.549 134.126,144.976 133.797 C 145.991 133.017,147.451 133.034,147.756 133.829 M254.985 136.500 L 253.000 138.600 255.100 136.615 C 257.051 134.771,257.383 134.400,257.085 134.400 C 257.022 134.400,256.077 135.345,254.985 136.500 M121.602 138.022 C 121.601 138.145,122.050 138.855,122.600 139.600 C 123.150 140.345,123.594 140.785,123.586 140.578 C 123.570 140.176,121.605 137.645,121.602 138.022 M244.800 142.000 C 243.976 142.264,243.941 142.326,244.600 142.354 C 245.040 142.373,245.670 142.213,246.000 142.000 C 246.701 141.547,246.214 141.547,244.800 142.000 M167.800 149.200 C 171.755 153.160,175.082 156.400,175.192 156.400 C 175.302 156.400,172.155 153.160,168.200 149.200 C 164.245 145.240,160.918 142.000,160.808 142.000 C 160.698 142.000,163.845 145.240,167.800 149.200 M155.600 145.400 C 156.795 146.610,157.863 147.600,157.973 147.600 C 158.083 147.600,157.195 146.610,156.000 145.400 C 154.805 144.190,153.737 143.200,153.627 143.200 C 153.517 143.200,154.405 144.190,155.600 145.400 M149.200 145.600 C 148.430 146.022,147.944 146.374,148.120 146.383 C 148.544 146.405,150.800 145.232,150.800 144.990 C 150.800 144.728,150.777 144.737,149.200 145.600 M132.400 146.782 C 132.730 147.005,133.345 147.191,133.767 147.194 C 134.790 147.202,134.471 146.973,133.000 146.644 C 132.124 146.448,131.962 146.485,132.400 146.782 M137.913 147.895 C 139.076 147.976,140.876 147.976,141.913 147.893 C 142.951 147.811,142.000 147.745,139.800 147.746 C 137.600 147.747,136.751 147.814,137.913 147.895 M171.400 161.200 C 172.928 162.740,174.269 164.000,174.379 164.000 C 174.489 164.000,173.328 162.740,171.800 161.200 C 170.272 159.660,168.931 158.400,168.821 158.400 C 168.711 158.400,169.872 159.660,171.400 161.200 M182.084 163.390 C 184.881 166.236,187.221 168.483,187.284 168.382 C 187.348 168.282,185.060 165.953,182.200 163.208 L 177.000 158.215 182.084 163.390 M207.800 158.819 C 207.242 159.071,207.485 159.107,208.600 158.938 C 209.480 158.804,210.275 158.628,210.367 158.547 C 210.710 158.244,208.568 158.471,207.800 158.819 M220.033 158.543 C 220.125 158.621,220.830 158.801,221.600 158.942 C 222.585 159.123,222.822 159.082,222.400 158.806 C 221.858 158.450,219.637 158.203,220.033 158.543 M238.543 165.294 C 238.951 165.572,240.121 166.398,241.143 167.128 L 243.000 168.456 241.600 167.199 C 240.830 166.507,239.660 165.682,239.000 165.365 C 238.340 165.048,238.134 165.016,238.543 165.294 M189.200 166.849 C 187.806 168.071,187.805 168.072,189.088 167.219 C 189.796 166.748,190.482 166.191,190.612 165.981 C 190.997 165.357,190.677 165.554,189.200 166.849 M245.800 171.200 C 247.106 172.520,248.265 173.600,248.375 173.600 C 248.485 173.600,247.506 172.520,246.200 171.200 C 244.894 169.880,243.735 168.800,243.625 168.800 C 243.515 168.800,244.494 169.880,245.800 171.200 M249.191 175.188 C 249.657 175.841,250.242 176.502,250.491 176.656 C 250.741 176.811,250.441 176.276,249.825 175.468 C 248.488 173.715,247.984 173.492,249.191 175.188 M252.200 179.600 C 252.541 180.260,252.911 180.800,253.021 180.800 C 253.131 180.800,252.941 180.260,252.600 179.600 C 252.259 178.940,251.889 178.400,251.779 178.400 C 251.669 178.400,251.859 178.940,252.200 179.600 M172.649 192.615 C 172.512 192.973,172.421 193.746,172.446 194.333 C 172.480 195.132,172.570 194.998,172.804 193.800 C 173.135 192.100,173.062 191.540,172.649 192.615 M257.552 193.687 C 257.737 194.798,257.793 194.855,257.919 194.054 C 258.001 193.533,257.903 192.943,257.701 192.741 C 257.479 192.519,257.421 192.893,257.552 193.687 M287.800 193.235 C 286.516 193.426,286.733 193.478,288.900 193.501 C 290.385 193.517,291.600 193.477,291.600 193.411 C 291.600 193.125,289.268 193.018,287.800 193.235 M172.093 197.600 C 172.093 198.370,172.175 198.685,172.276 198.300 C 172.376 197.915,172.376 197.285,172.276 196.900 C 172.175 196.515,172.093 196.830,172.093 197.600 M258.181 201.575 L 258.200 206.149 259.544 206.497 C 260.283 206.689,260.976 206.757,261.085 206.649 C 261.193 206.540,260.612 206.326,259.794 206.173 L 258.307 205.894 258.531 203.247 C 258.654 201.791,258.622 199.790,258.459 198.800 C 258.246 197.509,258.168 198.294,258.181 201.575 M274.581 199.300 L 273.000 201.000 274.700 199.419 C 276.281 197.948,276.584 197.600,276.281 197.600 C 276.216 197.600,275.451 198.365,274.581 199.300 M303.200 199.000 C 303.946 199.770,304.647 200.400,304.757 200.400 C 304.867 200.400,304.346 199.770,303.600 199.000 C 302.854 198.230,302.153 197.600,302.043 197.600 C 301.933 197.600,302.454 198.230,303.200 199.000 M285.598 199.769 C 276.183 202.370,271.913 213.486,277.266 221.457 C 284.548 232.298,300.835 228.810,303.216 215.900 C 305.047 205.977,295.330 197.081,285.598 199.769 M171.720 201.600 C 171.720 202.810,171.795 203.305,171.887 202.700 C 171.978 202.095,171.978 201.105,171.887 200.500 C 171.795 199.895,171.720 200.390,171.720 201.600 M263.233 206.944 C 263.325 207.024,264.210 207.196,265.200 207.327 C 266.402 207.486,266.734 207.447,266.200 207.210 C 265.436 206.872,262.886 206.643,263.233 206.944 M172.406 209.033 C 172.409 209.675,172.584 210.470,172.795 210.800 C 173.055 211.209,173.099 210.890,172.932 209.800 C 172.629 207.823,172.398 207.486,172.406 209.033 M309.082 210.421 C 309.208 211.399,309.375 212.275,309.455 212.367 C 309.781 212.742,309.560 209.755,309.221 209.221 C 308.984 208.846,308.935 209.270,309.082 210.421 M260.705 212.683 C 261.202 212.779,261.922 212.775,262.305 212.675 C 262.687 212.575,262.280 212.496,261.400 212.501 C 260.520 212.505,260.207 212.587,260.705 212.683 M266.999 213.480 C 267.658 213.586,268.347 213.881,268.529 214.136 C 268.753 214.449,268.809 214.405,268.700 214.000 C 268.600 213.631,268.012 213.378,267.169 213.344 C 265.915 213.292,265.901 213.303,266.999 213.480 M309.264 215.867 C 309.229 216.564,309.096 217.464,308.970 217.867 C 308.753 218.559,308.765 218.560,309.194 217.891 C 309.445 217.502,309.577 216.602,309.489 215.891 L 309.328 214.600 309.264 215.867 M269.206 218.633 C 269.209 219.055,269.395 219.670,269.618 220.000 C 269.915 220.438,269.952 220.276,269.756 219.400 C 269.427 217.929,269.198 217.610,269.206 218.633 M274.400 227.747 C 275.170 228.584,276.340 229.643,277.000 230.100 C 278.409 231.074,278.156 230.804,275.200 228.178 C 273.442 226.617,273.282 226.530,274.400 227.747 M303.178 228.300 L 301.800 229.800 303.300 228.422 C 304.696 227.138,304.984 226.800,304.678 226.800 C 304.612 226.800,303.937 227.475,303.178 228.300 M179.927 228.479 C 179.395 228.986,179.254 229.175,179.612 228.900 C 180.505 228.214,180.792 228.263,181.974 229.300 L 183.000 230.200 182.000 229.000 C 181.450 228.340,180.976 227.746,180.946 227.679 C 180.917 227.613,180.458 227.973,179.927 228.479 M167.775 230.900 L 166.600 232.200 167.900 231.025 C 169.112 229.930,169.384 229.600,169.075 229.600 C 169.006 229.600,168.421 230.185,167.775 230.900 M176.000 231.640 L 173.800 233.670 176.100 231.787 C 178.119 230.133,178.668 229.588,178.300 229.604 C 178.245 229.607,177.210 230.523,176.000 231.640 M299.218 231.041 C 298.017 231.788,297.217 232.400,297.439 232.400 C 297.921 232.400,301.600 230.109,301.600 229.809 C 301.600 229.541,301.751 229.463,299.218 231.041 M243.375 234.100 L 242.200 235.400 243.500 234.225 C 244.215 233.579,244.800 232.994,244.800 232.925 C 244.800 232.616,244.470 232.888,243.375 234.100 M162.894 234.812 C 162.175 235.465,161.737 236.000,161.919 236.000 C 162.101 236.000,162.768 235.460,163.400 234.800 C 164.870 233.265,164.586 233.272,162.894 234.812 M172.278 234.613 C 171.660 235.156,171.314 235.600,171.508 235.600 C 171.702 235.600,172.283 235.150,172.800 234.600 C 173.995 233.328,173.731 233.334,172.278 234.613 M186.524 233.877 C 186.860 234.421,190.000 236.955,190.000 236.682 C 190.000 236.580,189.153 235.803,188.119 234.955 C 187.084 234.107,186.366 233.622,186.524 233.877 M286.300 233.882 C 286.795 233.978,287.605 233.978,288.100 233.882 C 288.595 233.787,288.190 233.709,287.200 233.709 C 286.210 233.709,285.805 233.787,286.300 233.882 M290.300 233.882 C 290.795 233.978,291.605 233.978,292.100 233.882 C 292.595 233.787,292.190 233.709,291.200 233.709 C 290.210 233.709,289.805 233.787,290.300 233.882 M152.800 238.737 C 155.144 240.910,155.871 241.333,156.238 240.739 C 156.411 240.458,156.349 240.385,156.078 240.552 C 155.833 240.703,154.950 240.231,154.116 239.503 C 151.747 237.434,150.798 236.882,152.800 238.737 M135.800 239.992 C 122.369 241.868,116.873 258.925,126.574 268.626 C 133.226 275.278,144.030 275.146,150.681 268.332 C 161.943 256.792,151.938 237.737,135.800 239.992 M231.964 241.275 C 231.505 241.601,231.521 241.637,232.051 241.469 C 232.409 241.355,232.904 241.464,233.151 241.711 C 233.469 242.029,233.600 242.032,233.600 241.723 C 233.600 241.082,232.615 240.812,231.964 241.275 M160.441 244.558 C 159.602 245.424,159.194 246.184,159.316 246.658 C 159.494 247.350,159.510 247.347,159.554 246.619 C 159.579 246.190,160.175 245.245,160.878 244.519 C 161.582 243.794,162.067 243.200,161.957 243.200 C 161.847 243.200,161.165 243.811,160.441 244.558 M204.800 243.582 C 205.130 243.805,205.745 243.991,206.167 243.994 C 207.190 244.002,206.871 243.773,205.400 243.444 C 204.524 243.248,204.362 243.285,204.800 243.582 M224.400 243.600 C 223.576 243.864,223.541 243.926,224.200 243.954 C 224.640 243.973,225.270 243.813,225.600 243.600 C 226.301 243.147,225.814 243.147,224.400 243.600 M209.000 244.424 C 209.440 244.600,210.970 244.742,212.400 244.740 C 215.681 244.736,215.107 244.518,211.200 244.285 C 209.499 244.183,208.546 244.243,209.000 244.424 M218.200 244.400 L 215.400 244.659 218.000 244.701 C 219.430 244.725,220.960 244.589,221.400 244.400 C 222.275 244.024,222.270 244.024,218.200 244.400 M237.600 250.400 C 238.049 251.280,238.506 252.000,238.616 252.000 C 238.726 252.000,238.449 251.280,238.000 250.400 C 237.551 249.520,237.094 248.800,236.984 248.800 C 236.874 248.800,237.151 249.520,237.600 250.400 M160.644 250.600 C 160.973 252.071,161.202 252.390,161.194 251.367 C 161.191 250.945,161.005 250.330,160.782 250.000 C 160.485 249.562,160.448 249.724,160.644 250.600 M246.792 255.500 C 247.098 256.132,247.551 256.384,248.314 256.346 C 249.374 256.292,249.376 256.287,248.416 256.107 C 247.874 256.005,247.189 255.625,246.894 255.261 C 246.426 254.686,246.413 254.718,246.792 255.500 M161.701 256.600 C 161.705 257.480,161.787 257.793,161.883 257.295 C 161.979 256.798,161.975 256.078,161.875 255.695 C 161.775 255.313,161.696 255.720,161.701 256.600 M258.033 255.343 C 258.125 255.422,258.920 255.597,259.800 255.732 C 260.890 255.899,261.209 255.855,260.800 255.595 C 260.253 255.246,257.645 255.009,258.033 255.343 M115.656 260.800 C 115.656 261.130,115.811 261.760,116.000 262.200 C 116.217 262.704,116.344 262.778,116.344 262.400 C 116.344 262.070,116.189 261.440,116.000 261.000 C 115.783 260.496,115.656 260.422,115.656 260.800 M160.846 261.667 C 160.821 262.034,160.696 262.664,160.570 263.067 C 160.352 263.762,160.363 263.763,160.797 263.087 C 161.048 262.696,161.173 262.066,161.073 261.687 C 160.911 261.068,160.888 261.066,160.846 261.667 M250.631 262.041 C 246.480 263.469,243.432 266.094,241.693 269.739 C 240.177 272.918,240.000 273.657,240.000 276.800 C 240.000 278.539,240.203 280.466,240.451 281.081 C 243.625 288.965,248.004 292.157,255.680 292.184 C 258.589 292.195,260.120 292.040,260.460 291.700 C 260.735 291.425,261.204 291.200,261.502 291.200 C 262.422 291.200,266.589 288.152,267.750 286.630 C 277.130 274.333,265.107 257.063,250.631 262.041 M258.604 265.418 C 261.166 266.163,264.102 268.182,263.925 269.078 C 263.719 270.124,262.516 270.678,261.700 270.102 C 260.036 268.929,257.955 268.000,256.990 268.000 C 254.826 268.000,253.662 266.498,254.880 265.280 C 255.506 264.654,256.044 264.674,258.604 265.418 M117.200 265.753 C 117.200 266.182,118.390 268.400,118.621 268.400 C 118.731 268.400,118.523 267.815,118.159 267.100 C 117.417 265.640,117.200 265.336,117.200 265.753 M266.611 272.960 C 267.719 274.651,267.279 279.000,266.000 279.000 C 265.179 279.000,264.981 278.785,264.893 277.800 C 264.834 277.140,264.586 275.836,264.342 274.903 C 263.653 272.270,265.258 270.896,266.611 272.960 M277.000 276.800 C 277.000 278.764,277.122 280.062,277.272 279.685 C 277.421 279.308,277.544 278.010,277.544 276.800 C 277.544 275.590,277.421 274.292,277.272 273.915 C 277.122 273.538,277.000 274.836,277.000 276.800 M233.728 276.800 C 233.728 278.230,233.801 278.815,233.889 278.100 C 233.978 277.385,233.978 276.215,233.889 275.500 C 233.801 274.785,233.728 275.370,233.728 276.800 M246.478 277.547 C 247.670 284.579,253.912 287.729,260.274 284.509 C 263.387 282.933,264.999 284.530,262.300 286.516 C 257.894 289.758,251.257 289.177,247.194 285.194 C 245.266 283.305,243.600 279.713,243.600 277.448 C 243.600 274.724,246.014 274.807,246.478 277.547 M144.400 278.800 C 143.576 279.064,143.541 279.126,144.200 279.154 C 144.640 279.173,145.270 279.013,145.600 278.800 C 146.301 278.347,145.814 278.347,144.400 278.800 M137.091 279.889 C 137.801 279.977,139.061 279.979,139.891 279.892 C 140.721 279.805,140.140 279.733,138.600 279.731 C 137.060 279.729,136.381 279.800,137.091 279.889 M236.402 287.433 C 236.403 287.635,236.868 288.340,237.435 289.000 L 238.466 290.200 237.563 288.800 C 236.404 287.004,236.400 286.999,236.402 287.433 M239.983 292.100 C 240.964 293.145,241.819 294.000,241.883 294.000 C 242.184 294.000,241.866 293.641,240.100 291.983 L 238.200 290.200 239.983 292.100 M254.300 298.689 C 255.015 298.778,256.185 298.778,256.900 298.689 C 257.615 298.601,257.030 298.528,255.600 298.528 C 254.170 298.528,253.585 298.601,254.300 298.689 " stroke="none" fill="#abd3a3" fill-rule="evenodd"></path><path id="path4" d="M345.800 87.600 C 345.941 87.829,345.587 88.000,344.971 88.000 C 343.754 88.000,340.400 91.043,340.400 92.147 C 340.400 92.506,340.211 92.800,339.979 92.800 C 339.712 92.800,339.586 94.042,339.634 96.200 C 339.675 98.070,339.864 99.600,340.054 99.600 C 340.244 99.600,340.400 99.888,340.400 100.240 C 340.400 101.572,343.284 103.625,346.600 104.653 C 349.584 105.579,356.000 102.117,356.000 99.581 C 356.000 99.178,356.180 98.736,356.400 98.600 C 357.496 97.923,356.340 91.200,355.128 91.200 C 354.874 91.200,354.780 91.086,354.919 90.947 C 355.339 90.528,352.747 88.369,351.533 88.127 C 350.910 88.002,350.400 87.743,350.400 87.550 C 350.400 87.358,349.309 87.200,347.976 87.200 C 346.463 87.200,345.646 87.350,345.800 87.600 M239.100 102.293 C 240.035 102.377,241.565 102.377,242.500 102.293 C 243.435 102.209,242.670 102.140,240.800 102.140 C 238.930 102.140,238.165 102.209,239.100 102.293 M234.800 102.800 C 234.267 103.145,234.267 103.188,234.800 103.188 C 235.130 103.188,235.670 103.013,236.000 102.800 C 236.533 102.455,236.533 102.412,236.000 102.412 C 235.670 102.412,235.130 102.587,234.800 102.800 M245.400 102.800 C 245.840 102.989,246.470 103.144,246.800 103.144 C 247.178 103.144,247.104 103.017,246.600 102.800 C 246.160 102.611,245.530 102.456,245.200 102.456 C 244.822 102.456,244.896 102.583,245.400 102.800 M250.400 104.767 C 251.363 105.552,252.000 105.808,252.000 105.410 C 252.000 105.306,251.415 104.935,250.700 104.586 L 249.400 103.952 250.400 104.767 M134.800 105.200 L 133.800 105.520 134.800 105.520 C 135.350 105.520,136.250 105.376,136.800 105.200 L 137.800 104.880 136.800 104.880 C 136.250 104.880,135.350 105.024,134.800 105.200 M143.000 105.200 C 143.440 105.389,144.250 105.538,144.800 105.532 L 145.800 105.520 144.800 105.200 C 144.250 105.024,143.440 104.874,143.000 104.868 L 142.200 104.856 143.000 105.200 M228.139 106.365 C 226.150 107.948,224.831 109.456,223.431 111.744 C 222.432 113.377,223.033 112.746,225.101 109.990 C 226.013 108.774,227.578 107.166,228.579 106.415 C 230.267 105.151,230.630 104.800,230.252 104.800 C 230.171 104.800,229.220 105.504,228.139 106.365 M131.400 106.378 C 130.520 106.795,129.980 107.136,130.200 107.138 C 130.746 107.142,133.902 105.664,133.400 105.640 C 133.180 105.630,132.280 105.962,131.400 106.378 M252.411 105.871 C 252.417 106.052,253.010 106.636,253.729 107.169 C 255.834 108.729,258.485 112.574,259.376 115.357 C 259.510 115.774,259.717 116.016,259.837 115.896 C 260.201 115.533,258.542 112.269,256.849 110.016 C 255.280 107.928,252.390 105.228,252.411 105.871 M148.603 106.805 C 148.737 107.022,149.026 107.200,149.246 107.200 C 151.172 107.200,157.251 113.201,158.825 116.655 C 159.769 118.726,160.268 119.015,159.428 117.004 C 158.104 113.837,155.119 110.451,151.600 108.125 C 149.586 106.793,148.225 106.194,148.603 106.805 M126.895 108.992 C 124.559 110.748,123.252 112.000,123.755 112.000 C 123.894 112.000,124.591 111.437,125.304 110.749 C 126.017 110.061,127.275 109.047,128.100 108.496 C 129.472 107.579,129.864 107.200,129.440 107.200 C 129.351 107.200,128.206 108.007,126.895 108.992 M48.800 108.000 C 48.800 108.220,48.440 108.400,48.000 108.400 C 47.560 108.400,47.200 108.559,47.200 108.753 C 47.200 108.948,46.849 109.198,46.420 109.311 C 45.509 109.549,43.912 111.971,44.187 112.700 C 44.290 112.975,44.111 113.200,43.787 113.200 C 42.080 113.200,43.631 120.496,45.638 121.909 C 46.035 122.189,46.672 122.729,47.052 123.109 C 47.432 123.489,47.846 123.816,47.971 123.835 C 48.097 123.854,48.470 123.974,48.800 124.101 C 50.837 124.889,55.491 124.795,54.985 123.976 C 54.872 123.792,55.143 123.712,55.589 123.798 C 56.035 123.884,56.400 123.784,56.400 123.577 C 56.400 123.370,56.630 123.200,56.911 123.200 C 57.526 123.200,58.578 122.020,59.627 120.151 C 60.475 118.641,60.776 112.400,60.000 112.400 C 59.780 112.400,59.600 112.222,59.600 112.005 C 59.600 111.055,56.893 108.400,55.925 108.400 C 55.526 108.400,55.200 108.220,55.200 108.000 C 55.200 107.767,53.867 107.600,52.000 107.600 C 50.133 107.600,48.800 107.767,48.800 108.000 M234.501 108.858 C 228.035 112.034,224.040 121.294,226.700 126.939 C 226.975 127.523,227.425 128.482,227.700 129.072 C 229.030 131.921,232.371 134.679,236.519 136.349 C 240.593 137.990,247.467 136.188,251.089 132.530 C 259.040 124.499,256.092 112.485,245.081 108.051 C 242.704 107.093,237.245 107.509,234.501 108.858 M246.543 109.175 C 260.502 115.851,256.178 136.200,240.800 136.200 C 224.728 136.200,220.997 114.077,236.138 108.556 C 238.805 107.583,243.841 107.883,246.543 109.175 M135.028 110.859 C 125.693 114.014,121.183 124.439,125.433 133.040 C 131.558 145.437,148.474 145.354,154.458 132.896 C 160.368 120.593,147.939 106.495,135.028 110.859 M143.200 110.955 C 159.596 114.879,159.416 137.144,142.954 141.559 C 137.010 143.152,128.872 139.265,126.124 133.520 C 124.568 130.268,124.400 129.553,124.400 126.200 C 124.400 122.847,124.568 122.132,126.124 118.880 C 128.944 112.983,136.677 109.394,143.200 110.955 M122.305 113.700 C 121.054 115.343,119.479 118.412,119.749 118.682 C 119.861 118.794,120.224 118.239,120.554 117.448 C 120.885 116.656,121.714 115.197,122.397 114.204 C 123.830 112.122,123.768 111.779,122.305 113.700 M137.309 114.575 C 133.079 115.600,128.800 119.647,128.800 122.622 C 128.800 124.481,130.794 124.346,131.587 122.432 C 132.203 120.943,134.189 118.933,135.976 117.988 C 136.759 117.574,137.112 117.227,136.760 117.218 C 135.328 117.178,132.526 119.778,130.956 122.602 C 130.385 123.630,129.433 123.629,129.286 122.600 C 128.809 119.266,134.970 114.832,140.160 114.772 C 141.893 114.752,142.368 114.644,141.800 114.400 C 140.724 113.938,139.788 113.974,137.309 114.575 M144.600 115.755 C 147.872 117.304,149.858 119.663,151.040 123.400 C 151.447 124.686,151.552 124.800,151.573 123.979 C 151.658 120.757,146.266 114.787,143.288 114.804 C 142.910 114.806,143.500 115.234,144.600 115.755 M221.400 116.000 C 221.250 116.473,221.217 116.950,221.327 117.060 C 221.437 117.170,221.650 116.873,221.800 116.400 C 221.950 115.927,221.983 115.450,221.873 115.340 C 221.763 115.230,221.550 115.527,221.400 116.000 M138.400 116.801 C 137.639 117.044,137.950 117.130,139.704 117.160 C 143.840 117.232,146.951 119.335,148.396 123.037 C 148.818 124.117,149.171 124.678,149.181 124.284 C 149.284 120.349,142.354 115.539,138.400 116.801 M260.068 117.200 C 260.062 117.750,260.211 118.560,260.400 119.000 L 260.744 119.800 260.732 119.000 C 260.726 118.560,260.576 117.750,260.400 117.200 L 260.080 116.200 260.068 117.200 M220.657 119.100 C 220.353 120.940,220.403 124.187,220.761 125.800 C 220.907 126.460,221.032 124.885,221.037 122.300 C 221.047 117.135,221.020 116.904,220.657 119.100 M160.034 119.400 C 160.022 119.840,160.187 120.470,160.400 120.800 C 160.914 121.595,160.914 120.596,160.400 119.400 L 160.056 118.600 160.034 119.400 M119.029 120.229 C 118.881 120.815,118.851 121.384,118.961 121.494 C 119.071 121.604,119.281 121.215,119.429 120.629 C 119.576 120.042,119.606 119.473,119.496 119.363 C 119.386 119.253,119.176 119.642,119.029 120.229 M160.946 126.200 C 160.943 130.497,160.980 130.753,161.299 128.641 C 161.505 127.272,161.506 125.256,161.301 123.841 C 160.981 121.626,160.948 121.844,160.946 126.200 M118.542 126.200 C 118.541 128.180,118.608 129.040,118.692 128.112 C 118.776 127.184,118.777 125.564,118.695 124.512 C 118.612 123.460,118.543 124.220,118.542 126.200 M260.200 126.000 C 260.046 126.910,260.011 127.744,260.121 127.854 C 260.231 127.964,260.446 127.310,260.600 126.400 C 260.754 125.490,260.789 124.656,260.679 124.546 C 260.569 124.436,260.354 125.090,260.200 126.000 M221.212 127.600 C 221.212 127.930,221.387 128.470,221.600 128.800 C 221.945 129.333,221.988 129.333,221.988 128.800 C 221.988 128.470,221.813 127.930,221.600 127.600 C 221.255 127.067,221.212 127.067,221.212 127.600 M148.660 128.716 C 148.311 130.106,148.824 131.200,149.826 131.200 C 150.599 131.200,151.606 129.579,151.559 128.411 C 151.526 127.602,151.438 127.699,151.119 128.900 C 150.841 129.946,150.498 130.400,149.984 130.400 C 149.423 130.400,149.218 130.043,149.119 128.900 L 148.990 127.400 148.660 128.716 M222.007 129.716 C 221.994 130.315,223.523 133.004,224.760 134.555 C 225.442 135.410,226.000 135.962,226.000 135.781 C 226.000 135.600,225.646 135.075,225.213 134.614 C 224.781 134.154,223.884 132.792,223.221 131.589 C 222.557 130.385,222.011 129.542,222.007 129.716 M118.812 131.200 C 118.812 131.530,118.987 132.070,119.200 132.400 C 119.545 132.933,119.588 132.933,119.588 132.400 C 119.588 132.070,119.413 131.530,119.200 131.200 C 118.855 130.667,118.812 130.667,118.812 131.200 M160.273 131.753 C 160.123 132.145,160.011 132.766,160.025 133.133 C 160.042 133.575,160.181 133.474,160.437 132.834 C 160.649 132.303,160.761 131.682,160.685 131.454 C 160.609 131.227,160.424 131.361,160.273 131.753 M257.235 133.343 C 255.304 136.469,251.230 139.500,246.870 141.055 C 245.384 141.585,244.821 141.899,245.600 141.762 C 249.392 141.098,255.746 136.631,257.723 133.240 C 258.698 131.566,258.279 131.654,257.235 133.343 M144.976 133.797 C 144.549 134.126,143.243 134.682,142.074 135.033 C 139.799 135.717,139.194 136.429,140.032 137.439 C 141.037 138.649,146.667 136.943,147.634 135.136 C 148.515 133.490,146.618 132.535,144.976 133.797 M119.600 133.790 C 119.600 134.344,121.639 137.897,122.590 139.000 C 123.223 139.734,122.999 139.205,122.012 137.638 C 121.126 136.229,120.400 134.845,120.400 134.562 C 120.400 134.279,120.220 133.936,120.000 133.800 C 119.780 133.664,119.600 133.659,119.600 133.790 M147.400 134.384 C 147.400 135.715,142.488 137.936,140.758 137.387 C 139.473 136.979,140.086 136.292,142.606 135.316 C 143.897 134.816,145.142 134.218,145.372 133.988 C 145.960 133.400,147.400 133.681,147.400 134.384 M158.428 136.471 L 157.163 138.941 172.158 153.951 C 186.983 168.792,187.163 168.955,188.176 168.413 C 188.739 168.111,189.200 167.711,189.200 167.523 C 189.200 167.335,188.734 167.487,188.165 167.860 L 187.129 168.538 172.325 153.718 L 157.520 138.897 158.487 137.149 C 159.514 135.291,160.066 134.000,159.833 134.000 C 159.756 134.000,159.123 135.112,158.428 136.471 M226.400 136.212 C 226.400 136.628,228.394 138.337,229.680 139.023 C 230.274 139.341,230.924 139.893,231.125 140.251 C 231.351 140.655,231.587 140.744,231.747 140.486 C 231.889 140.256,231.339 139.656,230.524 139.153 C 229.709 138.650,228.448 137.716,227.722 137.077 C 226.995 136.439,226.400 136.050,226.400 136.212 M124.400 141.400 C 124.917 141.950,125.496 142.400,125.688 142.400 C 125.880 142.400,125.586 141.950,125.036 141.400 C 124.486 140.850,123.907 140.400,123.748 140.400 C 123.590 140.400,123.883 140.850,124.400 141.400 M235.854 142.198 C 235.981 142.526,236.245 142.696,236.442 142.574 C 237.007 142.225,236.860 141.600,236.213 141.600 C 235.856 141.600,235.715 141.835,235.854 142.198 M239.100 142.293 C 240.035 142.377,241.565 142.377,242.500 142.293 C 243.435 142.209,242.670 142.140,240.800 142.140 C 238.930 142.140,238.165 142.209,239.100 142.293 M127.196 143.607 C 128.320 144.597,131.294 146.163,132.800 146.560 C 133.350 146.704,132.671 146.287,131.290 145.632 C 129.910 144.976,128.200 144.056,127.490 143.585 L 126.200 142.731 127.196 143.607 M151.681 143.772 C 149.604 145.240,149.628 145.417,151.738 144.198 L 153.676 143.080 168.238 157.638 C 176.247 165.645,182.800 172.349,182.800 172.536 C 182.800 172.723,182.408 173.444,181.929 174.138 L 181.058 175.400 182.129 174.430 C 182.718 173.897,183.200 173.108,183.200 172.677 C 183.200 171.798,154.346 142.787,153.504 142.820 C 153.227 142.830,152.407 143.259,151.681 143.772 M229.487 145.291 C 229.141 146.231,228.282 148.710,227.577 150.800 C 226.873 152.890,226.201 154.870,226.085 155.200 C 225.968 155.530,225.999 155.687,226.154 155.549 C 226.521 155.222,230.448 143.914,230.260 143.726 C 230.180 143.647,229.833 144.351,229.487 145.291 M234.600 146.400 C 234.450 146.873,234.417 147.350,234.527 147.460 C 234.637 147.570,234.850 147.273,235.000 146.800 C 235.150 146.327,235.183 145.850,235.073 145.740 C 234.963 145.630,234.750 145.927,234.600 146.400 M146.400 146.400 C 145.867 146.745,145.867 146.788,146.400 146.788 C 146.730 146.788,147.270 146.613,147.600 146.400 C 148.133 146.055,148.133 146.012,147.600 146.012 C 147.270 146.012,146.730 146.187,146.400 146.400 M135.000 147.200 C 135.440 147.389,136.250 147.538,136.800 147.532 L 137.800 147.520 136.800 147.200 C 136.250 147.024,135.440 146.874,135.000 146.868 L 134.200 146.856 135.000 147.200 M143.200 147.200 L 142.200 147.520 143.200 147.532 C 143.750 147.538,144.560 147.389,145.000 147.200 L 145.800 146.856 145.000 146.868 C 144.560 146.874,143.750 147.024,143.200 147.200 M232.200 153.200 C 232.050 153.673,232.017 154.150,232.127 154.260 C 232.237 154.370,232.450 154.073,232.600 153.600 C 232.750 153.127,232.783 152.650,232.673 152.540 C 232.563 152.430,232.350 152.727,232.200 153.200 M231.400 155.600 C 231.250 156.073,231.217 156.550,231.327 156.660 C 231.437 156.770,231.650 156.473,231.800 156.000 C 231.950 155.527,231.983 155.050,231.873 154.940 C 231.763 154.830,231.550 155.127,231.400 155.600 M225.203 157.592 L 224.642 159.292 222.421 159.078 C 220.997 158.941,220.559 158.982,221.200 159.193 C 223.995 160.109,226.624 158.473,225.891 156.274 C 225.821 156.064,225.511 156.657,225.203 157.592 M212.700 158.696 C 214.075 158.774,216.325 158.774,217.700 158.696 C 219.075 158.618,217.950 158.554,215.200 158.554 C 212.450 158.554,211.325 158.618,212.700 158.696 M207.200 159.200 C 205.843 159.486,205.837 159.495,207.000 159.507 C 207.660 159.515,208.650 159.376,209.200 159.200 C 210.512 158.780,209.196 158.780,207.200 159.200 M203.800 160.000 C 202.693 160.282,202.677 160.309,203.600 160.347 C 204.150 160.369,204.870 160.213,205.200 160.000 C 205.881 159.560,205.529 159.560,203.800 160.000 M229.822 159.964 C 229.323 160.772,230.246 161.494,234.327 163.483 C 236.677 164.628,238.150 165.216,237.600 164.789 C 237.050 164.362,235.430 163.463,234.000 162.791 C 230.323 161.062,230.187 160.968,230.318 160.247 C 230.446 159.540,230.179 159.387,229.822 159.964 M199.800 161.248 C 196.839 162.439,193.932 163.915,192.800 164.801 C 192.250 165.232,193.510 164.722,195.600 163.668 C 197.690 162.614,200.120 161.465,201.000 161.115 C 201.880 160.764,202.420 160.470,202.200 160.461 C 201.980 160.451,200.900 160.806,199.800 161.248 M207.874 164.611 C 206.595 164.890,205.425 165.253,205.274 165.417 C 205.123 165.581,205.630 165.588,206.400 165.434 C 212.413 164.226,216.770 164.102,221.785 164.995 C 224.770 165.527,226.661 165.528,224.147 164.996 C 223.516 164.863,222.245 164.584,221.323 164.377 C 218.996 163.854,210.683 163.999,207.874 164.611 M190.162 166.462 L 189.400 167.324 190.500 166.616 C 191.634 165.886,191.849 165.600,191.262 165.600 C 191.076 165.600,190.581 165.988,190.162 166.462 M200.600 166.924 C 189.008 172.207,181.704 180.849,178.561 193.000 C 177.653 196.514,177.530 206.345,178.358 209.400 C 179.655 214.193,181.576 218.869,182.957 220.600 C 183.308 221.040,182.786 219.669,181.797 217.552 C 172.257 197.142,182.004 173.989,203.400 166.236 C 204.280 165.917,204.640 165.654,204.200 165.652 C 203.760 165.650,202.140 166.222,200.600 166.924 M226.000 166.000 C 226.330 166.213,226.870 166.388,227.200 166.388 C 227.733 166.388,227.733 166.345,227.200 166.000 C 226.870 165.787,226.330 165.612,226.000 165.612 C 225.467 165.612,225.467 165.655,226.000 166.000 M231.809 168.398 C 240.531 172.766,245.466 178.318,250.302 189.200 C 250.546 189.750,250.758 189.957,250.773 189.659 C 251.078 183.561,234.495 166.400,228.298 166.400 C 228.034 166.400,229.615 167.299,231.809 168.398 M241.200 167.538 C 241.200 167.792,241.400 168.000,241.645 168.000 C 241.889 168.000,243.729 169.665,245.733 171.700 C 247.737 173.735,248.990 174.860,248.519 174.200 C 246.944 171.997,241.200 166.768,241.200 167.538 M209.580 172.217 C 199.071 174.314,190.020 182.321,186.815 192.353 C 185.159 197.537,184.870 205.212,186.277 206.620 C 187.867 208.210,188.898 206.653,188.538 203.207 C 188.210 200.068,188.998 195.256,190.407 191.800 C 190.586 191.360,190.972 190.415,191.264 189.700 C 191.556 188.985,191.931 188.400,192.098 188.400 C 192.264 188.400,192.400 188.165,192.400 187.878 C 192.400 186.831,196.873 181.969,199.597 180.057 C 203.992 176.970,208.398 175.393,213.641 175.031 C 217.431 174.768,218.000 174.552,218.000 173.371 C 218.000 171.552,214.982 171.138,209.580 172.217 M217.359 172.911 C 218.006 173.956,217.270 174.253,213.260 174.568 C 203.217 175.358,194.708 181.309,190.465 190.514 C 188.889 193.933,188.297 196.821,188.209 201.517 C 188.121 206.240,187.757 207.360,186.617 206.414 C 185.444 205.441,185.909 195.341,187.247 192.705 C 187.441 192.323,187.600 191.826,187.600 191.601 C 187.600 187.817,195.559 178.651,201.400 175.708 C 207.943 172.411,216.155 170.972,217.359 172.911 M179.272 177.645 C 177.485 180.378,177.817 180.467,179.683 177.755 C 180.498 176.570,181.038 175.603,180.883 175.607 C 180.727 175.611,180.002 176.528,179.272 177.645 M250.574 177.600 C 252.473 180.389,252.777 180.657,251.584 178.491 C 251.066 177.550,250.290 176.470,249.859 176.091 C 249.428 175.711,249.750 176.390,250.574 177.600 M176.793 182.014 C 175.821 183.919,175.043 185.890,175.406 185.527 C 175.787 185.146,177.995 180.400,177.791 180.400 C 177.695 180.400,177.246 181.126,176.793 182.014 M253.744 183.200 C 255.235 186.431,256.581 190.466,256.994 192.941 C 257.136 193.788,257.355 194.378,257.482 194.251 C 258.152 193.581,254.171 182.011,252.799 180.639 C 252.557 180.397,252.983 181.550,253.744 183.200 M174.257 188.057 C 173.890 189.193,173.659 190.192,173.744 190.277 C 173.828 190.362,174.201 189.504,174.571 188.371 C 174.942 187.239,175.173 186.240,175.085 186.151 C 174.997 186.063,174.624 186.921,174.257 188.057 M240.880 190.880 C 239.779 191.981,241.087 196.400,242.514 196.400 C 244.107 196.400,244.488 193.806,243.204 191.700 C 242.369 190.330,241.675 190.085,240.880 190.880 M250.959 191.400 C 251.107 192.060,251.473 194.040,251.774 195.800 C 252.262 198.658,252.325 198.799,252.360 197.120 C 252.382 196.085,252.133 194.213,251.806 192.959 C 251.188 190.586,250.489 189.300,250.959 191.400 M173.040 192.440 C 172.893 193.357,172.852 194.185,172.947 194.280 C 173.042 194.376,173.246 193.710,173.400 192.800 C 173.554 191.890,173.596 191.062,173.493 190.960 C 173.390 190.857,173.187 191.523,173.040 192.440 M243.185 192.754 C 243.792 194.594,243.620 195.747,242.712 195.922 C 241.505 196.154,240.277 192.283,241.249 191.311 C 241.957 190.603,242.644 191.115,243.185 192.754 M287.000 193.627 C 285.026 193.813,285.345 193.863,288.800 193.910 C 298.861 194.045,306.167 199.718,308.625 209.305 L 309.163 211.400 308.938 209.600 C 307.743 200.053,297.549 192.630,287.000 193.627 M282.012 194.664 C 278.396 195.929,273.383 200.147,271.750 203.300 C 270.837 205.062,271.406 204.572,272.804 202.394 C 274.957 199.039,278.286 196.591,283.600 194.456 C 285.191 193.817,283.980 193.975,282.012 194.664 M257.727 200.269 C 257.713 207.020,257.623 206.827,260.844 207.015 L 263.400 207.165 261.303 206.826 C 257.812 206.263,257.862 206.315,258.109 203.492 C 258.229 202.121,258.195 199.560,258.033 197.800 C 257.769 194.923,257.738 195.171,257.727 200.269 M172.213 198.900 C 172.069 200.935,172.107 203.860,172.299 205.400 C 172.601 207.830,172.650 207.341,172.672 201.700 C 172.701 194.295,172.588 193.606,172.213 198.900 M242.703 198.915 C 241.300 200.035,241.515 207.200,242.952 207.200 C 244.383 207.200,245.088 204.566,244.848 200.114 C 244.785 198.958,243.530 198.256,242.703 198.915 M288.305 199.083 C 288.802 199.179,289.522 199.175,289.905 199.075 C 290.287 198.975,289.880 198.896,289.000 198.901 C 288.120 198.905,287.807 198.987,288.305 199.083 M244.400 202.551 C 244.400 206.193,243.761 207.567,242.625 206.366 C 241.586 205.267,242.286 199.200,243.451 199.200 C 244.374 199.200,244.400 199.292,244.400 202.551 M252.528 201.600 C 252.528 203.030,252.601 203.615,252.689 202.900 C 252.778 202.185,252.778 201.015,252.689 200.300 C 252.601 199.585,252.528 200.170,252.528 201.600 M282.823 200.315 C 274.008 204.708,271.685 216.654,278.308 223.532 C 292.015 237.768,312.819 218.187,299.745 203.354 C 298.915 202.412,295.258 200.000,294.660 200.000 C 294.449 200.000,295.342 200.689,296.644 201.530 C 310.800 210.680,300.760 232.209,284.700 227.141 C 271.343 222.925,271.979 203.532,285.598 199.769 C 287.152 199.340,287.235 199.269,286.200 199.251 C 285.540 199.239,284.020 199.718,282.823 200.315 M292.000 199.600 C 293.542 200.094,294.364 200.094,293.600 199.600 C 293.270 199.387,292.550 199.227,292.000 199.246 L 291.000 199.280 292.000 199.600 M252.068 205.400 C 252.026 206.060,251.899 207.320,251.785 208.200 C 251.606 209.593,251.635 209.673,252.008 208.815 C 252.244 208.274,252.371 207.014,252.291 206.015 C 252.199 204.885,252.115 204.653,252.068 205.400 M270.377 206.087 C 270.084 206.809,269.655 207.532,269.423 207.694 C 269.142 207.889,269.167 207.990,269.495 207.994 C 269.967 208.000,271.374 205.241,271.059 204.926 C 270.976 204.842,270.669 205.365,270.377 206.087 M264.600 207.592 C 265.357 207.925,269.121 208.163,268.767 207.856 C 268.675 207.776,267.520 207.605,266.200 207.476 C 264.676 207.326,264.092 207.369,264.600 207.592 M172.868 209.400 C 172.874 209.840,173.024 210.650,173.200 211.200 L 173.520 212.200 173.532 211.200 C 173.538 210.650,173.389 209.840,173.200 209.400 L 172.856 208.600 172.868 209.400 M241.109 209.700 C 240.754 209.975,240.057 211.100,239.558 212.200 C 236.481 218.994,230.008 224.890,223.600 226.736 C 222.610 227.021,221.247 227.422,220.572 227.627 C 219.013 228.100,211.294 228.114,209.760 227.647 C 209.122 227.452,207.790 227.053,206.800 226.760 C 202.836 225.587,199.511 223.458,196.013 219.853 C 192.612 216.349,189.743 217.180,192.554 220.855 C 200.385 231.094,217.230 234.252,229.200 227.725 C 237.169 223.380,245.415 212.375,242.720 209.680 C 242.117 209.077,241.908 209.079,241.109 209.700 M242.800 211.008 C 242.800 215.560,234.665 224.756,227.800 227.966 C 222.914 230.250,221.242 230.600,215.200 230.600 C 208.103 230.600,204.214 229.434,198.400 225.564 C 195.831 223.853,192.000 219.931,192.000 219.011 C 192.000 217.469,193.290 217.983,196.123 220.655 C 209.283 233.065,229.589 230.402,238.630 215.079 C 239.384 213.802,240.000 212.570,240.000 212.340 C 240.000 212.111,240.366 211.409,240.814 210.780 C 241.747 209.470,242.800 209.591,242.800 211.008 M250.645 212.423 C 242.250 241.159,203.605 247.853,185.545 223.700 C 184.131 221.809,183.095 220.830,183.850 222.100 C 185.758 225.306,190.255 229.987,193.660 232.313 C 195.873 233.825,201.589 236.788,202.305 236.795 C 202.583 236.798,203.123 236.962,203.505 237.161 C 206.597 238.768,216.066 239.721,220.123 238.833 C 221.045 238.631,222.880 238.242,224.200 237.969 C 225.520 237.695,226.771 237.320,226.980 237.136 C 227.189 236.951,227.639 236.798,227.980 236.795 C 230.323 236.776,238.712 231.279,242.376 227.362 C 246.980 222.441,252.030 213.129,251.523 210.497 C 251.454 210.139,251.059 211.005,250.645 212.423 M256.601 212.100 C 256.505 212.375,255.953 214.040,255.374 215.800 C 254.794 217.560,254.186 219.180,254.022 219.400 C 253.624 219.935,253.182 221.200,253.394 221.200 C 253.684 221.200,254.879 218.460,255.981 215.267 L 257.040 212.200 259.620 212.272 C 261.449 212.324,261.909 212.248,261.200 212.012 C 259.610 211.483,256.797 211.537,256.601 212.100 M173.634 212.800 C 173.646 213.130,173.811 213.760,174.000 214.200 L 174.344 215.000 174.366 214.200 C 174.378 213.760,174.213 213.130,174.000 212.800 C 173.655 212.267,173.615 212.267,173.634 212.800 M264.200 212.823 C 265.080 213.005,266.250 213.143,266.800 213.130 C 268.388 213.091,265.765 212.495,264.000 212.493 L 262.600 212.492 264.200 212.823 M309.293 213.600 C 309.293 214.370,309.375 214.685,309.476 214.300 C 309.576 213.915,309.576 213.285,309.476 212.900 C 309.375 212.515,309.293 212.830,309.293 213.600 M268.868 215.269 C 269.384 218.245,269.643 218.606,269.414 216.031 C 269.308 214.837,269.059 213.699,268.860 213.500 C 268.647 213.287,268.650 214.013,268.868 215.269 M174.612 216.050 C 175.081 217.544,176.801 221.200,177.035 221.200 C 177.152 221.200,177.176 221.065,177.090 220.900 C 176.266 219.330,175.200 216.694,175.200 216.228 C 175.200 215.909,175.001 215.524,174.757 215.374 C 174.453 215.185,174.407 215.397,174.612 216.050 M308.591 217.700 C 308.043 221.044,305.861 224.965,302.938 227.861 C 301.432 229.353,300.776 230.169,301.480 229.674 C 303.549 228.219,306.310 224.711,307.551 221.959 C 308.619 219.592,309.535 216.000,309.070 216.000 C 308.960 216.000,308.745 216.765,308.591 217.700 M177.380 222.213 C 177.552 222.853,176.982 223.537,174.699 225.430 C 164.450 233.932,162.400 235.668,162.400 235.847 C 162.400 235.957,163.975 234.746,165.900 233.155 C 167.825 231.564,170.732 229.168,172.361 227.831 C 177.991 223.208,178.167 223.018,177.637 222.165 C 177.180 221.429,177.170 221.430,177.380 222.213 M252.424 222.518 C 252.123 223.003,251.615 223.805,251.293 224.300 C 250.971 224.795,250.795 225.200,250.901 225.200 C 251.183 225.200,253.286 221.953,253.115 221.781 C 253.035 221.702,252.724 222.033,252.424 222.518 M271.800 224.000 C 272.141 224.660,272.511 225.200,272.621 225.200 C 272.731 225.200,272.541 224.660,272.200 224.000 C 271.859 223.340,271.489 222.800,271.379 222.800 C 271.269 222.800,271.459 223.340,271.800 224.000 M249.551 226.900 C 249.054 227.615,247.107 229.814,245.224 231.786 C 243.341 233.758,242.610 234.684,243.600 233.844 C 246.356 231.506,251.404 225.600,250.646 225.600 C 250.541 225.600,250.048 226.185,249.551 226.900 M274.600 227.600 C 275.683 228.700,276.647 229.600,276.741 229.600 C 277.080 229.600,273.391 225.680,273.015 225.641 C 272.803 225.618,273.517 226.500,274.600 227.600 M178.523 228.922 C 177.381 229.845,176.436 230.745,176.423 230.922 C 176.410 231.099,177.404 230.426,178.630 229.427 L 180.860 227.610 181.901 228.905 C 185.480 233.359,193.166 239.200,197.700 240.911 C 199.214 241.482,198.262 240.829,195.519 239.413 C 190.598 236.875,186.286 233.455,182.840 229.356 C 180.695 226.804,181.094 226.844,178.523 228.922 M298.700 231.029 C 297.205 231.840,297.296 232.178,298.800 231.400 C 299.460 231.059,300.000 230.694,300.000 230.590 C 300.000 230.332,299.957 230.347,298.700 231.029 M173.600 233.243 L 171.400 235.277 173.499 233.602 C 175.356 232.120,176.296 231.191,175.924 231.204 C 175.856 231.207,174.810 232.124,173.600 233.243 M295.600 232.400 C 295.067 232.745,295.067 232.788,295.600 232.788 C 295.930 232.788,296.470 232.613,296.800 232.400 C 297.333 232.055,297.333 232.012,296.800 232.012 C 296.470 232.012,295.930 232.187,295.600 232.400 M284.000 233.200 C 284.330 233.413,285.050 233.573,285.600 233.554 L 286.600 233.520 285.600 233.200 C 284.058 232.706,283.236 232.706,284.000 233.200 M292.800 233.200 L 291.800 233.520 292.800 233.554 C 293.350 233.573,294.070 233.413,294.400 233.200 C 295.164 232.706,294.342 232.706,292.800 233.200 M135.000 233.955 C 134.340 234.099,135.858 234.218,138.374 234.220 C 140.890 234.222,142.510 234.102,141.974 233.952 C 140.747 233.609,136.585 233.611,135.000 233.955 M131.600 234.800 C 131.067 235.145,131.067 235.188,131.600 235.188 C 131.930 235.188,132.470 235.013,132.800 234.800 C 133.333 234.455,133.333 234.412,132.800 234.412 C 132.470 234.412,131.930 234.587,131.600 234.800 M144.200 234.800 C 145.396 235.314,146.395 235.314,145.600 234.800 C 145.270 234.587,144.640 234.422,144.200 234.434 L 143.400 234.456 144.200 234.800 M164.728 240.486 C 160.213 244.227,158.523 245.856,158.696 246.305 C 158.892 246.816,158.990 246.779,159.240 246.102 C 159.493 245.419,165.370 240.251,170.166 236.494 C 170.802 235.996,171.250 235.522,171.161 235.439 C 171.072 235.357,168.178 237.628,164.728 240.486 M239.700 236.487 C 238.765 237.178,238.000 238.049,238.000 238.423 C 238.000 239.142,243.392 249.917,244.094 250.600 C 244.320 250.820,243.132 248.311,241.453 245.025 C 238.619 239.479,237.927 237.600,238.715 237.600 C 238.888 237.600,239.653 237.067,240.415 236.416 C 242.230 234.865,241.845 234.903,239.700 236.487 M158.738 238.658 L 155.677 241.210 153.538 239.374 C 152.362 238.364,151.040 237.347,150.600 237.114 C 149.552 236.561,149.703 236.704,152.955 239.358 C 155.737 241.629,155.948 241.680,157.200 240.395 C 157.381 240.209,161.567 236.805,161.967 236.519 C 162.058 236.454,162.058 236.334,161.967 236.253 C 161.875 236.172,160.422 237.254,158.738 238.658 M125.493 237.814 C 124.672 238.372,124.000 238.915,124.000 239.020 C 124.000 239.125,124.720 238.735,125.600 238.153 C 126.997 237.228,127.470 236.800,127.093 236.800 C 127.034 236.800,126.314 237.256,125.493 237.814 M122.196 240.404 C 121.566 241.062,121.182 241.600,121.343 241.600 C 121.756 241.600,123.722 239.588,123.513 239.380 C 123.419 239.286,122.826 239.746,122.196 240.404 M134.749 239.575 C 117.761 242.889,116.539 266.408,133.000 273.233 C 145.039 278.225,159.928 263.753,155.256 251.600 C 151.743 242.463,143.806 237.808,134.749 239.575 M145.600 241.315 C 156.134 246.249,158.734 260.080,150.681 268.332 C 147.021 272.081,144.046 273.291,138.400 273.328 C 119.473 273.450,115.161 247.296,133.000 240.573 C 136.336 239.315,142.051 239.652,145.600 241.315 M232.000 240.774 C 231.670 240.966,230.448 241.433,229.284 241.812 C 228.121 242.192,227.245 242.578,227.338 242.671 C 227.431 242.764,228.563 242.451,229.853 241.977 C 231.144 241.502,232.519 241.122,232.909 241.133 C 233.298 241.143,233.513 240.982,233.385 240.776 C 233.102 240.318,232.784 240.317,232.000 240.774 M199.800 241.751 C 201.199 242.356,203.200 242.887,203.200 242.654 C 203.200 242.467,199.411 241.192,198.925 241.216 C 198.746 241.224,199.140 241.465,199.800 241.751 M119.866 243.300 C 118.837 244.673,117.195 247.750,117.207 248.284 C 117.211 248.458,117.724 247.676,118.347 246.547 C 118.970 245.417,119.879 243.932,120.367 243.247 C 121.545 241.592,121.112 241.638,119.866 243.300 M204.400 243.200 C 205.768 243.638,206.819 243.638,205.800 243.200 C 205.360 243.011,204.640 242.862,204.200 242.868 C 203.557 242.877,203.596 242.943,204.400 243.200 M224.600 243.200 C 223.581 243.638,224.632 243.638,226.000 243.200 C 226.804 242.943,226.843 242.877,226.200 242.868 C 225.760 242.862,225.040 243.011,224.600 243.200 M208.400 244.020 C 210.814 244.450,212.706 244.413,210.600 243.977 C 209.720 243.795,208.460 243.658,207.800 243.673 C 206.900 243.693,207.050 243.780,208.400 244.020 M219.400 244.000 C 217.670 244.440,219.557 244.455,222.000 244.020 L 223.800 243.700 222.200 243.697 C 221.320 243.696,220.060 243.832,219.400 244.000 M116.600 249.600 C 116.450 250.073,116.417 250.550,116.527 250.660 C 116.637 250.770,116.850 250.473,117.000 250.000 C 117.150 249.527,117.183 249.050,117.073 248.940 C 116.963 248.830,116.750 249.127,116.600 249.600 M160.056 249.600 C 160.056 249.930,160.211 250.560,160.400 251.000 C 160.617 251.504,160.744 251.578,160.744 251.200 C 160.744 250.870,160.589 250.240,160.400 249.800 C 160.183 249.296,160.056 249.222,160.056 249.600 M115.850 252.850 C 115.525 254.477,115.578 260.004,115.928 260.884 C 116.078 261.259,116.200 259.324,116.200 256.583 C 116.200 251.063,116.202 251.088,115.850 252.850 M160.949 256.600 C 160.949 260.881,160.989 261.156,161.315 259.137 C 161.535 257.772,161.535 255.868,161.314 254.337 C 160.973 251.968,160.949 252.118,160.949 256.600 M253.891 255.489 C 254.601 255.577,255.861 255.579,256.691 255.492 C 257.521 255.405,256.940 255.333,255.400 255.331 C 253.860 255.329,253.181 255.400,253.891 255.489 M249.800 256.000 L 249.000 256.344 249.800 256.344 C 250.240 256.344,250.960 256.189,251.400 256.000 L 252.200 255.656 251.400 255.656 C 250.960 255.656,250.240 255.811,249.800 256.000 M259.800 256.000 C 260.240 256.189,260.960 256.338,261.400 256.332 C 262.043 256.323,262.004 256.257,261.200 256.000 C 259.832 255.562,258.781 255.562,259.800 256.000 M246.800 256.432 C 246.800 257.010,247.580 257.251,248.247 256.878 C 248.792 256.573,248.726 256.479,247.850 256.312 C 247.272 256.201,246.800 256.255,246.800 256.432 M262.600 256.800 C 262.736 257.020,263.090 257.200,263.386 257.200 C 266.603 257.200,273.796 264.581,275.422 269.550 C 275.796 270.695,276.195 271.538,276.309 271.424 C 276.955 270.778,273.645 264.585,271.362 262.170 C 268.675 259.326,261.409 254.873,262.600 256.800 M242.011 258.400 C 242.399 259.313,242.223 259.619,239.978 261.927 C 238.626 263.316,237.641 264.575,237.790 264.723 C 237.938 264.872,238.251 264.635,238.486 264.197 C 238.720 263.759,240.004 262.365,241.340 261.100 C 242.676 259.835,243.526 258.800,243.229 258.800 C 242.932 258.800,242.440 258.485,242.138 258.100 C 241.650 257.480,241.636 257.515,242.011 258.400 M251.200 261.265 C 239.604 266.031,235.908 277.128,242.782 286.543 C 253.909 301.783,278.371 286.854,270.044 269.903 C 266.728 263.152,257.217 258.792,251.200 261.265 M259.833 261.827 C 270.425 264.906,274.524 277.748,267.750 286.630 C 266.589 288.152,262.422 291.200,261.502 291.200 C 261.204 291.200,260.735 291.425,260.460 291.700 C 260.120 292.040,258.589 292.195,255.680 292.184 C 248.004 292.157,243.625 288.965,240.451 281.081 C 240.203 280.466,240.000 278.539,240.000 276.800 C 240.000 273.657,240.177 272.918,241.693 269.739 C 244.807 263.211,252.720 259.759,259.833 261.827 M159.835 264.009 C 158.054 269.453,153.485 274.629,148.467 276.887 C 147.513 277.316,146.821 277.754,146.928 277.861 C 147.235 278.168,149.983 276.641,152.537 274.745 C 156.073 272.121,159.598 266.996,160.547 263.100 C 160.990 261.282,160.538 261.859,159.835 264.009 M254.880 265.280 C 253.662 266.498,254.826 268.000,256.990 268.000 C 257.955 268.000,260.036 268.929,261.700 270.102 C 262.583 270.725,263.800 270.060,263.800 268.956 C 263.800 268.125,260.350 265.589,259.255 265.616 C 258.895 265.625,259.230 265.951,260.000 266.341 C 262.450 267.582,263.200 268.175,263.200 268.873 C 263.200 269.980,262.473 270.106,261.224 269.217 C 259.817 268.216,257.061 267.200,255.750 267.200 C 255.067 267.200,254.800 266.975,254.800 266.400 C 254.800 265.716,255.076 265.596,256.700 265.572 C 258.130 265.551,258.402 265.459,257.800 265.200 C 256.633 264.698,255.429 264.731,254.880 265.280 M236.200 267.200 C 235.620 268.344,235.223 269.356,235.317 269.450 C 235.411 269.544,235.954 268.678,236.525 267.525 C 237.096 266.372,237.493 265.360,237.408 265.275 C 237.323 265.190,236.780 266.056,236.200 267.200 M118.835 268.400 C 120.025 270.629,124.454 275.084,126.714 276.326 C 129.021 277.592,128.844 277.142,126.459 275.674 C 123.922 274.113,121.677 271.923,119.825 269.200 C 117.901 266.372,117.641 266.162,118.835 268.400 M234.673 270.953 C 234.523 271.345,234.411 271.966,234.425 272.333 C 234.442 272.775,234.581 272.674,234.837 272.034 C 235.049 271.503,235.161 270.882,235.085 270.654 C 235.009 270.427,234.824 270.561,234.673 270.953 M264.393 272.608 C 264.017 273.062,263.994 273.544,264.304 274.508 L 264.718 275.800 264.759 274.324 C 264.829 271.781,266.129 271.973,266.749 274.617 C 267.092 276.083,267.123 276.110,267.160 274.989 C 267.234 272.745,265.511 271.262,264.393 272.608 M276.594 276.800 C 276.594 281.343,276.626 281.572,276.953 279.300 C 277.165 277.824,277.165 275.776,276.953 274.300 C 276.626 272.028,276.594 272.257,276.594 276.800 M234.137 277.000 C 234.139 278.760,234.209 279.430,234.293 278.489 C 234.378 277.549,234.377 276.109,234.291 275.289 C 234.205 274.470,234.136 275.240,234.137 277.000 M243.885 275.848 C 242.670 277.063,244.675 282.725,247.194 285.194 C 251.257 289.177,257.894 289.758,262.300 286.516 C 264.999 284.530,263.387 282.933,260.274 284.509 C 253.912 287.729,247.670 284.579,246.478 277.547 C 246.188 275.835,244.804 274.929,243.885 275.848 M246.023 277.805 C 246.962 284.527,254.230 288.283,260.143 285.103 C 263.041 283.543,264.499 284.518,261.897 286.277 C 257.908 288.973,252.435 288.752,248.479 285.735 C 245.138 283.187,242.473 275.571,245.099 276.076 C 245.578 276.168,245.871 276.716,246.023 277.805 M131.200 278.400 C 131.530 278.613,132.070 278.788,132.400 278.788 C 132.933 278.788,132.933 278.745,132.400 278.400 C 132.070 278.187,131.530 278.012,131.200 278.012 C 130.667 278.012,130.667 278.055,131.200 278.400 M264.963 278.490 C 265.020 278.771,265.487 279.000,266.000 279.000 C 266.513 279.000,266.980 278.771,267.037 278.490 C 267.094 278.210,267.049 278.165,266.937 278.390 C 266.825 278.616,266.403 278.800,266.000 278.800 C 265.597 278.800,265.175 278.616,265.063 278.390 C 264.952 278.165,264.906 278.210,264.963 278.490 M134.478 279.260 C 135.656 279.592,141.029 279.585,142.600 279.248 C 143.260 279.107,141.495 278.993,138.678 278.996 C 135.861 278.998,133.971 279.117,134.478 279.260 M234.434 281.600 C 234.446 281.930,234.611 282.560,234.800 283.000 L 235.144 283.800 235.166 283.000 C 235.178 282.560,235.013 281.930,234.800 281.600 C 234.455 281.067,234.415 281.067,234.434 281.600 M275.422 284.050 C 274.243 287.652,271.681 291.125,267.972 294.147 C 266.976 294.959,266.874 295.129,267.600 294.768 C 269.101 294.022,272.929 289.962,274.090 287.886 C 275.354 285.623,276.586 282.453,276.309 282.176 C 276.195 282.062,275.796 282.905,275.422 284.050 M236.600 287.200 C 236.941 287.860,237.311 288.400,237.421 288.400 C 237.531 288.400,237.341 287.860,237.000 287.200 C 236.659 286.540,236.289 286.000,236.179 286.000 C 236.069 286.000,236.259 286.540,236.600 287.200 M238.356 289.865 C 239.365 291.369,242.592 294.309,244.348 295.323 C 246.337 296.471,245.800 295.811,243.592 294.395 C 242.488 293.686,240.667 292.093,239.546 290.853 C 238.425 289.614,237.890 289.169,238.356 289.865 M264.670 295.879 C 264.048 296.205,263.626 296.560,263.733 296.666 C 263.942 296.876,266.400 295.700,266.400 295.390 C 266.400 295.092,265.894 295.235,264.670 295.879 M248.400 297.200 C 248.730 297.413,249.270 297.588,249.600 297.588 C 250.133 297.588,250.133 297.545,249.600 297.200 C 249.270 296.987,248.730 296.812,248.400 296.812 C 247.867 296.812,247.867 296.855,248.400 297.200 M261.600 297.200 C 261.067 297.545,261.067 297.588,261.600 297.588 C 261.930 297.588,262.470 297.413,262.800 297.200 C 263.333 296.855,263.333 296.812,262.800 296.812 C 262.470 296.812,261.930 296.987,261.600 297.200 M251.258 298.056 C 252.505 298.406,258.814 298.418,259.684 298.072 C 260.061 297.922,258.107 297.798,255.343 297.796 C 252.578 297.793,250.740 297.910,251.258 298.056 M96.600 340.000 C 96.736 340.220,96.522 340.406,96.124 340.413 C 94.687 340.438,92.000 343.485,92.000 345.089 C 92.000 345.590,91.820 346.000,91.600 346.000 C 91.099 346.000,91.072 349.369,91.567 350.305 C 91.768 350.687,92.151 351.588,92.418 352.307 C 92.934 353.697,95.500 356.000,96.534 356.000 C 96.874 356.000,97.264 356.180,97.400 356.400 C 97.536 356.620,98.706 356.800,100.000 356.800 C 101.294 356.800,102.464 356.620,102.600 356.400 C 102.736 356.180,103.119 356.000,103.450 356.000 C 105.084 356.000,108.000 352.680,108.000 350.820 C 108.000 350.369,108.180 350.000,108.400 350.000 C 108.976 350.000,108.894 347.061,108.300 346.421 C 107.894 345.984,107.912 345.942,108.400 346.200 C 108.888 346.458,108.906 346.416,108.500 345.979 C 108.225 345.682,108.000 345.069,108.000 344.616 C 108.000 343.651,106.530 341.958,104.811 340.943 C 104.145 340.549,103.600 340.086,103.600 339.914 C 103.600 339.741,101.969 339.600,99.976 339.600 C 97.663 339.600,96.442 339.745,96.600 340.000 " stroke="none" fill="#777173" fill-rule="evenodd"></path></g></svg>