<svg id="svg" version="1.1" xmlns="http://www.w3.org/2000/svg" xmlns:xlink="http://www.w3.org/1999/xlink" width="400" height="400" viewBox="0, 0, 400,400"><g id="svgg"><path id="path0" d="M174.600 102.433 C 170.179 102.738,165.290 103.295,161.200 103.960 C 159.990 104.157,158.280 104.436,157.400 104.580 C 156.520 104.724,155.125 105.012,154.300 105.221 C 150.965 106.064,149.324 106.486,147.800 106.893 C 135.739 110.115,125.736 115.773,122.773 121.049 C 119.774 126.388,125.908 132.964,138.600 138.019 C 142.470 139.560,143.171 139.792,148.200 141.204 C 169.490 147.181,202.796 147.545,224.600 142.040 C 225.480 141.818,226.740 141.524,227.400 141.388 C 228.060 141.251,228.960 140.997,229.400 140.822 C 229.840 140.648,231.460 140.100,233.000 139.604 C 249.462 134.308,257.126 126.424,252.329 119.719 C 250.048 116.531,239.099 109.600,236.344 109.600 C 236.023 109.600,235.589 109.452,235.380 109.272 C 235.171 109.092,233.650 108.530,232.000 108.024 C 230.350 107.519,228.640 106.958,228.200 106.780 C 227.760 106.601,226.860 106.363,226.200 106.252 C 225.540 106.140,224.190 105.847,223.200 105.600 C 211.301 102.627,190.987 101.303,174.600 102.433 M122.000 154.990 L 122.000 173.980 124.300 176.317 C 127.252 179.316,130.726 181.649,135.551 183.873 C 141.390 186.564,141.384 186.559,141.523 188.145 C 141.711 190.295,139.554 190.958,136.813 189.593 C 136.476 189.425,134.408 188.413,132.218 187.344 C 130.027 186.275,126.832 184.366,125.118 183.102 L 122.000 180.803 122.000 201.429 L 122.000 222.055 124.942 224.927 C 126.794 226.735,129.173 228.522,131.361 229.747 C 135.467 232.047,136.000 232.523,136.000 233.884 C 136.000 237.370,131.775 236.145,124.300 230.493 L 122.000 228.753 122.000 247.339 C 122.000 268.761,121.737 267.227,126.180 271.684 C 134.580 280.111,149.470 285.773,172.400 289.261 C 177.028 289.965,198.972 289.965,203.600 289.261 C 214.599 287.588,216.137 287.214,215.395 286.394 C 213.345 284.129,208.490 282.834,205.000 283.620 C 200.572 284.619,199.788 283.905,196.840 276.200 C 196.335 274.880,195.770 273.440,195.584 273.000 C 195.398 272.560,195.131 271.445,194.991 270.523 L 194.737 268.845 196.669 267.859 C 204.773 263.718,205.800 252.421,198.538 247.291 C 197.346 246.449,196.873 246.399,189.938 246.389 C 176.722 246.368,162.468 244.861,152.000 242.378 C 151.010 242.143,149.716 241.853,149.124 241.734 C 147.634 241.433,146.714 240.295,146.870 238.945 C 147.044 237.440,148.387 236.783,150.329 237.254 C 162.671 240.244,173.848 241.517,188.251 241.574 C 195.461 241.603,195.173 241.711,196.209 238.590 C 196.987 236.245,199.831 230.430,200.571 229.671 C 200.998 229.233,201.353 229.253,202.643 229.792 C 212.007 233.706,222.070 223.865,218.588 214.200 C 218.271 213.320,218.009 212.408,218.006 212.174 C 217.999 211.654,221.253 209.806,225.000 208.203 C 227.842 206.987,228.176 206.860,229.800 206.375 C 230.680 206.113,231.788 205.752,232.262 205.575 C 233.218 205.217,233.831 205.753,234.806 207.800 C 237.905 214.304,246.680 216.481,252.900 212.287 L 254.000 211.546 254.000 196.330 C 254.000 183.483,253.913 181.148,253.442 181.328 C 253.136 181.446,251.831 182.320,250.542 183.271 C 247.440 185.561,242.849 188.074,238.900 189.642 C 238.405 189.839,237.550 190.180,237.000 190.400 C 236.450 190.620,235.595 190.960,235.100 191.156 C 232.547 192.167,226.299 193.922,222.200 194.778 C 217.224 195.818,215.886 196.060,212.224 196.583 C 190.545 199.681,172.508 198.845,174.580 194.838 L 175.186 193.666 188.293 193.446 C 195.502 193.324,202.930 193.055,204.800 192.848 C 213.416 191.893,220.767 190.554,227.000 188.804 C 227.880 188.557,229.140 188.210,229.800 188.032 C 239.198 185.505,250.461 179.031,253.217 174.573 C 254.039 173.243,254.491 136.000,253.685 136.000 C 253.512 136.000,252.747 136.533,251.985 137.184 C 251.223 137.835,250.452 138.375,250.272 138.384 C 250.092 138.393,249.192 138.906,248.272 139.525 C 235.437 148.163,202.305 153.988,177.400 151.986 C 164.072 150.914,153.392 149.219,145.800 146.970 C 144.700 146.644,143.170 146.190,142.400 145.960 C 136.622 144.237,130.659 141.479,125.887 138.323 C 123.955 137.046,122.290 136.000,122.187 136.000 C 122.084 136.000,122.000 144.545,122.000 154.990 M152.000 189.583 C 156.216 190.662,160.423 191.477,163.683 191.848 C 167.235 192.252,168.641 194.159,166.767 196.033 C 165.780 197.020,163.349 196.833,155.800 195.188 C 154.920 194.996,153.210 194.623,152.000 194.359 C 146.372 193.129,144.910 192.032,145.928 189.799 C 146.468 188.612,147.992 188.558,152.000 189.583 M229.200 213.176 C 228.870 213.357,227.880 213.855,227.000 214.283 C 225.809 214.863,225.441 215.259,225.559 215.831 C 225.981 217.875,225.575 222.387,224.806 224.200 C 224.620 224.640,224.228 225.585,223.936 226.300 C 223.644 227.015,223.269 227.600,223.102 227.600 C 222.936 227.600,222.800 227.850,222.800 228.156 C 222.800 229.126,217.802 233.757,215.557 234.867 C 212.249 236.504,210.969 236.800,207.201 236.800 L 203.721 236.800 203.084 238.300 C 201.772 241.386,201.786 241.479,203.869 243.513 C 206.738 246.317,207.939 248.255,209.144 252.028 C 209.707 253.792,209.751 261.459,209.200 261.800 C 208.980 261.936,208.800 262.361,208.800 262.745 C 208.800 264.185,206.577 267.823,204.313 270.087 L 201.969 272.431 203.039 274.815 L 204.109 277.200 207.836 277.200 C 209.885 277.200,212.066 277.405,212.681 277.656 C 215.660 278.871,216.508 279.329,218.284 280.685 C 219.338 281.489,220.496 282.519,220.858 282.973 C 221.220 283.428,221.896 284.233,222.359 284.763 C 224.459 287.159,225.620 290.690,225.879 295.458 L 226.056 298.717 228.082 299.558 C 230.796 300.686,230.727 300.704,233.163 298.238 C 234.337 297.048,236.131 295.679,237.149 295.194 C 238.167 294.709,239.313 294.152,239.695 293.956 C 240.077 293.760,240.806 293.600,241.315 293.600 C 241.824 293.600,242.435 293.405,242.673 293.167 C 243.122 292.718,247.934 292.856,250.200 293.382 C 253.739 294.203,257.159 296.241,259.889 299.156 L 261.178 300.533 263.489 299.548 L 265.800 298.563 266.042 294.782 C 266.399 289.200,268.390 285.064,272.449 281.470 C 274.201 279.919,275.459 279.164,279.081 277.492 C 279.565 277.268,281.770 277.067,283.981 277.044 C 286.532 277.018,288.000 276.847,288.000 276.576 C 288.000 276.342,288.360 275.405,288.800 274.494 C 289.886 272.248,289.903 272.304,287.300 269.692 C 285.206 267.590,284.184 265.976,282.819 262.612 C 280.499 256.895,282.790 247.874,287.700 243.391 C 289.622 241.636,289.904 240.954,289.226 239.695 C 289.021 239.313,288.634 238.453,288.366 237.785 C 287.883 236.579,287.861 236.571,285.283 236.735 C 274.824 237.401,265.854 228.750,265.924 218.066 L 265.946 214.732 263.782 213.775 C 261.777 212.888,260.400 212.824,260.400 213.616 C 260.400 213.798,259.545 214.779,258.500 215.796 C 251.263 222.840,237.886 222.162,231.678 214.437 C 230.295 212.716,230.162 212.649,229.200 213.176 M253.400 224.992 C 282.981 232.690,287.387 272.401,260.149 285.823 C 232.161 299.614,202.817 269.784,216.869 241.827 C 223.515 228.605,239.312 221.325,253.400 224.992 M242.600 232.046 C 235.222 233.363,229.403 236.714,226.011 241.600 C 225.476 242.370,224.937 243.090,224.814 243.200 C 224.564 243.423,222.863 246.952,222.405 248.200 C 221.490 250.691,221.200 252.073,221.200 253.948 C 221.200 255.099,220.936 256.550,220.613 257.174 C 219.842 258.666,220.218 262.111,221.254 263.049 C 221.664 263.420,222.000 263.887,222.000 264.087 C 222.000 264.661,224.525 269.785,224.880 269.933 C 225.056 270.007,225.200 270.322,225.200 270.633 C 225.200 270.945,225.380 271.200,225.600 271.200 C 225.820 271.200,226.000 271.394,226.000 271.631 C 226.000 271.867,227.146 273.172,228.548 274.531 C 237.092 282.813,250.412 283.766,260.600 276.823 C 261.260 276.373,262.084 276.004,262.430 276.003 C 263.242 275.999,264.933 274.203,265.002 273.272 C 265.031 272.878,265.595 271.755,266.255 270.778 C 270.162 264.992,271.562 258.328,270.159 252.200 C 269.806 250.660,269.393 248.410,269.242 247.200 C 268.932 244.734,268.239 243.200,267.433 243.200 C 267.137 243.200,266.442 242.615,265.889 241.900 C 265.336 241.185,263.965 239.640,262.842 238.466 C 261.719 237.292,260.800 236.110,260.800 235.840 C 260.800 235.240,258.308 234.002,257.086 233.994 C 256.599 233.991,255.390 233.705,254.400 233.360 C 252.429 232.671,246.673 231.575,245.400 231.645 C 244.960 231.670,243.700 231.850,242.600 232.046 M250.772 242.498 C 251.557 242.772,252.290 243.087,252.400 243.199 C 252.510 243.310,253.114 243.667,253.742 243.991 C 255.104 244.694,258.396 248.218,259.100 249.728 C 259.375 250.318,259.824 251.276,260.098 251.857 C 261.001 253.773,260.684 260.273,259.574 262.600 C 253.935 274.417,237.829 274.535,232.242 262.800 C 228.969 255.927,232.040 246.798,238.692 243.623 C 239.741 243.123,240.870 242.563,241.200 242.380 C 242.140 241.858,249.185 241.945,250.772 242.498 M242.655 248.564 C 233.682 251.889,236.679 265.560,246.316 265.264 C 254.515 265.012,257.139 252.857,249.815 249.056 C 247.864 248.043,244.656 247.823,242.655 248.564 " stroke="none" fill="#7bcbd3" fill-rule="evenodd"></path><path id="path1" d="M190.400 51.600 C 190.400 51.842,188.667 52.000,186.000 52.000 C 183.333 52.000,181.600 52.158,181.600 52.400 C 181.600 52.628,180.408 52.800,178.824 52.800 C 177.297 52.800,175.936 52.980,175.800 53.200 C 175.664 53.420,174.663 53.600,173.576 53.600 C 172.489 53.600,171.600 53.780,171.600 54.000 C 171.600 54.220,170.700 54.400,169.600 54.400 C 168.500 54.400,167.600 54.580,167.600 54.800 C 167.600 55.020,166.880 55.200,166.000 55.200 C 165.120 55.200,164.400 55.380,164.400 55.600 C 164.400 55.820,163.781 56.000,163.024 56.000 C 162.267 56.000,161.536 56.180,161.400 56.400 C 161.264 56.620,160.533 56.800,159.776 56.800 C 159.019 56.800,158.400 56.980,158.400 57.200 C 158.400 57.420,157.860 57.600,157.200 57.600 C 156.540 57.600,156.000 57.780,156.000 58.000 C 156.000 58.220,155.571 58.400,155.046 58.400 C 154.022 58.400,150.247 59.440,149.105 60.037 C 148.723 60.237,148.220 60.400,147.986 60.400 C 147.752 60.400,146.816 60.760,145.906 61.200 C 144.995 61.640,143.924 62.000,143.525 62.000 C 143.126 62.000,142.800 62.180,142.800 62.400 C 142.800 62.620,142.440 62.800,142.000 62.800 C 141.560 62.800,141.200 62.980,141.200 63.200 C 141.200 63.420,140.928 63.600,140.595 63.600 C 140.262 63.600,139.632 63.780,139.195 64.000 C 138.758 64.220,138.042 64.580,137.605 64.800 C 137.168 65.020,136.538 65.200,136.205 65.200 C 135.872 65.200,135.599 65.335,135.597 65.500 C 135.593 65.865,133.651 66.800,132.897 66.800 C 132.598 66.800,132.464 66.980,132.600 67.200 C 132.741 67.428,132.396 67.600,131.800 67.600 C 131.224 67.600,130.844 67.747,130.955 67.927 C 131.066 68.107,130.504 68.491,129.706 68.780 C 128.908 69.068,127.893 69.641,127.452 70.052 C 127.010 70.463,126.413 70.800,126.125 70.800 C 125.836 70.800,125.600 70.980,125.600 71.200 C 125.600 71.420,125.240 71.600,124.800 71.600 C 124.360 71.600,124.000 71.780,124.000 72.000 C 124.000 72.220,123.680 72.400,123.288 72.400 C 122.897 72.400,122.317 72.760,122.000 73.200 C 121.683 73.640,121.093 74.000,120.688 74.000 C 120.284 74.000,120.064 74.180,120.200 74.400 C 120.336 74.620,120.167 74.800,119.824 74.800 C 119.481 74.800,119.200 74.966,119.200 75.168 C 119.200 75.371,118.660 75.655,118.000 75.800 C 117.340 75.945,116.800 76.207,116.800 76.383 C 116.800 76.559,116.260 76.927,115.600 77.200 C 114.940 77.473,114.400 77.813,114.400 77.954 C 114.400 78.095,113.680 78.656,112.800 79.200 C 111.920 79.744,111.200 80.326,111.200 80.494 C 111.200 80.662,111.002 80.800,110.760 80.800 C 110.519 80.800,109.817 81.340,109.200 82.000 C 108.583 82.660,107.899 83.200,107.680 83.200 C 107.461 83.200,106.362 84.100,105.239 85.200 C 104.115 86.300,103.038 87.200,102.844 87.200 C 102.651 87.200,101.324 88.325,99.896 89.700 C 98.468 91.075,96.512 92.936,95.549 93.835 C 93.256 95.978,87.441 102.295,87.254 102.847 C 87.173 103.084,86.228 104.200,85.154 105.327 C 84.079 106.453,83.200 107.533,83.200 107.727 C 83.200 107.921,82.660 108.583,82.000 109.200 C 81.340 109.817,80.800 110.519,80.800 110.760 C 80.800 111.002,80.659 111.200,80.486 111.200 C 80.314 111.200,79.879 111.695,79.521 112.300 C 79.163 112.905,78.404 113.940,77.835 114.600 C 77.266 115.260,76.801 116.025,76.800 116.300 C 76.800 116.575,76.632 116.800,76.427 116.800 C 76.068 116.800,75.587 117.847,75.631 118.530 C 75.643 118.712,75.281 119.183,74.826 119.577 C 74.372 119.971,74.000 120.548,74.000 120.859 C 74.000 121.169,73.640 121.683,73.200 122.000 C 72.760 122.317,72.400 122.897,72.400 123.288 C 72.400 123.680,72.220 124.000,72.000 124.000 C 71.780 124.000,71.600 124.360,71.600 124.800 C 71.600 125.240,71.420 125.600,71.200 125.600 C 70.980 125.600,70.800 125.870,70.800 126.200 C 70.800 126.530,70.620 126.800,70.400 126.800 C 70.180 126.800,70.000 127.070,70.000 127.400 C 70.000 127.730,69.854 128.000,69.675 128.000 C 69.496 128.000,69.102 128.630,68.800 129.400 C 68.498 130.170,68.104 130.800,67.925 130.800 C 67.746 130.800,67.600 131.261,67.600 131.824 C 67.600 132.404,67.427 132.740,67.200 132.600 C 66.980 132.464,66.800 132.616,66.800 132.939 C 66.800 133.261,66.440 134.261,66.000 135.162 C 65.560 136.063,64.840 137.537,64.400 138.438 C 63.960 139.339,63.600 140.329,63.600 140.638 C 63.600 140.947,63.420 141.200,63.200 141.200 C 62.980 141.200,62.800 141.560,62.800 142.000 C 62.800 142.440,62.620 142.800,62.400 142.800 C 62.180 142.800,62.000 143.126,62.000 143.525 C 62.000 143.924,61.640 144.995,61.200 145.906 C 60.760 146.816,60.400 147.829,60.400 148.157 C 60.400 148.485,60.220 148.864,60.000 149.000 C 59.780 149.136,59.600 149.676,59.600 150.200 C 59.600 150.724,59.433 151.256,59.228 151.383 C 59.023 151.509,58.733 152.600,58.582 153.806 C 58.431 155.013,58.149 156.000,57.954 156.000 C 57.759 156.000,57.600 156.529,57.600 157.176 C 57.600 157.823,57.420 158.464,57.200 158.600 C 56.980 158.736,56.800 159.377,56.800 160.024 C 56.800 160.671,56.620 161.200,56.400 161.200 C 56.180 161.200,56.000 161.920,56.000 162.800 C 56.000 163.680,55.820 164.400,55.600 164.400 C 55.380 164.400,55.200 165.120,55.200 166.000 C 55.200 166.880,55.020 167.600,54.800 167.600 C 54.580 167.600,54.400 168.500,54.400 169.600 C 54.400 170.700,54.220 171.600,54.000 171.600 C 53.780 171.600,53.600 172.489,53.600 173.576 C 53.600 174.663,53.420 175.664,53.200 175.800 C 52.980 175.936,52.800 177.297,52.800 178.824 C 52.800 180.408,52.628 181.600,52.400 181.600 C 52.159 181.600,52.000 183.259,52.000 185.776 C 52.000 188.129,51.825 190.061,51.600 190.200 C 51.057 190.535,51.057 209.465,51.600 209.800 C 51.825 209.939,52.000 211.871,52.000 214.224 C 52.000 216.741,52.159 218.400,52.400 218.400 C 52.629 218.400,52.800 219.600,52.800 221.200 C 52.800 222.800,52.971 224.000,53.200 224.000 C 53.420 224.000,53.600 224.889,53.600 225.976 C 53.600 227.063,53.780 228.064,54.000 228.200 C 54.220 228.336,54.400 229.337,54.400 230.424 C 54.400 231.511,54.580 232.400,54.800 232.400 C 55.020 232.400,55.200 233.043,55.200 233.829 C 55.200 235.945,55.995 236.531,58.414 236.198 C 73.604 234.109,82.016 255.512,69.519 264.454 C 68.484 265.194,67.601 266.070,67.557 266.400 C 67.425 267.375,67.639 268.974,67.931 269.195 C 68.079 269.308,68.471 269.940,68.801 270.600 C 69.130 271.260,69.715 272.149,70.100 272.575 C 70.485 273.002,70.800 273.587,70.800 273.875 C 70.800 274.164,70.980 274.400,71.200 274.400 C 71.420 274.400,71.600 274.760,71.600 275.200 C 71.600 275.640,71.780 276.000,72.000 276.000 C 72.220 276.000,72.400 276.320,72.400 276.712 C 72.400 277.103,72.760 277.683,73.200 278.000 C 73.640 278.317,74.000 278.907,74.000 279.312 C 74.000 279.716,74.180 279.936,74.400 279.800 C 74.620 279.664,74.800 279.833,74.800 280.176 C 74.800 280.519,74.980 280.800,75.200 280.800 C 75.420 280.800,75.564 280.935,75.521 281.100 C 75.386 281.610,76.035 283.200,76.378 283.200 C 76.557 283.200,76.927 283.740,77.200 284.400 C 77.473 285.060,77.813 285.600,77.954 285.600 C 78.095 285.600,78.656 286.320,79.200 287.200 C 79.744 288.080,80.326 288.800,80.494 288.800 C 80.662 288.800,80.800 288.986,80.800 289.213 C 80.800 289.441,81.430 290.257,82.200 291.027 C 82.970 291.797,83.600 292.596,83.600 292.803 C 83.600 293.010,84.365 293.951,85.300 294.894 C 86.235 295.838,87.252 297.096,87.560 297.691 C 87.868 298.286,88.273 298.678,88.460 298.563 C 88.647 298.447,88.800 298.534,88.800 298.755 C 88.800 299.182,92.627 303.365,95.555 306.138 C 96.520 307.052,98.476 308.925,99.901 310.300 C 101.327 311.675,102.657 312.800,102.857 312.800 C 103.057 312.800,104.031 313.610,105.021 314.600 C 106.011 315.590,106.990 316.400,107.197 316.400 C 107.404 316.400,108.203 317.030,108.973 317.800 C 109.743 318.570,110.559 319.200,110.787 319.200 C 111.014 319.200,111.200 319.347,111.200 319.526 C 111.200 319.706,111.920 320.257,112.800 320.752 C 113.680 321.247,114.400 321.798,114.400 321.977 C 114.400 322.156,114.940 322.527,115.600 322.800 C 116.260 323.073,116.800 323.441,116.800 323.617 C 116.800 323.793,117.340 324.055,118.000 324.200 C 118.660 324.345,119.200 324.617,119.200 324.805 C 119.200 324.993,119.566 325.262,120.013 325.404 C 120.460 325.546,121.262 326.098,121.795 326.631 C 122.328 327.164,123.042 327.600,123.382 327.600 C 123.722 327.600,124.000 327.780,124.000 328.000 C 124.000 328.220,124.360 328.400,124.800 328.400 C 125.240 328.400,125.600 328.580,125.600 328.800 C 125.600 329.020,125.870 329.200,126.200 329.200 C 126.530 329.200,126.800 329.380,126.800 329.600 C 126.800 329.820,127.070 330.000,127.400 330.000 C 127.730 330.000,128.000 330.138,128.000 330.307 C 128.000 330.476,128.990 331.042,130.200 331.564 C 131.410 332.087,132.400 332.668,132.400 332.857 C 132.400 333.046,132.672 333.200,133.005 333.200 C 133.703 333.200,135.262 334.012,135.694 334.600 C 135.856 334.820,135.991 334.855,135.994 334.677 C 135.997 334.500,136.585 334.661,137.300 335.035 C 139.642 336.259,139.982 336.400,140.595 336.400 C 140.928 336.400,141.200 336.580,141.200 336.800 C 141.200 337.020,141.560 337.200,142.000 337.200 C 142.440 337.200,142.800 337.380,142.800 337.600 C 142.800 337.820,143.126 338.000,143.525 338.000 C 143.924 338.000,144.995 338.360,145.906 338.800 C 146.816 339.240,147.752 339.600,147.986 339.600 C 148.220 339.600,148.723 339.763,149.105 339.963 C 150.247 340.560,154.022 341.600,155.046 341.600 C 155.571 341.600,156.000 341.780,156.000 342.000 C 156.000 342.220,156.540 342.400,157.200 342.400 C 157.860 342.400,158.400 342.580,158.400 342.800 C 158.400 343.020,159.019 343.200,159.776 343.200 C 160.533 343.200,161.264 343.380,161.400 343.600 C 161.536 343.820,162.267 344.000,163.024 344.000 C 163.781 344.000,164.400 344.180,164.400 344.400 C 164.400 344.620,165.120 344.800,166.000 344.800 C 166.880 344.800,167.600 344.980,167.600 345.200 C 167.600 345.420,168.500 345.600,169.600 345.600 C 170.700 345.600,171.600 345.780,171.600 346.000 C 171.600 346.220,172.590 346.400,173.800 346.400 C 175.010 346.400,176.000 346.580,176.000 346.800 C 176.000 347.029,177.200 347.200,178.800 347.200 C 180.340 347.200,181.600 347.358,181.600 347.552 C 181.600 347.746,183.535 347.934,185.900 347.971 C 188.265 348.008,190.260 348.209,190.333 348.419 C 190.413 348.646,194.321 348.800,200.000 348.800 C 205.679 348.800,209.587 348.646,209.667 348.419 C 209.740 348.209,211.735 348.008,214.100 347.971 C 216.465 347.934,218.400 347.746,218.400 347.552 C 218.400 347.358,219.660 347.200,221.200 347.200 C 222.800 347.200,224.000 347.029,224.000 346.800 C 224.000 346.580,224.990 346.400,226.200 346.400 C 227.410 346.400,228.400 346.220,228.400 346.000 C 228.400 345.780,229.300 345.600,230.400 345.600 C 231.500 345.600,232.400 345.420,232.400 345.200 C 232.400 344.980,233.120 344.800,234.000 344.800 C 234.880 344.800,235.600 344.620,235.600 344.400 C 235.600 344.180,236.320 344.000,237.200 344.000 C 238.080 344.000,238.800 343.820,238.800 343.600 C 238.800 343.380,239.430 343.200,240.200 343.200 C 240.970 343.200,241.600 343.020,241.600 342.800 C 241.600 342.580,242.140 342.400,242.800 342.400 C 243.460 342.400,244.000 342.240,244.000 342.044 C 244.000 341.848,244.675 341.576,245.500 341.441 C 247.447 341.120,248.056 340.973,248.869 340.625 C 249.237 340.467,249.816 340.297,250.157 340.247 C 250.498 340.197,250.902 340.031,251.055 339.878 C 251.208 339.725,251.582 339.600,251.886 339.600 C 252.190 339.600,253.184 339.240,254.094 338.800 C 255.005 338.360,256.076 338.000,256.475 338.000 C 256.874 338.000,257.200 337.820,257.200 337.600 C 257.200 337.380,257.560 337.200,258.000 337.200 C 258.440 337.200,258.800 337.020,258.800 336.800 C 258.800 336.580,259.089 336.400,259.442 336.400 C 259.795 336.400,260.950 335.965,262.009 335.433 C 263.067 334.902,264.038 334.572,264.167 334.700 C 264.295 334.828,264.400 334.723,264.400 334.467 C 264.400 334.210,264.760 334.000,265.200 334.000 C 265.640 334.000,266.000 333.820,266.000 333.600 C 266.000 333.380,266.360 333.200,266.800 333.200 C 267.240 333.200,267.600 333.020,267.600 332.800 C 267.600 332.580,267.960 332.400,268.400 332.400 C 268.840 332.400,269.200 332.254,269.200 332.075 C 269.200 331.896,269.830 331.502,270.600 331.200 C 271.370 330.898,272.000 330.504,272.000 330.325 C 272.000 330.146,272.270 330.000,272.600 330.000 C 272.930 330.000,273.200 329.820,273.200 329.600 C 273.200 329.380,273.470 329.200,273.800 329.200 C 274.130 329.200,274.400 329.020,274.400 328.800 C 274.400 328.580,274.760 328.400,275.200 328.400 C 275.640 328.400,276.000 328.220,276.000 328.000 C 276.000 327.780,276.320 327.600,276.712 327.600 C 277.103 327.600,277.683 327.240,278.000 326.800 C 278.317 326.360,278.897 326.000,279.288 326.000 C 279.680 326.000,280.000 325.847,280.000 325.661 C 280.000 325.474,280.720 324.997,281.600 324.600 C 282.480 324.203,283.200 323.726,283.200 323.539 C 283.200 323.353,283.436 323.200,283.725 323.200 C 284.013 323.200,284.604 322.885,285.038 322.500 C 286.528 321.179,289.153 319.200,289.416 319.200 C 289.561 319.200,290.183 318.660,290.800 318.000 C 291.417 317.340,292.101 316.800,292.320 316.800 C 292.539 316.800,293.615 315.922,294.711 314.850 C 295.807 313.777,296.901 312.832,297.144 312.750 C 297.667 312.572,304.003 306.775,305.766 304.860 C 306.445 304.123,308.305 302.170,309.900 300.519 C 311.495 298.869,312.800 297.360,312.800 297.166 C 312.800 296.972,313.610 295.969,314.600 294.935 C 315.590 293.902,316.400 292.915,316.400 292.742 C 316.400 292.568,317.030 291.797,317.800 291.027 C 318.570 290.257,319.200 289.441,319.200 289.213 C 319.200 288.986,319.341 288.800,319.514 288.800 C 319.686 288.800,320.121 288.305,320.479 287.700 C 320.837 287.095,321.596 286.060,322.165 285.400 C 322.734 284.740,323.199 283.975,323.200 283.700 C 323.200 283.425,323.368 283.200,323.573 283.200 C 323.932 283.200,324.413 282.153,324.369 281.470 C 324.357 281.288,324.719 280.817,325.174 280.423 C 325.628 280.029,326.000 279.452,326.000 279.141 C 326.000 278.831,326.360 278.317,326.800 278.000 C 327.240 277.683,327.600 277.103,327.600 276.712 C 327.600 276.320,327.780 276.000,328.000 276.000 C 328.220 276.000,328.400 275.640,328.400 275.200 C 328.400 274.760,328.580 274.400,328.800 274.400 C 329.020 274.400,329.200 274.164,329.200 273.875 C 329.200 273.587,329.560 272.964,330.000 272.492 C 330.440 272.020,330.800 271.356,330.800 271.017 C 330.800 270.678,330.980 270.400,331.200 270.400 C 331.420 270.400,331.600 270.130,331.600 269.800 C 331.600 269.470,331.780 269.200,332.000 269.200 C 332.220 269.200,332.400 268.840,332.400 268.400 C 332.400 267.960,332.580 267.600,332.800 267.600 C 333.020 267.600,333.200 267.240,333.200 266.800 C 333.200 266.360,333.380 266.000,333.600 266.000 C 333.820 266.000,334.000 265.640,334.000 265.200 C 334.000 264.760,334.210 264.400,334.467 264.400 C 334.723 264.400,334.818 264.285,334.677 264.144 C 334.536 264.003,334.712 263.328,335.068 262.644 C 336.266 260.339,336.400 260.013,336.400 259.405 C 336.400 259.072,336.580 258.800,336.800 258.800 C 337.020 258.800,337.200 258.440,337.200 258.000 C 337.200 257.560,337.391 257.200,337.624 257.200 C 337.857 257.200,337.962 257.062,337.858 256.894 C 337.754 256.725,338.093 255.690,338.611 254.594 C 339.130 253.497,339.564 252.315,339.577 251.967 C 339.590 251.618,339.725 251.208,339.878 251.055 C 340.031 250.902,340.189 250.557,340.228 250.288 C 340.268 250.020,340.593 248.939,340.950 247.886 C 341.308 246.833,341.600 245.528,341.600 244.986 C 341.600 244.444,341.780 244.000,342.000 244.000 C 342.220 244.000,342.400 243.460,342.400 242.800 C 342.400 242.140,342.580 241.600,342.800 241.600 C 343.020 241.600,343.200 240.970,343.200 240.200 C 343.200 239.430,343.380 238.800,343.600 238.800 C 343.820 238.800,344.000 238.080,344.000 237.200 C 344.000 236.320,344.180 235.600,344.400 235.600 C 344.620 235.600,344.800 234.880,344.800 234.000 C 344.800 233.120,344.980 232.400,345.200 232.400 C 345.420 232.400,345.600 231.500,345.600 230.400 C 345.600 229.300,345.780 228.400,346.000 228.400 C 346.220 228.400,346.400 227.410,346.400 226.200 C 346.400 224.990,346.580 224.000,346.800 224.000 C 347.029 224.000,347.200 222.800,347.200 221.200 C 347.200 219.660,347.358 218.400,347.551 218.400 C 347.744 218.400,347.933 216.555,347.972 214.300 C 348.010 212.045,348.212 210.029,348.421 209.820 C 348.638 209.602,348.800 205.413,348.800 200.000 C 348.800 194.587,348.638 190.398,348.421 190.180 C 348.212 189.971,348.010 187.955,347.972 185.700 C 347.933 183.445,347.744 181.600,347.551 181.600 C 347.358 181.600,347.200 180.340,347.200 178.800 C 347.200 177.200,347.029 176.000,346.800 176.000 C 346.580 176.000,346.400 175.010,346.400 173.800 C 346.400 172.590,346.220 171.600,346.000 171.600 C 345.780 171.600,345.600 170.700,345.600 169.600 C 345.600 168.500,345.420 167.600,345.200 167.600 C 344.980 167.600,344.800 166.981,344.800 166.224 C 344.800 165.467,344.620 164.736,344.400 164.600 C 344.180 164.464,344.000 163.643,344.000 162.776 C 344.000 161.909,343.820 161.200,343.600 161.200 C 343.380 161.200,343.200 160.570,343.200 159.800 C 343.200 159.030,343.020 158.400,342.800 158.400 C 342.580 158.400,342.400 157.860,342.400 157.200 C 342.400 156.540,342.243 156.000,342.052 156.000 C 341.860 156.000,341.578 155.059,341.426 153.910 C 341.273 152.760,340.984 151.621,340.782 151.379 C 340.581 151.136,340.357 150.551,340.285 150.079 C 340.213 149.607,340.029 149.096,339.877 148.944 C 339.725 148.791,339.600 148.418,339.600 148.114 C 339.600 147.810,339.240 146.816,338.800 145.906 C 338.360 144.995,338.000 143.924,338.000 143.525 C 338.000 143.126,337.820 142.800,337.600 142.800 C 337.380 142.800,337.200 142.440,337.200 142.000 C 337.200 141.560,337.020 141.200,336.800 141.200 C 336.580 141.200,336.400 140.928,336.400 140.595 C 336.400 140.262,336.243 139.677,336.050 139.295 C 334.552 136.320,334.000 135.047,334.000 134.562 C 334.000 134.253,333.820 134.000,333.600 134.000 C 333.380 134.000,333.200 133.640,333.200 133.200 C 333.200 132.760,333.020 132.400,332.800 132.400 C 332.580 132.400,332.400 132.029,332.400 131.576 C 332.400 131.123,332.220 130.864,332.000 131.000 C 331.780 131.136,331.600 130.877,331.600 130.424 C 331.600 129.971,331.420 129.600,331.200 129.600 C 330.980 129.600,330.800 129.322,330.800 128.983 C 330.800 128.644,330.440 127.980,330.000 127.508 C 329.560 127.036,329.200 126.413,329.200 126.125 C 329.200 125.836,329.020 125.600,328.800 125.600 C 328.580 125.600,328.400 125.240,328.400 124.800 C 328.400 124.360,328.220 124.000,328.000 124.000 C 327.780 124.000,327.600 123.680,327.600 123.288 C 327.600 122.897,327.240 122.317,326.800 122.000 C 326.360 121.683,326.000 121.169,326.000 120.859 C 326.000 120.548,325.628 119.971,325.174 119.577 C 324.719 119.183,324.386 118.802,324.432 118.730 C 324.634 118.421,323.912 116.800,323.573 116.800 C 323.368 116.800,323.200 116.564,323.200 116.275 C 323.200 115.987,322.885 115.396,322.500 114.962 C 321.179 113.472,319.200 110.847,319.200 110.584 C 319.200 110.439,318.660 109.817,318.000 109.200 C 317.340 108.583,316.800 107.921,316.800 107.727 C 316.800 107.533,315.900 106.431,314.800 105.278 C 313.700 104.125,312.800 103.024,312.800 102.832 C 312.800 102.639,311.495 101.131,309.900 99.481 C 308.305 97.830,306.441 95.877,305.757 95.140 C 303.681 92.903,297.489 87.200,297.135 87.200 C 296.953 87.200,295.885 86.300,294.761 85.200 C 293.638 84.100,292.539 83.200,292.320 83.200 C 292.101 83.200,291.417 82.660,290.800 82.000 C 290.183 81.340,289.481 80.800,289.240 80.800 C 288.998 80.800,288.800 80.659,288.800 80.486 C 288.800 80.314,288.305 79.879,287.700 79.521 C 287.095 79.163,286.060 78.404,285.400 77.835 C 284.740 77.266,283.975 76.801,283.700 76.800 C 283.425 76.800,283.200 76.647,283.200 76.461 C 283.200 76.274,282.480 75.797,281.600 75.400 C 280.720 75.003,280.000 74.526,280.000 74.339 C 280.000 74.153,279.680 74.000,279.288 74.000 C 278.897 74.000,278.317 73.640,278.000 73.200 C 277.683 72.760,277.103 72.400,276.712 72.400 C 276.320 72.400,276.000 72.220,276.000 72.000 C 276.000 71.780,275.640 71.600,275.200 71.600 C 274.760 71.600,274.400 71.420,274.400 71.200 C 274.400 70.980,274.130 70.800,273.800 70.800 C 273.470 70.800,273.200 70.620,273.200 70.400 C 273.200 70.180,272.930 70.000,272.600 70.000 C 272.270 70.000,272.000 69.854,272.000 69.675 C 272.000 69.496,271.370 69.102,270.600 68.800 C 269.830 68.498,269.200 68.104,269.200 67.925 C 269.200 67.746,268.840 67.600,268.400 67.600 C 267.960 67.600,267.600 67.420,267.600 67.200 C 267.600 66.980,267.366 66.800,267.080 66.800 C 266.344 66.800,264.407 65.859,264.403 65.500 C 264.401 65.335,264.044 65.200,263.610 65.200 C 263.175 65.200,262.230 64.841,261.510 64.401 C 260.789 63.962,259.885 63.602,259.500 63.601 C 259.115 63.601,258.800 63.420,258.800 63.200 C 258.800 62.980,258.440 62.800,258.000 62.800 C 257.560 62.800,257.200 62.620,257.200 62.400 C 257.200 62.180,256.750 62.000,256.200 62.000 C 255.650 62.000,255.199 61.865,255.198 61.700 C 255.197 61.535,253.802 60.965,252.098 60.434 C 250.394 59.903,248.794 59.311,248.542 59.120 C 248.290 58.929,247.930 58.808,247.742 58.852 C 247.258 58.964,245.131 58.422,244.305 57.976 C 243.923 57.769,243.158 57.600,242.605 57.600 C 242.052 57.600,241.600 57.420,241.600 57.200 C 241.600 56.980,240.981 56.800,240.224 56.800 C 239.467 56.800,238.736 56.620,238.600 56.400 C 238.464 56.180,237.834 56.000,237.200 56.000 C 236.566 56.000,235.936 55.820,235.800 55.600 C 235.664 55.380,234.843 55.200,233.976 55.200 C 233.109 55.200,232.400 55.020,232.400 54.800 C 232.400 54.580,231.500 54.400,230.400 54.400 C 229.300 54.400,228.400 54.220,228.400 54.000 C 228.400 53.780,227.410 53.600,226.200 53.600 C 224.990 53.600,224.000 53.420,224.000 53.200 C 224.000 52.971,222.800 52.800,221.200 52.800 C 219.600 52.800,218.400 52.629,218.400 52.400 C 218.400 52.158,216.667 52.000,214.000 52.000 C 211.333 52.000,209.600 51.842,209.600 51.600 C 209.600 51.344,206.133 51.200,200.000 51.200 C 193.867 51.200,190.400 51.344,190.400 51.600 M206.800 96.755 C 212.855 97.462,218.896 98.403,222.200 99.154 C 223.080 99.354,224.430 99.643,225.200 99.797 C 239.893 102.723,255.279 111.268,258.698 118.400 C 260.394 121.940,260.395 121.967,260.398 164.646 L 260.400 205.893 262.900 206.777 C 265.520 207.705,267.457 208.511,269.300 209.444 C 273.350 211.492,273.846 211.945,273.272 213.069 C 272.500 214.579,272.000 216.717,272.000 218.510 C 272.000 220.260,272.161 220.853,273.440 223.827 C 275.618 228.889,283.028 231.772,288.743 229.781 C 291.280 228.898,293.011 231.415,295.999 240.333 C 297.369 244.422,297.359 244.495,295.273 245.571 C 286.070 250.316,285.973 263.777,295.113 267.810 C 297.297 268.773,297.324 268.928,295.981 272.925 C 293.553 280.149,290.973 284.711,289.678 284.067 C 279.919 279.214,268.522 290.513,273.299 300.305 C 273.847 301.428,273.441 301.772,269.000 303.943 C 261.430 307.643,258.433 308.198,257.164 306.134 C 251.442 296.832,238.909 296.972,234.743 306.385 C 234.117 307.798,233.521 308.103,232.295 307.640 C 231.803 307.454,230.680 307.087,229.800 306.825 C 228.188 306.343,227.910 306.238,225.000 305.002 C 218.743 302.344,218.267 301.902,219.010 299.432 C 219.671 297.237,219.800 293.371,219.224 293.015 C 219.018 292.887,217.443 293.058,215.724 293.393 C 207.059 295.086,203.104 295.564,194.735 295.932 C 184.614 296.376,173.575 295.784,165.400 294.358 C 160.403 293.486,153.533 291.966,151.200 291.215 C 150.650 291.038,149.390 290.659,148.400 290.374 C 147.410 290.089,146.420 289.741,146.200 289.600 C 145.980 289.459,144.990 289.099,144.000 288.800 C 143.010 288.501,142.020 288.138,141.800 287.993 C 141.580 287.849,140.320 287.305,139.000 286.785 C 127.458 282.234,118.112 274.000,116.158 266.660 C 115.347 263.612,115.342 124.406,116.153 121.360 C 117.183 117.490,122.098 111.540,125.895 109.566 C 126.494 109.254,127.953 108.423,129.139 107.718 C 135.596 103.876,148.374 99.883,160.200 98.009 C 161.740 97.765,164.001 97.394,165.224 97.183 C 166.447 96.972,168.337 96.787,169.424 96.770 C 170.511 96.754,172.210 96.590,173.200 96.405 C 175.564 95.964,202.426 96.244,206.800 96.755 " stroke="none" fill="#e3ebb3" fill-rule="evenodd"></path><path id="path2" d="M172.200 97.004 C 160.146 98.101,151.261 99.818,141.800 102.878 C 139.820 103.519,137.840 104.189,137.400 104.368 C 136.960 104.547,136.150 104.875,135.600 105.098 C 126.777 108.667,120.159 113.741,117.632 118.875 L 116.361 121.455 116.377 193.893 C 116.388 242.629,116.528 266.702,116.806 267.465 C 118.672 272.596,124.081 278.341,130.400 281.902 C 131.170 282.336,132.447 283.077,133.239 283.549 C 136.261 285.351,145.501 289.079,150.300 290.433 C 151.015 290.635,152.275 290.994,153.100 291.230 C 155.142 291.816,159.788 292.825,164.200 293.640 C 178.090 296.208,197.874 296.194,212.000 293.608 C 213.430 293.346,215.410 292.994,216.400 292.826 C 217.390 292.658,218.458 292.448,218.773 292.360 C 220.419 291.901,220.683 297.493,219.156 300.458 C 218.642 301.454,223.076 304.021,228.600 305.925 C 233.105 307.478,233.724 307.467,234.508 305.824 C 238.888 296.640,252.562 296.382,257.198 305.397 C 258.077 307.105,258.228 307.215,259.371 306.984 C 262.318 306.388,268.416 303.967,271.456 302.187 L 273.112 301.218 272.542 299.562 C 270.257 292.930,273.582 285.913,280.281 283.232 C 281.578 282.712,287.425 282.817,289.652 283.400 C 290.538 283.631,290.797 283.495,291.295 282.537 C 292.851 279.541,293.748 277.714,294.110 276.800 C 294.329 276.250,294.651 275.440,294.827 275.000 C 295.003 274.560,295.362 273.480,295.625 272.600 C 295.887 271.720,296.250 270.607,296.430 270.127 C 296.717 269.364,296.495 269.104,294.673 268.076 C 285.312 262.793,285.466 250.103,294.951 245.225 C 296.335 244.513,296.762 244.092,296.569 243.629 C 296.426 243.283,296.169 242.460,296.000 241.800 C 295.515 239.909,294.965 238.432,293.692 235.600 C 293.247 234.610,292.590 233.133,292.232 232.319 C 291.124 229.801,290.665 229.536,288.692 230.276 C 278.932 233.937,268.655 223.759,272.335 214.075 L 273.069 212.142 271.835 211.348 C 270.081 210.220,265.353 208.000,264.705 208.000 C 264.405 208.000,263.989 207.851,263.780 207.670 C 263.571 207.488,262.635 207.099,261.700 206.806 L 260.000 206.272 259.986 165.236 C 259.971 122.131,259.965 121.976,258.205 118.268 C 257.267 116.290,253.560 112.523,250.559 110.498 C 246.864 108.004,241.225 105.257,236.400 103.600 C 235.630 103.336,234.640 102.978,234.200 102.805 C 233.760 102.633,232.590 102.270,231.600 101.999 C 230.610 101.729,229.350 101.360,228.800 101.179 C 217.314 97.411,189.932 95.391,172.200 97.004 M204.600 102.205 C 238.111 105.531,260.774 117.806,252.885 128.359 C 242.444 142.327,200.479 150.176,164.080 144.969 C 160.572 144.467,158.166 144.013,151.200 142.540 C 148.538 141.977,140.656 139.506,138.400 138.526 C 117.494 129.452,116.079 120.336,134.200 111.466 C 139.069 109.083,142.092 107.906,146.200 106.794 C 146.860 106.615,148.463 106.179,149.761 105.824 C 155.186 104.341,163.452 102.968,172.600 102.032 C 178.269 101.452,198.091 101.559,204.600 102.205 M122.867 135.560 C 123.241 136.570,130.614 140.807,135.800 142.993 C 136.680 143.364,137.713 143.832,138.095 144.034 C 138.477 144.235,139.116 144.400,139.515 144.400 C 139.914 144.400,140.411 144.549,140.620 144.730 C 140.829 144.912,141.810 145.293,142.800 145.577 C 143.790 145.861,145.050 146.235,145.600 146.408 C 146.150 146.582,147.500 146.932,148.600 147.187 C 149.700 147.442,151.230 147.806,152.000 147.995 C 152.770 148.185,154.480 148.549,155.800 148.805 C 157.120 149.061,158.650 149.365,159.200 149.480 C 167.759 151.281,192.913 152.263,203.132 151.196 C 211.218 150.352,215.890 149.691,220.600 148.724 C 223.722 148.084,229.295 146.770,230.400 146.415 C 230.950 146.238,232.210 145.859,233.200 145.574 C 234.190 145.289,235.180 144.946,235.400 144.811 C 235.620 144.677,236.520 144.334,237.400 144.050 C 241.340 142.778,248.484 139.165,251.460 136.939 C 252.738 135.982,254.013 135.200,254.292 135.200 C 255.318 135.200,254.994 172.673,253.953 174.400 C 251.640 178.238,244.584 183.048,237.000 185.957 C 235.680 186.464,234.240 187.022,233.800 187.199 C 231.156 188.258,223.525 190.353,219.400 191.152 C 214.125 192.174,210.200 192.743,202.573 193.595 C 200.578 193.818,193.729 194.000,187.353 194.000 C 175.402 194.000,174.800 194.078,174.800 195.618 C 174.800 197.612,175.365 197.682,189.668 197.452 C 204.262 197.218,207.758 196.936,217.200 195.234 C 223.692 194.063,231.175 192.154,234.600 190.795 C 235.040 190.621,236.480 190.074,237.800 189.581 C 241.740 188.109,247.591 184.920,250.971 182.402 C 252.715 181.103,254.290 180.132,254.471 180.244 C 254.652 180.356,254.800 187.342,254.800 195.769 L 254.800 211.091 253.783 212.108 C 248.574 217.317,238.678 215.312,234.494 208.200 C 233.552 206.598,233.127 206.218,232.359 206.292 C 231.072 206.415,228.292 207.259,227.820 207.670 C 227.611 207.851,227.161 208.002,226.820 208.005 C 226.209 208.010,220.558 210.764,219.185 211.725 C 218.540 212.177,218.530 212.352,219.066 213.809 C 222.614 223.454,213.552 233.452,203.824 230.624 C 202.549 230.254,201.263 230.044,200.965 230.158 C 200.399 230.375,197.834 235.564,196.594 239.000 C 195.399 242.311,195.708 242.204,187.485 242.172 C 175.180 242.125,163.091 240.798,153.200 238.409 C 148.281 237.221,147.221 237.402,147.206 239.432 C 147.197 240.733,149.332 241.442,158.400 243.149 C 167.980 244.953,182.377 246.140,192.027 245.922 C 197.427 245.801,197.461 245.805,198.915 246.912 C 206.396 252.600,205.171 264.554,196.700 268.533 C 195.875 268.920,195.200 269.428,195.200 269.660 C 195.200 270.627,197.675 277.368,198.955 279.885 C 201.191 284.286,201.129 284.236,203.409 283.459 C 207.271 282.143,211.787 282.919,214.949 285.442 C 217.677 287.619,217.402 287.728,204.500 289.590 C 197.918 290.539,188.062 290.895,181.100 290.435 C 174.591 290.005,173.016 289.832,165.900 288.765 C 163.176 288.357,157.691 287.188,155.000 286.441 C 154.340 286.258,152.990 285.883,152.000 285.607 C 147.885 284.462,142.095 282.210,137.800 280.083 C 130.410 276.423,124.525 271.664,122.354 267.590 L 121.400 265.800 121.400 247.000 C 121.400 226.787,121.338 227.321,123.477 229.227 C 128.830 233.997,134.860 236.492,135.441 234.179 C 135.767 232.879,135.575 232.678,132.273 230.866 C 127.886 228.458,123.789 225.075,122.045 222.418 C 121.477 221.554,121.386 219.003,121.283 201.112 C 121.150 178.050,120.978 179.147,124.295 181.895 C 126.828 183.993,130.967 186.395,135.533 188.417 C 139.866 190.336,141.200 190.333,141.200 188.406 C 141.200 187.084,140.995 186.935,136.417 184.922 C 128.992 181.659,122.554 176.525,121.566 173.081 C 121.151 171.633,121.056 135.877,121.467 135.467 C 121.852 135.082,122.711 135.139,122.867 135.560 M146.480 189.680 C 144.980 191.180,146.410 192.453,150.800 193.523 C 154.017 194.308,155.260 194.576,160.331 195.579 C 163.389 196.183,166.208 196.114,166.784 195.419 C 167.889 194.087,166.087 192.400,163.558 192.400 C 162.896 192.400,161.600 192.235,160.677 192.033 C 159.755 191.831,157.920 191.446,156.600 191.176 C 155.280 190.907,152.898 190.352,151.307 189.943 C 147.920 189.073,147.130 189.030,146.480 189.680 M231.200 212.718 C 231.200 212.893,232.143 213.985,233.296 215.144 C 240.325 222.210,253.641 221.590,259.404 213.928 C 260.809 212.060,263.810 212.214,266.384 214.287 C 266.485 214.368,266.519 215.762,266.458 217.385 C 266.074 227.702,274.137 236.000,284.547 236.000 C 288.619 236.000,288.287 235.809,289.575 238.900 C 290.616 241.401,290.578 241.532,288.089 243.919 C 280.824 250.890,280.837 262.409,288.118 269.581 L 290.436 271.865 289.775 273.812 C 288.529 277.482,288.485 277.511,283.866 277.664 C 273.769 278.000,265.348 287.416,266.650 296.915 L 266.908 298.796 264.554 299.843 C 261.329 301.278,260.788 301.203,258.804 299.050 C 252.181 291.865,240.083 291.826,233.267 298.967 C 230.904 301.443,230.786 301.460,227.149 299.856 L 225.298 299.040 225.118 295.020 C 224.667 284.932,216.569 277.264,206.800 277.674 L 203.800 277.800 202.713 275.600 C 201.231 272.601,201.294 271.883,203.174 270.373 C 210.979 264.100,211.128 251.436,203.483 243.986 L 201.166 241.728 201.820 239.764 C 203.011 236.185,203.241 235.997,206.100 236.264 C 215.928 237.181,224.909 228.724,224.883 218.577 L 224.872 214.403 226.336 213.768 C 227.141 213.419,228.070 212.979,228.400 212.790 C 229.167 212.352,231.200 212.300,231.200 212.718 M240.000 229.983 C 239.450 230.159,238.190 230.544,237.200 230.838 C 227.195 233.811,218.800 244.682,218.800 254.666 C 218.800 259.043,220.121 258.514,220.523 253.976 C 221.376 244.351,228.883 235.098,238.000 232.433 C 238.990 232.143,240.322 231.748,240.960 231.553 C 244.038 230.615,250.233 231.231,255.308 232.980 C 258.478 234.072,259.137 232.858,256.102 231.515 C 252.070 229.732,243.373 228.904,240.000 229.983 M261.848 235.820 C 261.697 236.213,262.159 236.993,263.105 237.942 C 263.927 238.767,265.189 240.108,265.910 240.921 C 267.766 243.017,269.178 242.686,267.784 240.482 C 265.919 237.535,262.285 234.681,261.848 235.820 M241.800 242.867 C 225.794 248.260,229.613 271.396,246.400 270.734 C 255.693 270.368,262.804 260.513,259.544 252.519 C 258.247 249.337,257.750 248.498,256.153 246.791 C 252.688 243.086,246.319 241.345,241.800 242.867 M269.787 246.422 C 269.528 246.841,269.666 247.484,270.847 251.360 C 272.344 256.275,270.630 265.114,267.121 270.562 C 265.459 273.144,265.373 273.412,266.071 273.844 C 267.213 274.549,271.362 267.353,272.438 262.800 C 273.894 256.644,271.730 243.277,269.787 246.422 M249.816 248.450 C 255.293 251.024,256.528 258.684,252.170 263.049 C 246.629 268.598,237.310 265.022,236.867 257.175 C 236.464 250.044,243.344 245.407,249.816 248.450 M220.070 264.115 C 219.768 264.479,219.911 265.263,220.575 266.898 C 223.826 274.897,230.102 280.345,239.400 283.238 C 240.302 283.519,243.095 283.736,245.800 283.736 C 250.586 283.736,251.743 283.527,256.000 281.898 C 258.761 280.841,262.800 278.161,262.800 277.385 C 262.800 276.578,261.732 276.653,260.462 277.549 C 247.816 286.474,229.762 281.762,222.949 267.759 C 220.965 263.681,220.705 263.351,220.070 264.115 " stroke="none" fill="#462f2e" fill-rule="evenodd"></path><path id="path3" d="M346.200 87.783 C 346.640 88.129,346.820 88.388,346.600 88.358 C 345.703 88.239,345.528 88.431,346.008 89.009 C 346.432 89.521,346.404 89.576,345.834 89.358 C 345.460 89.214,345.249 88.850,345.364 88.548 C 345.590 87.961,345.233 87.859,344.258 88.233 C 343.888 88.375,343.748 88.727,343.900 89.133 C 344.124 89.732,344.070 89.740,343.375 89.213 C 342.949 88.890,342.734 88.784,342.898 88.977 C 343.061 89.171,342.804 89.525,342.326 89.764 C 341.455 90.201,340.544 92.400,341.235 92.400 C 341.436 92.400,341.600 92.555,341.600 92.745 C 341.600 92.934,341.186 93.010,340.681 92.913 C 339.829 92.751,339.763 92.871,339.775 94.575 C 339.785 95.949,339.925 96.361,340.328 96.206 C 340.644 96.085,340.791 96.206,340.683 96.500 C 340.583 96.775,340.330 96.966,340.123 96.924 C 339.915 96.883,339.745 97.378,339.745 98.024 C 339.745 98.671,339.893 99.200,340.073 99.200 C 340.253 99.200,340.400 99.560,340.400 100.000 C 340.400 100.440,340.625 100.755,340.900 100.700 C 341.189 100.642,341.346 100.913,341.273 101.340 C 341.204 101.747,341.319 101.974,341.529 101.844 C 341.740 101.713,342.206 102.055,342.565 102.603 C 342.925 103.152,343.416 103.600,343.658 103.600 C 343.972 103.600,343.968 103.443,343.645 103.055 C 343.279 102.614,343.383 102.546,344.187 102.700 C 345.007 102.856,345.112 103.017,344.789 103.620 C 344.469 104.219,344.542 104.340,345.199 104.290 C 345.640 104.257,346.000 104.060,346.000 103.853 C 346.000 103.646,346.360 103.802,346.800 104.200 C 347.240 104.598,347.600 104.724,347.600 104.479 C 347.600 104.215,348.176 104.079,349.015 104.145 C 349.930 104.217,350.370 104.099,350.259 103.810 C 350.165 103.565,350.471 103.335,350.939 103.300 C 351.542 103.254,351.633 103.332,351.252 103.568 C 350.874 103.801,350.847 103.982,351.160 104.175 C 351.405 104.327,351.709 104.181,351.836 103.851 C 351.963 103.521,352.287 103.335,352.557 103.439 C 353.532 103.813,356.758 99.303,356.181 98.370 C 356.056 98.167,356.121 98.000,356.326 98.000 C 356.532 98.000,356.700 97.553,356.700 97.007 C 356.700 96.461,356.588 96.082,356.450 96.165 C 356.313 96.248,355.940 96.035,355.621 95.691 C 355.109 95.137,355.138 95.090,355.879 95.284 C 356.726 95.506,356.869 95.066,356.265 94.100 C 356.093 93.825,356.067 93.416,356.206 93.190 C 356.345 92.965,356.311 92.806,356.130 92.837 C 355.048 93.025,354.719 92.737,354.904 91.766 C 355.070 90.898,354.978 90.765,354.328 90.935 C 353.732 91.091,353.652 91.019,353.982 90.622 C 354.587 89.893,353.702 89.311,352.203 89.454 C 351.368 89.533,351.181 89.459,351.584 89.210 C 351.902 89.013,352.350 88.965,352.581 89.103 C 352.811 89.241,352.763 89.061,352.473 88.704 C 351.873 87.963,350.284 87.921,350.565 88.653 C 350.666 88.917,350.500 89.230,350.195 89.347 C 349.834 89.485,349.718 89.358,349.862 88.983 C 349.984 88.665,349.796 88.297,349.444 88.161 C 349.092 88.027,348.928 87.710,349.079 87.458 C 349.254 87.166,349.131 87.180,348.740 87.497 C 348.403 87.770,348.030 87.897,347.912 87.779 C 347.795 87.661,347.181 87.473,346.549 87.360 C 345.441 87.162,345.429 87.178,346.200 87.783 M172.400 96.465 C 169.252 96.785,164.752 97.340,161.073 97.863 C 160.233 97.982,159.635 98.168,159.743 98.276 C 159.852 98.385,162.159 98.187,164.870 97.836 C 180.063 95.871,195.937 95.871,211.130 97.836 C 213.841 98.187,216.148 98.385,216.257 98.276 C 216.365 98.168,215.767 97.982,214.927 97.863 C 211.899 97.432,206.923 96.828,203.000 96.414 C 198.354 95.924,177.383 95.959,172.400 96.465 M155.800 98.800 C 154.718 99.265,156.948 99.265,158.400 98.800 C 159.309 98.509,159.273 98.479,158.000 98.468 C 157.230 98.462,156.240 98.611,155.800 98.800 M217.800 98.800 C 219.597 99.257,221.264 99.257,220.200 98.800 C 219.760 98.611,218.770 98.465,218.000 98.475 L 216.600 98.495 217.800 98.800 M152.000 99.600 C 151.242 100.090,152.470 100.090,154.000 99.600 C 154.980 99.286,154.976 99.279,153.800 99.246 C 153.140 99.227,152.330 99.387,152.000 99.600 M222.000 99.600 C 223.530 100.090,224.758 100.090,224.000 99.600 C 223.670 99.387,222.860 99.227,222.200 99.246 C 221.024 99.279,221.020 99.286,222.000 99.600 M148.600 100.400 C 147.871 100.713,147.888 100.744,148.800 100.744 C 149.350 100.744,150.160 100.589,150.600 100.400 C 151.329 100.087,151.312 100.056,150.400 100.056 C 149.850 100.056,149.040 100.211,148.600 100.400 M225.600 100.400 C 226.150 100.576,226.960 100.726,227.400 100.732 L 228.200 100.744 227.400 100.400 C 226.960 100.211,226.150 100.062,225.600 100.068 L 224.600 100.080 225.600 100.400 M145.800 101.200 L 145.000 101.544 145.800 101.566 C 146.240 101.578,146.870 101.413,147.200 101.200 C 147.995 100.686,146.996 100.686,145.800 101.200 M228.800 101.200 C 229.130 101.413,229.760 101.588,230.200 101.588 C 230.862 101.588,230.897 101.521,230.400 101.200 C 230.070 100.987,229.440 100.812,229.000 100.812 C 228.338 100.812,228.303 100.879,228.800 101.200 M354.400 101.600 C 353.775 102.767,353.523 102.358,353.969 100.900 C 353.986 100.845,354.186 100.800,354.414 100.800 C 354.695 100.800,354.690 101.058,354.400 101.600 M139.600 103.144 C 135.333 104.670,133.392 105.566,134.305 105.588 C 134.583 105.595,135.123 105.441,135.505 105.247 C 136.909 104.533,138.271 104.010,141.396 102.987 C 143.154 102.412,144.669 101.864,144.763 101.771 C 145.236 101.298,143.385 101.790,139.600 103.144 M173.600 101.965 C 172.390 102.094,178.870 102.200,188.000 102.200 C 197.130 102.200,203.520 102.085,202.200 101.943 C 199.234 101.626,176.614 101.644,173.600 101.965 M231.600 102.000 C 231.930 102.213,232.560 102.378,233.000 102.366 L 233.800 102.344 233.000 102.000 C 231.804 101.486,230.805 101.486,231.600 102.000 M165.600 102.800 C 164.280 103.078,164.315 103.096,166.200 103.124 C 167.300 103.141,168.920 103.005,169.800 102.823 C 171.384 102.495,171.378 102.492,169.200 102.499 C 167.990 102.502,166.370 102.638,165.600 102.800 M204.843 102.576 C 204.940 102.673,206.725 102.949,208.810 103.189 C 214.331 103.825,219.688 104.722,223.200 105.600 C 224.190 105.847,225.540 106.140,226.200 106.252 C 226.860 106.363,227.760 106.601,228.200 106.780 C 228.640 106.958,230.350 107.519,232.000 108.024 C 233.650 108.530,235.171 109.092,235.380 109.272 C 235.589 109.452,236.023 109.600,236.344 109.600 C 239.099 109.600,250.048 116.531,252.329 119.719 C 257.126 126.424,249.462 134.308,233.000 139.604 C 231.460 140.100,229.840 140.648,229.400 140.822 C 228.960 140.997,228.060 141.251,227.400 141.388 C 226.740 141.524,225.480 141.818,224.600 142.040 C 202.856 147.530,169.201 147.171,148.300 141.227 C 147.475 140.992,146.215 140.635,145.500 140.433 C 136.963 138.024,127.410 132.969,124.273 129.201 C 118.810 122.639,123.437 116.503,138.886 109.819 C 141.292 108.777,145.760 107.354,149.700 106.373 C 150.525 106.168,151.965 105.809,152.900 105.575 C 155.019 105.045,157.846 104.518,161.132 104.039 C 163.795 103.651,164.852 103.200,163.099 103.200 C 161.835 103.200,153.005 104.937,149.761 105.824 C 148.463 106.179,146.860 106.615,146.200 106.794 C 142.092 107.906,139.069 109.083,134.200 111.466 C 116.079 120.336,117.494 129.452,138.400 138.526 C 140.656 139.506,148.538 141.977,151.200 142.540 C 161.364 144.690,165.349 145.313,173.316 145.999 C 210.449 149.196,249.994 139.196,254.382 125.500 C 256.812 117.913,239.902 107.911,218.030 103.999 C 210.767 102.700,204.265 101.999,204.843 102.576 M234.220 102.718 C 234.429 102.893,235.320 103.265,236.200 103.545 C 237.807 104.055,238.053 104.150,241.000 105.394 C 249.143 108.831,256.251 114.149,258.205 118.268 C 259.965 121.976,259.971 122.131,259.986 165.236 L 260.000 206.272 261.700 206.806 C 262.635 207.099,263.571 207.488,263.780 207.670 C 263.989 207.851,264.405 208.000,264.705 208.000 C 265.353 208.000,270.081 210.220,271.835 211.348 L 273.069 212.142 272.335 214.075 C 268.655 223.759,278.932 233.937,288.692 230.276 C 290.665 229.536,291.128 229.803,292.228 232.319 C 292.584 233.133,293.218 234.492,293.637 235.338 C 294.057 236.184,294.400 237.118,294.400 237.414 C 294.400 237.710,294.599 238.076,294.843 238.226 C 295.479 238.620,294.980 237.205,293.114 233.324 C 291.107 229.149,290.942 229.015,288.743 229.781 C 278.905 233.208,269.503 224.094,272.743 214.272 C 273.424 212.208,273.432 211.974,272.843 211.462 C 271.981 210.713,266.008 207.907,262.900 206.791 L 260.400 205.893 260.400 165.201 C 260.400 123.050,260.350 121.683,258.700 118.419 C 256.055 113.186,248.044 107.457,238.317 103.843 C 234.372 102.377,233.539 102.148,234.220 102.718 M130.600 106.914 C 122.918 111.063,116.400 117.391,116.400 120.702 C 116.400 121.046,116.969 120.189,117.665 118.797 C 119.791 114.542,124.934 110.111,131.300 107.048 C 133.434 106.021,134.038 105.587,133.300 105.609 C 133.135 105.614,131.920 106.201,130.600 106.914 M115.850 122.850 C 115.490 124.650,115.635 263.964,115.998 265.400 C 116.165 266.060,116.315 233.975,116.332 194.100 C 116.348 154.225,116.303 121.600,116.231 121.600 C 116.159 121.600,115.988 122.163,115.850 122.850 M121.467 135.467 C 121.056 135.877,121.151 171.633,121.566 173.081 C 122.554 176.525,128.992 181.659,136.417 184.922 C 140.995 186.935,141.200 187.084,141.200 188.406 C 141.200 190.333,139.866 190.336,135.533 188.417 C 130.967 186.395,126.828 183.993,124.295 181.895 C 120.978 179.147,121.150 178.050,121.283 201.112 C 121.386 219.003,121.477 221.554,122.045 222.418 C 123.789 225.075,127.886 228.458,132.273 230.866 C 135.575 232.678,135.767 232.879,135.441 234.179 C 134.860 236.492,128.830 233.997,123.477 229.227 C 121.338 227.321,121.400 226.787,121.400 247.000 L 121.400 265.800 122.354 267.590 C 124.525 271.664,130.410 276.423,137.800 280.083 C 142.095 282.210,147.885 284.462,152.000 285.607 C 152.990 285.883,154.340 286.258,155.000 286.441 C 157.691 287.188,163.176 288.357,165.900 288.765 C 173.016 289.832,174.591 290.005,181.100 290.435 C 188.062 290.895,197.918 290.539,204.500 289.590 C 217.402 287.728,217.677 287.619,214.949 285.442 C 211.787 282.919,207.271 282.143,203.409 283.459 C 201.129 284.236,201.191 284.286,198.955 279.885 C 197.675 277.368,195.200 270.627,195.200 269.660 C 195.200 269.428,195.875 268.920,196.700 268.533 C 205.171 264.554,206.396 252.600,198.915 246.912 C 197.461 245.805,197.427 245.801,192.027 245.922 C 182.377 246.140,167.980 244.953,158.400 243.149 C 149.332 241.442,147.197 240.733,147.206 239.432 C 147.221 237.402,148.281 237.221,153.200 238.409 C 163.091 240.798,175.180 242.125,187.485 242.172 C 195.708 242.204,195.399 242.311,196.594 239.000 C 197.834 235.564,200.399 230.375,200.965 230.158 C 201.263 230.044,202.549 230.254,203.824 230.624 C 213.552 233.452,222.614 223.454,219.066 213.809 C 218.530 212.352,218.540 212.177,219.185 211.725 C 220.558 210.764,226.209 208.010,226.820 208.005 C 227.161 208.002,227.611 207.851,227.820 207.670 C 228.292 207.259,231.072 206.415,232.359 206.292 C 233.127 206.218,233.552 206.598,234.494 208.200 C 236.916 212.316,240.601 214.840,244.075 214.761 C 245.793 214.722,245.790 214.720,243.400 214.218 C 242.080 213.942,240.640 213.570,240.200 213.392 C 239.061 212.931,235.485 209.223,234.806 207.800 C 233.831 205.753,233.218 205.217,232.262 205.575 C 231.788 205.752,230.680 206.113,229.800 206.375 C 228.176 206.860,227.842 206.987,225.000 208.203 C 221.253 209.806,217.999 211.654,218.006 212.174 C 218.009 212.408,218.271 213.320,218.588 214.200 C 222.070 223.865,212.007 233.706,202.643 229.792 C 201.353 229.253,200.998 229.233,200.571 229.671 C 199.831 230.430,196.987 236.245,196.209 238.590 C 195.173 241.711,195.461 241.603,188.251 241.574 C 173.848 241.517,162.671 240.244,150.329 237.254 C 148.387 236.783,147.044 237.440,146.870 238.945 C 146.714 240.295,147.634 241.433,149.124 241.734 C 149.716 241.853,151.010 242.143,152.000 242.378 C 162.468 244.861,176.722 246.368,189.938 246.389 C 196.873 246.399,197.346 246.449,198.538 247.291 C 205.800 252.421,204.773 263.718,196.669 267.859 L 194.737 268.845 194.991 270.523 C 195.131 271.445,195.398 272.560,195.584 273.000 C 195.770 273.440,196.335 274.880,196.840 276.200 C 199.788 283.905,200.572 284.619,205.000 283.620 C 208.495 282.832,213.345 284.130,215.402 286.402 C 216.133 287.210,214.355 287.641,203.600 289.265 C 198.964 289.965,177.010 289.962,172.400 289.261 C 149.470 285.773,134.580 280.111,126.180 271.684 C 121.737 267.227,122.000 268.761,122.000 247.339 L 122.000 228.753 124.300 230.493 C 131.775 236.145,136.000 237.370,136.000 233.884 C 136.000 232.523,135.467 232.047,131.361 229.747 C 129.173 228.522,126.794 226.735,124.942 224.927 L 122.000 222.055 122.000 201.429 L 122.000 180.803 125.118 183.102 C 126.832 184.366,130.027 186.275,132.218 187.344 C 134.408 188.413,136.476 189.425,136.813 189.593 C 139.554 190.958,141.711 190.295,141.523 188.145 C 141.384 186.559,141.390 186.564,135.551 183.873 C 130.726 181.649,127.252 179.316,124.300 176.317 L 122.000 173.980 122.000 154.990 C 122.000 144.545,122.084 136.000,122.187 136.000 C 122.290 136.000,123.955 137.046,125.887 138.323 C 130.659 141.479,136.622 144.237,142.400 145.960 C 143.170 146.190,144.700 146.645,145.800 146.972 C 149.823 148.167,158.807 150.030,160.200 149.959 C 161.040 149.915,159.301 149.462,155.600 148.758 C 154.390 148.528,152.770 148.185,152.000 147.995 C 151.230 147.806,149.700 147.442,148.600 147.187 C 147.500 146.932,146.150 146.582,145.600 146.408 C 145.050 146.235,143.790 145.861,142.800 145.577 C 141.810 145.293,140.829 144.912,140.620 144.730 C 140.411 144.549,139.914 144.400,139.515 144.400 C 139.116 144.400,138.477 144.235,138.095 144.034 C 137.713 143.832,136.680 143.364,135.800 142.993 C 130.614 140.807,123.241 136.570,122.867 135.560 C 122.711 135.139,121.852 135.082,121.467 135.467 M251.460 136.939 C 248.484 139.165,241.340 142.778,237.400 144.050 C 236.520 144.334,235.620 144.677,235.400 144.811 C 235.180 144.946,234.190 145.289,233.200 145.574 C 232.210 145.859,230.950 146.238,230.400 146.415 C 229.102 146.832,223.216 148.208,220.400 148.752 C 216.552 149.495,214.972 149.916,215.874 149.959 C 218.297 150.073,232.313 146.616,237.600 144.599 C 242.047 142.903,246.156 140.949,248.272 139.525 C 249.192 138.906,250.092 138.393,250.272 138.384 C 250.452 138.375,251.223 137.835,251.985 137.184 C 252.747 136.533,253.512 136.000,253.685 136.000 C 254.491 136.000,254.039 173.243,253.217 174.573 C 250.447 179.054,239.102 185.558,229.700 188.055 C 228.985 188.245,227.725 188.592,226.900 188.827 C 220.942 190.521,213.384 191.896,204.800 192.848 C 202.930 193.055,195.502 193.324,188.293 193.446 L 175.186 193.666 174.580 194.838 C 172.508 198.845,190.545 199.681,212.224 196.583 C 215.886 196.060,217.224 195.818,222.200 194.778 C 227.367 193.699,233.171 191.991,236.900 190.454 C 237.505 190.204,238.405 189.839,238.900 189.642 C 242.849 188.074,247.440 185.561,250.542 183.271 C 251.831 182.320,253.136 181.446,253.442 181.328 C 253.913 181.148,254.000 183.483,254.000 196.330 L 254.000 211.546 252.900 212.287 C 251.283 213.377,250.018 213.915,248.000 214.371 L 246.200 214.778 248.016 214.648 C 250.162 214.494,252.370 213.521,253.783 212.108 L 254.800 211.091 254.800 195.769 C 254.800 187.342,254.652 180.356,254.471 180.244 C 254.290 180.132,252.715 181.103,250.971 182.402 C 247.591 184.920,241.740 188.109,237.800 189.581 C 236.480 190.074,235.040 190.621,234.600 190.795 C 231.175 192.154,223.692 194.063,217.200 195.234 C 207.758 196.936,204.262 197.218,189.668 197.452 C 175.365 197.682,174.800 197.612,174.800 195.618 C 174.800 194.078,175.402 194.000,187.353 194.000 C 198.177 194.000,201.188 193.833,209.400 192.779 C 214.107 192.175,219.908 191.145,222.900 190.382 C 225.617 189.690,227.785 189.112,228.800 188.809 C 232.085 187.831,233.083 187.512,233.800 187.213 C 234.240 187.029,235.680 186.464,237.000 185.957 C 244.584 183.048,251.640 178.238,253.953 174.400 C 254.994 172.673,255.318 135.200,254.292 135.200 C 254.013 135.200,252.738 135.982,251.460 136.939 M162.200 150.400 C 162.860 150.568,164.210 150.705,165.200 150.705 C 166.809 150.705,166.873 150.673,165.800 150.400 C 165.140 150.232,163.790 150.095,162.800 150.095 C 161.191 150.095,161.127 150.127,162.200 150.400 M210.200 150.400 C 209.127 150.673,209.191 150.705,210.800 150.705 C 211.790 150.705,213.140 150.568,213.800 150.400 C 214.873 150.127,214.809 150.095,213.200 150.095 C 212.210 150.095,210.860 150.232,210.200 150.400 M168.600 151.223 C 169.480 151.405,171.460 151.538,173.000 151.518 L 175.800 151.482 173.400 151.185 C 172.080 151.021,170.100 150.888,169.000 150.889 L 167.000 150.892 168.600 151.223 M202.600 151.200 L 200.600 151.474 203.200 151.514 C 204.630 151.536,206.520 151.405,207.400 151.223 C 209.519 150.785,205.760 150.767,202.600 151.200 M178.600 152.015 C 179.920 152.179,184.150 152.313,188.000 152.313 C 191.850 152.313,196.080 152.179,197.400 152.015 C 198.834 151.838,195.049 151.718,188.000 151.718 C 180.951 151.718,177.166 151.838,178.600 152.015 M145.928 189.799 C 144.910 192.032,146.372 193.129,152.000 194.359 C 153.210 194.623,154.920 194.996,155.800 195.188 C 163.349 196.833,165.780 197.020,166.767 196.033 C 168.641 194.159,167.235 192.252,163.683 191.848 C 160.423 191.477,156.216 190.662,152.000 189.583 C 147.992 188.558,146.468 188.612,145.928 189.799 M151.307 189.943 C 152.898 190.352,155.280 190.907,156.600 191.176 C 157.920 191.446,159.755 191.831,160.677 192.033 C 161.600 192.235,162.896 192.400,163.558 192.400 C 166.087 192.400,167.889 194.087,166.784 195.419 C 166.208 196.114,163.389 196.183,160.331 195.579 C 155.260 194.576,154.017 194.308,150.800 193.523 C 146.410 192.453,144.980 191.180,146.480 189.680 C 147.130 189.030,147.920 189.073,151.307 189.943 M228.400 212.790 C 228.070 212.979,227.141 213.419,226.336 213.768 L 224.872 214.403 224.883 218.577 C 224.909 228.724,215.928 237.181,206.100 236.264 C 203.241 235.997,203.011 236.185,201.820 239.764 L 201.166 241.728 203.483 243.986 C 211.128 251.436,210.979 264.100,203.174 270.373 C 201.294 271.883,201.231 272.601,202.713 275.600 L 203.800 277.800 206.800 277.674 C 216.569 277.264,224.667 284.932,225.118 295.020 L 225.298 299.040 227.149 299.856 C 230.786 301.460,230.904 301.443,233.267 298.967 C 240.083 291.826,252.181 291.865,258.804 299.050 C 260.788 301.203,261.329 301.278,264.554 299.843 L 266.908 298.796 266.650 296.915 C 265.348 287.416,273.769 278.000,283.866 277.664 C 288.485 277.511,288.529 277.482,289.775 273.812 L 290.436 271.865 288.118 269.581 C 280.837 262.409,280.824 250.890,288.089 243.919 C 290.578 241.532,290.616 241.401,289.575 238.900 C 288.287 235.809,288.619 236.000,284.547 236.000 C 274.137 236.000,266.074 227.702,266.458 217.385 C 266.519 215.762,266.485 214.368,266.384 214.287 C 263.810 212.214,260.809 212.060,259.404 213.928 C 253.641 221.590,240.325 222.210,233.296 215.144 C 232.143 213.985,231.200 212.893,231.200 212.718 C 231.200 212.300,229.167 212.352,228.400 212.790 M231.678 214.437 C 237.886 222.162,251.263 222.840,258.500 215.796 C 259.545 214.779,260.400 213.798,260.400 213.616 C 260.400 212.824,261.777 212.888,263.782 213.775 L 265.946 214.732 265.924 218.066 C 265.854 228.750,274.824 237.401,285.283 236.735 C 287.861 236.571,287.883 236.579,288.366 237.785 C 288.634 238.453,289.021 239.313,289.226 239.695 C 289.904 240.954,289.622 241.636,287.700 243.391 C 282.790 247.874,280.499 256.895,282.819 262.612 C 284.184 265.976,285.206 267.590,287.300 269.692 C 289.903 272.304,289.886 272.248,288.800 274.494 C 288.360 275.405,288.000 276.342,288.000 276.576 C 288.000 276.847,286.532 277.018,283.981 277.044 C 281.770 277.067,279.565 277.268,279.081 277.492 C 275.459 279.164,274.201 279.919,272.449 281.470 C 268.390 285.064,266.399 289.200,266.042 294.782 L 265.800 298.563 263.489 299.548 L 261.178 300.533 259.889 299.156 C 257.159 296.241,253.739 294.203,250.200 293.382 C 247.934 292.856,243.122 292.718,242.673 293.167 C 242.435 293.405,241.824 293.600,241.315 293.600 C 240.806 293.600,240.077 293.760,239.695 293.956 C 239.313 294.152,238.167 294.709,237.149 295.194 C 236.131 295.679,234.337 297.048,233.163 298.238 C 230.727 300.704,230.796 300.686,228.082 299.558 L 226.056 298.717 225.879 295.458 C 225.620 290.690,224.459 287.159,222.359 284.763 C 221.896 284.233,221.220 283.428,220.858 282.973 C 220.496 282.519,219.338 281.489,218.284 280.685 C 216.508 279.329,215.660 278.871,212.681 277.656 C 212.066 277.405,209.885 277.200,207.836 277.200 L 204.109 277.200 203.039 274.815 L 201.969 272.431 204.313 270.087 C 206.577 267.823,208.800 264.185,208.800 262.745 C 208.800 262.361,208.980 261.936,209.200 261.800 C 209.751 261.459,209.707 253.792,209.144 252.028 C 207.939 248.255,206.738 246.317,203.869 243.513 C 201.786 241.479,201.772 241.386,203.084 238.300 L 203.721 236.800 207.201 236.800 C 210.969 236.800,212.249 236.504,215.557 234.867 C 217.802 233.757,222.800 229.126,222.800 228.156 C 222.800 227.850,222.936 227.600,223.102 227.600 C 223.269 227.600,223.644 227.015,223.936 226.300 C 224.228 225.585,224.620 224.640,224.806 224.200 C 225.575 222.387,225.981 217.875,225.559 215.831 C 225.441 215.259,225.809 214.863,227.000 214.283 C 227.880 213.855,228.870 213.357,229.200 213.176 C 230.162 212.649,230.295 212.716,231.678 214.437 M240.200 224.566 C 208.810 230.719,203.333 272.325,232.093 286.150 C 254.086 296.721,279.933 279.044,278.245 254.584 C 276.913 235.274,258.736 220.932,240.200 224.566 M252.202 230.143 C 254.883 230.857,258.000 232.260,258.000 232.754 C 258.000 233.554,257.175 233.623,255.308 232.980 C 250.233 231.231,244.038 230.615,240.960 231.553 C 240.322 231.748,238.990 232.143,238.000 232.433 C 228.883 235.098,221.376 244.351,220.523 253.976 C 220.121 258.514,218.800 259.043,218.800 254.666 C 218.800 244.682,227.195 233.811,237.200 230.838 C 238.190 230.544,239.450 230.159,240.000 229.983 C 241.654 229.454,250.027 229.563,252.202 230.143 M249.400 232.166 C 251.160 232.477,253.410 233.014,254.400 233.360 C 255.390 233.705,256.599 233.991,257.086 233.994 C 258.308 234.002,260.800 235.240,260.800 235.840 C 260.800 236.110,261.719 237.292,262.842 238.466 C 263.965 239.640,265.336 241.185,265.889 241.900 C 266.442 242.615,267.137 243.200,267.433 243.200 C 268.239 243.200,268.932 244.734,269.242 247.200 C 269.393 248.410,269.806 250.660,270.159 252.200 C 271.562 258.328,270.162 264.992,266.255 270.778 C 265.595 271.755,265.031 272.878,265.002 273.272 C 264.933 274.203,263.242 275.999,262.430 276.003 C 262.084 276.004,261.260 276.373,260.600 276.823 C 250.412 283.766,237.092 282.813,228.548 274.531 C 227.146 273.172,226.000 271.867,226.000 271.631 C 226.000 271.394,225.820 271.200,225.600 271.200 C 225.380 271.200,225.200 270.945,225.200 270.633 C 225.200 270.322,225.056 270.007,224.880 269.933 C 224.525 269.785,222.000 264.661,222.000 264.087 C 222.000 263.887,221.664 263.420,221.254 263.049 C 220.218 262.111,219.842 258.666,220.613 257.174 C 220.936 256.550,221.200 255.099,221.200 253.948 C 221.200 252.073,221.490 250.691,222.405 248.200 C 222.863 246.952,224.564 243.423,224.814 243.200 C 224.937 243.090,225.476 242.370,226.011 241.600 C 228.619 237.844,234.166 234.055,238.800 232.865 C 243.887 231.559,245.399 231.460,249.400 232.166 M264.949 237.300 C 267.419 239.712,268.582 241.382,268.211 241.982 C 267.774 242.690,267.271 242.458,265.910 240.921 C 265.189 240.108,263.927 238.767,263.105 237.942 C 262.159 236.993,261.697 236.213,261.848 235.820 C 262.220 234.849,262.648 235.053,264.949 237.300 M295.423 239.600 C 296.028 242.217,296.354 243.285,296.622 243.532 C 297.074 243.946,296.511 241.445,295.814 239.943 C 295.374 238.994,295.259 238.893,295.423 239.600 M241.200 242.380 C 240.870 242.563,239.741 243.123,238.692 243.623 C 232.040 246.798,228.969 255.927,232.242 262.800 C 237.225 273.265,250.590 274.592,258.010 265.359 C 260.346 262.451,261.518 254.871,260.098 251.857 C 259.824 251.276,259.375 250.318,259.100 249.728 C 258.396 248.218,255.104 244.694,253.742 243.991 C 253.114 243.667,252.510 243.310,252.400 243.199 C 251.364 242.148,242.752 241.519,241.200 242.380 M249.640 242.834 C 252.360 243.702,254.452 244.973,256.153 246.791 C 257.750 248.498,258.247 249.337,259.544 252.519 C 263.736 262.801,251.513 274.061,240.603 269.969 C 224.169 263.805,232.929 237.502,249.640 242.834 M294.635 245.335 C 287.161 249.466,285.433 259.634,291.214 265.473 C 292.718 266.992,297.224 269.810,296.642 268.868 C 296.490 268.622,295.718 268.114,294.927 267.738 C 286.185 263.590,286.030 250.802,294.662 245.930 C 296.659 244.803,297.215 244.351,296.500 244.435 C 296.335 244.455,295.496 244.860,294.635 245.335 M271.935 249.025 C 273.042 252.310,273.293 259.186,272.438 262.800 C 271.362 267.353,267.213 274.549,266.071 273.844 C 265.373 273.412,265.459 273.144,267.121 270.562 C 270.630 265.114,272.344 256.275,270.847 251.360 C 269.666 247.484,269.528 246.841,269.787 246.422 C 270.356 245.500,271.017 246.302,271.935 249.025 M241.823 248.419 C 234.079 252.282,235.712 264.641,244.071 265.432 L 245.800 265.595 243.998 265.064 C 239.261 263.668,236.782 260.147,237.331 255.600 C 238.527 245.706,253.104 245.468,253.895 255.329 C 254.345 260.936,252.302 263.989,247.313 265.163 C 245.915 265.492,245.890 265.523,246.974 265.560 C 249.780 265.656,253.414 262.732,254.343 259.631 C 256.697 251.776,248.968 244.854,241.823 248.419 M222.949 267.759 C 229.762 281.762,247.816 286.474,260.462 277.549 C 261.732 276.653,262.800 276.578,262.800 277.385 C 262.800 278.161,258.761 280.841,256.000 281.898 C 251.743 283.527,250.586 283.736,245.800 283.736 C 243.095 283.736,240.302 283.519,239.400 283.238 C 230.102 280.345,223.826 274.897,220.575 266.898 C 219.911 265.263,219.768 264.479,220.070 264.115 C 220.705 263.351,220.965 263.681,222.949 267.759 M116.432 267.313 C 116.299 270.300,123.869 278.828,129.000 281.473 C 130.560 282.277,130.034 281.805,126.534 279.259 C 121.664 275.717,118.189 271.467,116.676 267.200 C 116.511 266.735,116.456 266.761,116.432 267.313 M296.217 270.600 C 295.939 271.783,295.412 273.435,294.813 275.000 C 294.003 277.118,293.645 277.935,292.800 279.600 C 290.630 283.872,290.778 283.692,289.652 283.435 C 289.073 283.303,287.970 283.109,287.200 283.003 L 285.800 282.812 287.200 283.243 C 287.970 283.480,289.000 283.831,289.490 284.024 C 291.175 284.686,297.524 272.167,296.671 269.865 C 296.576 269.609,296.372 269.940,296.217 270.600 M131.000 282.654 C 133.032 284.252,140.962 287.803,146.800 289.729 C 155.807 292.702,174.042 296.428,172.744 295.030 C 172.603 294.879,171.073 294.587,169.344 294.381 C 164.599 293.817,156.942 292.332,153.100 291.230 C 152.275 290.994,151.015 290.635,150.300 290.433 C 144.949 288.923,135.171 284.882,132.345 283.011 C 130.669 281.902,129.725 281.652,131.000 282.654 M279.533 283.565 C 273.096 286.782,270.324 293.125,272.542 299.562 L 273.112 301.218 271.456 302.187 C 268.416 303.967,262.318 306.388,259.371 306.984 C 258.228 307.215,258.077 307.105,257.198 305.397 C 255.790 302.658,251.410 299.138,249.516 299.223 C 249.232 299.236,249.900 299.663,251.000 300.173 C 253.354 301.263,255.262 303.057,256.916 305.734 C 258.327 308.019,259.088 308.042,264.300 305.960 C 271.023 303.273,273.809 301.556,273.240 300.450 C 270.117 294.385,273.930 285.959,280.882 283.558 C 282.268 283.079,282.655 282.827,282.000 282.829 C 281.450 282.831,280.340 283.162,279.533 283.565 M218.657 292.276 C 218.509 292.424,217.536 292.678,216.494 292.841 C 215.452 293.003,213.520 293.332,212.200 293.572 C 210.880 293.811,208.385 294.176,206.656 294.381 C 204.927 294.587,203.397 294.875,203.256 295.022 C 202.870 295.425,207.546 294.858,213.544 293.774 C 219.823 292.639,219.590 292.564,219.636 295.724 C 219.670 298.039,219.698 298.111,220.067 296.826 C 220.692 294.647,219.650 291.283,218.657 292.276 M176.000 295.612 C 177.650 295.768,180.800 295.889,183.000 295.882 L 187.000 295.868 183.000 295.581 C 180.800 295.423,177.650 295.302,176.000 295.312 L 173.000 295.329 176.000 295.612 M192.600 295.600 L 189.000 295.849 193.000 295.872 C 195.200 295.885,198.350 295.768,200.000 295.612 L 203.000 295.329 199.600 295.340 C 197.730 295.346,194.580 295.463,192.600 295.600 M218.963 299.609 C 218.342 301.633,218.497 301.812,222.531 303.751 C 230.899 307.770,233.882 308.407,234.765 306.364 C 235.866 303.819,238.236 301.468,241.000 300.179 C 242.100 299.666,242.773 299.236,242.496 299.223 C 240.435 299.129,235.922 302.858,234.508 305.824 C 233.569 307.793,230.331 307.143,223.000 303.514 C 218.906 301.487,218.708 301.320,219.234 300.337 C 219.463 299.909,219.592 299.255,219.521 298.886 C 219.443 298.479,219.222 298.765,218.963 299.609 M244.200 298.806 C 243.316 299.027,243.782 299.118,245.967 299.153 C 247.598 299.179,248.858 299.135,248.767 299.056 C 248.359 298.703,245.289 298.535,244.200 298.806 M96.381 340.400 C 96.357 340.950,96.246 341.175,96.135 340.900 C 96.024 340.625,95.738 340.400,95.500 340.400 C 95.262 340.400,95.168 340.501,95.291 340.625 C 95.589 340.922,93.991 342.589,93.091 342.921 C 92.123 343.277,91.777 344.351,92.340 345.253 C 92.597 345.664,92.669 346.000,92.501 346.000 C 91.977 346.000,91.179 348.231,91.342 349.239 C 91.435 349.817,91.751 350.179,92.133 350.147 C 92.483 350.118,92.754 350.208,92.737 350.347 C 92.586 351.554,92.876 353.600,93.172 353.417 C 93.377 353.291,93.664 353.381,93.811 353.617 C 93.983 353.897,94.253 353.807,94.577 353.363 C 94.972 352.823,95.146 352.789,95.401 353.201 C 95.614 353.546,95.567 353.627,95.262 353.438 C 95.008 353.281,94.800 353.309,94.800 353.499 C 94.800 353.690,95.205 354.025,95.700 354.244 C 96.195 354.463,96.375 354.593,96.100 354.534 C 95.504 354.404,95.469 354.779,96.000 355.600 C 96.345 356.133,96.389 356.133,96.400 355.600 C 96.408 355.210,96.515 355.154,96.706 355.440 C 97.107 356.040,98.981 357.017,98.625 356.440 C 98.475 356.198,98.543 356.000,98.776 356.000 C 99.009 356.000,99.200 356.141,99.200 356.314 C 99.200 356.487,99.560 356.629,100.000 356.629 C 100.440 356.629,100.800 356.487,100.800 356.314 C 100.800 356.141,100.991 356.000,101.224 356.000 C 101.457 356.000,101.546 356.163,101.423 356.363 C 101.300 356.562,101.559 356.631,101.999 356.516 C 102.440 356.401,102.800 356.153,102.800 355.966 C 102.800 355.778,103.077 355.732,103.416 355.862 C 103.789 356.005,103.987 355.902,103.916 355.602 C 103.852 355.329,104.151 355.048,104.580 354.977 C 105.010 354.905,105.681 354.432,106.072 353.924 C 106.462 353.416,106.794 353.180,106.809 353.400 C 106.833 353.774,107.988 350.836,107.988 350.400 C 107.988 350.290,107.813 350.470,107.600 350.800 C 107.306 351.256,107.211 351.271,107.206 350.863 C 107.203 350.567,107.541 350.236,107.958 350.127 C 108.641 349.948,108.662 349.826,108.172 348.880 C 107.700 347.971,107.714 347.737,108.276 347.116 C 108.703 346.644,108.759 346.400,108.438 346.400 C 108.171 346.400,108.071 346.208,108.217 345.973 C 108.375 345.717,108.184 345.597,107.740 345.673 C 107.175 345.770,107.010 345.563,107.044 344.800 C 107.067 344.250,106.752 343.509,106.344 343.153 C 105.504 342.423,105.338 341.802,106.100 342.241 C 106.375 342.399,106.169 342.056,105.642 341.477 C 105.115 340.898,104.562 340.500,104.413 340.592 C 104.264 340.684,103.706 340.537,103.171 340.265 C 101.991 339.664,100.294 339.504,100.615 340.024 C 100.743 340.231,100.466 340.400,100.000 340.400 C 99.534 340.400,99.250 340.243,99.369 340.050 C 99.488 339.858,99.146 339.700,98.609 339.700 C 98.073 339.700,97.647 339.813,97.664 339.950 C 97.765 340.773,97.527 340.856,97.013 340.176 C 96.445 339.426,96.424 339.433,96.381 340.400 " stroke="none" fill="#73739b" fill-rule="evenodd"></path><path id="path4" d="M327.200 43.672 C 326.650 43.902,325.517 44.371,324.682 44.714 C 323.846 45.057,322.766 45.682,322.282 46.103 C 321.797 46.524,320.907 47.258,320.304 47.734 C 319.701 48.210,319.206 48.785,319.204 49.012 C 319.202 49.238,318.840 49.683,318.400 50.000 C 317.960 50.317,317.600 50.897,317.600 51.288 C 317.600 51.680,317.420 52.000,317.200 52.000 C 316.980 52.000,316.800 52.360,316.800 52.800 C 316.800 53.240,316.620 53.600,316.400 53.600 C 316.180 53.600,316.000 54.129,316.000 54.776 C 316.000 55.423,315.820 56.064,315.600 56.200 C 315.379 56.336,315.200 58.130,315.200 60.200 C 315.200 62.270,315.379 64.064,315.600 64.200 C 315.820 64.336,316.000 64.977,316.000 65.624 C 316.000 66.271,316.180 66.800,316.400 66.800 C 316.620 66.800,316.800 67.160,316.800 67.600 C 316.800 68.040,316.980 68.400,317.200 68.400 C 317.420 68.400,317.600 68.638,317.600 68.929 C 317.600 69.629,321.882 74.000,322.568 74.000 C 322.862 74.000,323.326 74.270,323.600 74.600 C 323.874 74.930,324.526 75.200,325.049 75.200 C 325.572 75.200,326.000 75.380,326.000 75.600 C 326.000 75.820,326.619 76.000,327.376 76.000 C 328.133 76.000,328.864 76.180,329.000 76.400 C 329.136 76.620,330.497 76.800,332.024 76.800 C 333.608 76.800,334.800 76.628,334.800 76.400 C 334.800 76.180,335.520 76.000,336.400 76.000 C 337.280 76.000,338.000 75.820,338.000 75.600 C 338.000 75.380,338.364 75.200,338.808 75.200 C 340.514 75.200,344.771 71.809,345.968 69.497 C 346.280 68.894,346.685 68.400,346.868 68.400 C 347.050 68.400,347.200 68.051,347.200 67.624 C 347.200 67.197,347.380 66.736,347.600 66.600 C 347.820 66.464,348.000 65.733,348.000 64.976 C 348.000 64.219,348.180 63.600,348.400 63.600 C 348.639 63.600,348.800 62.067,348.800 59.800 C 348.800 57.533,348.639 56.000,348.400 56.000 C 348.180 56.000,348.000 55.460,348.000 54.800 C 348.000 54.140,347.820 53.600,347.600 53.600 C 347.380 53.600,347.200 53.240,347.200 52.800 C 347.200 52.360,347.020 52.000,346.800 52.000 C 346.580 52.000,346.400 51.728,346.400 51.396 C 346.400 51.064,345.864 50.209,345.209 49.496 C 343.936 48.110,343.921 48.095,342.397 46.711 C 341.113 45.545,338.143 44.000,337.186 44.000 C 336.780 44.000,336.336 43.820,336.200 43.600 C 335.874 43.073,328.492 43.132,327.200 43.672 M306.000 47.600 C 306.000 47.820,305.717 48.000,305.371 48.000 C 302.770 48.000,302.856 54.940,305.474 56.335 C 308.752 58.081,312.800 55.686,312.800 52.000 C 312.800 49.159,310.859 47.200,308.046 47.200 C 306.921 47.200,306.000 47.380,306.000 47.600 M345.829 87.829 C 345.026 88.631,345.034 89.051,345.857 89.366 C 346.406 89.577,346.430 89.518,346.008 89.009 C 345.560 88.470,345.697 88.251,346.433 88.330 C 346.562 88.344,346.667 88.096,346.667 87.778 C 346.667 87.052,346.601 87.056,345.829 87.829 M347.283 87.416 C 347.398 87.531,347.877 87.699,348.347 87.790 C 349.614 88.034,350.080 88.415,349.848 89.020 C 349.722 89.347,349.846 89.480,350.161 89.360 C 351.424 88.875,350.384 87.402,348.709 87.304 C 347.810 87.251,347.168 87.302,347.283 87.416 M343.346 88.598 C 343.219 88.926,342.955 89.096,342.758 88.974 C 342.561 88.852,342.400 88.932,342.400 89.152 C 342.400 89.371,342.764 89.523,343.210 89.489 C 343.668 89.455,343.938 89.216,343.832 88.940 C 343.729 88.671,343.860 88.364,344.122 88.257 C 344.469 88.116,344.460 88.055,344.087 88.032 C 343.806 88.014,343.472 88.269,343.346 88.598 M351.394 88.645 C 351.888 89.006,351.918 89.163,351.521 89.302 C 351.235 89.402,351.498 89.488,352.107 89.492 C 352.716 89.496,353.319 89.330,353.447 89.123 C 353.576 88.916,353.347 88.804,352.940 88.873 C 352.533 88.943,352.232 88.814,352.271 88.586 C 352.311 88.358,351.984 88.171,351.545 88.171 C 350.831 88.171,350.815 88.222,351.394 88.645 M340.424 91.956 C 340.098 92.565,340.173 92.752,340.810 92.918 C 341.244 93.032,341.600 92.962,341.600 92.763 C 341.600 92.563,341.426 92.400,341.213 92.400 C 340.999 92.400,340.929 92.130,341.055 91.800 C 341.385 90.940,340.904 91.059,340.424 91.956 M354.800 91.856 C 354.800 92.217,355.072 92.712,355.405 92.956 C 356.259 93.583,356.515 95.200,355.761 95.200 C 355.274 95.200,355.260 95.300,355.684 95.760 C 356.342 96.474,356.534 96.272,356.650 94.742 C 356.709 93.970,356.455 93.196,355.972 92.678 C 355.384 92.047,355.319 91.772,355.699 91.530 C 356.057 91.303,356.000 91.211,355.500 91.206 C 355.115 91.203,354.800 91.495,354.800 91.856 M340.188 96.322 C 339.975 96.475,339.743 96.870,339.673 97.200 C 339.572 97.681,339.686 97.663,340.250 97.110 C 340.958 96.414,340.910 95.805,340.188 96.322 M353.969 100.867 C 353.715 101.976,353.735 102.436,354.046 102.628 C 354.251 102.755,354.394 102.711,354.363 102.530 C 354.177 101.462,354.413 101.000,354.837 101.600 C 355.182 102.088,355.232 102.093,355.105 101.625 C 354.969 101.122,354.051 100.509,353.969 100.867 M343.732 103.262 C 344.282 104.144,344.639 104.197,344.929 103.441 C 345.066 103.083,344.806 102.818,344.207 102.703 C 343.383 102.546,343.326 102.613,343.732 103.262 M350.287 103.882 C 350.396 104.167,350.657 104.400,350.866 104.400 C 351.076 104.400,351.145 104.235,351.021 104.034 C 350.897 103.833,351.021 103.581,351.298 103.475 C 351.574 103.369,351.415 103.300,350.944 103.323 C 350.417 103.348,350.164 103.563,350.287 103.882 M346.000 103.895 C 346.000 104.351,346.988 104.865,348.100 104.989 C 348.485 105.031,348.800 104.930,348.800 104.762 C 348.800 104.595,349.115 104.382,349.500 104.288 C 349.885 104.194,349.615 104.118,348.900 104.119 C 348.185 104.121,347.600 104.302,347.600 104.523 C 347.600 104.743,347.240 104.598,346.800 104.200 C 346.360 103.802,346.000 103.665,346.000 103.895 M54.600 236.000 C 54.464 236.220,54.003 236.400,53.576 236.400 C 53.149 236.400,52.800 236.580,52.800 236.800 C 52.800 237.020,52.440 237.200,52.000 237.200 C 51.560 237.200,51.200 237.368,51.200 237.573 C 51.200 237.778,50.843 238.059,50.407 238.198 C 48.813 238.704,43.045 245.600,44.216 245.600 C 44.323 245.600,44.138 246.252,43.805 247.049 C 43.112 248.709,42.953 255.800,43.600 256.200 C 43.820 256.336,44.000 256.977,44.000 257.624 C 44.000 258.271,44.136 258.800,44.302 258.800 C 44.469 258.800,44.861 259.385,45.175 260.100 C 45.489 260.815,46.028 261.619,46.373 261.887 C 46.718 262.155,46.859 262.380,46.687 262.387 C 46.208 262.407,49.111 265.200,49.610 265.200 C 49.851 265.200,49.936 265.380,49.800 265.600 C 49.664 265.820,49.798 266.000,50.097 266.000 C 50.851 266.000,52.793 266.935,52.797 267.300 C 52.799 267.465,53.261 267.600,53.824 267.600 C 54.404 267.600,54.740 267.773,54.600 268.000 C 54.446 268.250,55.255 268.400,56.753 268.400 C 58.073 268.400,59.274 268.596,59.422 268.835 C 59.615 269.148,59.812 269.148,60.125 268.835 C 60.364 268.596,61.604 268.400,62.880 268.400 C 64.160 268.400,65.200 268.221,65.200 268.000 C 65.200 267.780,65.647 267.600,66.192 267.600 C 66.884 267.600,67.258 267.327,67.425 266.700 C 67.558 266.205,68.506 265.194,69.533 264.454 C 82.121 255.379,73.679 234.283,58.230 236.214 C 56.690 236.406,56.000 236.354,56.000 236.046 C 56.000 235.492,54.936 235.457,54.600 236.000 M322.200 295.331 C 321.540 295.531,320.687 295.853,320.305 296.047 C 319.923 296.241,319.437 296.400,319.224 296.400 C 318.723 296.400,316.800 298.319,316.800 298.818 C 316.800 299.028,316.620 299.200,316.400 299.200 C 316.180 299.200,316.000 299.639,316.000 300.176 C 316.000 300.713,315.820 301.264,315.600 301.400 C 315.380 301.536,315.200 302.807,315.200 304.224 C 315.200 305.675,315.375 306.800,315.600 306.800 C 315.820 306.800,316.000 307.125,316.000 307.522 C 316.000 308.345,318.467 311.200,319.178 311.200 C 319.436 311.200,319.560 311.342,319.452 311.515 C 319.345 311.688,319.740 311.870,320.329 311.919 C 320.918 311.967,321.460 312.185,321.533 312.403 C 321.709 312.926,326.800 312.922,326.800 312.400 C 326.800 312.180,327.160 312.000,327.600 312.000 C 328.040 312.000,328.400 311.864,328.400 311.698 C 328.400 311.531,328.940 311.156,329.600 310.864 C 330.260 310.572,330.800 310.112,330.800 309.842 C 330.800 309.572,331.160 308.964,331.600 308.492 C 332.483 307.545,332.836 300.400,332.000 300.400 C 331.780 300.400,331.600 300.096,331.600 299.725 C 331.600 298.535,327.975 295.604,326.500 295.602 C 325.785 295.601,325.200 295.422,325.200 295.204 C 325.200 294.751,323.944 294.804,322.200 295.331 M99.400 340.000 C 99.264 340.220,99.534 340.400,100.000 340.400 C 100.466 340.400,100.736 340.220,100.600 340.000 C 100.464 339.780,100.194 339.600,100.000 339.600 C 99.806 339.600,99.536 339.780,99.400 340.000 M94.500 341.065 C 94.225 341.176,94.000 341.532,94.000 341.857 C 94.000 342.182,93.840 342.349,93.645 342.228 C 93.450 342.107,93.065 342.281,92.789 342.614 C 91.957 343.616,93.638 342.831,94.681 341.730 C 95.544 340.819,95.501 340.661,94.500 341.065 M105.600 342.347 C 105.600 342.499,105.954 342.879,106.388 343.191 C 106.920 343.575,107.104 344.043,106.955 344.636 C 106.723 345.559,107.366 346.302,107.796 345.607 C 107.934 345.383,107.857 345.200,107.624 345.200 C 107.391 345.200,107.200 345.009,107.200 344.776 C 107.200 344.543,107.399 344.476,107.643 344.626 C 108.151 344.941,107.743 343.249,107.159 342.624 C 106.731 342.166,105.600 341.965,105.600 342.347 M91.673 345.854 C 91.049 346.529,91.188 347.691,91.910 347.837 C 92.191 347.894,92.246 347.852,92.032 347.744 C 91.607 347.529,91.924 346.346,92.514 345.950 C 92.718 345.813,92.731 345.606,92.543 345.492 C 92.354 345.378,91.963 345.540,91.673 345.854 M108.095 347.300 C 107.852 347.601,107.828 348.158,108.033 348.700 C 108.456 349.815,108.770 349.863,108.690 348.800 C 108.657 348.360,108.466 348.000,108.266 348.000 C 108.066 348.000,108.126 347.730,108.400 347.400 C 108.674 347.070,108.808 346.800,108.698 346.800 C 108.588 346.800,108.317 347.025,108.095 347.300 M92.368 350.100 C 92.163 350.729,92.244 352.539,92.493 352.916 C 92.674 353.189,92.776 352.661,92.728 351.700 C 92.657 350.275,92.515 349.645,92.368 350.100 M107.559 350.100 C 107.351 350.614,107.303 353.230,107.506 353.027 C 107.773 352.760,107.980 350.000,107.732 350.000 C 107.659 350.000,107.582 350.045,107.559 350.100 M94.541 353.410 C 94.360 353.881,94.180 353.915,93.753 353.561 C 93.424 353.288,93.200 353.264,93.200 353.502 C 93.200 354.136,94.320 354.896,94.809 354.594 C 95.083 354.425,95.205 354.588,95.127 355.018 C 95.057 355.403,95.244 355.802,95.542 355.906 C 95.935 356.043,96.010 355.862,95.816 355.250 C 95.629 354.661,95.707 354.441,96.074 354.524 C 96.363 354.589,96.195 354.463,95.700 354.244 C 95.205 354.025,94.800 353.690,94.800 353.499 C 94.800 353.309,95.008 353.281,95.262 353.438 C 95.548 353.615,95.615 353.548,95.438 353.262 C 95.055 352.642,94.821 352.680,94.541 353.410 M105.956 354.011 C 105.650 354.469,105.080 354.891,104.689 354.947 C 103.950 355.054,103.680 355.693,104.289 355.896 C 104.726 356.042,107.020 353.687,106.727 353.393 C 106.609 353.275,106.262 353.553,105.956 354.011 M96.400 355.771 C 96.400 356.454,96.468 356.488,98.100 356.603 C 98.705 356.646,99.200 356.515,99.200 356.313 C 99.200 356.111,98.859 356.054,98.442 356.187 C 98.000 356.327,97.417 356.160,97.042 355.785 C 96.464 355.207,96.400 355.206,96.400 355.771 M102.800 355.977 C 102.800 356.321,102.475 356.405,101.800 356.236 C 101.250 356.098,100.800 356.129,100.800 356.305 C 100.800 356.793,102.724 356.847,103.020 356.367 C 103.163 356.136,103.172 355.839,103.040 355.707 C 102.908 355.575,102.800 355.696,102.800 355.977 " stroke="none" fill="#e4c03f" fill-rule="evenodd"></path></g></svg>